<?xml version="1.0" encoding="UTF-8"?>
<!DOCTYPE svg PUBLIC "-//W3C//DTD SVG 1.1//EN" "http://www.w3.org/Graphics/SVG/1.1/DTD/svg11.dtd">
<!-- Creator: CorelDRAW 2020 (64-Bit Evaluation Version) -->
<svg xmlns="http://www.w3.org/2000/svg" xml:space="preserve" width="42.3333mm" height="42.3333mm" version="1.1" style="shape-rendering:geometricPrecision; text-rendering:geometricPrecision; image-rendering:optimizeQuality; fill-rule:evenodd; clip-rule:evenodd"
viewBox="0 0 983.16 983.16"
 xmlns:xlink="http://www.w3.org/1999/xlink"
 xmlns:xodm="http://www.corel.com/coreldraw/odm/2003">
 <defs>
  <style type="text/css">
   <![CDATA[
    .fil0 {fill:none}
    .fil1 {fill:#333333;fill-rule:nonzero}
    .fil2 {fill:#4D4D4D;fill-rule:nonzero}
   ]]>
  </style>
 </defs>
 <g id="Layer_x0020_1">
  <metadata id="CorelCorpID_0Corel-Layer"/>
  <rect class="fil0" x="-0" y="-0" width="983.16" height="983.16"/>
  <g id="_2348985857328">
   <path class="fil1" d="M857.9 572.38c-28.7,42.03 -76.37,67.21 -127.3,67.21 -81.2,0 -148.52,-63.06 -153.81,-144.08 -55.23,-21.79 -111.1,-21.6 -170.45,0.58 -5.71,80.73 -72.81,143.36 -153.74,143.5 -48.48,0 -113.44,-54.48 -105.98,-42.37 20.9,30.88 70.15,54.41 108.28,54.41 81.43,0 146.09,-58.65 151.6,-138.7 59.35,-22.17 115.28,-22.39 170.45,-0.58 5.22,80.33 72.23,139.61 153.85,139.61 66.7,0 104.61,-50.94 127.11,-79.57z"/>
   <g>
    <path class="fil2" d="M376.88 485.41c0,-34.34 -13.92,-65.43 -36.42,-87.93 -22.5,-22.5 -53.59,-36.42 -87.93,-36.42 -34.34,0 -65.43,13.92 -87.93,36.42 -22.5,22.5 -36.42,53.59 -36.42,87.93 0,34.34 13.92,65.43 36.42,87.93 22.5,22.5 53.59,36.42 87.93,36.42 34.34,0 65.43,-13.92 87.93,-36.42 22.5,-22.5 36.42,-53.59 36.42,-87.93zm-15.31 -109.04c27.9,27.91 45.16,66.46 45.16,109.04 0,42.58 -17.26,81.14 -45.16,109.04 -27.91,27.9 -66.46,45.17 -109.04,45.17 -42.58,0 -81.13,-17.26 -109.04,-45.17 -27.91,-27.91 -45.17,-66.46 -45.17,-109.04 0,-42.58 17.26,-81.13 45.17,-109.04 27.91,-27.91 66.46,-45.17 109.04,-45.17 42.58,0 81.13,17.26 109.04,45.17z"/>
    <path class="fil2" d="M387.04 471.59c35.43,-14.35 70.73,-21.8 105.9,-21.93 35.18,-0.14 69.98,7.1 104.38,22.11l-11.9 27.29c-30.58,-13.35 -61.41,-19.78 -92.48,-19.66 -31.09,0.12 -62.66,6.85 -94.7,19.83l-11.2 -27.64z"/>
    <path class="fil2" d="M854.99 485.41c0,-34.34 -13.92,-65.43 -36.42,-87.93 -22.5,-22.5 -53.59,-36.42 -87.93,-36.42 -34.34,0 -65.43,13.92 -87.93,36.42 -22.5,22.5 -36.42,53.59 -36.42,87.93 0,34.34 13.92,65.43 36.42,87.93 22.5,22.5 53.59,36.42 87.93,36.42 34.34,0 65.43,-13.92 87.93,-36.42 22.5,-22.5 36.42,-53.59 36.42,-87.93zm-15.31 -109.04c27.91,27.91 45.17,66.46 45.17,109.04 0,42.58 -17.26,81.14 -45.17,109.04 -27.91,27.91 -66.46,45.17 -109.04,45.17 -42.58,0 -81.14,-17.26 -109.04,-45.17 -27.91,-27.91 -45.17,-66.46 -45.17,-109.04 0,-42.58 17.26,-81.13 45.17,-109.04 27.91,-27.91 66.46,-45.17 109.04,-45.17 42.58,0 81.13,17.26 109.04,45.17z"/>
   </g>
  </g>
 </g>
</svg>
