<?xml version="1.0" encoding="UTF-8"?>
<!DOCTYPE svg PUBLIC "-//W3C//DTD SVG 1.1//EN" "http://www.w3.org/Graphics/SVG/1.1/DTD/svg11.dtd">
<!-- Creator: CorelDRAW 2020 (64-Bit Evaluation Version) -->
<svg xmlns="http://www.w3.org/2000/svg" xml:space="preserve" width="42.3333mm" height="42.3333mm" version="1.1" style="shape-rendering:geometricPrecision; text-rendering:geometricPrecision; image-rendering:optimizeQuality; fill-rule:evenodd; clip-rule:evenodd"
viewBox="0 0 983.16 983.16"
 xmlns:xlink="http://www.w3.org/1999/xlink"
 xmlns:xodm="http://www.corel.com/coreldraw/odm/2003">
 <defs>
  <style type="text/css">
   <![CDATA[
    .fil0 {fill:none}
    .fil1 {fill:#592D3D;fill-rule:nonzero}
   ]]>
  </style>
 </defs>
 <g id="Layer_x0020_1">
  <metadata id="CorelCorpID_0Corel-Layer"/>
  <rect class="fil0" x="-0" y="-0" width="983.16" height="983.16"/>
  <g id="_2348999177712">
   <path class="fil1" d="M241.12 491.58c0,-21.81 -8.84,-41.55 -23.13,-55.84 -14.29,-14.29 -34.03,-23.13 -55.84,-23.13 -21.81,0 -41.55,8.84 -55.84,23.13 -14.29,14.29 -23.13,34.03 -23.13,55.84 0,21.81 8.84,41.55 23.13,55.84 14.29,14.29 34.03,23.13 55.84,23.13 21.81,0 41.55,-8.84 55.84,-23.13 14.29,-14.29 23.13,-34.03 23.13,-55.84zm0.94 -79.9c20.45,20.45 33.1,48.7 33.1,79.9 0,31.2 -12.65,59.45 -33.1,79.9 -20.45,20.45 -48.7,33.1 -79.9,33.1 -31.2,0 -59.45,-12.65 -79.9,-33.1 -20.45,-20.45 -33.1,-48.7 -33.1,-79.9 0,-31.2 12.65,-59.45 33.1,-79.9 20.45,-20.45 48.7,-33.1 79.9,-33.1 31.2,0 59.45,12.65 79.9,33.1z"/>
   <path class="fil1" d="M899.97 491.58c0,-21.81 -8.84,-41.55 -23.13,-55.84 -14.29,-14.29 -34.03,-23.13 -55.84,-23.13 -21.81,0 -41.55,8.84 -55.84,23.13 -14.29,14.29 -23.13,34.03 -23.13,55.84 0,21.81 8.84,41.55 23.13,55.84 14.29,14.29 34.03,23.13 55.84,23.13 21.81,0 41.55,-8.84 55.84,-23.13 14.29,-14.29 23.13,-34.03 23.13,-55.84zm0.94 -79.9c20.45,20.45 33.1,48.7 33.1,79.9 0,31.2 -12.65,59.45 -33.1,79.9 -20.45,20.45 -48.7,33.1 -79.9,33.1 -31.2,0 -59.45,-12.65 -79.9,-33.1 -20.45,-20.45 -33.1,-48.7 -33.1,-79.9 0,-31.2 12.65,-59.45 33.1,-79.9 20.45,-20.45 48.7,-33.1 79.9,-33.1 31.2,0 59.45,12.65 79.9,33.1z"/>
   <path class="fil1" d="M252.39 475.63c162.14,-58.13 321.65,-58.13 478.51,0l-11.7 31.91c-149.28,-55.32 -301.07,-55.32 -455.38,0l-11.43 -31.91z"/>
  </g>
 </g>
</svg>
