<?xml version="1.0" encoding="UTF-8"?>
<!DOCTYPE svg PUBLIC "-//W3C//DTD SVG 1.1//EN" "http://www.w3.org/Graphics/SVG/1.1/DTD/svg11.dtd">
<!-- Creator: CorelDRAW 2020 (64-Bit Evaluation Version) -->
<svg xmlns="http://www.w3.org/2000/svg" xml:space="preserve" width="42.3333mm" height="42.3333mm" version="1.1" style="shape-rendering:geometricPrecision; text-rendering:geometricPrecision; image-rendering:optimizeQuality; fill-rule:evenodd; clip-rule:evenodd"
viewBox="0 0 983.16 983.16"
 xmlns:xlink="http://www.w3.org/1999/xlink"
 xmlns:xodm="http://www.corel.com/coreldraw/odm/2003">
 <defs>
  <style type="text/css">
   <![CDATA[
    .fil0 {fill:none}
    .fil1 {fill:black;fill-rule:nonzero}
    .fil2 {fill:#592D3D;fill-rule:nonzero}
    .fil3 {fill:white;fill-rule:nonzero}
   ]]>
  </style>
 </defs>
 <g id="Layer_x0020_1">
  <metadata id="CorelCorpID_0Corel-Layer"/>
  <rect class="fil0" x="-0" y="-0" width="983.16" height="983.16"/>
  <g id="_2348999154720">
   <path class="fil1" d="M851.24 608.33c17.82,-29.8 32.02,-61.77 42.07,-95.03 -27.57,57.17 -79.72,104.7 -147.33,104.7 -94.13,-0.15 -170.45,-76.47 -170.53,-170.59 0,-0.15 0,-0.33 0,-0.48 0,-21.89 4.27,-43.58 12.52,-63.84l316.05 -0.01c6.93,17 11.08,35.08 12.19,53.4 1.17,-12.8 1.79,-25.9 1.79,-39.06 -0,-15.47 -0.9,-31.02 -2.53,-46.37l-304.17 -0.01 0 0 -242.9 0 0 0 -301.2 0c-1.63,15.36 -2.53,30.92 -2.53,46.37 0,7.57 0.23,15.07 0.61,22.54 2.04,-12.62 5.52,-25.02 10.36,-36.86l316.06 -0.01c8.25,20.35 12.52,42.19 12.52,64.17 0,94.2 -76.36,170.63 -170.56,170.67 -62.06,0 -110.08,-41.32 -139.93,-91 10.06,29.45 23.42,57.93 39.63,84.53 31.02,19.31 61.18,38.47 100.32,38.47 111.77,-0.14 202.38,-90.73 202.53,-202.5 0,-2.9 0,-5.77 -0.19,-8.64 37.4,-13.16 72.81,-13.36 107.66,-0.58 -0.13,3.05 -0.22,6.13 -0.22,9.21 0.12,111.8 90.73,202.41 202.54,202.54 41.26,0 73.25,-20.39 105.24,-41.63zm-303.49 -202.56c-37.43,-12.08 -76.2,-11.87 -115.69,0.62 -1.61,-7.85 -3.72,-15.71 -6.28,-23.31l128.11 0c-2.5,7.39 -4.55,15.01 -6.14,22.67l-0.01 0.01z"/>
   <path class="fil2" d="M65.22 349.21c0,0 0.66,51.55 0.66,80.3 0,103.02 64.75,186.55 167.79,186.55 103.04,-0.05 186.55,-83.6 186.55,-186.63 0,-27.75 -6.2,-55.18 -18.11,-80.23l-336.88 0.01z"/>
   <path class="fil2" d="M577.58 349.21c-11.92,25.03 -18.12,52.46 -18.12,80.21 0,103.03 83.51,186.59 186.54,186.63 103.04,0 172.01,-83.53 172.01,-186.55 0,-28.79 -3.56,-80.3 -3.56,-80.3l-336.87 0z"/>
   <path class="fil3" d="M203.43 600.4l196.85 -196.87c-4.3,-9.75 -9.72,-19.03 -16,-27.63l-208.49 208.53c8.6,6.27 17.9,11.64 27.65,15.96l-0.01 0z"/>
   <path class="fil2" d="M414.75 394.72c25.42,-10.33 50.82,-15.68 76.21,-15.77 25.4,-0.09 50.51,5.14 75.32,15.96l-12.75 29.24c-20.73,-9.04 -41.59,-13.41 -62.58,-13.34 -21,0.07 -42.41,4.66 -64.21,13.52l-12 -29.62z"/>
   <path class="fil3" d="M130.3 405.08c3.3,10.41 -9.5,18.41 -19.1,20.01 -9.6,0 -15.99,-6.4 -19.19,-14.4 -1.6,-8 0,-15.99 6.4,-20.79 8,-3.2 19.19,-6.4 26.3,1.79 3.58,3.52 5.6,8.33 5.6,13.35 0,0.01 0,0.03 0,0.04l-0 0z"/>
   <path class="fil3" d="M147.45 398.97c-0.98,6.93 -10.57,6.93 -12.17,0.53 0,-4.8 1.6,-6.4 6.14,-6.56 3.33,0 6.03,2.7 6.03,6.03l0 0z"/>
   <path class="fil3" d="M723.58 587.69l170 -169.99c-0.93,-6.06 -2.23,-12.06 -3.86,-17.94l-184.04 184.08c5.86,1.64 11.88,2.94 17.91,3.85l-0.01 0z"/>
   <path class="fil3" d="M636.39 406.65c3.3,10.41 -9.5,18.41 -19.1,20.01 -9.6,0 -15.99,-6.4 -19.19,-14.4 -1.6,-8 0,-15.99 6.4,-20.79 8,-3.2 19.19,-6.4 26.31,1.79 3.57,3.51 5.58,8.31 5.58,13.33 0,0.02 0,0.04 0,0.06z"/>
   <path class="fil3" d="M653.46 400.54c-0.98,6.93 -10.57,6.93 -12.17,0.53 0,-4.8 1.6,-6.4 6.16,-6.56 0,0 0,0 0,0 3.32,0 6.02,2.69 6.02,6.02 0,0 0,0.01 0,0.01l0 0z"/>
   <path class="fil2" d="M81.05 365.14c-0.06,17.18 -0.01,44.73 0.76,63.74 2.01,49.72 17.96,94.37 46.06,125.61 25.4,28.24 61.12,45.57 105.8,45.57l0 0.06c47.1,-0.02 89.74,-19.13 120.6,-50.01 30.86,-30.87 49.95,-73.54 49.95,-120.69 0,-12.83 -1.4,-25.45 -4.15,-37.62 -2.04,-9.03 -4.85,-17.95 -8.4,-26.67l-310.62 0.01zm-31.11 64.99c-1.21,-29.76 -0.66,-80.9 -0.65,-81.05l0.16 -15.81 362.77 -0.01 4.31 9.06c6.42,13.49 11.33,27.74 14.65,42.47 3.33,14.74 5.03,29.71 5.03,44.62 0,55.89 -22.67,106.52 -59.32,143.18 -36.65,36.66 -87.28,59.35 -143.22,59.38l0 0.06c-54.45,0 -98.22,-21.36 -129.54,-56.19 -33.11,-36.81 -51.87,-88.6 -54.18,-145.73z"/>
   <path class="fil2" d="M588.01 365.14c-3.56,8.71 -6.36,17.63 -8.4,26.66 -2.75,12.17 -4.15,24.79 -4.15,37.63 0,47.15 19.09,89.81 49.95,120.69 30.86,30.88 73.5,49.99 120.6,50.01l0 -0.06c45.85,0 84.16,-17.89 111.25,-47.09 28.44,-30.67 44.77,-73.95 44.77,-122.36 0,-19.01 -1.53,-47.99 -2.57,-65.46l-311.44 0zm-39.52 19.66c3.33,-14.73 8.24,-28.98 14.65,-42.46l4.32 -9.06c120.65,-0.01 241.3,-0 361.94,-0l0.98 14.93c0.01,0.15 3.63,53.56 3.63,82.4 0,56.55 -19.47,107.54 -53.39,144.11 -32.98,35.55 -79.36,57.34 -134.62,57.34l0 -0.06c-55.93,-0.03 -106.57,-22.72 -143.21,-59.38 -36.65,-36.67 -59.32,-87.29 -59.32,-143.18 0,-14.92 1.7,-29.89 5.03,-44.63z"/>
   <polygon class="fil2" points="368.41,333.2 611.26,333.2 611.26,365.19 368.41,365.19 "/>
  </g>
 </g>
</svg>
