<?xml version="1.0" encoding="UTF-8"?>
<!DOCTYPE svg PUBLIC "-//W3C//DTD SVG 1.1//EN" "http://www.w3.org/Graphics/SVG/1.1/DTD/svg11.dtd">
<!-- Creator: CorelDRAW 2020 (64-Bit Evaluation Version) -->
<svg xmlns="http://www.w3.org/2000/svg" xml:space="preserve" width="42.3333mm" height="42.3333mm" version="1.1" style="shape-rendering:geometricPrecision; text-rendering:geometricPrecision; image-rendering:optimizeQuality; fill-rule:evenodd; clip-rule:evenodd"
viewBox="0 0 983.16 983.16"
 xmlns:xlink="http://www.w3.org/1999/xlink"
 xmlns:xodm="http://www.corel.com/coreldraw/odm/2003">
 <defs>
  <style type="text/css">
   <![CDATA[
    .fil0 {fill:none}
    .fil10 {fill:black;fill-rule:nonzero}
    .fil3 {fill:#592D3D;fill-rule:nonzero}
    .fil9 {fill:#666666;fill-rule:nonzero}
    .fil4 {fill:gray;fill-rule:nonzero}
    .fil5 {fill:#8D5638;fill-rule:nonzero}
    .fil2 {fill:#999999;fill-rule:nonzero}
    .fil6 {fill:#A56941;fill-rule:nonzero}
    .fil1 {fill:#B3B3B3;fill-rule:nonzero}
    .fil8 {fill:#E2E2E2;fill-rule:nonzero}
    .fil7 {fill:white;fill-rule:nonzero}
   ]]>
  </style>
 </defs>
 <g id="Layer_x0020_1">
  <metadata id="CorelCorpID_0Corel-Layer"/>
  <rect class="fil0" x="-0" y="-0" width="983.16" height="983.16"/>
  <g id="_2313927593008">
   <path class="fil1" d="M744.08 143.44c203.03,0 161.06,255.56 163.01,539.75l-163.01 0 0 -539.75z"/>
   <path class="fil2" d="M794.95 307.08l-50.87 85.3 25.46 290.81 71.05 0c1.72,-403.27 -45.63,-376.11 -45.63,-376.11z"/>
   <path class="fil3" d="M744.08 156.86l-13.42 0 0 -26.84 13.42 0c158.06,0 178.78,138.2 178.78,326.23 0,28.29 -0.59,62.24 -1.21,97.21 -0.73,42.01 -1.5,85.57 -1.2,129.68l0.09 13.47 -139.03 0 0 -26.84 112.13 0c-0.09,-39.82 0.6,-78.91 1.26,-116.73 0.56,-31.95 1.1,-62.96 1.1,-96.79 0,-172.56 -17.61,-299.38 -151.94,-299.38z"/>
   <path class="fil1" d="M243.26 143.44c-203.06,0 -161.07,255.56 -163.01,539.75l163.01 0 0 -539.75z"/>
   <path class="fil4" d="M201 307.08l50.94 85.3 -25.48 290.81 -70.98 0c-1.81,-403.27 45.52,-376.11 45.52,-376.11z"/>
   <path class="fil3" d="M243.26 130.01l13.42 0 0 26.84 -13.42 0c-134.33,0 -151.95,126.79 -151.95,299.31 0,33.84 0.55,64.86 1.11,96.83 0.66,37.84 1.35,76.93 1.26,116.77l112 0 0 26.84 -138.89 0 0.09 -13.47c0.3,-44.12 -0.46,-87.7 -1.2,-129.72 -0.61,-34.99 -1.21,-68.94 -1.21,-97.24 0,-187.99 20.73,-326.15 178.79,-326.15z"/>
   <path class="fil1" d="M765.27 839.78l-534.52 0c-16.4,-0.01 -29.69,-13.31 -29.69,-29.71 0,0 0,0 0,0l-0 -636.93c0,-0 0,-0 0,-0 0,-16.4 13.29,-29.7 29.69,-29.71l521.74 0c29.28,0 42.51,17.14 42.51,44.47l0 622.08c0,0.03 0,0.06 0,0.09 0,16.4 -13.3,29.71 -29.71,29.71 -0.01,0 -0.01,0 -0.02,0l-0 0z"/>
   <path class="fil4" d="M786.7 161.11c-2.22,-2.73 -4.12,-5.75 -5.62,-8.95 -5.37,-4.21 -11.76,-6.92 -18.52,-7.85 -3.27,-0.51 -6.58,-0.76 -9.89,-0.76 -0.06,0 -0.13,0 -0.18,0l-521.74 0c-16.35,0.01 -29.62,13.24 -29.69,29.59 64.87,23.31 186.32,36.33 296.94,36.33 141.07,0 233.5,-20.91 288.69,-48.36z"/>
   <polygon class="fil3" points="230.75,130.29 752.49,130.07 752.49,156.81 230.75,157.03 "/>
   <path class="fil5" d="M230.75 839.78l260.88 0c-244.17,0 -225.74,-517.16 -290.57,-517.16l0 487.36c0,0.03 0,0.06 0,0.09 0,16.4 13.29,29.7 29.69,29.71l0 0z"/>
   <path class="fil3" d="M187.64 371.9c-0.43,-8.21 -0.25,-16.42 0.11,-24.61 0.36,-8.19 1.05,-16.44 1.93,-24.61 0.45,-4.12 0.89,-8.21 1.45,-12.33 0.56,-4.12 1.1,-8.21 1.9,-12.33 1.58,-8.51 4.29,-16.8 8.03,-24.61 3.74,7.81 6.46,16.09 8.04,24.6 0.81,4.12 1.39,8.21 1.9,12.33 0.51,4.12 1.01,8.21 1.45,12.33 0.85,8.21 1.52,16.42 1.9,24.61 0.38,8.19 0.56,16.42 0.13,24.61l-26.85 0z"/>
   <path class="fil3" d="M808.38 392.37l0 17.89 -0.05 0c0.33,42.55 0.49,81.13 0.49,115.14 0,34.04 -0.16,72.48 -0.49,114.72l0.05 0 0 169.95c0,11.87 -4.83,22.63 -12.63,30.44 -7.8,7.8 -18.58,12.63 -30.48,12.64l-534.52 0c-11.91,-0.01 -22.69,-4.84 -30.48,-12.64 -7.8,-7.81 -12.62,-18.57 -12.62,-30.44l0.05 0 0 -130.2 -0.05 0 0 -17.11 0.05 0c-0.31,-43.83 -0.47,-82.93 -0.47,-117.31 0,-34.3 0.16,-73.71 0.47,-118.25l-0.05 0 0 -55.3 26.84 0 0 55.3 -0.05 0.05c-0.24,34.7 -0.37,74.04 -0.37,118.2 0,44.07 0.12,83.11 0.37,117.26l0.05 0.05 0 17.11 -0.05 0 0 130.2 0.05 0c0,4.53 1.82,8.62 4.76,11.56 2.94,2.95 7.01,4.77 11.5,4.78l534.52 0c4.49,-0 8.56,-1.83 11.5,-4.78 2.94,-2.94 4.76,-7.03 4.76,-11.56l0 -169.95 0.05 -0.05c0.26,-33.24 0.38,-71.68 0.38,-114.67 0,-43.02 -0.13,-81.6 -0.38,-115.09l-0.05 -0.05 0 -17.89 26.84 0z"/>
   <path class="fil3" d="M781.53 392.37c-0.43,-9.33 -0.22,-18.68 0.13,-28.03 0.36,-9.35 1.05,-18.68 1.9,-28.03 0.45,-4.68 0.92,-9.35 1.45,-14.03 0.54,-4.68 1.1,-9.33 1.9,-14 1.55,-9.62 4.27,-19.05 8.03,-28.04 3.76,8.98 6.48,18.42 8.03,28.03 0.81,4.68 1.39,9.35 1.9,14 0.51,4.65 1.01,9.35 1.45,14.03 0.85,9.35 1.54,18.68 1.9,28.03 0.36,9.35 0.56,18.7 0.13,28.03l-26.85 0.01z"/>
   <path class="fil3" d="M516.06 412.19c0,46.51 -18.86,88.62 -49.35,119.1 -30.49,30.48 -72.61,49.34 -119.12,49.34 -46.51,0 -88.64,-18.86 -119.12,-49.35 -30.49,-30.49 -49.35,-72.61 -49.35,-119.12 0,-13.12 1.59,-26.31 4.7,-39.28 3.11,-12.98 7.69,-25.47 13.65,-37.18l23.91 12.16c-5.13,10.07 -9,20.55 -11.55,31.2 -2.56,10.65 -3.86,21.76 -3.86,33.09 0,39.1 15.86,74.51 41.49,100.14 25.63,25.63 61.04,41.49 100.14,41.49 39.1,0 74.51,-15.85 100.14,-41.48 25.63,-25.63 41.48,-61.02 41.48,-100.12l26.84 0z"/>
   <path class="fil6" d="M209.43 341.79c8.48,-16.54 19.86,-31.46 33.56,-44m-33.56 44l0 0 0 0z"/>
   <path class="fil3" d="M197.46 335.69c1.96,-4.65 4.51,-9.05 7.56,-13.07 3.01,-4.02 6.43,-7.78 10.13,-11.18 1.88,-1.7 3.78,-3.36 5.77,-4.9 1.98,-1.6 4.08,-3.04 6.29,-4.3 4.77,-2.75 10.15,-4.29 15.66,-4.47 -0.57,5.23 -1.9,10.37 -3.91,15.23 -0.87,2.24 -1.86,4.21 -2.89,6.2l-2.91 5.97c-1.9,3.94 -3.78,7.81 -5.7,11.61 -1.84,3.82 -3.92,7.59 -6.17,11.19l-23.83 -12.29z"/>
   <path class="fil6" d="M474.14 322.62c18.53,26.1 28.5,57.35 28.5,89.36 0,0.04 0,0.08 0,0.11m-28.5 -89.48l0 0 0 0z"/>
   <path class="fil6" d="M814.89 412.19c0,-0.06 0,-0.12 0,-0.17 0,-42.85 -17.79,-83.77 -49.08,-113.01m49.08 113.19l0 0 0 0z"/>
   <path class="fil3" d="M801.46 412.19c-0.36,-9.61 -1.33,-19.26 -2.81,-28.76 -1.57,-9.61 -3.92,-19.15 -6.99,-28.36 -0.76,-2.24 -1.66,-4.63 -2.48,-6.96 -0.83,-2.33 -1.88,-4.59 -2.8,-6.91 -0.92,-2.32 -2.1,-4.47 -3.09,-6.82l-3.27 -6.71c-4.47,-9.17 -9.33,-18.32 -14.23,-28.52 10.36,4.42 19.69,10.99 27.34,19.26 1.86,2.1 3.8,4.16 5.53,6.38 1.72,2.22 3.44,4.48 5.03,6.71 1.59,2.24 3.2,4.68 4.63,7.11 1.43,2.44 2.93,4.88 4.21,7.43 5.33,10.1 9.4,20.87 12.09,31.98 2.44,9.89 3.68,20.11 3.68,30.31 0,1.28 -0.03,2.6 -0.06,3.86l-26.77 0z"/>
   <path class="fil3" d="M518.09 412.04l-0.01 2.02 0.05 0c0,39.1 15.86,74.51 41.49,100.14 25.63,25.63 61.04,41.49 100.14,41.49 39.1,0 74.51,-15.86 100.14,-41.49 25.63,-25.63 41.49,-61.04 41.49,-100.14l0.05 0 -0.02 -1.75 26.74 -0.21 0.02 1.85 0.05 0.1c0,46.51 -18.86,88.63 -49.35,119.12 -30.49,30.49 -72.61,49.35 -119.12,49.35 -46.51,0 -88.63,-18.86 -119.12,-49.35 -30.49,-30.49 -49.35,-72.61 -49.35,-119.12l0.05 -0.1 0.01 -1.6 26.74 -0.32z"/>
   <path class="fil6" d="M533.29 322.62c-18.51,26.07 -28.48,57.33 -28.48,89.33 0,0.04 0,0.11 0,0.15m28.48 -89.48l0 0 0 0z"/>
   <polygon class="fil3" points="223.84,319.78 223.84,143.44 250.68,143.44 250.68,319.78 "/>
   <polygon class="fil3" points="745.11,319.78 745.11,143.44 771.96,143.44 771.96,319.78 "/>
   <path class="fil7" d="M806.94 412.19c0,-0.05 0,-0.16 0,-0.22 0,-39.19 -14.92,-76.93 -41.68,-105.54 -9.44,-10.11 -99.04,13.85 -151.69,60.98 -51.7,46.28 -96.71,121.89 -90.27,131.43 28.82,42.76 77.03,68.41 128.59,68.41 85.62,0 155.05,-69.43 155.05,-155.05 0,0 0,0 0,0l0 0z"/>
   <path class="fil3" d="M793.52 412.19l0 -0.22c0,-17.9 -3.4,-35.46 -9.86,-51.8 -6.5,-16.46 -16.01,-31.63 -28.16,-44.63l-0.05 0c-2.13,-2.28 -27.02,4.83 -57.99,17.28 -25.73,10.34 -53.7,25.49 -74.98,44.54 -22.3,19.96 -43.42,45.78 -59.4,69.04 -17.22,25.07 -29.29,44.01 -28.67,44.93 13.16,19.52 30.75,35.15 50.94,45.89 20.19,10.74 42.98,16.6 66.54,16.6 39.1,0 74.51,-15.86 100.14,-41.49 25.63,-25.63 41.49,-61.04 41.49,-100.14zm26.84 -0.22l0 0.22c0,46.51 -18.86,88.63 -49.35,119.12 -30.49,30.49 -72.61,49.35 -119.12,49.35 -28,0 -55.1,-6.97 -79.12,-19.74 -24.01,-12.77 -44.93,-31.36 -60.59,-54.59 -6.47,-9.58 5.59,-41.27 28.77,-75.02 16.95,-24.69 39.56,-52.26 63.69,-73.86 23.9,-21.39 54.7,-38.16 82.85,-49.47 40.75,-16.38 78.91,-19.94 87.56,-10.68l-0.03 0.03c14.61,15.62 25.94,33.63 33.58,52.99 7.69,19.47 11.74,40.37 11.74,61.66z"/>
   <path class="fil7" d="M717.49 344.03c-13.69,8.21 -27.18,16.06 -40.27,24.61 -12.9,8.2 -25.33,17.41 -37,27.26 -11.52,9.98 -22.62,20.85 -33.56,31.9 -10.94,11.05 -21.68,22.37 -33,33.71 6.88,-14.42 15.27,-28.07 25.02,-40.66 9.71,-12.76 20.8,-24.64 32.91,-35.18 12.33,-10.44 26.01,-19.29 40.6,-26.24 14.35,-7.04 29.62,-12.24 45.3,-15.39l-0.01 -0.01z"/>
   <path class="fil7" d="M189.08 412.19c0,-0.05 0,-0.16 0,-0.22 0,-39.19 14.92,-76.93 41.68,-105.54 9.44,-10.11 99.03,13.85 151.69,60.98 51.7,46.28 96.71,121.89 90.26,131.43 -28.81,42.76 -77.03,68.41 -128.59,68.41 -85.62,0 -155.05,-69.43 -155.05,-155.05 0,0 0,0 0,0l0 0z"/>
   <path class="fil3" d="M175.71 412.14l0 -0.17 -0.05 0c0,-21.28 4.05,-42.18 11.74,-61.66 7.64,-19.36 18.98,-37.36 33.58,-52.99l-0.03 -0.03c8.65,-9.27 46.82,-5.71 87.56,10.68 28.14,11.31 58.95,28.08 82.85,49.47 24.13,21.6 46.74,49.18 63.69,73.86 23.18,33.75 35.25,65.44 28.77,75.02 -15.66,23.23 -36.58,41.82 -60.59,54.59 -24.01,12.78 -51.11,19.74 -79.12,19.74 -46.51,0 -88.64,-18.86 -119.12,-49.35 -29.25,-29.25 -47.79,-69.2 -49.25,-113.47l-0.07 -0.07 0.01 -2.3c-0.02,-1.09 -0.03,-2.19 -0.03,-3.28l0.05 0 0 -0.05zm36.65 -51.97c-6.45,16.34 -9.86,33.9 -9.86,51.8l0 0.22c0,39.1 15.86,74.51 41.49,100.14 25.63,25.63 61.04,41.49 100.14,41.49 23.56,0 46.35,-5.86 66.53,-16.6 20.19,-10.74 37.79,-26.36 50.94,-45.89 0.62,-0.92 -11.45,-19.86 -28.67,-44.93 -15.97,-23.26 -37.1,-49.08 -59.39,-69.04 -21.28,-19.05 -49.25,-34.2 -74.98,-44.54 -30.97,-12.45 -55.87,-19.56 -57.99,-17.28l-0.05 0c-12.15,12.99 -21.66,28.16 -28.16,44.63z"/>
   <path class="fil8" d="M399.02 546.55c-105.44,-0 -190.95,-85.51 -190.95,-190.95 0,-0.01 0,-0.01 0,-0.01 0,-6.49 0.35,-13.05 0.99,-19.49 -13.09,23.21 -19.96,49.44 -19.96,76.1 0,85.62 69.43,155.05 155.05,155.05 28.32,0 56.14,-7.78 80.35,-22.45 -8.42,1.14 -16.96,1.75 -25.48,1.75l-0 0z"/>
   <path class="fil3" d="M175.71 412.14l0 -0.17 -0.05 0c0,-21.28 4.05,-42.18 11.74,-61.66 7.64,-19.36 18.98,-37.36 33.58,-52.99l-0.03 -0.03c8.65,-9.27 46.82,-5.71 87.56,10.68 28.14,11.31 58.95,28.08 82.85,49.47 24.13,21.6 46.74,49.18 63.69,73.86 23.18,33.75 35.25,65.44 28.77,75.02 -15.66,23.23 -36.58,41.82 -60.59,54.59 -24.01,12.78 -51.11,19.74 -79.12,19.74 -46.51,0 -88.64,-18.86 -119.12,-49.35 -29.25,-29.25 -47.79,-69.2 -49.25,-113.47l-0.07 -0.07 0.01 -2.3c-0.02,-1.09 -0.03,-2.19 -0.03,-3.28l0.05 0 0 -0.05zm36.65 -51.97c-6.45,16.34 -9.86,33.9 -9.86,51.8l0 0.22c0,39.1 15.86,74.51 41.49,100.14 25.63,25.63 61.04,41.49 100.14,41.49 23.56,0 46.35,-5.86 66.53,-16.6 20.19,-10.74 37.79,-26.36 50.94,-45.89 0.62,-0.92 -11.45,-19.86 -28.67,-44.93 -15.97,-23.26 -37.1,-49.08 -59.39,-69.04 -21.28,-19.05 -49.25,-34.2 -74.98,-44.54 -30.97,-12.45 -55.87,-19.56 -57.99,-17.28l-0.05 0c-12.15,12.99 -21.66,28.16 -28.16,44.63z"/>
   <path class="fil7" d="M278.53 344.03c15.68,3.14 30.95,8.34 45.31,15.36 14.58,6.96 28.24,15.83 40.56,26.27 12.06,10.55 23.1,22.37 32.77,35.14 9.78,12.59 18.16,26.25 25.01,40.64 -11.32,-11.18 -22.01,-22.66 -32.99,-33.71 -10.99,-11.05 -22.01,-21.92 -33.56,-31.9 -11.64,-9.83 -24.07,-19.04 -36.96,-27.24 -13.05,-8.5 -26.47,-16.35 -40.14,-24.56z"/>
   <path class="fil4" d="M895.75 473.69c0.47,-83.02 -2.71,-156.75 -17.29,-213.39 -22.53,-56.73 -63.04,-90.55 -134.38,-90.55l50.98 300.93c0,0 50.38,22.91 100.69,3.02z"/>
   <path class="fil3" d="M906.47 439.74l10.33 -8.55 17.09 20.66 -10.33 8.55c-1.46,1.21 -3.2,2.47 -5.2,3.79 -2.03,1.33 -3.89,2.43 -5.54,3.27l-11.96 6.08 -12.16 -23.91 11.96 -6.08c1.28,-0.65 2.29,-1.22 3.02,-1.7 0.77,-0.5 1.7,-1.21 2.79,-2.11z"/>
   <path class="fil9" d="M109.01 257.88c-15.28,57.2 -17.89,132.28 -17.31,216.99 44.52,19.1 112.79,-4.81 112.79,-4.81l38.77 -295.83c-69.06,-0.07 -110.22,31.03 -134.25,83.64z"/>
   <path class="fil7" d="M752.49 143.44l-121.27 0 0 0.23c0,-0.01 0,0.04 0,0.04 0,10.05 -1.1,20.1 -3.22,29.9 -1.02,4.77 -2.34,9.53 -3.88,14.16 -4.96,13.87 -12.57,26.68 -22.38,37.66 -3.13,3.51 -6.49,6.84 -10.06,9.91 -56.3,40.71 -145.79,42.95 -200.17,-1.3 -5.86,-5.1 -11.21,-10.81 -15.92,-17 -9.79,-12.87 -16.74,-27.69 -20.35,-43.43 -1.05,-4.86 -1.87,-9.8 -2.4,-14.75 -0.52,-4.96 -0.82,-10 -0.82,-15 0,-0.07 0,-0.13 0,-0.2l0 -0.22 -121.27 -0c-16.4,0.01 -29.69,13.31 -29.69,29.71 0,0 0,0 0,0l0 636.84c0,0.03 0,0.06 0,0.09 0,16.4 13.29,29.7 29.69,29.71l534.52 0c16.4,-0.01 29.69,-13.31 29.69,-29.71 0,0 0,0 0,0l0 -622.16c0,-27.33 -13.18,-44.47 -42.46,-44.47z"/>
   <path class="fil7" d="M744.08 143.44c142.14,0 164.2,125.27 165.32,297.91 -41.61,25.99 -109.41,2.93 -109.41,2.93l-55.9 -300.84z"/>
   <path class="fil8" d="M794.95 307.08l-50.87 85.3 25.46 290.81 25.97 0 0 -236.34 38.66 6.47c-12.69,-161.45 -39.21,-146.23 -39.21,-146.23z"/>
   <path class="fil7" d="M243.26 143.44c-138.21,0 -169.63,120.35 -171.92,285.58 42.5,44.43 129.75,10.25 129.75,10.25l42.17 -295.83z"/>
   <path class="fil8" d="M201 307.08l0 132.27 -38.72 9.64c12.69,-156.86 38.72,-141.92 38.72,-141.92z"/>
   <path class="fil3" d="M744.08 156.86l-13.42 0 0 -26.84 13.42 0c81.51,0 129.09,34.35 156.53,92.34 26.15,55.26 32.83,131.86 33.34,220.3l0.05 8.51 -7.7 3.66c-64,30.36 -131.21,1.91 -131.4,1.83l-12.37 -5.09 10.17 -24.75 12.38 5.09c0.16,0.06 51.26,21.69 102.07,2.02 -0.87,-81.12 -7.44,-150.88 -30.75,-200.13 -22.86,-48.31 -63.03,-76.92 -132.31,-76.92z"/>
   <path class="fil3" d="M243.26 130.01l13.42 0 0 26.84 -13.42 0c-68.81,0 -109.89,27.85 -133.84,75.05 -24.45,48.21 -32.24,116.65 -33.37,196.58 42.42,23.21 120.65,-1.85 120.89,-1.93l12.79 -4.04 8.08 25.58 -12.79 4.04c-0.28,0.09 -98.55,31.63 -150.23,-5.38l-5.62 -4.02 0.06 -6.99c0.78,-86.91 8.9,-161.92 36.29,-215.91 28.66,-56.5 77.15,-89.83 157.75,-89.83z"/>
   <path class="fil8" d="M230.75 839.78l260.88 0c-244.17,0 -225.74,-517.16 -290.57,-517.16l0 487.36c0,0.03 0,0.06 0,0.09 0,16.4 13.29,29.7 29.69,29.71l0 0z"/>
   <path class="fil3" d="M187.64 371.9c-0.43,-8.21 -0.25,-16.42 0.11,-24.61 0.36,-8.19 1.05,-16.44 1.93,-24.61 0.45,-4.12 0.89,-8.21 1.45,-12.33 0.56,-4.12 1.1,-8.21 1.9,-12.33 1.58,-8.51 4.29,-16.8 8.03,-24.61 3.73,7.79 6.45,16.09 8.01,24.6 0.83,4.12 1.41,8.21 1.92,12.33 0.52,4.12 1.01,8.21 1.45,12.33 0.85,8.21 1.52,16.42 1.9,24.61 0.38,8.19 0.56,16.42 0.13,24.61l-26.85 0z"/>
   <path class="fil3" d="M808.38 392.37l0 17.89 -0.05 0c0.33,42.55 0.49,81.13 0.49,115.14 0,34.04 -0.16,72.48 -0.49,114.72l0.05 0 0 169.95c0,11.87 -4.83,22.63 -12.63,30.44 -7.8,7.8 -18.58,12.63 -30.48,12.64l-534.52 0c-11.91,-0.01 -22.69,-4.84 -30.48,-12.64 -7.8,-7.81 -12.62,-18.57 -12.62,-30.44l0.05 0 0 -130.2 -0.05 0 0 -17.11 0.05 0c-0.31,-43.83 -0.47,-82.93 -0.47,-117.31 0,-34.3 0.16,-73.71 0.47,-118.25l-0.05 0 0 -55.3 26.84 0 0 55.3 -0.05 0.05c-0.24,34.7 -0.37,74.04 -0.37,118.2 0,44.07 0.12,83.11 0.37,117.26l0.05 0.05 0 17.11 -0.05 0 0 130.2 0.05 0c0,4.53 1.82,8.62 4.76,11.56 2.94,2.95 7.01,4.77 11.5,4.78l534.52 0c4.49,-0 8.56,-1.83 11.5,-4.78 2.94,-2.94 4.76,-7.03 4.76,-11.56l0 -169.95 0.05 -0.05c0.26,-33.24 0.38,-71.68 0.38,-114.67 0,-43.02 -0.13,-81.6 -0.38,-115.09l-0.05 -0.05 0 -17.89 26.84 0z"/>
   <path class="fil3" d="M781.53 392.37c-0.43,-9.33 -0.22,-18.68 0.13,-28.03 0.36,-9.35 1.05,-18.68 1.9,-28.03 0.45,-4.68 0.92,-9.35 1.45,-14.03 0.54,-4.68 1.1,-9.33 1.92,-14 1.54,-9.61 4.23,-19.06 8.01,-28.03 3.76,8.98 6.49,18.41 8.04,28.03 0.81,4.68 1.39,9.35 1.9,14 0.51,4.65 1.01,9.35 1.45,14.03 0.85,9.35 1.54,18.68 1.9,28.03 0.36,9.35 0.56,18.7 0.13,28.03l-26.85 0.01z"/>
   <polygon class="fil3" points="230.75,130.29 752.49,130.07 752.49,156.81 230.75,157.03 "/>
   <path class="fil3" d="M644.65 143.66l0 0.04c0,5.31 -0.31,10.79 -0.92,16.41 -0.6,5.6 -1.48,11.06 -2.62,16.33l-0.01 -0c-0.48,2.26 -1.13,4.86 -1.93,7.76 -0.76,2.78 -1.55,5.39 -2.36,7.82l-0.05 0.26c-2.75,7.69 -6.26,15.14 -10.47,22.22 -4.15,6.98 -9.03,13.63 -14.58,19.84 -1.89,2.11 -3.73,4.06 -5.52,5.82 -1.88,1.85 -3.81,3.63 -5.8,5.35l-0.84 0.68c-30.93,22.36 -70.98,33.98 -110.52,33.73 -38.51,-0.25 -76.75,-11.74 -105.95,-35.5l-0.37 -0.26c-3.14,-2.74 -6.26,-5.75 -9.32,-9.03l0 -0.05c-3.13,-3.34 -5.95,-6.66 -8.43,-9.91l0 -0.05c-5.48,-7.21 -10.17,-14.95 -13.97,-23.07 -3.83,-8.19 -6.79,-16.72 -8.8,-25.45l-0.05 -0.21c-0.51,-2.38 -1.01,-5.06 -1.5,-8.08 -0.45,-2.74 -0.82,-5.43 -1.1,-8.03l0 -0.05c-0.29,-2.75 -0.52,-5.52 -0.67,-8.27 -0.17,-3.07 -0.26,-5.79 -0.26,-8.09l0 -0.2 26.84 0 0 0.2c0,2.59 0.06,4.79 0.16,6.62 0.13,2.35 0.32,4.68 0.56,6.96 0.25,2.27 0.54,4.46 0.88,6.56l0 0.05c0.32,1.96 0.76,4.23 1.31,6.77 1.6,6.92 3.9,13.59 6.85,19.89 3.02,6.44 6.71,12.56 11.01,18.21l0.03 -0.02c2.22,2.92 4.44,5.56 6.62,7.89l0.03 -0.03c2.24,2.39 4.73,4.78 7.44,7.14l-0.02 0.02c24.24,19.56 56.3,29.03 88.83,29.24 33.92,0.22 68.12,-9.59 94.39,-28.48 1.34,-1.17 2.64,-2.38 3.9,-3.62 1.62,-1.59 3.07,-3.11 4.36,-4.56 4.26,-4.76 8.09,-10.01 11.44,-15.65 3.29,-5.53 6.06,-11.43 8.27,-17.61l0.03 0.01c0.71,-2.15 1.34,-4.19 1.86,-6.1 0.48,-1.76 0.99,-3.88 1.52,-6.34l0 -0.05c0.99,-4.57 1.73,-9.08 2.2,-13.5 0.47,-4.33 0.71,-8.87 0.71,-13.58l0 -0.04 26.84 0z"/>
   <path class="fil3" d="M505.62 299.29c-9.66,1.92 -19.52,2.92 -29.38,2.92 -3.91,0 -7.86,-0.18 -11.75,-0.47 -13.87,-0.96 -27.6,-3.8 -40.71,-8.39 -13.21,-4.53 -25.67,-11.06 -36.91,-19.33l-4.16 -3.16c-1.37,-1.07 -2.68,-2.24 -4.01,-3.4 -2.66,-2.26 -5.16,-4.72 -7.45,-7.33 -4.59,-5.17 -8.63,-10.81 -12.03,-16.8 4.77,4.8 9.83,9.35 15.07,13.63 1.3,1.07 2.62,2.13 3.92,3.13 1.3,1.01 2.75,1.83 4.12,2.78 1.37,0.94 2.73,1.88 4.14,2.75l4.27 2.59c11.39,6.73 23.51,12.35 36.02,16.68 12.52,4.39 25.5,7.75 38.58,9.96 13.33,2.16 26.8,3.68 40.27,4.44l0.01 0.01z"/>
   <path class="fil3" d="M59.1 452.62l-9.91 -9.02 18.04 -19.82 9.91 9.02c1.12,1.02 2.13,1.87 3.01,2.53l0.05 0c1.09,0.82 2.13,1.54 3.13,2.15l11.43 6.97 -13.95 22.86 -11.43 -6.97c-1.91,-1.17 -3.69,-2.38 -5.33,-3.62l0.02 -0.03c-1.88,-1.42 -3.54,-2.78 -4.97,-4.08z"/>
   <path class="fil3" d="M888.82 420.76c-4.66,2.78 -9.79,4.7 -15.12,5.64 -4.95,0.97 -9.98,1.46 -15.02,1.46 -0.36,0 -0.73,-0.01 -1.08,-0.01 -5.39,-0.1 -10.77,-0.71 -16.06,-1.77 -2.64,-0.47 -5.21,-1.25 -7.81,-1.95 -2.59,-0.69 -5.08,-1.72 -7.54,-2.78 2.71,0 5.33,0.4 7.96,0.63l7.88 0.65c2.62,0 5.21,0.45 7.83,0.47 2.62,0.02 5.19,0.25 7.78,0.27 5.22,0.09 10.43,-0.05 15.66,-0.42 5.21,-0.36 10.42,-1.1 15.53,-2.19l-0 -0z"/>
   <path class="fil10" d="M334.44 597.35c66.38,-0 125.44,-42.31 146.8,-105.15 -28.48,48.72 -80.7,78.68 -137.12,78.68 -50.11,0 -97.32,-23.68 -127.28,-63.82l-0.11 32.95c28.5,34.96 69.1,57.34 117.71,57.34z"/>
   <path class="fil10" d="M661.58 597.35c-66.37,-0 -125.44,-42.31 -146.8,-105.15 28.48,48.72 80.69,78.68 137.12,78.68 50.11,0 97.32,-23.68 127.28,-63.82l0 32.93c-28.39,34.99 -68.99,57.36 -117.61,57.36z"/>
   <path class="fil7" d="M289.96 557.49c-60.64,-22.63 -100.86,-80.57 -100.86,-145.3 0,-39.12 14.81,-76.82 41.41,-105.48m59.45 250.79l0 0 0 0z"/>
   <path class="fil3" d="M289.96 557.49c-26.43,-4.31 -50.88,-16.86 -69.81,-35.8l-3.63 -3.58c-1.18,-1.21 -2.24,-2.53 -3.42,-3.78 -1.18,-1.25 -2.24,-2.57 -3.31,-3.87 -1.14,-1.27 -2.21,-2.62 -3.2,-4 -2.01,-2.75 -4.05,-5.5 -5.99,-8.32l-5.3 -8.79c-6.68,-12.01 -11.75,-24.94 -15.01,-38.32 -2.59,-11.41 -3.9,-23.14 -3.9,-34.85 0,-2.02 0.04,-4.08 0.12,-6.08 0.59,-13.66 3.19,-27.19 7.61,-40.11 0.58,-1.59 1.1,-3.2 1.7,-4.79l1.97 -4.7c1.23,-3.13 2.82,-6.13 4.27,-9.15 3.08,-5.92 6.67,-11.68 10.6,-17.08 1.9,-2.71 4.07,-5.26 6.15,-7.81 2.08,-2.55 4.34,-4.99 6.71,-7.23 4.61,-4.6 9.68,-8.82 15.05,-12.5 -12.95,22.37 -22.15,45.16 -26.08,68.61 -1.78,10.07 -2.69,20.33 -2.69,30.56 0,1.45 0.04,2.92 0.06,4.35 0.42,11.59 1.92,23.19 4.46,34.49 2.74,11.21 6.63,22.25 11.46,32.75 4.95,10.62 11.03,20.76 18.06,30.14 7.13,9.69 15.27,18.69 24.2,26.74 9.34,8.38 19.42,16.17 29.91,23.11l0.01 -0z"/>
   <path class="fil7" d="M706.17 557.49c60.6,-22.65 100.78,-80.57 100.78,-145.27 0,-39.14 -14.81,-76.85 -41.43,-105.52m-59.35 250.8l0 0 0 0z"/>
   <path class="fil3" d="M706.17 557.49c10.47,-6.9 20.49,-14.65 29.85,-23.01 8.94,-8.05 17.07,-17.05 24.19,-26.74 7.05,-9.39 13.13,-19.52 18.08,-30.14 4.83,-10.51 8.71,-21.55 11.45,-32.78 2.55,-11.28 4.05,-22.89 4.47,-34.46 0.05,-1.58 0.07,-3.2 0.07,-4.81 0,-10.13 -0.9,-20.28 -2.65,-30.24 -3.94,-23.44 -13.13,-46.17 -26.08,-68.61 5.38,3.67 10.44,7.89 15.06,12.5 2.42,2.24 4.48,4.79 6.71,7.23 2.24,2.44 4.25,5.1 6.15,7.81 3.93,5.39 7.51,11.15 10.6,17.08 1.45,3.02 3.04,6.02 4.27,9.15l1.97 4.7c0.61,1.59 1.12,3.2 1.7,4.79 4.42,12.92 7.01,26.45 7.61,40.1 0.08,2.01 0.11,4.07 0.11,6.09 0,11.71 -1.31,23.44 -3.89,34.86 -3.27,13.37 -8.34,26.3 -15.03,38.32l-5.29 8.79c-1.95,2.82 -3.98,5.57 -5.99,8.32 -0.99,1.38 -2.07,2.73 -3.2,4 -1.1,1.3 -2.24,2.6 -3.31,3.87 -1.07,1.28 -2.24,2.57 -3.42,3.78l-3.63 3.58c-18.93,18.96 -43.38,31.51 -69.82,35.83l-0 0.01z"/>
  </g>
 </g>
</svg>
