<?xml version="1.0" encoding="UTF-8"?>
<!DOCTYPE svg PUBLIC "-//W3C//DTD SVG 1.1//EN" "http://www.w3.org/Graphics/SVG/1.1/DTD/svg11.dtd">
<!-- Creator: CorelDRAW 2020 (64-Bit Evaluation Version) -->
<svg xmlns="http://www.w3.org/2000/svg" xml:space="preserve" width="42.3333mm" height="42.3333mm" version="1.1" style="shape-rendering:geometricPrecision; text-rendering:geometricPrecision; image-rendering:optimizeQuality; fill-rule:evenodd; clip-rule:evenodd"
viewBox="0 0 983.16 983.16"
 xmlns:xlink="http://www.w3.org/1999/xlink"
 xmlns:xodm="http://www.corel.com/coreldraw/odm/2003">
 <defs>
  <style type="text/css">
   <![CDATA[
    .fil0 {fill:none}
    .fil3 {fill:#592D3D;fill-rule:nonzero}
    .fil2 {fill:#8D5638;fill-rule:nonzero}
    .fil1 {fill:#A56941;fill-rule:nonzero}
    .fil4 {fill:#B3B3B3;fill-rule:nonzero}
    .fil6 {fill:#E2E2E2;fill-rule:nonzero}
    .fil5 {fill:white;fill-rule:nonzero}
   ]]>
  </style>
 </defs>
 <g id="Layer_x0020_1">
  <metadata id="CorelCorpID_0Corel-Layer"/>
  <rect class="fil0" x="-0" y="-0" width="983.16" height="983.16"/>
  <g id="_2349051430112">
   <path class="fil1" d="M731.33 159.66c193.92,0 153.84,244.09 155.69,515.52l-155.69 0 0 -515.52z"/>
   <path class="fil2" d="M779.91 315.95l-48.59 81.47 24.31 277.76 67.86 0c1.64,-385.17 -43.59,-359.23 -43.59,-359.23z"/>
   <path class="fil1" d="M252.98 159.66c-193.94,0 -153.84,244.09 -155.7,515.52l155.7 0 0 -515.52z"/>
   <path class="fil2" d="M212.62 315.95l48.65 81.47 -24.33 277.76 -67.8 0c-1.73,-385.17 43.48,-359.23 43.48,-359.23z"/>
   <path class="fil1" d="M751.56 824.75l-510.52 0c-15.66,-0.01 -28.35,-12.72 -28.35,-28.38 0,0 0,0 0,0l0 -608.34c0,0 0,0 0,0 0,-15.66 12.69,-28.37 28.35,-28.38l498.32 0c27.97,0 40.6,16.37 40.6,42.48l0 594.15c0,0.03 0,0.06 0,0.09 0,15.67 -12.71,28.37 -28.38,28.37 -0.01,0 -0.01,0 -0.02,0l0 0z"/>
   <path class="fil2" d="M772.03 176.54c-2.13,-2.61 -3.94,-5.49 -5.36,-8.54 -5.13,-4.02 -11.24,-6.61 -17.69,-7.5 -3.12,-0.49 -6.29,-0.73 -9.45,-0.73 -0.05,0 -0.12,0 -0.17,0l-498.32 0c-15.62,0.01 -28.29,12.65 -28.35,28.27 61.96,22.26 177.96,34.7 283.61,34.7 134.73,0 223.02,-19.98 275.73,-46.19z"/>
   <path class="fil3" d="M731.33 172.48l-12.82 0 0 -25.64 12.82 0c150.97,0 170.76,131.99 170.76,311.58 0,27.02 -0.57,59.44 -1.15,92.85 -0.7,40.12 -1.43,81.73 -1.14,123.86l0.09 12.87 -132.78 0 0 -25.64 107.1 0c-0.09,-38.04 0.57,-75.37 1.2,-111.49 0.53,-30.51 1.05,-60.13 1.05,-92.44 0,-164.81 -16.82,-285.94 -145.12,-285.94z"/>
   <path class="fil3" d="M252.98 146.84l12.82 0 0 25.64 -12.82 0c-128.3,0 -145.13,121.1 -145.13,285.87 0,32.32 0.52,61.95 1.06,92.48 0.63,36.14 1.29,73.48 1.2,111.53l106.97 0 0 25.64 -132.66 0 0.09 -12.87c0.29,-42.14 -0.44,-83.77 -1.14,-123.9 -0.59,-33.41 -1.16,-65.85 -1.16,-92.88 0,-179.55 19.8,-311.51 170.77,-311.51z"/>
   <path class="fil2" d="M241.04 824.75l249.17 0c-233.21,0 -215.6,-493.94 -277.52,-493.94l0 465.48c0,0.03 0,0.06 0,0.09 0,15.66 12.69,28.36 28.35,28.37l-0 0z"/>
   <path class="fil3" d="M199.87 377.87c-0.41,-7.84 -0.23,-15.68 0.11,-23.5 0.34,-7.82 1,-15.7 1.84,-23.5 0.43,-3.93 0.85,-7.84 1.39,-11.77 0.53,-3.93 1.05,-7.84 1.82,-11.77 1.5,-8.13 4.1,-16.05 7.67,-23.5 3.57,7.46 6.17,15.37 7.68,23.5 0.77,3.93 1.33,7.84 1.82,11.77 0.49,3.93 0.96,7.84 1.39,11.77 0.81,7.84 1.45,15.68 1.82,23.5 0.36,7.82 0.53,15.68 0.13,23.5l-25.64 0z"/>
   <path class="fil3" d="M792.73 397.42l0 17.09 -0.05 0c0.31,40.64 0.47,77.49 0.47,109.97 0,32.51 -0.16,69.23 -0.47,109.57l0.05 0 0 162.32c0,11.33 -4.61,21.61 -12.06,29.07 -7.45,7.45 -17.74,12.07 -29.11,12.07l-510.52 0c-11.37,-0.01 -21.67,-4.62 -29.11,-12.07 -7.45,-7.46 -12.06,-17.74 -12.06,-29.07l0.05 0 -0 -124.35 -0.05 0 0 -16.35 0.05 0c-0.3,-41.86 -0.45,-79.21 -0.45,-112.05 0,-32.76 0.15,-70.4 0.45,-112.94l-0.05 0 0 -52.82 25.64 0 0 52.82 -0.05 0.05c-0.23,33.14 -0.35,70.72 -0.35,112.89 0,42.1 0.12,79.38 0.35,111.99l0.05 0.05 0 16.35 -0.05 0 0 124.35 0.05 0c0,4.33 1.74,8.23 4.55,11.04 2.81,2.81 6.7,4.56 10.99,4.56l510.52 0c4.29,-0 8.17,-1.75 10.99,-4.56 2.81,-2.81 4.55,-6.72 4.55,-11.04l0 -162.32 0.05 -0.05c0.24,-31.75 0.37,-68.47 0.37,-109.52 0,-41.08 -0.12,-77.94 -0.37,-109.92l-0.05 -0.05 0 -17.09 25.64 0z"/>
   <path class="fil3" d="M767.09 397.42c-0.41,-8.91 -0.21,-17.84 0.13,-26.77 0.34,-8.93 1.01,-17.84 1.82,-26.77 0.43,-4.47 0.88,-8.93 1.39,-13.4 0.51,-4.47 1.05,-8.91 1.82,-13.37 1.48,-9.19 4.08,-18.2 7.67,-26.78 3.59,8.58 6.19,17.59 7.67,26.77 0.77,4.46 1.33,8.93 1.82,13.37 0.49,4.44 0.96,8.93 1.39,13.4 0.81,8.93 1.47,17.84 1.82,26.77 0.34,8.93 0.53,17.86 0.13,26.77l-25.64 0z"/>
   <path class="fil3" d="M647.31 338.56c0.47,-20.19 26.11,-28.74 38.93,-15.92 4.15,4.23 6.47,9.93 6.47,15.86 0,12.52 -10.15,22.67 -22.67,22.67 -6.09,0 -11.93,-2.45 -16.19,-6.81 -4.19,-4.17 -6.54,-9.84 -6.54,-15.74 0,-0.02 0,-0.05 0,-0.07z"/>
   <path class="fil3" d="M299.96 337.92c-0.45,-17.41 18.78,-25.96 31.6,-19.55 17.09,6.41 17.09,29.91 0,40.59 -8.55,4.27 -17.09,0 -25.11,-5.3 -4.15,-4.16 -6.49,-9.81 -6.49,-15.69 0,-0.02 0,-0.04 0,-0.06l-0 0z"/>
   <path class="fil2" d="M496.3 315.74c1.52,4.02 2.61,8.22 3.21,12.48 0.63,4.12 0.99,8.31 1.05,12.47l0.64 24.98c0.19,8.31 0.45,16.64 0.53,24.98l0.36 24.94c0.49,33.27 0.47,66.58 0.6,99.86 0.13,33.29 0.38,66.58 0,99.87 -0.19,16.64 -0.64,33.29 -1.13,49.93 -0.21,8.31 -0.62,16.64 -1.43,24.95 -0.71,8.37 -1.99,16.74 -3.78,24.97 -1.8,-8.23 -3.07,-16.6 -3.8,-24.97 -0.81,-8.31 -1.22,-16.64 -1.43,-24.95 -0.49,-16.64 -0.94,-33.29 -1.13,-49.93 -0.43,-33.29 0,-66.58 0,-99.86 0,-33.29 0,-66.56 0.38,-99.84l0.36 -25 0.7 -24.96 0.71 -24.95c0.07,-4.16 0.46,-8.35 1.08,-12.47 0.56,-4.25 1.6,-8.45 3.08,-12.48l-0 -0z"/>
   <path class="fil2" d="M336.52 425.2c3.17,-1.5 6.53,-2.59 9.98,-3.21 3.29,-0.61 6.66,-0.98 10,-1.07l19.98 -0.71 39.95 -0.88c26.62,-0.41 53.22,-0.51 79.87,-0.58 26.65,-0.07 53.27,-0.34 79.89,0 13.31,0.19 26.62,0.64 39.95,1.13 6.64,0.23 13.31,0.64 19.95,1.43 6.74,0.74 13.44,2.03 19.98,3.81 -6.53,1.78 -13.26,3.07 -19.99,3.78 -6.64,0.81 -13.31,1.22 -19.95,1.43 -13.33,0.49 -26.65,0.92 -39.95,1.11 -26.62,0.41 -53.24,0 -79.89,0 -26.64,0 -53.26,0 -79.91,-0.32 -13.31,-0.13 -26.62,-0.56 -39.91,-1.07l-19.98 -0.72c-3.33,-0.09 -6.69,-0.46 -9.97,-1.08 -3.45,-0.57 -6.82,-1.61 -9.99,-3.07l-0 0z"/>
   <path class="fil2" d="M373.25 492.25c2.52,-1.2 5.22,-2.01 7.99,-2.37 1.82,-0.26 3.65,-0.39 5.48,-0.39 0.75,0 1.51,0.03 2.25,0.07 5.11,0.21 10.21,0.34 15.32,0.45 10.21,0.23 20.43,0.32 30.64,0.36 20.57,0 40.79,0.17 61.45,-0.45 20.66,-0.62 41.15,-0.92 61.7,-0.83 10.28,0 20.56,0.28 30.81,0.51 5.14,0.06 10.32,0.41 15.44,0.99 5.27,0.58 10.49,1.7 15.54,3.28 -4.94,1.93 -10.08,3.37 -15.3,4.27 -5.06,0.9 -10.26,1.54 -15.4,1.84 -10.3,0.75 -20.6,1.39 -30.87,1.75 -20.6,0.77 -41.17,0.69 -61.71,0.96 -10.28,0 -20.53,0.47 -30.94,0.21 -10.41,-0.26 -20.7,-0.28 -31.02,-0.66 -10.32,-0.38 -20.68,-1.24 -30.98,-2.31 -5.17,-0.58 -10.3,-1.22 -15.45,-1.92 -2.6,-0.33 -5.16,-0.93 -7.63,-1.8 -2.65,-0.9 -5.13,-2.25 -7.33,-3.98l0 0z"/>
   <path class="fil2" d="M365.82 568.07c2.53,-1.49 5.29,-2.58 8.16,-3.21 2.67,-0.62 5.42,-0.98 8.16,-1.05l16.3 -0.68c10.88,-0.39 21.77,-0.71 32.65,-0.88 21.75,-0.32 43.5,-0.32 65.21,-0.32 21.71,0 43.5,-0.36 65.25,0 10.88,0.19 21.75,0.64 32.63,1.13 5.42,0.18 10.92,0.67 16.31,1.41 5.55,0.75 11.05,2.07 16.35,3.87 -5.29,1.76 -10.77,3.05 -16.3,3.78 -5.4,0.78 -10.89,1.28 -16.32,1.44 -10.87,0.49 -21.75,0.94 -32.63,1.13 -21.75,0.43 -43.52,0.13 -65.27,0 -21.75,-0.13 -43.5,-0.13 -65.25,-0.53 -10.88,-0.21 -21.77,-0.6 -32.65,-1.05l-16.3 -0.79c-2.75,-0.09 -5.49,-0.45 -8.17,-1.08 -2.86,-0.62 -5.62,-1.7 -8.14,-3.18l0 0z"/>
   <polygon class="fil4" points="598.54,350.37 508.52,276.94 667.98,159.87 324.62,159.87 484.08,276.94 394.06,350.37 313.66,229.66 313.66,397.34 685.99,397.34 685.99,219.06 "/>
   <path class="fil5" d="M745.56 158.46l-91.3 0.21c-0.47,9.61 -1.53,19.33 -3.06,28.81 -0.99,4.54 -2.24,9.12 -3.7,13.54 -5,13.87 -36.88,25.64 -45.92,35.75 -2.99,3.33 -6.22,6.53 -9.62,9.46 -53.78,38.88 -139.24,41.02 -191.18,-1.24 -5.6,-4.89 -10.7,-10.36 -15.19,-16.26 -9.04,-11.88 -35.04,-24.76 -38.67,-40.47 -1.02,-4.64 -1.8,-9.35 -2.31,-14.07 -0.51,-4.77 -0.78,-9.63 -0.78,-14.43 0,-0.02 0,-0.08 0,-0.1 0,-0.02 -96.6,-1.2 -96.6,-1.2 0,0 0,0 0,0 -15.66,0 -28.36,12.69 -28.37,28.35l0 608.27c0.01,15.66 12.71,28.35 28.37,28.35 0,0 0,0 0,0l510.5 0c15.66,-0 28.35,-12.7 28.35,-28.35l0 -594.23c0,-26.03 -12.56,-42.39 -40.53,-42.39z"/>
   <path class="fil5" d="M737.39 158.46c135.76,0 189.13,92.71 168.58,581.16 -40.04,14.32 -119.46,9.81 -119.46,9.81l-49.12 -590.97z"/>
   <polygon class="fil6" points="391.73,366.23 495.25,314.76 599.05,366.23 519.87,274.31 426.09,276.09 "/>
   <path class="fil6" d="M786.09 314.76c0,0 -48.69,180.63 -41.26,499.97l70.96 -66.24 7.65 -293.95c-12.01,-154.33 -37.35,-139.78 -37.35,-139.78z"/>
   <path class="fil5" d="M259.13 158.46c-132,0 -189.9,120.61 -172.53,524.5 47.9,21.17 120.06,11.92 120.06,11.92l52.48 -536.42z"/>
   <path class="fil6" d="M83.8 584.35c0.37,29.14 1.23,60.11 2.58,92.9 32.63,1.56 93.35,1.88 122.02,0l8.93 -91.47c-23.01,-2.69 -97.81,-3.57 -133.54,-1.43z"/>
   <path class="fil6" d="M218.8 314.76l-1.07 379.65 -28.52 1.92c-6.34,-318.46 29.59,-381.58 29.59,-381.58z"/>
   <path class="fil3" d="M737.39 171.28l-12.82 0 0 -25.64 12.82 0c77.87,0 123.31,32.8 149.52,88.18 24.97,52.78 31.34,125.94 31.83,210.42l0.05 0.05 0 306.79 -11.47 1.25c-0.31,0.03 -108.37,12 -122.81,9.71l-10.76 -1.71c-0.07,-109.11 -0.22,-218.21 -0.22,-327.31l25.54 0 0.2 303.73c22.47,-1.13 71.55,-6.23 93.88,-8.61l0 -283.84 0.05 0c-0.47,-81.08 -6.37,-150.82 -29.43,-199.55 -21.83,-46.14 -60.19,-73.46 -126.38,-73.46z"/>
   <path class="fil3" d="M259.13 145.64l12.82 0 0 25.64 -12.82 0c-25.78,0 -47.4,3.99 -65.46,11.5 -17.73,7.37 -32.15,18.15 -43.84,31.87l0.03 0.03c-19.29,22.69 -31.6,53.65 -39.24,90.84 -7.88,38.34 -10.78,83.13 -11.17,132.23l0.05 0 0 253.47c26.2,1.73 81.92,-4.93 105.56,-8l1.05 -255.03 25.54 0.1c-0.36,92.41 -0.76,184.83 -1.14,277.24l-10.97 1.55c-0.31,0.04 -107.87,15.23 -136.21,7.43l-9.46 -2.61 0 -274.16 0.05 -0.1c0.4,-50.7 3.43,-97.12 11.67,-137.24 8.48,-41.3 22.49,-76.08 44.75,-102.26l0.05 0c14.35,-16.86 31.95,-30.06 53.47,-39 21.2,-8.81 46.08,-13.5 75.27,-13.5z"/>
   <path class="fil5" d="M224.1 699.2c-3.91,5.58 -157.62,4.1 -159.54,0 -1.92,-4.1 -4.68,-80.12 0,-87.6 3.85,-6.15 154.07,-4.85 159.54,0 5.47,4.85 3.91,82.03 0,87.6z"/>
   <path class="fil3" d="M234.56 706.51c-1.41,2.02 -3.3,3.58 -5.62,4.66 -7.17,3.36 -47.69,4.64 -86.82,4.42 -39.68,-0.22 -79.78,-2.38 -84.7,-5.75l-0.03 0.03c-1.92,-1.34 -3.42,-3.08 -4.45,-5.31l0.02 -0.01c-1.69,-3.87 -3.8,-34.33 -3.8,-59.28 0,-18.26 1.18,-35.09 4.53,-40.43 0.33,-0.52 0.78,-1.12 1.38,-1.79 5.31,-6 47.26,-8.51 88.42,-8.34 40.11,0.16 81.5,2.35 87.21,5.92 0.69,0.43 1.34,0.91 1.96,1.46l-0.02 0.02c5.54,5.1 7.82,26.28 7.82,48 0,24.12 -2.38,51.39 -5.89,56.41zm-92.34 -16.46c30.42,0.17 60.79,-0.19 71.83,-1.3 0.47,-6.66 0.77,-22.8 0.77,-38.65 0,-13.61 1.04,-24.91 0.95,-28.07 -7.21,-0.99 -39.5,-1.66 -72.38,-1.79l-68.2 -0.27c-0.28,3.81 -0.39,13.79 -0.39,25.3 0,17.01 0.43,35.47 0.89,43.89 9.77,0.39 37.58,0.73 66.53,0.89z"/>
   <path class="fil6" d="M247.23 823.44l249.06 0c-233.29,0 -215.6,-493.86 -277.52,-493.86l0 465.5c0.01,15.66 12.71,28.35 28.38,28.35 0.03,0 0.06,0 0.09,0l-0 0z"/>
   <path class="fil3" d="M206.04 376.68c-0.41,-7.84 -0.24,-15.7 0.13,-23.5 0.36,-7.8 1,-15.68 1.82,-23.5 0.43,-3.91 0.88,-7.84 1.39,-11.77 0.51,-3.93 1.05,-7.84 1.82,-11.75 1.51,-8.13 4.09,-16.05 7.67,-23.5 3.58,7.46 6.17,15.37 7.67,23.5 0.77,3.91 1.32,7.84 1.82,11.75 0.49,3.91 0.96,7.86 1.39,11.77 0.83,7.87 1.44,15.7 1.84,23.51 0.34,7.84 0.51,15.7 0,23.5l-25.53 0z"/>
   <path class="fil3" d="M798.91 396.14l0 17.09 -0.05 0c0.31,40.64 0.47,77.49 0.47,109.97 0,32.51 -0.16,69.23 -0.47,109.59l0.05 0 0 162.25c0,11.37 -4.61,21.66 -12.06,29.11 -7.45,7.45 -17.75,12.06 -29.11,12.06l0 -0.05 -510.5 0 0 0.05c-0.67,0 -1.34,-0.02 -2,-0.05l-28.9 0 7.37 -7.37c-1.98,-1.38 -3.83,-2.94 -5.54,-4.64 -7.45,-7.45 -12.06,-17.74 -12.07,-29.11l-0 -140.54c-0.31,-41.7 -0.47,-79.03 -0.47,-112.08 0,-32.96 0.16,-70.58 0.47,-112.96l-0.05 0 0 -52.8 25.64 0 0 52.8 -0.05 0.05c-0.24,33.32 -0.37,70.94 -0.37,112.91 0,41.89 0.12,79.2 0.37,111.98l0 140.64c0,4.28 1.75,8.17 4.56,10.99 2.81,2.81 6.72,4.55 11.04,4.55l30.95 0 -0.05 0.05 479.6 -0 0 -0.05c4.29,0 8.17,-1.74 10.98,-4.55 2.81,-2.81 4.55,-6.7 4.55,-10.98l0 -162.25 0.05 -0.05c0.25,-31.75 0.37,-68.48 0.37,-109.54 0,-41.09 -0.12,-77.94 -0.37,-109.92l-0.05 -0.05 0 -17.09 25.64 0z"/>
   <path class="fil5" d="M918.11 611.6c4.74,4.83 3.4,82.03 0,87.6 -3.4,5.58 -136.74,4.1 -138.39,0 -1.64,-4.1 -4.06,-80.12 0,-87.6 0.58,-1.07 4.87,-1.9 11.64,-2.52m126.74 2.52l0 0 0 0z"/>
   <path class="fil3" d="M908.99 620.56l-8.96 -9.12 18.23 -17.93 8.96 9.12c4.81,4.89 6.78,25.92 6.78,47.49 0,23.9 -2,50.86 -4.98,55.74 -1.61,2.65 -3.99,4.57 -7.05,5.8 -7.55,3.02 -42.24,4.15 -75.58,3.93 -33.93,-0.23 -68.09,-2.19 -73.1,-5.24l-0.05 0c-2.47,-1.52 -4.28,-3.63 -5.39,-6.39 -1.39,-3.48 -3.18,-33.88 -3.18,-58.81 0,-17.88 0.99,-34.32 3.8,-39.6l-0.02 -0.01c2.21,-4.08 6.28,-6.64 11.9,-7.85 2.32,-0.5 5.68,-0.95 9.86,-1.33l12.72 -1.15 2.3 25.44 -12.72 1.15 -1.95 0.2c-0.19,4.91 -0.26,13.51 -0.26,23.15 0,16.72 0.39,34.93 0.82,43.83 9.36,0.51 31.85,0.92 55.35,1.07 25.19,0.17 50.44,-0.19 61.15,-1.29 0.44,-7.11 0.72,-23.04 0.72,-38.64 0,-16.05 1.08,-29.1 0.63,-29.56z"/>
   <path class="fil5" d="M878.58 607.45c8.12,0.64 32.05,-2.52 32.95,-1.63m-32.95 1.63l0 0 0 0z"/>
   <path class="fil3" d="M878.58 607.45c1.24,-1.61 2.59,-3.16 4.02,-4.61 1.16,-1.17 2.44,-2.22 3.8,-3.14 1.22,-0.81 2.53,-1.53 3.87,-2.14 1.3,-0.62 2.61,-1.15 3.91,-1.69 2.62,-1.06 5.33,-1.91 8.09,-2.52 1.4,-0.31 2.85,-0.53 4.28,-0.66 0.77,0 1.56,0 2.5,0 0.53,0 0.98,0 1.75,0 0.26,0 0.94,0 1.52,0.15l0.75 0 1.05 0.24 0.53 0.13 0.43 0.13 1.22 0.45c1.6,0.7 3.05,1.69 4.27,2.93l8.97 9.16 -18.48 18.12 -8.8 -9.34c1.15,1.21 2.55,2.17 4.08,2.82 0.39,0.17 0.77,0.3 1.15,0.43l0.36 0 0.41 0.11c0.26,0.09 0.54,0.15 0.81,0.19l0.41 0 -0 0c0.21,0 0.56,0 0.47,0 -0.09,0 -0.15,0 -0.32,0l-1.6 0c-1.22,0 -2.54,0 -3.89,0 -2.81,-0.16 -5.62,-0.56 -8.37,-1.14 -1.43,-0.32 -2.86,-0.64 -4.27,-1.05 -1.47,-0.39 -2.91,-0.91 -4.28,-1.54 -1.59,-0.75 -3.08,-1.7 -4.44,-2.82 -1.62,-1.15 -3.04,-2.58 -4.19,-4.21l0 0z"/>
   <polygon class="fil6" points="693.96,170.17 534.42,287.28 624.45,360.74 751.41,170.07 "/>
   <path class="fil3" d="M773.27 396.14c-0.41,-8.93 -0.21,-17.86 0.13,-26.77 0.34,-8.91 1.01,-17.86 1.84,-26.77 0.43,-4.47 0.85,-8.93 1.37,-13.4 0.51,-4.47 1.05,-8.93 1.84,-13.4 1.48,-9.18 4.05,-18.19 7.65,-26.77 3.61,8.56 6.22,17.59 7.68,26.77 0.77,4.47 1.34,8.93 1.82,13.4 0.47,4.47 0.96,8.93 1.39,13.4 0.83,8.91 1.47,17.84 1.82,26.77 0.34,8.93 0.56,17.84 0.13,26.77l-25.64 0z"/>
   <polygon class="fil6" points="559.09,323.82 511.34,276.09 463.61,323.82 487.07,347.28 466.3,575.1 510.61,609.65 556.38,575.1 535.63,347.28 "/>
   <polygon class="fil3" points="489.97,276.09 489.97,269.68 502.79,269.68 502.79,829.85 489.97,829.85 "/>
   <polygon class="fil5" points="496.38,276.09 544.14,308.86 496.38,356.61 448.65,308.86 "/>
   <path class="fil5" d="M324.56 159.83c0,0 92.45,84.06 159.52,117.11 -32.65,53.86 -90.01,73.48 -90.01,73.48l-126.98 -190.65 57.48 0.07z"/>
   <path class="fil3" d="M333.12 150.37c0.26,0.24 91.09,82.81 156.62,115.1l12.49 6.15 -7.23 11.93c-35.07,57.85 -96.55,78.87 -96.73,78.94l-9.36 3.27 -145.72 -218.79 86.28 0.1 3.65 3.3zm132.42 131.27c-58.6,-32.57 -129.17,-94.18 -145.87,-109.04l-28.7 -0.03 107.93 162.05c14.7,-6.72 44.38,-23.02 66.64,-52.97z"/>
   <path class="fil5" d="M668.04 159.83c0,0 -84.14,88.03 -159.52,117.11 21.37,43.33 90.01,73.44 90.01,73.44l126.98 -190.65 -57.48 0.11z"/>
   <path class="fil3" d="M673.44 172.59c-16.27,16.38 -82,80.27 -146.28,110.27 18,24.2 50.7,42.89 66.9,51.16l107.54 -161.47 -28.17 0.05zm-169.52 92.43c72.7,-28.05 154.68,-113.81 154.91,-114.05l3.74 -3.89 86.85 -0.16 -146.22 219.54 -9.82 -4.35c-0.21,-0.09 -72.88,-31.95 -96.32,-79.49l-6.19 -12.55 13.05 -5.03z"/>
   <polygon class="fil5" points="451.34,560.15 495.66,594.7 541.42,560.15 520.06,325.59 472.71,325.59 "/>
   <polygon class="fil3" points="454.69,302.82 480.96,329.08 460.24,556.29 495.73,583.95 532.51,556.18 511.83,329.08 538.09,302.82 550.18,314.9 529.52,335.56 550.33,564.11 495.59,605.44 442.44,564.01 463.27,335.56 442.61,314.9 "/>
   <path class="fil5" d="M791.36 609.08c16.05,-1.52 45.96,-1.9 72.65,-1.43m-72.65 1.43l0 0 0 0z"/>
   <path class="fil3" d="M790.17 596.3c5.02,-0.71 10.13,-1.07 15.2,-1.07 1.22,0 2.48,0.03 3.69,0.07 6.2,0.15 12.35,0.64 18.5,1.39 3.06,0.38 6.13,0.79 9.19,1.3 3.08,0.44 6.15,1.07 9.16,1.82 6.44,1.56 12.6,4.23 18.16,7.84 -5.64,3.4 -11.8,5.94 -18.2,7.48 -3.01,0.77 -6.02,1.35 -9.04,1.84 -3.01,0.49 -6.01,1.01 -9,1.47 -5.98,0.9 -11.94,1.67 -17.84,2.14 -5.9,0.47 -11.8,1.07 -17.44,1.15l-12.82 0.21 -2.14 -23.78 12.56 -1.86z"/>
   <path class="fil3" d="M476.83 325.18c-0.11,-0.13 0,0 0,0l0.15 0.11c0.13,0.07 0.25,0.16 0.36,0.26l0.81 0.62c0.53,0.45 1.11,0.9 1.67,1.39 1.13,0.96 2.33,1.99 3.63,2.97 1.3,0.98 2.71,1.92 4.27,3.03 2.03,1.52 3.98,3.2 5.79,4.98 -1.52,2.48 -3.9,4.33 -6.69,5.19 -1.75,0.49 -3.57,0.74 -5.39,0.74 -0.84,0 -1.69,-0.06 -2.52,-0.16 -2.68,-0.26 -5.31,-0.98 -7.75,-2.13 -1.24,-0.59 -2.43,-1.31 -3.53,-2.14 -0.57,-0.42 -1.12,-0.87 -1.64,-1.35 -0.26,-0.23 -0.53,-0.49 -0.79,-0.77l-0.43 -0.45 -0.53 -0.62 12.58 -11.67z"/>
  </g>
 </g>
</svg>
