<?xml version="1.0" encoding="UTF-8"?>
<!DOCTYPE svg PUBLIC "-//W3C//DTD SVG 1.1//EN" "http://www.w3.org/Graphics/SVG/1.1/DTD/svg11.dtd">
<!-- Creator: CorelDRAW 2020 (64-Bit Evaluation Version) -->
<svg xmlns="http://www.w3.org/2000/svg" xml:space="preserve" width="42.3333mm" height="42.3333mm" version="1.1" style="shape-rendering:geometricPrecision; text-rendering:geometricPrecision; image-rendering:optimizeQuality; fill-rule:evenodd; clip-rule:evenodd"
viewBox="0 0 983.16 983.16"
 xmlns:xlink="http://www.w3.org/1999/xlink"
 xmlns:xodm="http://www.corel.com/coreldraw/odm/2003">
 <defs>
  <style type="text/css">
   <![CDATA[
    .fil0 {fill:none}
    .fil4 {fill:#592D3D;fill-rule:nonzero}
    .fil3 {fill:gray;fill-rule:nonzero}
    .fil5 {fill:#8D5638;fill-rule:nonzero}
    .fil2 {fill:#999999;fill-rule:nonzero}
    .fil1 {fill:#B3B3B3;fill-rule:nonzero}
    .fil7 {fill:#E2E2E2;fill-rule:nonzero}
    .fil6 {fill:white;fill-rule:nonzero}
   ]]>
  </style>
 </defs>
 <g id="Layer_x0020_1">
  <metadata id="CorelCorpID_0Corel-Layer"/>
  <rect class="fil0" x="-0" y="-0" width="983.16" height="983.16"/>
  <g id="_2349073951104">
   <path class="fil1" d="M749.71 133.32c209.29,0 166.03,263.43 168.03,556.38l-168.03 0 0 -556.38z"/>
   <path class="fil2" d="M802.15 302l-52.44 87.93 26.24 299.77 73.24 0c1.78,-415.69 -47.04,-387.7 -47.04,-387.7z"/>
   <path class="fil1" d="M233.46 133.32c-209.31,0 -166.03,263.43 -168.03,556.38l168.03 0 0 -556.38z"/>
   <path class="fil2" d="M189.9 302l52.51 87.93 -26.26 299.77 -73.17 0c-1.87,-415.69 46.93,-387.7 46.93,-387.7z"/>
   <path class="fil1" d="M771.55 851.12l-550.98 0c-16.9,-0.01 -30.6,-13.72 -30.6,-30.62 0,0 0,0 0,0l-0 -656.55c0,0 0,0 0,0 0,-16.9 13.7,-30.61 30.6,-30.62l537.81 0c30.18,0 43.81,17.66 43.81,45.84l0 641.24c0,0.03 0,0.06 0,0.09 0,16.91 -13.71,30.62 -30.62,30.62 -0.01,0 -0.02,0 -0.02,0l-0 0z"/>
   <path class="fil3" d="M793.64 151.54c-2.29,-2.82 -4.25,-5.93 -5.79,-9.22 -5.53,-4.34 -12.13,-7.13 -19.09,-8.1 -3.37,-0.52 -6.79,-0.78 -10.19,-0.78 -0.06,0 -0.13,0 -0.19,0l-537.82 0c-16.85,0.01 -30.54,13.65 -30.6,30.51 66.87,24.03 192.06,37.45 306.09,37.45 145.41,0 240.69,-21.56 297.58,-49.85z"/>
   <polygon class="fil4" points="220.57,119.77 758.38,119.54 758.38,147.1 220.57,147.33 "/>
   <path class="fil5" d="M220.57 851.12l268.92 0c-251.69,0 -232.69,-533.09 -299.52,-533.09l0 502.37c0,0.03 0,0.06 0,0.09 0,16.9 13.7,30.61 30.6,30.62l-0 0z"/>
   <path class="fil4" d="M176.13 368.83c-0.44,-8.46 -0.25,-16.93 0.12,-25.37 0.37,-8.44 1.08,-16.95 1.98,-25.37 0.46,-4.24 0.92,-8.46 1.5,-12.71 0.58,-4.24 1.13,-8.46 1.96,-12.71 1.63,-8.77 4.42,-17.32 8.28,-25.37 3.86,8.05 6.65,16.59 8.28,25.36 0.83,4.24 1.43,8.46 1.96,12.71 0.53,4.24 1.04,8.46 1.5,12.71 0.88,8.46 1.57,16.93 1.96,25.37 0.39,8.44 0.58,16.93 0.14,25.37l-27.68 0z"/>
   <path class="fil4" d="M815.98 389.93l0 18.45 -0.05 0c0.33,43.86 0.5,83.63 0.5,118.68 0,35.09 -0.17,74.71 -0.5,118.25l0.05 0 0 175.18c0,12.23 -4.97,23.33 -13.01,31.37 -8.04,8.04 -19.15,13.02 -31.42,13.03l-550.98 0c-12.27,-0.01 -23.38,-4.99 -31.42,-13.03 -8.04,-8.05 -13.01,-19.14 -13.01,-31.37l0.06 0 -0 -134.21 -0.05 0 0 -17.64 0.05 0c-0.32,-45.18 -0.49,-85.45 -0.49,-120.92 0,-35.39 0.16,-75.99 0.49,-121.89l-0.05 0 0 -57 27.67 0 0 57 -0.05 0.05c-0.25,35.77 -0.38,76.36 -0.38,121.84 0,45.39 0.13,85.67 0.38,120.87l0.05 0.06 0 17.64 -0.05 0 0 134.21 0.05 0c0,4.67 1.88,8.88 4.91,11.92 3.04,3.04 7.23,4.92 11.85,4.92l550.98 -0c4.62,-0 8.82,-1.88 11.86,-4.92 3.03,-3.04 4.91,-7.25 4.91,-11.92l0 -175.18 0.05 -0.05c0.26,-34.26 0.39,-73.89 0.39,-118.2 0,-44.34 -0.13,-84.11 -0.39,-118.63l-0.05 -0.05 0 -18.45 27.67 0z"/>
   <path class="fil4" d="M788.31 389.93c-0.44,-9.62 -0.23,-19.26 0.14,-28.89 0.37,-9.64 1.08,-19.26 1.96,-28.9 0.46,-4.82 0.95,-9.64 1.5,-14.46 0.56,-4.82 1.13,-9.61 1.96,-14.44 1.6,-9.91 4.4,-19.64 8.28,-28.9 3.88,9.26 6.68,18.98 8.28,28.89 0.83,4.82 1.43,9.64 1.96,14.44 0.53,4.8 1.04,9.64 1.5,14.46 0.88,9.64 1.59,19.26 1.96,28.89 0.37,9.64 0.58,19.28 0.14,28.89l-27.67 0.01z"/>
   <path class="fil4" d="M659.04 326.4c0.51,-21.79 28.18,-31.01 42.01,-17.18 4.48,4.57 6.99,10.72 6.99,17.12 0,13.51 -10.96,24.47 -24.47,24.47 -6.57,0 -12.88,-2.65 -17.48,-7.34 -4.52,-4.5 -7.06,-10.62 -7.06,-16.99 0,-0.02 0,-0.05 0,-0.07z"/>
   <path class="fil4" d="M284.16 325.71c-0.48,-18.79 20.27,-28.02 34.1,-21.1 18.45,6.92 18.45,32.28 0,43.81 -9.22,4.61 -18.45,0 -27.09,-5.72 -4.48,-4.49 -7.01,-10.59 -7.01,-16.94 0,-0.02 0,-0.04 0,-0.06l-0 0z"/>
   <path class="fil5" d="M323.62 419.9c3.41,-1.62 7.05,-2.79 10.77,-3.46 3.55,-0.66 7.19,-1.06 10.8,-1.15l21.56 -0.76 43.12 -0.95c28.73,-0.44 57.44,-0.55 86.2,-0.62 28.76,-0.07 57.49,-0.37 86.22,0 14.36,0.21 28.73,0.69 43.12,1.22 7.17,0.26 14.37,0.69 21.54,1.55 7.27,0.79 14.5,2.19 21.57,4.11 -7.05,1.92 -14.31,3.32 -21.58,4.08 -7.17,0.88 -14.36,1.31 -21.54,1.54 -14.39,0.53 -28.76,0.99 -43.12,1.2 -28.73,0.44 -57.46,0 -86.22,0 -28.76,0 -57.49,0 -86.24,-0.35 -14.36,-0.14 -28.73,-0.6 -43.07,-1.15l-21.56 -0.78c-3.6,-0.1 -7.22,-0.5 -10.76,-1.16 -3.72,-0.62 -7.36,-1.74 -10.79,-3.32l-0 0z"/>
   <path class="fil5" d="M363.26 492.27c2.72,-1.3 5.64,-2.17 8.62,-2.56 1.96,-0.28 3.94,-0.42 5.92,-0.42 0.81,0 1.63,0.03 2.43,0.07 5.51,0.23 11.02,0.37 16.53,0.48 11.02,0.26 22.04,0.35 33.07,0.39 22.2,0 44.02,0.19 66.32,-0.48 22.3,-0.67 44.41,-0.99 66.6,-0.9 11.09,0 22.18,0.3 33.25,0.55 5.55,0.06 11.14,0.44 16.66,1.07 5.69,0.63 11.33,1.83 16.77,3.54 -5.33,2.09 -10.88,3.64 -16.51,4.61 -5.46,0.98 -11.07,1.66 -16.62,1.99 -11.12,0.81 -22.23,1.5 -33.32,1.89 -22.23,0.83 -44.43,0.74 -66.6,1.04 -11.09,0 -22.16,0.51 -33.39,0.23 -11.23,-0.28 -22.34,-0.3 -33.48,-0.72 -11.14,-0.42 -22.32,-1.34 -33.44,-2.49 -5.58,-0.62 -11.12,-1.31 -16.67,-2.07 -2.8,-0.35 -5.57,-1 -8.23,-1.95 -2.86,-0.97 -5.54,-2.42 -7.91,-4.29l0 0z"/>
   <path class="fil5" d="M355.23 574.1c2.73,-1.61 5.71,-2.78 8.81,-3.46 2.88,-0.66 5.85,-1.05 8.81,-1.13l17.59 -0.74c11.74,-0.42 23.5,-0.76 35.23,-0.95 23.48,-0.35 46.95,-0.35 70.38,-0.35 23.43,0 46.95,-0.39 70.42,0 11.74,0.21 23.48,0.69 35.21,1.22 5.85,0.19 11.79,0.72 17.6,1.52 5.99,0.81 11.92,2.24 17.65,4.17 -5.71,1.9 -11.62,3.29 -17.59,4.08 -5.83,0.84 -11.75,1.37 -17.61,1.55 -11.74,0.53 -23.48,1.01 -35.21,1.22 -23.48,0.46 -46.97,0.14 -70.45,0 -23.48,-0.14 -46.95,-0.14 -70.42,-0.58 -11.74,-0.23 -23.5,-0.65 -35.24,-1.13l-17.59 -0.85c-2.96,-0.1 -5.93,-0.49 -8.81,-1.16 -3.09,-0.66 -6.07,-1.83 -8.79,-3.43l0 0z"/>
   <path class="fil6" d="M758.38 132.03l-125.01 0 0 0.23 67.91 0c0,0.01 0,0.11 0,0.11 0,20.96 -1.68,41.98 -4.88,62.64 -1.54,10.11 -3.52,20.02 -5.93,29.72 -6.97,27.9 -18.48,54.63 -33.93,78.9 -4.62,7.2 -9.78,14.17 -15.24,20.75 -85.46,85.32 -221.26,89.93 -303.78,-2.75 -9.11,-11.03 -17.21,-22.92 -24.1,-35.48 -15.33,-28.37 -25.81,-59.18 -30.87,-91.03 -1.55,-10.1 -2.77,-20.39 -3.66,-30.88 -0.81,-10.47 -1.24,-21.1 -1.24,-31.87l67.95 0 0 -0.23 -125.03 0c1.89,51.4 -3.66,174.42 -21.01,194.8l-9.59 492.27c0,16.9 13.7,30.6 30.6,30.6l550.98 0c16.9,-0 30.6,-13.7 30.6,-30.6l-5.49 -496.61c-22.48,-0.11 -39.06,-133.14 -38.28,-190.59z"/>
   <polygon class="fil7" points="802.15,300.71 749.6,388.54 775.86,688.39 802.61,688.39 802.61,444.76 "/>
   <path class="fil7" d="M220.57 849.71l268.92 0c-251.81,0 -232.69,-532.99 -299.52,-532.99l0 502.4c0,16.9 13.7,30.6 30.6,30.6l-0 0z"/>
   <path class="fil4" d="M176.13 367.79c-0.29,-3.76 -0.44,-7.56 -0.44,-11.33 0,-2.58 0.09,-5.22 0.22,-7.78 0.29,-6.38 0.83,-12.77 1.63,-19.16 0.41,-3.21 0.81,-6.39 1.31,-9.59 0.51,-3.2 1.01,-6.39 1.8,-9.59 1.58,-6.79 4.27,-13.32 7.94,-19.26 3.88,5.8 6.8,12.2 8.6,18.95 0.9,3.18 1.57,6.36 2.15,9.52 0.58,3.16 1.15,6.37 1.66,9.55 1.01,6.34 1.82,12.71 2.31,19.07 0.4,4.34 0.61,8.79 0.61,13.18 0,1.97 -0.05,4 -0.12,5.95l-27.65 0.5z"/>
   <path class="fil4" d="M815.98 388.54l0 18.45 -0.05 0c0.33,43.86 0.5,83.63 0.5,118.69 0,35.09 -0.17,74.72 -0.5,118.27l0.05 0 0 175.11c0,12.27 -4.97,23.38 -13.01,31.42 -8.04,8.04 -19.15,13.01 -31.42,13.01l0 -0.05 -550.98 0c-12.3,-0 -23.41,-4.96 -31.42,-12.96 -8.04,-8.04 -13.02,-19.15 -13.02,-31.42l0.06 0 -0 -133.97 -0.05 0 0 -17.64 0.05 0c-0.32,-45.17 -0.49,-85.43 -0.49,-120.91 0,-35.39 0.16,-75.99 0.49,-121.91l-0.05 0 0 -57.1 27.67 0 0 57.1 -0.05 0.05c-0.25,35.78 -0.38,76.38 -0.38,121.86 0,45.39 0.13,85.66 0.38,120.85l0.05 0.05 0 17.64 -0.05 0 0 133.97 0.05 0c0,4.63 1.88,8.82 4.91,11.85 3.07,3.07 7.26,4.97 11.85,4.97l550.98 0 0 -0.05c4.63,0 8.82,-1.88 11.85,-4.91 3.03,-3.03 4.91,-7.22 4.91,-11.85l0 -175.11 0.05 -0.06c0.26,-34.27 0.39,-73.91 0.39,-118.22 0,-44.34 -0.13,-84.12 -0.39,-118.63l-0.05 -0.05 0 -18.45 27.67 0z"/>
   <path class="fil4" d="M788.36 388.5c0.05,-6.57 0.59,-13.17 1.49,-19.67 0.88,-6.54 2.01,-13.05 3.37,-19.53 0.69,-3.25 1.38,-6.5 2.17,-9.73 0.78,-3.23 1.59,-6.48 2.65,-9.71 2.17,-6.83 5.44,-13.28 9.64,-19.09 3.37,6.32 5.72,13.17 6.92,20.24 0.6,3.34 0.97,6.66 1.27,9.98 0.3,3.32 0.58,6.64 0.81,9.94 0.41,6.62 0.65,13.24 0.58,19.81 -0,0 -0,0.02 -0,0.02 0,6.57 -0.42,13.16 -1.24,19.67l-27.66 -1.94z"/>
   <path class="fil4" d="M188.66 291.2c37.65,-9.19 18.29,-156.77 18.23,-157.19l-2 -15.5c188.85,-0.08 377.71,-0.15 566.56,-0.24l0.71 13.09c0.03,0.48 8.71,168.01 35.69,179.16l-10.49 25.51c-36.39,-15.03 -48.85,-147.64 -51.92,-190.18l-509.55 0.22c3.89,42.68 9.8,159.61 -40.75,171.95l-6.49 -26.81z"/>
   <path class="fil4" d="M715.12 132.26l0 0.25c0,10.62 -0.43,21.37 -1.28,32.2 -0.82,10.53 -2.1,21.33 -3.81,32.35l0.04 0.01c-0.78,5.2 -1.7,10.41 -2.73,15.61 -0.98,4.93 -2.13,10.05 -3.45,15.35l0 0.06c-3.67,14.69 -8.52,29.04 -14.48,42.89 -5.9,13.72 -13.01,27.14 -21.24,40.07l0 0.06c-2.42,3.76 -4.99,7.5 -7.68,11.16 -2.58,3.51 -5.45,7.17 -8.59,10.93l-0.53 0.64 -0.33 0.33c-3.54,3.53 -6.96,6.77 -10.26,9.71 -43.92,39.11 -98.61,59.59 -153.02,59.67 -54.59,0.08 -108.8,-20.38 -151.49,-63.14 -3.26,-3.27 -6.29,-6.46 -9.06,-9.58l-0.32 -0.38c-4.64,-5.6 -9.2,-11.7 -13.65,-18.25 -4.4,-6.48 -8.39,-12.96 -11.92,-19.4l-0.06 -0.11c-8.04,-14.88 -14.81,-30.4 -20.23,-46.37 -5.38,-15.87 -9.45,-32.28 -12.11,-49.04l-0.05 -0.11c-0.78,-5.12 -1.5,-10.36 -2.13,-15.73 -0.64,-5.39 -1.18,-10.75 -1.64,-16.07l0 -0.11c-0.38,-4.89 -0.69,-10.32 -0.92,-16.31 -0.25,-6.2 -0.37,-11.76 -0.37,-16.59l27.67 0c0,5.94 0.09,11.09 0.26,15.51 0.18,4.61 0.49,9.7 0.92,15.23 0.45,5.16 0.96,10.2 1.54,15.1 0.58,4.93 1.26,9.88 2.02,14.86l-0.03 0c2.39,15.02 6.09,29.87 11.01,44.39 4.91,14.48 11.05,28.56 18.34,42.05 3.36,6.11 6.87,11.87 10.51,17.23 3.56,5.24 7.56,10.55 11.97,15.89 2.73,3.06 5.33,5.83 7.82,8.32 37.21,37.27 84.41,55.1 131.93,55.03 47.7,-0.07 95.82,-18.17 134.65,-52.75 3.18,-2.83 6.13,-5.59 8.84,-8.28 2.25,-2.74 4.58,-5.74 6.98,-9.01 2.32,-3.17 4.57,-6.43 6.71,-9.76l0.02 0.02c7.22,-11.35 13.6,-23.45 19.06,-36.14 5.39,-12.54 9.78,-25.49 13.07,-38.67l0.01 0c1.09,-4.38 2.13,-9.06 3.11,-14 0.94,-4.71 1.77,-9.51 2.51,-14.42l0.06 -0.06c1.51,-9.7 2.68,-19.8 3.5,-30.24 0.77,-9.91 1.17,-19.98 1.17,-30.15l0 -0.25 27.67 0z"/>
   <path class="fil6" d="M547.7 469.76l-43.81 75.87 -43.81 -75.87 -68.18 0 111.89 193.79 111.9 -193.79 -68 0zm-43.81 2.26l22.61 -39.15 153 0 -175.7 304.29 -175.7 -304.29 153.19 0 22.61 39.15z"/>
   <path class="fil4" d="M233.46 119.49l13.83 0 0 27.67 -13.83 0c-138.47,0 -156.63,130.69 -156.63,308.53 0,34.88 0.56,66.86 1.14,99.81 0.68,39 1.39,79.3 1.3,120.37l115.45 0 0 27.67 -143.17 0 0.1 -13.89c0.31,-45.48 -0.48,-90.4 -1.24,-133.72 -0.63,-36.06 -1.25,-71.07 -1.25,-100.24 0,-193.78 21.37,-336.2 184.3,-336.2z"/>
   <path class="fil4" d="M749.71 147.16l-13.83 0 0 -27.67 13.83 0c162.93,0 184.29,142.45 184.29,336.28 0,29.16 -0.61,64.15 -1.24,100.2 -0.76,43.3 -1.54,88.21 -1.23,133.68l0.1 13.89 -143.31 0 0 -27.67 115.59 0c-0.09,-41.05 0.61,-81.34 1.3,-120.33 0.58,-32.93 1.14,-64.9 1.14,-99.77 0,-177.87 -18.15,-308.6 -156.62,-308.6z"/>
  </g>
 </g>
</svg>
