<?xml version="1.0" encoding="UTF-8"?>
<!DOCTYPE svg PUBLIC "-//W3C//DTD SVG 1.1//EN" "http://www.w3.org/Graphics/SVG/1.1/DTD/svg11.dtd">
<!-- Creator: CorelDRAW 2020 (64-Bit Evaluation Version) -->
<svg xmlns="http://www.w3.org/2000/svg" xml:space="preserve" width="42.3333mm" height="42.3333mm" version="1.1" style="shape-rendering:geometricPrecision; text-rendering:geometricPrecision; image-rendering:optimizeQuality; fill-rule:evenodd; clip-rule:evenodd"
viewBox="0 0 983.16 983.16"
 xmlns:xlink="http://www.w3.org/1999/xlink"
 xmlns:xodm="http://www.corel.com/coreldraw/odm/2003">
 <defs>
  <style type="text/css">
   <![CDATA[
    .fil0 {fill:none}
    .fil3 {fill:#592D3D;fill-rule:nonzero}
    .fil2 {fill:gray;fill-rule:nonzero}
    .fil4 {fill:#999999;fill-rule:nonzero}
    .fil5 {fill:#B3B3B3;fill-rule:nonzero}
    .fil1 {fill:#CCCCCC;fill-rule:nonzero}
   ]]>
  </style>
 </defs>
 <g id="Layer_x0020_1">
  <metadata id="CorelCorpID_0Corel-Layer"/>
  <rect class="fil0" x="-0" y="-0" width="983.16" height="983.16"/>
  <g id="_2348875737376">
   <path class="fil1" d="M749.71 132.71c209.29,0 166.03,263.43 168.03,556.38l-168.03 0 0 -556.38z"/>
   <path class="fil2" d="M802.15 301.39l-52.44 87.93 26.24 299.77 73.24 0c1.78,-415.69 -47.04,-387.7 -47.04,-387.7z"/>
   <path class="fil1" d="M233.46 132.71c-209.31,0 -166.03,263.43 -168.03,556.38l168.03 0 0 -556.38z"/>
   <path class="fil2" d="M189.9 301.39l52.51 87.93 -26.26 299.77 -73.17 0c-1.87,-415.69 46.93,-387.7 46.93,-387.7z"/>
   <path class="fil1" d="M771.55 850.5l-550.98 0c-16.9,-0.01 -30.6,-13.72 -30.6,-30.62 0,0 0,0 0,0l-0 -656.55c0,0 0,0 0,0 0,-16.9 13.7,-30.61 30.6,-30.62l537.81 0c30.18,0 43.81,17.66 43.81,45.84l0 641.24c0,0.03 0,0.06 0,0.09 0,16.91 -13.71,30.62 -30.62,30.62 -0.01,0 -0.02,0 -0.02,0l-0 0z"/>
   <path class="fil2" d="M793.64 150.93c-2.29,-2.82 -4.25,-5.93 -5.79,-9.22 -5.53,-4.34 -12.13,-7.13 -19.09,-8.1 -3.37,-0.52 -6.79,-0.78 -10.19,-0.78 -0.06,0 -0.13,0 -0.19,0l-537.82 0c-16.85,0.01 -30.54,13.65 -30.6,30.51 66.87,24.03 192.06,37.45 306.09,37.45 145.41,0 240.69,-21.56 297.58,-49.85z"/>
   <path class="fil3" d="M749.71 146.55l-13.83 0 0 -27.67 13.83 0c162.93,0 184.29,142.45 184.29,336.28 0,29.16 -0.61,64.15 -1.24,100.2 -0.76,43.3 -1.54,88.21 -1.23,133.68l0.1 13.89 -143.31 0 0 -27.67 115.59 0c-0.09,-41.05 0.61,-81.34 1.3,-120.33 0.58,-32.93 1.14,-64.9 1.14,-99.77 0,-177.87 -18.15,-308.6 -156.62,-308.6z"/>
   <polygon class="fil3" points="220.57,119.16 758.38,118.93 758.38,146.49 220.57,146.72 "/>
   <path class="fil4" d="M220.57 850.5l268.92 0c-251.69,0 -232.69,-533.09 -299.52,-533.09l0 502.37c0,0.03 0,0.06 0,0.09 0,16.9 13.7,30.61 30.6,30.62l-0 0z"/>
   <path class="fil3" d="M176.13 368.22c-0.44,-8.46 -0.25,-16.93 0.12,-25.37 0.37,-8.44 1.08,-16.95 1.98,-25.37 0.46,-4.24 0.92,-8.46 1.5,-12.71 0.58,-4.24 1.13,-8.46 1.96,-12.71 1.63,-8.77 4.42,-17.32 8.28,-25.37 3.86,8.05 6.65,16.59 8.28,25.36 0.83,4.24 1.43,8.46 1.96,12.71 0.53,4.24 1.04,8.46 1.5,12.71 0.88,8.46 1.57,16.93 1.96,25.37 0.39,8.44 0.58,16.93 0.14,25.37l-27.68 0z"/>
   <path class="fil3" d="M815.98 389.32l0 18.45 -0.05 0c0.33,43.86 0.5,83.63 0.5,118.68 0,35.09 -0.17,74.71 -0.5,118.25l0.05 0 0 175.18c0,12.23 -4.97,23.33 -13.01,31.37 -8.04,8.04 -19.15,13.02 -31.42,13.03l-550.98 0c-12.27,-0.01 -23.38,-4.99 -31.42,-13.03 -8.04,-8.05 -13.01,-19.14 -13.01,-31.37l0.06 0 -0 -134.21 -0.05 0 0 -17.64 0.05 0c-0.32,-45.18 -0.49,-85.45 -0.49,-120.92 0,-35.39 0.16,-75.99 0.49,-121.89l-0.05 0 0 -57 27.67 0 0 57 -0.05 0.05c-0.25,35.77 -0.38,76.36 -0.38,121.84 0,45.39 0.13,85.67 0.38,120.87l0.05 0.05 0 17.64 -0.05 0 0 134.21 0.05 0c0,4.67 1.88,8.88 4.91,11.92 3.04,3.04 7.23,4.92 11.85,4.92l550.98 -0c4.62,-0 8.82,-1.88 11.86,-4.92 3.03,-3.04 4.91,-7.25 4.91,-11.92l0 -175.18 0.05 -0.06c0.26,-34.26 0.39,-73.89 0.39,-118.2 0,-44.34 -0.13,-84.11 -0.39,-118.63l-0.05 -0.05 0 -18.45 27.67 0z"/>
   <path class="fil3" d="M788.31 389.32c-0.44,-9.62 -0.23,-19.26 0.14,-28.89 0.37,-9.64 1.08,-19.26 1.96,-28.89 0.46,-4.82 0.95,-9.64 1.5,-14.46 0.56,-4.82 1.13,-9.61 1.96,-14.43 1.6,-9.92 4.4,-19.64 8.28,-28.9 3.88,9.26 6.68,18.98 8.28,28.89 0.83,4.82 1.43,9.64 1.96,14.44 0.53,4.8 1.04,9.64 1.5,14.46 0.88,9.64 1.59,19.26 1.96,28.89 0.37,9.64 0.58,19.28 0.14,28.89l-27.67 0.01z"/>
   <path class="fil2" d="M659.04 325.79c0.51,-21.79 28.18,-31.01 42.01,-17.18 4.48,4.57 6.99,10.72 6.99,17.12 0,13.51 -10.96,24.47 -24.47,24.47 -6.57,0 -12.88,-2.65 -17.48,-7.34 -4.52,-4.5 -7.06,-10.62 -7.06,-16.99 0,-0.02 0,-0.05 0,-0.07z"/>
   <path class="fil2" d="M284.16 325.1c-0.48,-18.79 20.27,-28.02 34.1,-21.1 18.45,6.92 18.45,32.28 0,43.81 -9.22,4.61 -18.45,0 -27.09,-5.72 -4.48,-4.49 -7.01,-10.59 -7.01,-16.94 0,-0.02 0,-0.04 0,-0.06l-0 0z"/>
   <path class="fil5" d="M496.06 301.16c1.64,4.34 2.82,8.87 3.46,13.47 0.69,4.45 1.07,8.97 1.13,13.46l0.69 26.96c0.21,8.97 0.49,17.96 0.58,26.96l0.39 26.91c0.53,35.9 0.51,71.85 0.65,107.78 0.14,35.93 0.42,71.85 0,107.78 -0.21,17.96 -0.69,35.93 -1.22,53.89 -0.23,8.97 -0.67,17.96 -1.54,26.94 -0.77,9.03 -2.15,18.07 -4.08,26.95 -1.94,-8.88 -3.32,-17.92 -4.1,-26.95 -0.88,-8.97 -1.31,-17.96 -1.54,-26.93 -0.53,-17.96 -1.01,-35.93 -1.22,-53.89 -0.46,-35.93 0,-71.85 0,-107.78 0,-35.93 0,-71.83 0.42,-107.76l0.39 -26.98 0.76 -26.93 0.76 -26.93c0.08,-4.49 0.49,-9.01 1.16,-13.46 0.61,-4.59 1.73,-9.12 3.33,-13.47l-0 -0z"/>
   <path class="fil5" d="M323.62 419.29c3.41,-1.62 7.05,-2.79 10.77,-3.46 3.55,-0.66 7.19,-1.06 10.8,-1.15l21.56 -0.76 43.12 -0.95c28.73,-0.44 57.44,-0.55 86.2,-0.62 28.76,-0.07 57.49,-0.37 86.22,0 14.36,0.21 28.73,0.69 43.12,1.22 7.17,0.25 14.37,0.69 21.54,1.54 7.27,0.8 14.5,2.19 21.57,4.11 -7.05,1.92 -14.31,3.32 -21.58,4.08 -7.17,0.88 -14.36,1.31 -21.54,1.54 -14.39,0.53 -28.76,0.99 -43.12,1.2 -28.73,0.44 -57.46,0 -86.22,0 -28.76,0 -57.49,0 -86.24,-0.34 -14.36,-0.14 -28.73,-0.6 -43.07,-1.15l-21.56 -0.78c-3.6,-0.1 -7.22,-0.5 -10.76,-1.16 -3.72,-0.62 -7.36,-1.74 -10.79,-3.32l-0 0z"/>
   <path class="fil5" d="M363.26 491.66c2.72,-1.3 5.64,-2.17 8.62,-2.56 1.96,-0.28 3.94,-0.42 5.92,-0.42 0.81,0 1.63,0.03 2.43,0.07 5.51,0.23 11.02,0.37 16.53,0.49 11.02,0.25 22.04,0.35 33.07,0.39 22.2,0 44.02,0.19 66.32,-0.48 22.3,-0.67 44.41,-0.99 66.6,-0.9 11.09,0 22.18,0.3 33.25,0.55 5.55,0.06 11.14,0.44 16.66,1.07 5.69,0.63 11.33,1.83 16.77,3.54 -5.33,2.09 -10.88,3.64 -16.51,4.61 -5.46,0.98 -11.07,1.66 -16.62,1.99 -11.12,0.81 -22.23,1.5 -33.32,1.89 -22.23,0.83 -44.43,0.74 -66.6,1.04 -11.09,0 -22.16,0.51 -33.39,0.23 -11.23,-0.28 -22.34,-0.3 -33.48,-0.72 -11.14,-0.42 -22.32,-1.34 -33.44,-2.49 -5.58,-0.62 -11.12,-1.31 -16.67,-2.07 -2.8,-0.35 -5.57,-1 -8.23,-1.94 -2.86,-0.97 -5.54,-2.42 -7.91,-4.29l0 0z"/>
   <path class="fil5" d="M355.23 573.49c2.73,-1.61 5.71,-2.78 8.81,-3.46 2.88,-0.66 5.85,-1.05 8.81,-1.13l17.59 -0.74c11.74,-0.42 23.5,-0.76 35.23,-0.95 23.48,-0.35 46.95,-0.35 70.38,-0.35 23.43,0 46.95,-0.39 70.42,0 11.74,0.21 23.48,0.69 35.21,1.22 5.85,0.19 11.79,0.72 17.6,1.52 5.99,0.81 11.92,2.24 17.65,4.17 -5.71,1.9 -11.62,3.29 -17.59,4.08 -5.83,0.84 -11.75,1.37 -17.61,1.55 -11.74,0.53 -23.48,1.01 -35.21,1.22 -23.48,0.46 -46.97,0.14 -70.45,0 -23.48,-0.14 -46.95,-0.14 -70.42,-0.58 -11.74,-0.23 -23.5,-0.65 -35.24,-1.13l-17.59 -0.85c-2.96,-0.1 -5.93,-0.49 -8.81,-1.16 -3.09,-0.66 -6.07,-1.83 -8.79,-3.43l0 0z"/>
   <path class="fil3" d="M233.46 118.88l13.83 0 0 27.67 -13.83 0c-138.47,0 -156.63,130.69 -156.63,308.53 0,34.88 0.56,66.86 1.14,99.81 0.68,39 1.39,79.3 1.3,120.37l115.45 0 0 27.67 -143.17 0 0.1 -13.89c0.31,-45.48 -0.48,-90.4 -1.24,-133.72 -0.63,-36.06 -1.25,-71.07 -1.25,-100.24 0,-193.78 21.37,-336.2 184.3,-336.2z"/>
  </g>
 </g>
</svg>
