<?xml version="1.0" encoding="UTF-8"?>
<!DOCTYPE svg PUBLIC "-//W3C//DTD SVG 1.1//EN" "http://www.w3.org/Graphics/SVG/1.1/DTD/svg11.dtd">
<!-- Creator: CorelDRAW 2020 (64-Bit Evaluation Version) -->
<svg xmlns="http://www.w3.org/2000/svg" xml:space="preserve" width="42.3333mm" height="42.3333mm" version="1.1" style="shape-rendering:geometricPrecision; text-rendering:geometricPrecision; image-rendering:optimizeQuality; fill-rule:evenodd; clip-rule:evenodd"
viewBox="0 0 983.16 983.16"
 xmlns:xlink="http://www.w3.org/1999/xlink"
 xmlns:xodm="http://www.corel.com/coreldraw/odm/2003">
 <defs>
  <style type="text/css">
   <![CDATA[
    .fil0 {fill:none}
    .fil4 {fill:#592D3D;fill-rule:nonzero}
    .fil7 {fill:#666666;fill-rule:nonzero}
    .fil2 {fill:gray;fill-rule:nonzero}
    .fil3 {fill:#8D5638;fill-rule:nonzero}
    .fil1 {fill:#B3B3B3;fill-rule:nonzero}
    .fil6 {fill:#E2E2E2;fill-rule:nonzero}
    .fil5 {fill:white;fill-rule:nonzero}
   ]]>
  </style>
 </defs>
 <g id="Layer_x0020_1">
  <metadata id="CorelCorpID_0Corel-Layer"/>
  <rect class="fil0" x="-0" y="-0" width="983.16" height="983.16"/>
  <g id="_2349041079200">
   <path class="fil1" d="M749.15 133c209.12,0 165.9,263.22 167.9,555.93l-167.9 0 0 -555.93z"/>
   <path class="fil2" d="M801.55 301.54l-52.4 87.86 26.22 299.53 73.18 0c1.77,-415.36 -47,-387.39 -47,-387.39z"/>
   <path class="fil1" d="M233.31 133c-209.14,0 -165.9,263.22 -167.9,555.93l167.9 0 0 -555.93z"/>
   <path class="fil2" d="M189.78 301.54l52.47 87.86 -26.25 299.53 -73.11 0c-1.87,-415.36 46.89,-387.39 46.89,-387.39z"/>
   <path class="fil1" d="M770.97 850.22l-550.54 0c-16.89,-0.01 -30.57,-13.71 -30.57,-30.6 0,0 0,0 0,0l0 -656.02c0,0 0,0 0,0 0,-16.89 13.69,-30.59 30.58,-30.6l537.38 0c30.16,0 43.78,17.65 43.78,45.81l0 640.72c0,0.03 0,0.06 0,0.09 0,16.9 -13.7,30.6 -30.6,30.6 -0.01,0 -0.02,0 -0.02,0l0 0z"/>
   <path class="fil2" d="M793.04 151.2c-2.29,-2.81 -4.25,-5.92 -5.78,-9.22 -5.53,-4.33 -12.12,-7.13 -19.08,-8.09 -3.37,-0.52 -6.78,-0.78 -10.18,-0.78 -0.06,0 -0.13,0 -0.19,0l-537.39 0c-16.84,0.01 -30.51,13.64 -30.57,30.48 66.82,24.01 191.91,37.42 305.85,37.42 145.3,0 240.5,-21.54 297.34,-49.81z"/>
   <path class="fil3" d="M220.43 850.22l268.7 0c-251.49,0 -232.51,-532.66 -299.28,-532.66l0 501.97c0,0.03 0,0.06 0,0.09 0,16.89 13.69,30.59 30.58,30.6l-0 0z"/>
   <path class="fil4" d="M176.03 368.32c-0.44,-8.46 -0.25,-16.91 0.12,-25.34 0.37,-8.43 1.08,-16.94 1.98,-25.34 0.46,-4.24 0.92,-8.46 1.5,-12.7 0.58,-4.24 1.13,-8.46 1.96,-12.69 1.63,-8.77 4.42,-17.3 8.27,-25.34 3.86,8.04 6.65,16.58 8.28,25.34 0.83,4.24 1.43,8.46 1.96,12.69 0.53,4.24 1.04,8.46 1.5,12.7 0.88,8.46 1.57,16.91 1.96,25.34 0.39,8.43 0.58,16.91 0.14,25.34l-27.66 0z"/>
   <path class="fil4" d="M787.72 389.4c-0.44,-9.61 -0.23,-19.24 0.14,-28.87 0.37,-9.63 1.08,-19.24 1.96,-28.87 0.46,-4.82 0.95,-9.63 1.5,-14.45 0.55,-4.81 1.13,-9.61 1.96,-14.42 1.59,-9.91 4.4,-19.62 8.27,-28.88 3.87,9.25 6.68,18.97 8.27,28.87 0.83,4.82 1.43,9.63 1.96,14.42 0.53,4.79 1.04,9.63 1.5,14.45 0.88,9.63 1.59,19.24 1.96,28.87 0.37,9.63 0.58,19.26 0.14,28.87l-27.65 0z"/>
   <path class="fil3" d="M323.4 419.35c3.41,-1.62 7.04,-2.79 10.76,-3.46 3.55,-0.66 7.18,-1.06 10.79,-1.15l21.54 -0.76 43.09 -0.95c28.71,-0.44 57.4,-0.55 86.13,-0.62 28.73,-0.07 57.44,-0.37 86.15,0 14.35,0.21 28.71,0.69 43.09,1.22 7.16,0.26 14.35,0.69 21.52,1.54 7.26,0.8 14.49,2.19 21.55,4.11 -7.05,1.92 -14.3,3.31 -21.56,4.08 -7.17,0.88 -14.35,1.31 -21.52,1.54 -14.38,0.53 -28.73,0.99 -43.09,1.2 -28.71,0.44 -57.42,0 -86.15,0 -28.73,0 -57.44,0 -86.17,-0.35 -14.35,-0.14 -28.71,-0.6 -43.04,-1.15l-21.54 -0.78c-3.6,-0.1 -7.21,-0.5 -10.76,-1.16 -3.72,-0.62 -7.35,-1.74 -10.78,-3.32l-0 0z"/>
   <path class="fil3" d="M363.01 491.66c2.72,-1.3 5.63,-2.16 8.62,-2.56 1.96,-0.28 3.94,-0.42 5.92,-0.42 0.81,0 1.63,0.03 2.42,0.07 5.51,0.23 11.02,0.37 16.52,0.48 11.01,0.26 22.03,0.35 33.04,0.39 22.19,0 43.98,0.18 66.27,-0.48 22.28,-0.67 44.38,-0.99 66.54,-0.9 11.08,0 22.17,0.3 33.22,0.55 5.55,0.06 11.13,0.44 16.65,1.07 5.68,0.63 11.31,1.83 16.76,3.54 -5.32,2.09 -10.88,3.64 -16.5,4.61 -5.46,0.98 -11.06,1.66 -16.61,1.99 -11.1,0.81 -22.21,1.5 -33.29,1.89 -22.21,0.83 -44.4,0.74 -66.54,1.04 -11.08,0 -22.14,0.51 -33.36,0.23 -11.22,-0.28 -22.33,-0.3 -33.46,-0.72 -11.13,-0.41 -22.3,-1.34 -33.41,-2.49 -5.58,-0.62 -11.11,-1.31 -16.66,-2.07 -2.8,-0.35 -5.56,-1 -8.23,-1.94 -2.86,-0.97 -5.53,-2.42 -7.9,-4.29l0 0z"/>
   <path class="fil3" d="M354.99 573.43c2.73,-1.61 5.71,-2.78 8.8,-3.46 2.88,-0.66 5.84,-1.05 8.8,-1.13l17.58 -0.74c11.73,-0.42 23.48,-0.76 35.21,-0.95 23.45,-0.35 46.91,-0.35 70.32,-0.35 23.41,0 46.91,-0.39 70.37,0 11.73,0.21 23.45,0.69 35.18,1.22 5.85,0.19 11.78,0.72 17.59,1.52 5.99,0.81 11.91,2.23 17.63,4.17 -5.71,1.9 -11.61,3.29 -17.57,4.08 -5.82,0.84 -11.74,1.37 -17.6,1.55 -11.73,0.53 -23.46,1.01 -35.18,1.22 -23.45,0.46 -46.93,0.14 -70.39,0 -23.45,-0.14 -46.91,-0.14 -70.37,-0.58 -11.73,-0.23 -23.48,-0.64 -35.21,-1.13l-17.58 -0.85c-2.96,-0.1 -5.92,-0.49 -8.81,-1.16 -3.09,-0.66 -6.06,-1.83 -8.78,-3.43l0 0z"/>
   <path class="fil5" d="M653.39 342.85c-48.8,15.88 -96.77,40.28 -144.81,45.32 -61.63,6.5 -124.65,-30.8 -189.63,-48.57 -4.95,-5.94 -42.28,-33.27 -77.12,-32.12 -27.37,0.92 -34.77,9.91 -42.4,18.87l-9.58 491.88c0,16.88 13.69,30.57 30.58,30.57l550.54 0c16.88,0 30.57,-13.69 30.57,-30.57l-5.48 -496.21c-10.21,0 -16.36,-21.66 -47.03,-11.73 -37.54,12.28 -92.72,29.06 -95.64,32.56z"/>
   <polygon class="fil6" points="801.55,300.25 749.04,388.02 775.28,687.62 802.01,687.62 802.01,444.19 "/>
   <path class="fil6" d="M220.43 848.81l268.7 0c-251.61,0 -232.51,-532.57 -299.28,-532.57l0 501.99c0,16.88 13.69,30.57 30.58,30.57l-0 0z"/>
   <path class="fil4" d="M176.03 367.28c-0.29,-3.76 -0.43,-7.55 -0.43,-11.32 0,-2.58 0.09,-5.21 0.21,-7.78 0.29,-6.38 0.83,-12.76 1.63,-19.15 0.41,-3.2 0.81,-6.38 1.31,-9.58 0.51,-3.2 1.01,-6.38 1.8,-9.59 1.58,-6.79 4.26,-13.31 7.93,-19.24 3.88,5.8 6.8,12.2 8.59,18.93 0.9,3.18 1.57,6.36 2.14,9.52 0.58,3.16 1.15,6.36 1.66,9.54 1.01,6.34 1.82,12.7 2.3,19.06 0.4,4.34 0.61,8.79 0.61,13.16 0,1.97 -0.05,3.99 -0.12,5.95l-27.63 0.5z"/>
   <path class="fil4" d="M787.77 387.97c0.05,-6.57 0.59,-13.16 1.49,-19.65 0.88,-6.53 2,-13.03 3.37,-19.52 0.69,-3.25 1.38,-6.5 2.16,-9.72 0.78,-3.23 1.59,-6.47 2.65,-9.7 2.17,-6.82 5.43,-13.27 9.63,-19.07 3.37,6.32 5.72,13.16 6.91,20.23 0.6,3.34 0.97,6.66 1.27,9.97 0.3,3.32 0.58,6.64 0.81,9.93 0.41,6.61 0.65,13.23 0.58,19.79 -0,0 -0,0.02 -0,0.02 0,6.57 -0.42,13.15 -1.24,19.66l-27.63 -1.94z"/>
   <path class="fil4" d="M629.13 434.01c10.16,-1.8 20.18,-3.2 30.18,-4.61l29.95 -4.45c9.93,-1.5 19.84,-3.13 29.75,-4.84 9.91,-1.7 19.84,-3.64 30.11,-5.07 -9.01,5.04 -18.55,9.13 -28.4,12.12 -9.78,3.07 -19.84,5.4 -29.97,6.91 -10.13,1.56 -20.46,2.44 -30.7,2.55 -0.86,0.02 -1.83,0.03 -2.71,0.03 -9.46,0 -18.91,-0.89 -28.21,-2.64l0 -0.01z"/>
   <path class="fil5" d="M101.91 214.68c129.31,81.98 388.2,174.03 388.2,174.03l-0.37 32.26c0,0 -231.36,-10 -417.25,-89.4 0,-70.32 29.42,-116.89 29.42,-116.89z"/>
   <path class="fil7" d="M838.23 390.55c0,0 40.78,-4.26 71.2,-20.74 -0.26,-9.79 -1.38,-18.69 -1.38,-18.69l-71.08 24.61 1.27 14.81z"/>
   <path class="fil5" d="M890.97 215.28c-121.08,86.1 -388.36,173.43 -388.36,173.43l0.39 32.26c0,0 231.36,-9.91 417.23,-89.31 0.09,-51.31 -29.26,-116.38 -29.26,-116.38z"/>
   <g>
    <path class="fil4" d="M749.15 146.82l-13.82 0 0 -27.65 13.82 0c162.8,0 184.15,142.34 184.15,336.01 0,29.13 -0.61,64.1 -1.24,100.12 -0.75,43.27 -1.54,88.14 -1.23,133.57l0.1 13.88 -143.2 0 0 -27.65 115.5 0c-0.09,-41.02 0.61,-81.28 1.29,-120.23 0.58,-32.91 1.14,-64.84 1.14,-99.69 0,-177.73 -18.14,-308.36 -156.5,-308.36z"/>
    <path class="fil4" d="M233.31 119.17l13.83 0 0 27.65 -13.83 0c-138.36,0 -156.5,130.59 -156.5,308.28 0,34.85 0.56,66.8 1.14,99.73 0.68,38.97 1.39,79.24 1.3,120.27l115.36 0 0 27.65 -143.06 0 0.1 -13.88c0.31,-45.45 -0.48,-90.33 -1.24,-133.61 -0.63,-36.03 -1.24,-71.01 -1.24,-100.16 0,-193.63 21.35,-335.93 184.15,-335.93z"/>
    <polygon class="fil4" points="220.43,119.46 757.81,119.23 757.81,146.77 220.43,147 "/>
    <path class="fil4" d="M815.37 389.4l0 18.43 -0.05 0c0.33,43.84 0.5,83.55 0.5,118.59 0,35.07 -0.17,74.64 -0.5,118.16l0.05 0 0 175.04c0,12.22 -4.97,23.31 -13.01,31.35 -8.03,8.04 -19.13,13.01 -31.4,13.02l-550.54 0c-12.26,-0.01 -23.36,-4.99 -31.39,-13.02 -8.03,-8.04 -13,-19.13 -13,-31.35l0.05 0 -0 -134.1 -0.05 0 0 -17.63 0.05 0c-0.32,-45.14 -0.49,-85.38 -0.49,-120.83 0,-35.36 0.16,-75.92 0.49,-121.79l-0.05 0 0 -56.96 27.65 0 0 56.96 -0.06 0.05c-0.25,35.74 -0.38,76.3 -0.38,121.74 0,45.36 0.13,85.6 0.38,120.77l0.06 0.05 0 17.63 -0.06 0 0 134.1 0.05 0c0,4.67 1.88,8.88 4.9,11.91 3.03,3.04 7.22,4.92 11.84,4.92l550.54 0c4.62,-0 8.81,-1.89 11.85,-4.92 3.03,-3.03 4.9,-7.24 4.9,-11.91l0 -175.04 0.06 -0.05c0.26,-34.22 0.39,-73.84 0.39,-118.1 0,-44.29 -0.13,-84.06 -0.39,-118.53l-0.06 -0.05 0 -18.43 27.65 0z"/>
    <path class="fil4" d="M815.37 388.02l0 18.43 -0.05 0c0.33,43.84 0.5,83.55 0.5,118.59 0,35.08 -0.17,74.65 -0.5,118.18l0.05 0 0 174.97c0,12.26 -4.97,23.36 -13.01,31.39 -8.03,8.04 -19.13,13.01 -31.39,13.01l0 -0.06 -550.54 0c-12.29,-0 -23.39,-4.95 -31.39,-12.95 -8.03,-8.03 -13.01,-19.13 -13.01,-31.39l0.05 0 -0 -133.87 -0.05 0 0 -17.63 0.05 0c-0.32,-45.13 -0.49,-85.37 -0.49,-120.81 0,-35.36 0.16,-75.93 0.49,-121.81l-0.05 0 0 -57.05 27.65 0 0 57.05 -0.06 0.05c-0.25,35.75 -0.38,76.32 -0.38,121.76 0,45.35 0.13,85.59 0.38,120.75l0.06 0.05 0 17.63 -0.06 0 0 133.87 0.05 0c0,4.62 1.88,8.81 4.91,11.84 3.06,3.06 7.26,4.96 11.84,4.96l550.54 -0 0 -0.05c4.62,0 8.81,-1.88 11.84,-4.9 3.03,-3.03 4.9,-7.22 4.9,-11.84l0 -174.97 0.06 -0.06c0.26,-34.23 0.39,-73.86 0.39,-118.12 0,-44.3 -0.13,-84.06 -0.39,-118.54l-0.06 -0.05 0 -18.43 27.65 0z"/>
    <path class="fil4" d="M109.3 203.01c127.96,81.13 384.7,172.41 385.44,172.68l9.24 3.3 -0.65 56.39 -14.2 -0.65c-0.68,-0.03 -233.89,-10.11 -422.05,-90.48l-8.43 -3.6 0 -9.09c0,-74.26 31.44,-124.03 31.53,-124.18l7.35 -11.83 11.77 7.46zm366.91 195.37c-45.7,-16.63 -250.3,-92.72 -369.01,-164.21 -7.53,16.1 -19.19,47.25 -20.73,88.3 154.88,63.91 338.02,80.37 389.65,83.87l0.09 -7.97z"/>
    <path class="fil4" d="M884.68 236.23c-113.42,74.38 -321.29,146.59 -368.18,162.4l0.09 7.72c51.61,-3.49 234.71,-19.87 389.57,-83.76 -2,-31.52 -13.92,-66.75 -21.48,-86.37zm-386.39 139.35c0.76,-0.25 265.41,-86.72 384.69,-171.54l13.7 -9.74 6.88 15.36c0.09,0.2 30.55,67.71 30.45,122l-0.02 9.12 -8.35 3.57c-188.15,80.37 -421.36,90.36 -422.03,90.39l-14.19 0.65 -0.69 -56.65 9.57 -3.15z"/>
   </g>
   <path class="fil4" d="M82.41 280.3c0.65,0.55 1.91,1.41 2.93,2.12 1.01,0.72 2.3,1.47 3.34,2.19 2.3,1.38 4.61,2.79 7.1,4.08 4.79,2.67 9.75,5.18 14.81,7.56 5.07,2.37 10.19,4.61 15.32,6.91 2.58,1.15 5.14,2.3 7.7,3.64 2.56,1.34 5.11,2.53 7.63,4.05 -5.76,-0.29 -11.49,-1.14 -17.1,-2.49 -5.57,-1.38 -11.08,-3.03 -16.52,-4.95 -5.48,-1.91 -10.91,-4.14 -16.14,-6.66 -2.6,-1.29 -5.21,-2.67 -7.74,-4.24 -1.27,-0.78 -2.51,-1.59 -3.78,-2.44 -1.34,-0.92 -2.63,-1.92 -3.84,-3.01l6.29 -6.75z"/>
  </g>
 </g>
</svg>
