<?xml version="1.0" encoding="UTF-8"?>
<!DOCTYPE svg PUBLIC "-//W3C//DTD SVG 1.1//EN" "http://www.w3.org/Graphics/SVG/1.1/DTD/svg11.dtd">
<!-- Creator: CorelDRAW 2020 (64-Bit Evaluation Version) -->
<svg xmlns="http://www.w3.org/2000/svg" xml:space="preserve" width="42.3333mm" height="42.3333mm" version="1.1" style="shape-rendering:geometricPrecision; text-rendering:geometricPrecision; image-rendering:optimizeQuality; fill-rule:evenodd; clip-rule:evenodd"
viewBox="0 0 983.16 983.16"
 xmlns:xlink="http://www.w3.org/1999/xlink"
 xmlns:xodm="http://www.corel.com/coreldraw/odm/2003">
 <defs>
  <style type="text/css">
   <![CDATA[
    .fil0 {fill:none}
    .fil3 {fill:#592D3D;fill-rule:nonzero}
    .fil4 {fill:gray;fill-rule:nonzero}
    .fil5 {fill:#8D5638;fill-rule:nonzero}
    .fil2 {fill:#999999;fill-rule:nonzero}
    .fil1 {fill:#B3B3B3;fill-rule:nonzero}
    .fil7 {fill:#E2E2E2;fill-rule:nonzero}
    .fil6 {fill:white;fill-rule:nonzero}
   ]]>
  </style>
 </defs>
 <g id="Layer_x0020_1">
  <metadata id="CorelCorpID_0Corel-Layer"/>
  <rect class="fil0" x="-0" y="-0" width="983.16" height="983.16"/>
  <g id="_2349072031104">
   <path class="fil1" d="M737.7 144.02c203.06,0 161.09,255.59 163.03,539.82l-163.03 0 0 -539.82z"/>
   <path class="fil2" d="M788.58 307.68l-50.88 85.31 25.46 290.85 71.06 0c1.72,-403.32 -45.64,-376.16 -45.64,-376.16z"/>
   <path class="fil1" d="M236.81 144.02c-203.08,0 -161.09,255.59 -163.03,539.82l163.03 0 0 -539.82z"/>
   <path class="fil2" d="M194.55 307.68l50.94 85.31 -25.48 290.85 -70.99 0c-1.81,-403.32 45.53,-376.16 45.53,-376.16z"/>
   <path class="fil3" d="M236.81 130.59l13.42 0 0 26.85 -13.42 0c-134.35,0 -151.97,126.81 -151.97,299.35 0,33.84 0.55,64.87 1.11,96.84 0.66,37.84 1.35,76.94 1.26,116.79l112.02 0 0 26.85 -138.91 0 0.09 -13.47c0.3,-44.13 -0.46,-87.71 -1.2,-129.74 -0.61,-34.99 -1.21,-68.95 -1.21,-97.26 0,-188.01 20.73,-326.19 178.81,-326.19z"/>
   <path class="fil1" d="M758.89 840.45l-534.59 0c-16.4,-0.01 -29.69,-13.31 -29.69,-29.71 0,0 0,0 0,0l-0 -637.01c0,-0 0,-0 0,-0 0,-16.4 13.29,-29.7 29.69,-29.71l521.81 0c29.29,0 42.51,17.14 42.51,44.48l0 622.15c0,0.03 0,0.06 0,0.09 0,16.41 -13.3,29.71 -29.71,29.71 -0.01,0 -0.01,0 -0.02,0l-0 0z"/>
   <path class="fil4" d="M780.32 161.69c-2.22,-2.73 -4.12,-5.75 -5.62,-8.95 -5.37,-4.21 -11.77,-6.92 -18.52,-7.85 -3.27,-0.51 -6.58,-0.76 -9.89,-0.76 -0.06,0 -0.13,0 -0.18,0l-521.81 0c-16.35,0.01 -29.62,13.24 -29.69,29.6 64.88,23.31 186.35,36.33 296.98,36.33 141.08,0 233.53,-20.92 288.72,-48.37z"/>
   <polygon class="fil3" points="224.3,130.87 746.12,130.65 746.12,157.39 224.3,157.61 "/>
   <path class="fil5" d="M224.3 840.45l260.92 0c-244.21,0 -225.77,-517.22 -290.61,-517.22l0 487.42c0,0.03 0,0.06 0,0.09 0,16.4 13.29,29.7 29.69,29.71l-0 0z"/>
   <path class="fil3" d="M181.19 372.51c-0.43,-8.21 -0.25,-16.42 0.11,-24.61 0.36,-8.19 1.05,-16.45 1.93,-24.61 0.45,-4.12 0.89,-8.21 1.45,-12.33 0.56,-4.12 1.1,-8.21 1.9,-12.33 1.58,-8.51 4.29,-16.8 8.03,-24.61 3.74,7.81 6.46,16.1 8.04,24.61 0.8,4.12 1.39,8.21 1.9,12.33 0.51,4.12 1.01,8.21 1.45,12.33 0.85,8.21 1.52,16.42 1.9,24.61 0.38,8.19 0.56,16.42 0.13,24.61l-26.85 0z"/>
   <path class="fil3" d="M802 392.99l0 17.9 -0.05 0c0.33,42.56 0.49,81.14 0.49,115.15 0,34.05 -0.16,72.49 -0.49,114.73l0.05 0 0 169.97c0,11.87 -4.83,22.63 -12.63,30.44 -7.8,7.8 -18.58,12.64 -30.49,12.64l-534.59 0c-11.91,-0.01 -22.69,-4.84 -30.48,-12.65 -7.8,-7.81 -12.63,-18.57 -12.63,-30.44l0.05 0 0 -130.21 -0.05 0 0 -17.11 0.05 0c-0.32,-43.84 -0.47,-82.91 -0.47,-117.33 0,-34.34 0.16,-73.72 0.47,-118.26l-0.05 0 0 -55.31 26.85 0 0 55.31 -0.05 0.05c-0.24,34.7 -0.37,74.09 -0.37,118.21 0,44.04 0.12,83.12 0.37,117.27l0.05 0.05 0 17.11 -0.05 0 0 130.21 0.05 0c0,4.53 1.82,8.62 4.76,11.56 2.94,2.95 7.01,4.77 11.5,4.78l534.59 0c4.49,-0 8.56,-1.83 11.5,-4.78 2.94,-2.94 4.76,-7.03 4.76,-11.56l0 -169.97 0.05 -0.05c0.26,-33.24 0.38,-71.69 0.38,-114.68 0,-43.02 -0.13,-81.61 -0.38,-115.1l-0.05 -0.05 0 -17.9 26.85 0z"/>
   <path class="fil3" d="M775.16 392.99c-0.43,-9.33 -0.22,-18.68 0.13,-28.03 0.36,-9.35 1.05,-18.68 1.9,-28.03 0.45,-4.68 0.92,-9.35 1.45,-14.03 0.54,-4.68 1.1,-9.33 1.9,-14.01 1.55,-9.62 4.27,-19.06 8.03,-28.04 3.76,8.98 6.49,18.42 8.04,28.03 0.81,4.68 1.39,9.35 1.9,14 0.51,4.65 1.01,9.35 1.45,14.03 0.85,9.35 1.54,18.68 1.9,28.03 0.36,9.35 0.56,18.7 0.13,28.03l-26.85 0.01z"/>
   <path class="fil3" d="M649.73 331.35c0.49,-21.14 27.34,-30.09 40.77,-16.67 4.34,4.43 6.78,10.4 6.78,16.61 0,13.11 -10.63,23.74 -23.74,23.74 -6.38,0 -12.49,-2.57 -16.96,-7.13 -4.38,-4.36 -6.85,-10.3 -6.85,-16.48 0,-0.02 0,-0.05 0,-0.07z"/>
   <path class="fil3" d="M286.01 330.68c-0.47,-18.23 19.66,-27.18 33.09,-20.47 17.9,6.71 17.9,31.32 0,42.51 -8.95,4.48 -17.9,0 -26.29,-5.55 -4.35,-4.36 -6.8,-10.27 -6.8,-16.43 0,-0.02 0,-0.04 0,-0.06l0 0z"/>
   <path class="fil5" d="M324.29 422.07c3.31,-1.57 6.84,-2.71 10.45,-3.36 3.45,-0.64 6.97,-1.03 10.47,-1.12l20.92 -0.74 41.84 -0.92c27.88,-0.43 55.73,-0.54 83.63,-0.6 27.9,-0.07 55.78,-0.36 83.65,0 13.94,0.2 27.88,0.67 41.84,1.19 6.96,0.25 13.94,0.67 20.9,1.5 7.05,0.77 14.07,2.13 20.93,3.99 -6.84,1.86 -13.89,3.22 -20.93,3.96 -6.96,0.85 -13.94,1.28 -20.9,1.5 -13.96,0.51 -27.9,0.96 -41.84,1.16 -27.88,0.43 -55.75,0 -83.65,0 -27.9,0 -55.78,0 -83.67,-0.34 -13.94,-0.13 -27.88,-0.58 -41.79,-1.12l-20.92 -0.76c-3.49,-0.1 -7,-0.48 -10.44,-1.13 -3.61,-0.6 -7.14,-1.69 -10.46,-3.22l-0 0z"/>
   <path class="fil5" d="M362.75 492.28c2.64,-1.26 5.47,-2.1 8.37,-2.48 1.9,-0.27 3.82,-0.4 5.74,-0.4 0.78,0 1.58,0.03 2.36,0.07 5.35,0.22 10.69,0.36 16.04,0.47 10.69,0.25 21.39,0.34 32.08,0.38 21.55,0 42.71,0.18 64.35,-0.47 21.64,-0.65 43.09,-0.96 64.61,-0.87 10.76,0 21.52,0.29 32.26,0.54 5.39,0.06 10.81,0.43 16.17,1.04 5.51,0.61 10.99,1.77 16.27,3.43 -5.17,2.03 -10.56,3.53 -16.02,4.47 -5.3,0.95 -10.74,1.61 -16.13,1.93 -10.78,0.78 -21.57,1.45 -32.33,1.83 -21.57,0.81 -43.11,0.72 -64.61,1.01 -10.76,0 -21.5,0.49 -32.4,0.22 -10.9,-0.27 -21.68,-0.29 -32.49,-0.69 -10.81,-0.4 -21.66,-1.3 -32.44,-2.42 -5.41,-0.6 -10.78,-1.28 -16.18,-2.01 -2.72,-0.34 -5.4,-0.97 -7.99,-1.89 -2.77,-0.94 -5.37,-2.35 -7.67,-4.16l0 0z"/>
   <path class="fil5" d="M354.96 571.68c2.65,-1.56 5.54,-2.7 8.55,-3.36 2.8,-0.64 5.67,-1.02 8.55,-1.09l17.07 -0.72c11.39,-0.4 22.8,-0.74 34.19,-0.92 22.78,-0.34 45.55,-0.34 68.28,-0.34 22.73,0 45.55,-0.38 68.33,0 11.39,0.2 22.78,0.67 34.17,1.19 5.68,0.19 11.44,0.7 17.08,1.48 5.82,0.78 11.57,2.17 17.13,4.05 -5.54,1.84 -11.28,3.2 -17.07,3.96 -5.66,0.81 -11.4,1.33 -17.09,1.5 -11.39,0.52 -22.78,0.98 -34.17,1.19 -22.78,0.45 -45.57,0.13 -68.35,0 -22.78,-0.13 -45.55,-0.13 -68.33,-0.56 -11.39,-0.23 -22.8,-0.63 -34.19,-1.1l-17.07 -0.83c-2.88,-0.09 -5.75,-0.47 -8.55,-1.13 -3,-0.65 -5.89,-1.78 -8.53,-3.33l0 0z"/>
   <path class="fil4" d="M895.88 473.04c0.45,-83.01 -2.71,-156.77 -17.32,-213.42 -22.55,-56.72 -63.05,-90.54 -134.51,-90.54l51.12 300.85c0,0 50.36,23.02 100.7,3.11z"/>
   <path class="fil3" d="M906.63 439.1l10.33 -8.49 16.99 20.66 -10.33 8.49c-1.81,1.49 -3.53,2.77 -5.13,3.82 -1.8,1.18 -3.65,2.25 -5.53,3.21l-11.96 6.08 -12.16 -23.91 11.96 -6.08c1.05,-0.53 2.06,-1.12 3.02,-1.75 1.15,-0.75 2.1,-1.44 2.83,-2.04z"/>
   <path class="fil4" d="M109.01 257.22c-15.26,57.21 -17.9,132.29 -17.32,217.02 44.52,19.13 112.83,-4.81 112.83,-4.81l38.73 -295.95c-69.04,0 -110.21,31.1 -134.24,83.74z"/>
   <path class="fil3" d="M737.7 157.44l-13.43 0 0 -26.85 13.43 0c158.09,0 178.81,138.21 178.81,326.27 0,28.29 -0.6,62.24 -1.21,97.22 -0.73,42.01 -1.5,85.59 -1.2,129.7l0.09 13.47 -139.04 0 0 -26.85 112.15 0c-0.09,-39.83 0.6,-78.92 1.26,-116.75 0.56,-31.95 1.1,-62.97 1.1,-96.8 0,-172.58 -17.61,-299.42 -151.96,-299.42z"/>
   <path class="fil6" d="M752.6 142.76l-86 0.22c0,120.19 -168.54,248.66 -168.54,248.66 0,0 -180.78,-135.54 -180.78,-248.66l-86.49 -0.22c0,-0 0,-0 0,-0 -16.4,0 -29.7,13.29 -29.71,29.69l0 636.94c0.01,16.4 13.31,29.69 29.71,29.69 0,0 0,0 0,0l534.56 0c16.39,0 29.69,-13.3 29.69,-29.69l0 -622.24c0,-27.25 -13.15,-44.39 -42.44,-44.39z"/>
   <path class="fil6" d="M744.06 142.76c142.16,0 164.22,125.29 165.34,297.92 -41.59,26 -109.43,2.95 -109.43,2.95l-55.91 -300.87z"/>
   <path class="fil7" d="M795.04 306.42l-50.99 85.22 25.48 290.85 25.95 0 0 -236.31 38.66 6.47c-12.57,-161.47 -39.11,-146.23 -39.11,-146.23z"/>
   <path class="fil6" d="M243.26 142.76c-138.22,0 -169.63,120.35 -171.94,285.62 42.51,44.41 129.65,10.25 129.65,10.25l42.29 -295.86z"/>
   <path class="fil7" d="M201.02 306.42l0 132.2 -38.73 9.62c12.69,-156.77 38.73,-141.83 38.73,-141.83z"/>
   <path class="fil3" d="M744.06 156.19l-13.42 0 0 -26.85 13.42 0c81.54,0 129.12,34.35 156.56,92.34 26.15,55.27 32.82,131.87 33.33,220.34l0.05 8.51 -7.71 3.65c-64,30.34 -131.22,1.91 -131.41,1.83l-12.38 -5.09 10.17 -24.75 12.38 5.09c0.16,0.07 51.26,21.68 102.08,2.02 -0.87,-81.15 -7.44,-150.91 -30.74,-200.17 -22.86,-48.31 -63.03,-76.93 -132.34,-76.93z"/>
   <path class="fil3" d="M243.26 129.34l13.42 0 0 26.85 -13.42 0c-68.82,0 -109.91,27.85 -133.85,75.05 -24.46,48.22 -32.24,116.68 -33.36,196.65 42.3,23.17 120.65,-1.98 120.88,-2.05l12.79 -4.04 8.08 25.59 -12.79 4.04c-0.28,0.09 -98.61,31.72 -150.23,-5.36l-5.62 -4.04 0.06 -6.92c0.77,-86.93 8.89,-161.94 36.27,-215.93 28.66,-56.5 77.15,-89.83 157.76,-89.83z"/>
   <path class="fil7" d="M230.79 839.09l260.8 0c-244.29,0 -225.77,-517.13 -290.61,-517.13l0 487.45c0.01,16.4 13.31,29.69 29.71,29.69 0.03,0 0.06,0 0.09,0l-0 0z"/>
   <path class="fil3" d="M187.66 371.26c-0.43,-8.21 -0.25,-16.45 0.13,-24.61 0.38,-8.17 1.05,-16.42 1.9,-24.61 0.45,-4.09 0.92,-8.21 1.45,-12.33 0.54,-4.12 1.1,-8.21 1.9,-12.31 1.58,-8.51 4.29,-16.8 8.03,-24.61 3.75,7.81 6.46,16.1 8.04,24.61 0.8,4.09 1.39,8.21 1.9,12.3 0.52,4.09 1.01,8.23 1.46,12.33 0.87,8.24 1.51,16.44 1.93,24.62 0.36,8.21 0.54,16.44 0,24.61l-26.74 0z"/>
   <path class="fil3" d="M808.47 391.64l0 17.9 -0.05 0c0.33,42.56 0.49,81.14 0.49,115.16 0,34.05 -0.16,72.49 -0.49,114.75l0.05 0 0 169.9c0,11.9 -4.83,22.68 -12.63,30.48 -7.8,7.8 -18.58,12.63 -30.48,12.63l0 -0.05 -534.56 0 0 0.05c-0.7,0 -1.4,-0.02 -2.1,-0.05l-30.26 0 7.72 -7.72c-2.07,-1.45 -4.01,-3.08 -5.8,-4.86 -7.8,-7.8 -12.63,-18.58 -12.64,-30.49l0 -147.16c-0.33,-43.65 -0.49,-82.76 -0.49,-117.36 0,-34.5 0.16,-73.92 0.49,-118.28l-0.05 0 0 -55.28 26.85 0 0 55.28 -0.05 0.05c-0.26,34.91 -0.38,74.27 -0.38,118.23 0,43.88 0.13,82.92 0.38,117.26l0 147.26c0,4.49 1.83,8.56 4.77,11.51 2.94,2.94 7.03,4.76 11.56,4.76l32.41 0 -0.05 0.05 502.21 0 0 -0.05c4.49,0 8.56,-1.82 11.5,-4.77 2.94,-2.94 4.76,-7.01 4.76,-11.5l0 -169.9 0.05 -0.05c0.26,-33.25 0.38,-71.71 0.38,-114.7 0,-43.03 -0.13,-81.61 -0.38,-115.1l-0.05 -0.05 0 -17.9 26.85 0z"/>
   <path class="fil3" d="M781.62 391.64c-0.43,-9.35 -0.22,-18.7 0.13,-28.03 0.36,-9.33 1.05,-18.7 1.92,-28.03 0.45,-4.68 0.9,-9.35 1.43,-14.03 0.54,-4.68 1.1,-9.35 1.93,-14.03 1.55,-9.61 4.24,-19.04 8,-28.03 3.78,8.96 6.51,18.42 8.04,28.03 0.81,4.68 1.41,9.35 1.9,14.03 0.49,4.68 1.01,9.35 1.45,14.03 0.87,9.33 1.54,18.68 1.9,28.03 0.36,9.35 0.58,18.68 0.13,28.03l-26.85 0z"/>
   <polygon class="fil3" points="230.79,129.62 752.6,129.39 752.6,156.14 230.79,156.36 "/>
   <path class="fil3" d="M59.15 451.98l-9.91 -8.97 17.93 -19.82 9.91 8.97c0.94,0.85 1.96,1.69 3.04,2.5 0.93,0.7 1.99,1.41 3.2,2.15l11.43 6.97 -13.95 22.86 -11.43 -6.97c-1.71,-1.05 -3.48,-2.26 -5.29,-3.62 -1.67,-1.25 -3.32,-2.62 -4.93,-4.08z"/>
   <path class="fil3" d="M888.92 420.12c-4.65,2.77 -9.78,4.68 -15.1,5.64 -4.91,0.96 -9.93,1.44 -14.94,1.44 -0.39,0 -0.82,-0.01 -1.2,-0.01 -5.37,-0.08 -10.75,-0.68 -16.03,-1.74 -2.64,-0.49 -5.23,-1.28 -7.81,-1.95 -2.57,-0.67 -5.1,-1.75 -7.56,-2.78 2.71,0 5.35,0.38 7.96,0.6l7.88 0.65c2.62,0 5.21,0.45 7.83,0.47 2.62,0.02 5.21,0.25 7.81,0.27 5.19,0.11 10.38,0 15.66,-0.4 5.2,-0.36 10.41,-1.11 15.5,-2.2l-0 0z"/>
   <path class="fil3" d="M680.02 142.99c0,126.81 -173.28,258.87 -173.78,259.25l-8.13 6.25 -8.13 -6.14c-0.53,-0.4 -186.12,-139.52 -186.12,-259.35l26.85 0c0,92.69 132.73,204.17 167.27,231.62 32.93,-26.86 155.19,-133.2 155.19,-231.62l26.85 0z"/>
   <path class="fil6" d="M541.71 470.44l-42.5 73.61 -42.5 -73.61 -66.15 0 108.56 188.02 108.57 -188.02 -65.98 0zm-42.5 2.19l21.93 -37.99 148.45 0 -170.47 295.24 -170.47 -295.24 148.63 0 21.93 37.99z"/>
  </g>
 </g>
</svg>
