<?xml version="1.0" encoding="UTF-8"?>
<!DOCTYPE svg PUBLIC "-//W3C//DTD SVG 1.1//EN" "http://www.w3.org/Graphics/SVG/1.1/DTD/svg11.dtd">
<!-- Creator: CorelDRAW 2020 (64-Bit Evaluation Version) -->
<svg xmlns="http://www.w3.org/2000/svg" xml:space="preserve" width="42.3333mm" height="42.3333mm" version="1.1" style="shape-rendering:geometricPrecision; text-rendering:geometricPrecision; image-rendering:optimizeQuality; fill-rule:evenodd; clip-rule:evenodd"
viewBox="0 0 983.16 983.16"
 xmlns:xlink="http://www.w3.org/1999/xlink"
 xmlns:xodm="http://www.corel.com/coreldraw/odm/2003">
 <defs>
  <style type="text/css">
   <![CDATA[
    .fil0 {fill:none}
    .fil1 {fill:#592D3D;fill-rule:nonzero}
   ]]>
  </style>
 </defs>
 <g id="Layer_x0020_1">
  <metadata id="CorelCorpID_0Corel-Layer"/>
  <rect class="fil0" x="-0" y="-0" width="983.16" height="983.16"/>
  <g id="_2349052726016">
   <path class="fil1" d="M70.89 540.63l22.32 -7.55 53.56 -18.09 64.55 -21.81 55.78 -18.88c9.05,-3.06 18.11,-6.03 27.13,-9.17l0.39 -0.12c4.29,-1.28 7.96,-4.09 10.3,-7.9 1.54,-2.63 2.35,-5.62 2.35,-8.67 0,-6.1 -3.24,-11.74 -8.5,-14.82 -2.62,-1.53 -5.61,-2.34 -8.65,-2.34 -1.55,0 -3.09,0.21 -4.58,0.62l-22.32 7.54 -53.56 18.1 -64.55 21.82 -55.78 18.89c-9.05,3.06 -18.11,6.04 -27.13,9.17l-0.39 0.14c-4.29,1.28 -7.96,4.09 -10.3,7.9 -1.54,2.63 -2.35,5.62 -2.35,8.67 0,6.09 3.24,11.74 8.5,14.81 2.62,1.53 5.61,2.34 8.65,2.34 1.55,0 3.09,-0.21 4.58,-0.62l-0 -0.02z"/>
   <path class="fil1" d="M693.23 464.03l21.86 8.81 52.43 21.13 63.2 25.48 54.61 22.03c8.84,3.55 17.61,7.38 26.56,10.71l0.38 0.14c3.86,1.56 9.8,0.27 13.24,-1.72 5.26,-3.08 8.5,-8.72 8.5,-14.82 0,-3.05 -0.82,-6.05 -2.36,-8.68l-2.68 -3.43c-2.1,-2.1 -4.71,-3.62 -7.57,-4.41l-21.85 -8.87 -52.43 -21.15 -63.2 -25.48 -54.61 -22.04c-8.84,-3.57 -17.61,-7.4 -26.56,-10.71l-0.38 -0.16c-3.86,-1.56 -9.8,-0.27 -13.24,1.72 -5.26,3.08 -8.5,8.72 -8.5,14.82 0,3.04 0.82,6.04 2.35,8.67l2.68 3.43c2.1,2.1 4.71,3.63 7.57,4.43l-0 0.12z"/>
  </g>
 </g>
</svg>
