<?xml version="1.0" encoding="UTF-8"?>
<!DOCTYPE svg PUBLIC "-//W3C//DTD SVG 1.1//EN" "http://www.w3.org/Graphics/SVG/1.1/DTD/svg11.dtd">
<!-- Creator: CorelDRAW 2020 (64-Bit Evaluation Version) -->
<svg xmlns="http://www.w3.org/2000/svg" xml:space="preserve" width="42.3333mm" height="42.3333mm" version="1.1" style="shape-rendering:geometricPrecision; text-rendering:geometricPrecision; image-rendering:optimizeQuality; fill-rule:evenodd; clip-rule:evenodd"
viewBox="0 0 983.16 983.16"
 xmlns:xlink="http://www.w3.org/1999/xlink"
 xmlns:xodm="http://www.corel.com/coreldraw/odm/2003">
 <defs>
  <style type="text/css">
   <![CDATA[
    .fil0 {fill:none}
    .fil1 {fill:#592D3D;fill-rule:nonzero}
   ]]>
  </style>
 </defs>
 <g id="Layer_x0020_1">
  <metadata id="CorelCorpID_0Corel-Layer"/>
  <rect class="fil0" x="-0" y="-0" width="983.16" height="983.16"/>
  <g id="_2349053781952">
   <path class="fil1" d="M346.46 516.25l-27.03 -9.13 -64.87 -21.92 -78.18 -26.43 -67.55 -22.87c-10.96,-3.7 -21.85,-7.65 -32.87,-11.1l-0.46 -0.17c-1.8,-0.49 -3.66,-0.75 -5.53,-0.75 -11.49,0 -20.8,9.32 -20.8,20.8 0,9.36 6.25,17.57 15.27,20.05l27.03 9.13 64.87 21.91 78.18 26.41 67.55 22.87c10.94,3.7 21.83,7.63 32.87,11.1l0.46 0.17c1.8,0.49 3.66,0.75 5.53,0.75 11.49,0 20.8,-9.32 20.8,-20.8 0,-9.36 -6.25,-17.57 -15.27,-20.05l0 0.02z"/>
   <path class="fil1" d="M907.62 418.05l-26.45 10.6 -63.5 25.6 -76.54 30.86 -66.14 26.72c-10.73,4.32 -21.45,8.65 -32.17,12.97l-0.46 0.17c-5.22,2.08 -9.48,4.51 -12.48,9.56 -1.84,3.2 -2.81,6.84 -2.81,10.53 0,1.85 0.25,3.71 0.72,5.5 1.44,5.24 4.88,9.72 9.57,12.48 4.61,2.45 10.94,4.16 16.01,2.08l26.47 -10.66 63.5 -25.6 76.56 -30.9 66.14 -26.65c10.71,-4.32 21.46,-8.63 32.17,-12.98l0.46 -0.19c5.22,-2.08 9.48,-4.51 12.47,-9.54 1.86,-3.18 2.85,-6.82 2.85,-10.51 0,-7.39 -3.93,-14.24 -10.31,-17.96 -4.61,-2.43 -10.96,-4.16 -16.03,-2.08l-0.04 0z"/>
  </g>
 </g>
</svg>
