<?xml version="1.0" encoding="UTF-8"?>
<!DOCTYPE svg PUBLIC "-//W3C//DTD SVG 1.1//EN" "http://www.w3.org/Graphics/SVG/1.1/DTD/svg11.dtd">
<!-- Creator: CorelDRAW 2020 (64-Bit Evaluation Version) -->
<svg xmlns="http://www.w3.org/2000/svg" xml:space="preserve" width="42.3333mm" height="42.3333mm" version="1.1" style="shape-rendering:geometricPrecision; text-rendering:geometricPrecision; image-rendering:optimizeQuality; fill-rule:evenodd; clip-rule:evenodd"
viewBox="0 0 983.16 983.16"
 xmlns:xlink="http://www.w3.org/1999/xlink"
 xmlns:xodm="http://www.corel.com/coreldraw/odm/2003">
 <defs>
  <style type="text/css">
   <![CDATA[
    .fil0 {fill:none}
    .fil1 {fill:#592D3D;fill-rule:nonzero}
   ]]>
  </style>
 </defs>
 <g id="Layer_x0020_1">
  <metadata id="CorelCorpID_0Corel-Layer"/>
  <rect class="fil0" x="-0" y="-0" width="983.16" height="983.16"/>
  <g id="_2349063273472">
   <path class="fil1" d="M712.87 470.76c20.78,-5.21 41.9,-9.57 63.17,-12.6l-4.89 0.73c13.5,-1.93 27.21,-2.96 40.88,-2.96 11.39,0 22.81,0.69 34.09,2.04l-5.02 -0.68c6.19,0.85 12.33,1.89 18.52,2.66l-5.02 -0.66c18.69,2.58 37.44,6.47 55.63,11.54 9.43,2.64 20.95,-3.24 23.2,-13.2 0.37,-1.57 0.57,-3.17 0.57,-4.78 0,-8.53 -5.62,-16.04 -13.8,-18.44 -21.35,-5.83 -43.23,-10.13 -65.22,-12.78l5 0.68c-15.49,-2.74 -31.35,-4.16 -47.12,-4.16 -5.3,0 -10.66,0.16 -15.93,0.46 -20.91,1.39 -41.94,4.28 -62.43,8.59 -10.58,2.15 -21.1,4.6 -31.61,7.19 -9.58,2.36 -16.24,13.69 -13.2,23.2 2.42,8.16 9.93,13.78 18.46,13.78 1.59,0 3.19,-0.2 4.73,-0.59l-0.02 -0.02z"/>
   <path class="fil1" d="M68.14 564.93l26.65 -2.79 63.5 -6.64 77.22 -8.09 66.35 -6.96c10.79,-1.11 21.58,-2.21 32.37,-3.38l0.45 0c5.15,-0.53 9.56,-1.73 13.33,-5.53 3.53,-3.53 5.53,-8.34 5.53,-13.33 0,-5 -1.99,-9.8 -5.52,-13.34 -3.45,-3.19 -8.45,-6.04 -13.33,-5.53l-26.65 2.79 -63.5 6.66 -77.33 8.09 -66.35 6.94c-10.79,1.13 -21.58,2.22 -32.36,3.4l-0.45 0c-5.15,0.55 -9.56,1.75 -13.34,5.53 -3.54,3.53 -5.53,8.34 -5.53,13.34 0,5 1.99,9.81 5.53,13.34 3.45,3.17 8.45,6.03 13.34,5.51l0.11 -0.02z"/>
  </g>
 </g>
</svg>
