<?xml version="1.0" encoding="UTF-8"?>
<!DOCTYPE svg PUBLIC "-//W3C//DTD SVG 1.1//EN" "http://www.w3.org/Graphics/SVG/1.1/DTD/svg11.dtd">
<!-- Creator: CorelDRAW 2020 (64-Bit Evaluation Version) -->
<svg xmlns="http://www.w3.org/2000/svg" xml:space="preserve" width="42.3333mm" height="42.3333mm" version="1.1" style="shape-rendering:geometricPrecision; text-rendering:geometricPrecision; image-rendering:optimizeQuality; fill-rule:evenodd; clip-rule:evenodd"
viewBox="0 0 983.16 983.16"
 xmlns:xlink="http://www.w3.org/1999/xlink"
 xmlns:xodm="http://www.corel.com/coreldraw/odm/2003">
 <defs>
  <style type="text/css">
   <![CDATA[
    .fil0 {fill:none}
    .fil1 {fill:#592D3D;fill-rule:nonzero}
   ]]>
  </style>
 </defs>
 <g id="Layer_x0020_1">
  <metadata id="CorelCorpID_0Corel-Layer"/>
  <rect class="fil0" x="-0" y="-0" width="983.16" height="983.16"/>
  <g id="_2348875733104">
   <path class="fil1" d="M700.78 518.92c21.91,-5.56 44.25,-10.04 66.66,-13.21l-5.3 0.7c26.23,-3.46 52.81,-4.48 79.1,-0.95l-5.29 -0.72c6.51,0.92 13.01,1.99 19.54,2.83l-5.29 -0.72c19.77,2.66 39.48,6.74 58.7,12.11 9.95,2.77 22.09,-3.44 24.48,-13.93 0.41,-1.62 0.62,-3.31 0.62,-5 0,-8.99 -5.93,-16.92 -14.56,-19.45 -22.52,-6.15 -45.64,-10.69 -68.83,-13.47l5.3 0.72c-16.37,-2.9 -33.08,-4.39 -49.72,-4.39 -5.59,0 -11.26,0.17 -16.81,0.49 -22.08,1.46 -44.18,4.49 -65.83,9.06 -11.18,2.25 -22.29,4.84 -33.35,7.56 -10.11,2.49 -17.15,14.45 -13.93,24.48 2.51,8.64 10.43,14.57 19.43,14.57 1.69,0 3.38,-0.21 5.02,-0.63l0.08 -0.02z"/>
   <path class="fil1" d="M74.44 518.98c19.03,-5.54 38.56,-9.67 58.2,-12.33l-5.29 0.72c16.71,-2.19 33.67,-3.28 50.53,-3.28 17.29,0 34.63,1.19 51.73,3.47l-5.29 -0.7c19.75,2.64 39.38,6.74 58.58,12.11 9.95,2.78 22.09,-3.44 24.48,-13.93 0.43,-1.62 0.65,-3.31 0.65,-5.01 0,-8.99 -5.93,-16.92 -14.56,-19.45 -28.74,-7.93 -58.27,-13.18 -87.98,-15.33 -8.89,-0.56 -17.95,-0.87 -26.9,-0.87 -38.81,0 -77.57,5.52 -114.81,16.24 -4.98,1.42 -9.25,4.69 -11.93,9.13 -1.76,3.07 -2.68,6.55 -2.68,10.08 0,1.77 0.23,3.54 0.69,5.24 3.28,10.17 13.75,16.99 24.48,13.93l0.12 -0.02z"/>
  </g>
 </g>
</svg>
