<?xml version="1.0" encoding="UTF-8"?>
<!DOCTYPE svg PUBLIC "-//W3C//DTD SVG 1.1//EN" "http://www.w3.org/Graphics/SVG/1.1/DTD/svg11.dtd">
<!-- Creator: CorelDRAW 2020 (64-Bit Evaluation Version) -->
<svg xmlns="http://www.w3.org/2000/svg" xml:space="preserve" width="42.3333mm" height="42.3333mm" version="1.1" style="shape-rendering:geometricPrecision; text-rendering:geometricPrecision; image-rendering:optimizeQuality; fill-rule:evenodd; clip-rule:evenodd"
viewBox="0 0 983.16 983.16"
 xmlns:xlink="http://www.w3.org/1999/xlink"
 xmlns:xodm="http://www.corel.com/coreldraw/odm/2003">
 <defs>
  <style type="text/css">
   <![CDATA[
    .fil0 {fill:none}
    .fil1 {fill:#592D3D;fill-rule:nonzero}
   ]]>
  </style>
 </defs>
 <g id="Layer_x0020_1">
  <metadata id="CorelCorpID_0Corel-Layer"/>
  <rect class="fil0" x="-0" y="-0" width="983.16" height="983.16"/>
  <g id="_2349064560976">
   <path class="fil1" d="M323.13 473.02l-223.97 0c-10.32,0 -20.64,-0.15 -30.97,0l-0.45 0c-9.71,0 -19.01,8.54 -18.57,18.57 0.17,10.18 8.38,18.4 18.57,18.57l223.97 0c10.3,0 20.64,0.15 30.97,0l0.45 0c9.71,0 19.01,-8.54 18.57,-18.57 -0.18,-10.18 -8.39,-18.39 -18.57,-18.57l0 0z"/>
   <path class="fil1" d="M915.42 473.02l-223.97 0c-10.32,0 -20.65,-0.15 -30.97,0l-0.45 0c-9.71,0 -19.01,8.54 -18.57,18.57 0.17,10.18 8.38,18.4 18.56,18.57l223.97 0c10.32,0 20.65,0.15 30.97,0l0.45 0c9.71,0 19.01,-8.54 18.57,-18.57 -0.18,-10.18 -8.39,-18.39 -18.56,-18.57l-0 0z"/>
  </g>
 </g>
</svg>
