<?xml version="1.0" encoding="UTF-8"?>
<!DOCTYPE svg PUBLIC "-//W3C//DTD SVG 1.1//EN" "http://www.w3.org/Graphics/SVG/1.1/DTD/svg11.dtd">
<!-- Creator: CorelDRAW 2020 (64-Bit Evaluation Version) -->
<svg xmlns="http://www.w3.org/2000/svg" xml:space="preserve" width="42.3333mm" height="42.3333mm" version="1.1" style="shape-rendering:geometricPrecision; text-rendering:geometricPrecision; image-rendering:optimizeQuality; fill-rule:evenodd; clip-rule:evenodd"
viewBox="0 0 980.39 980.39"
 xmlns:xlink="http://www.w3.org/1999/xlink"
 xmlns:xodm="http://www.corel.com/coreldraw/odm/2003">
 <defs>
  <style type="text/css">
   <![CDATA[
    .fil0 {fill:none}
    .fil3 {fill:#592D3D;fill-rule:nonzero}
    .fil1 {fill:gray;fill-rule:nonzero}
    .fil2 {fill:white;fill-rule:nonzero}
   ]]>
  </style>
 </defs>
 <g id="Layer_x0020_1">
  <metadata id="CorelCorpID_0Corel-Layer"/>
  <rect class="fil0" x="-0" y="-0" width="980.39" height="980.39"/>
  <g id="_2596264182784">
   <path class="fil1" d="M63.71 515.64c-1.92,-54.48 34.58,-100.59 83.15,-122.11 5.07,-2.08 10.35,-3.82 15.68,-5.19 10.58,-2.62 21.5,-3.97 32.42,-3.97 16.63,0 33.17,3.1 48.66,9.11 5.91,2.26 11.68,4.96 17.21,8 56.73,30.51 82.21,102.3 60.25,160.34 -2.22,5.82 -4.93,11.53 -8.04,16.94 -7.66,15.95 -19.25,29.72 -33.64,40.01 -4.78,3.52 -9.85,6.77 -15.08,9.61 -52.6,24.97 -123.68,17.29 -166.09,-21.9 -4.22,-4.49 -8.18,-9.32 -11.74,-14.36 -4.06,-5.74 -7.67,-11.89 -10.69,-18.25 -6.43,-13.03 -10.18,-27.26 -10.94,-41.77 -0.68,-5.46 -1.07,-10.99 -1.14,-16.48l-0 0z"/>
   <path class="fil2" d="M60.58 480.39c-1.92,-54.49 34.58,-100.59 83.15,-122.11 5.08,-2.07 10.34,-3.84 15.66,-5.19 10.58,-2.62 21.51,-3.96 32.43,-3.96 16.65,0 33.17,3.09 48.68,9.11 5.87,2.27 11.6,4.96 17.13,7.99 56.73,30.53 82.21,102.3 60.25,160.34 -2.19,5.85 -4.9,11.55 -8.02,16.95 -2.66,5.2 -5.69,10.23 -9.05,14.99 -3.32,4.72 -6.98,9.23 -10.91,13.44 -4.24,4.2 -8.86,8.12 -13.68,11.66 -4.8,3.53 -9.85,6.75 -15.08,9.61 -52.6,24.97 -123.69,17.29 -166.07,-21.9 -4.25,-4.47 -8.19,-9.3 -11.74,-14.34 -4.08,-5.76 -7.69,-11.9 -10.72,-18.26 -6.47,-13.06 -10.22,-27.38 -10.97,-41.94 -0.67,-5.42 -1.04,-10.92 -1.06,-16.39l0 0z"/>
   <path class="fil3" d="M49.1 480.8l-0.01 -0.41 -0.03 0 0.03 -0c-0.92,-28.74 7.84,-55.28 23.09,-77.68 16.24,-23.84 39.85,-42.97 66.91,-54.96l0.31 -0.13c2.46,-1 5.32,-2.05 8.58,-3.13l0 -0.05c2.83,-0.94 5.69,-1.78 8.57,-2.51l0.09 0c5.86,-1.45 11.7,-2.54 17.47,-3.24 5.9,-0.72 11.82,-1.09 17.71,-1.09 8.94,0 17.94,0.85 26.89,2.52 8.81,1.65 17.49,4.12 25.93,7.4 3.11,1.2 6.24,2.54 9.39,4.01 3.31,1.55 6.36,3.09 9.13,4.61 30.63,16.52 52.87,43.99 64.59,75.16 11.92,31.73 12.97,67.39 0.89,99.32l-0.01 -0.01c-1.26,3.35 -2.59,6.51 -3.98,9.46 -1.48,3.12 -3.1,6.2 -4.83,9.21 -1.5,2.91 -2.96,5.53 -4.34,7.83 -1.61,2.67 -3.37,5.36 -5.24,8.02 -1.73,2.46 -3.65,4.98 -5.73,7.55 -2.05,2.52 -4.11,4.9 -6.18,7.11l-0.31 0.31c-2.34,2.32 -4.75,4.53 -7.21,6.63 -2.56,2.18 -5.16,4.24 -7.78,6.15 -2.43,1.79 -5.11,3.62 -8.03,5.47 -2.77,1.77 -5.57,3.42 -8.36,4.94l-0.59 0.31c-28.63,13.59 -62.29,18.19 -94.4,13.96 -31.47,-4.15 -61.62,-16.81 -84.36,-37.84l-0.54 -0.5c-2.45,-2.58 -4.69,-5.11 -6.7,-7.57 -2.06,-2.52 -4.11,-5.23 -6.12,-8.08l0.03 -0.02c-2.29,-3.23 -4.39,-6.48 -6.29,-9.71 -2.1,-3.57 -3.92,-6.98 -5.46,-10.19l0.02 -0.01c-3.53,-7.16 -6.34,-14.71 -8.38,-22.49 -1.97,-7.53 -3.2,-15.24 -3.65,-23.01 -0.34,-2.74 -0.62,-5.72 -0.82,-8.91 -0.17,-2.57 -0.26,-5.39 -0.28,-8.45zm42.08 -65.12c-12.69,18.63 -19.95,40.62 -19.12,64.31l-11.38 0.4 11.42 0 -0.04 0c0.01,2.2 0.1,4.68 0.28,7.41 0.15,2.32 0.4,4.85 0.74,7.57l0.04 0.81c0.33,6.51 1.33,12.96 2.97,19.22 1.63,6.24 3.92,12.35 6.82,18.22l0.09 0.13c1.49,3.13 2.99,5.97 4.47,8.48 1.68,2.87 3.43,5.58 5.22,8.11l0.04 0c1.55,2.2 3.26,4.45 5.13,6.73 1.89,2.31 3.74,4.42 5.52,6.29 19.04,17.37 44.48,27.88 71.22,31.41 27.83,3.67 56.91,-0.26 81.54,-11.94 2.24,-1.24 4.41,-2.52 6.49,-3.85 2.13,-1.35 4.39,-2.91 6.77,-4.66 2.23,-1.64 4.38,-3.33 6.42,-5.07 1.98,-1.69 3.88,-3.43 5.68,-5.2 1.85,-1.98 3.56,-3.94 5.14,-5.88 1.56,-1.93 3.14,-4.03 4.74,-6.29 1.48,-2.1 2.93,-4.33 4.34,-6.67 1.54,-2.55 2.84,-4.87 3.9,-6.93l0.27 -0.54c1.4,-2.42 2.71,-4.93 3.93,-7.5 1.26,-2.67 2.36,-5.24 3.28,-7.69l0 -0.05c10.06,-26.59 9.14,-56.44 -0.88,-83.11 -9.85,-26.23 -28.47,-49.28 -54.05,-63.05l-0.09 -0.04c-2.76,-1.52 -5.36,-2.85 -7.78,-3.98 -2.55,-1.19 -5.2,-2.32 -7.95,-3.38 -7.07,-2.75 -14.4,-4.83 -21.88,-6.23 -7.35,-1.38 -14.94,-2.07 -22.66,-2.07 -5,0 -9.99,0.31 -14.92,0.91 -5.06,0.62 -9.97,1.51 -14.68,2.67l0 0.02c-2.37,0.6 -4.72,1.29 -7.04,2.06l-0.01 -0.04c-2.01,0.66 -4.35,1.54 -6.98,2.61 -23.13,10.28 -43.25,26.56 -57.02,46.78z"/>
   <path class="fil3" d="M216.16 481.56c0,-12.99 -10.53,-23.52 -23.52,-23.52 -12.99,0 -23.52,10.53 -23.52,23.52 0,12.99 10.53,23.52 23.52,23.52 12.99,0 23.52,-10.53 23.52,-23.52z"/>
   <path class="fil3" d="M916 466.19c8.49,0 15.37,6.88 15.37,15.37 0,8.49 -6.88,15.37 -15.37,15.37l-214.46 0c-8.49,0 -15.37,-6.88 -15.37,-15.37 0,-8.49 6.88,-15.37 15.37,-15.37l214.46 0z"/>
   <path class="fil3" d="M746.88 510.54c8.3,-1.48 16.71,-2.5 25.11,-3.01 8.38,-0.58 16.75,-0.83 25.13,-0.85 8.38,-0.02 16.73,0.27 25.11,0.83 8.39,0.53 16.84,1.54 25.13,3.02 -8.27,1.47 -16.74,2.55 -25.13,3.05 -8.38,0.54 -16.75,0.81 -25.11,0.79 -8.36,-0.01 -16.73,0.25 -25.13,-0.83 -8.4,-0.5 -16.83,-1.55 -25.11,-3.02l-0 0z"/>
  </g>
 </g>
</svg>
