<?xml version="1.0" encoding="UTF-8"?>
<!DOCTYPE svg PUBLIC "-//W3C//DTD SVG 1.1//EN" "http://www.w3.org/Graphics/SVG/1.1/DTD/svg11.dtd">
<!-- Creator: CorelDRAW 2020 (64-Bit Evaluation Version) -->
<svg xmlns="http://www.w3.org/2000/svg" xml:space="preserve" width="42.3333mm" height="42.3333mm" version="1.1" style="shape-rendering:geometricPrecision; text-rendering:geometricPrecision; image-rendering:optimizeQuality; fill-rule:evenodd; clip-rule:evenodd"
viewBox="0 0 980.39 980.39"
 xmlns:xlink="http://www.w3.org/1999/xlink"
 xmlns:xodm="http://www.corel.com/coreldraw/odm/2003">
 <defs>
  <style type="text/css">
   <![CDATA[
    .fil0 {fill:none}
    .fil3 {fill:#592D3D;fill-rule:nonzero}
    .fil1 {fill:gray;fill-rule:nonzero}
    .fil2 {fill:white;fill-rule:nonzero}
   ]]>
  </style>
 </defs>
 <g id="Layer_x0020_1">
  <metadata id="CorelCorpID_0Corel-Layer"/>
  <rect class="fil0" x="-0" y="-0" width="980.39" height="980.39"/>
  <g id="_2349137339344">
   <path class="fil1" d="M63.4 515.06c-1.88,-53.33 33.85,-98.46 81.38,-119.52 4.97,-2.04 10.13,-3.74 15.35,-5.07 10.31,-2.55 20.95,-3.85 31.58,-3.85 16.34,0 32.57,3.05 47.79,8.98 5.75,2.2 11.39,4.83 16.79,7.81 55.53,29.88 80.46,100.13 58.97,156.93 -2.17,5.71 -4.82,11.3 -7.86,16.6 -7.49,15.61 -18.84,29.09 -32.93,39.16 -4.68,3.45 -9.64,6.63 -14.76,9.41 -51.48,24.44 -121.06,16.92 -162.56,-21.44 -4.15,-4.41 -7.99,-9.12 -11.48,-14.05 -3.98,-5.63 -7.51,-11.65 -10.48,-17.87 -6.3,-12.79 -9.94,-26.74 -10.66,-40.98 -0.67,-5.34 -1.06,-10.76 -1.13,-16.12l-0.01 0.01z"/>
   <path class="fil2" d="M60.34 480.55c-1.88,-53.33 33.85,-98.46 81.38,-119.52 4.97,-2.02 10.12,-3.75 15.33,-5.08 10.35,-2.56 21.05,-3.88 31.74,-3.88 16.29,0 32.46,3.02 47.64,8.92 5.74,2.22 11.36,4.85 16.76,7.82 55.53,29.88 80.46,100.15 58.97,156.93 -2.14,5.72 -4.8,11.31 -7.85,16.59 -2.6,5.09 -5.57,10.01 -8.86,14.68 -3.25,4.62 -6.83,9.03 -10.68,13.15 -4.15,4.12 -8.67,7.95 -13.39,11.41 -4.7,3.46 -9.64,6.61 -14.76,9.4 -51.48,24.44 -121.06,16.92 -162.54,-21.42 -4.14,-4.39 -8.01,-9.13 -11.49,-14.06 -3.99,-5.63 -7.53,-11.64 -10.5,-17.86 -6.32,-12.73 -9.98,-26.66 -10.73,-40.86 -0.68,-5.37 -1.04,-10.82 -1.04,-16.23l0 0.01z"/>
   <path class="fil3" d="M49.09 480.55c-0.9,-28.12 7.67,-54.11 22.6,-76.03 15.89,-23.33 39,-42.06 65.49,-53.79l0.31 -0.13c2.41,-0.98 5.21,-2 8.4,-3.06l0 -0.04c2.77,-0.92 5.57,-1.75 8.39,-2.46l0.09 0c5.73,-1.42 11.45,-2.48 17.1,-3.17 5.77,-0.7 11.57,-1.06 17.33,-1.06 8.74,0 17.56,0.83 26.32,2.47 8.62,1.61 17.12,4.03 25.38,7.24 3.04,1.18 6.11,2.49 9.19,3.93 3.24,1.51 6.23,3.02 8.94,4.51 29.98,16.16 51.75,43.05 63.21,73.56 11.67,31.06 12.7,65.97 0.87,97.21l-0.01 -0c-1.23,3.27 -2.53,6.36 -3.9,9.25 -1.45,3.06 -3.03,6.07 -4.73,9.01 -1.47,2.85 -2.89,5.41 -4.25,7.66 -1.58,2.62 -3.3,5.24 -5.13,7.85 -1.69,2.41 -3.57,4.88 -5.61,7.39 -2.01,2.47 -4.03,4.79 -6.05,6.95l-0.31 0.31c-2.29,2.26 -4.65,4.43 -7.06,6.49 -2.5,2.13 -5.05,4.15 -7.61,6.02 -2.38,1.75 -5,3.54 -7.86,5.36 -2.72,1.73 -5.45,3.35 -8.18,4.84l-0.57 0.31c-28.02,13.3 -60.96,17.8 -92.39,13.66 -30.8,-4.06 -60.31,-16.45 -82.57,-37.02l-0.57 -0.53c-2.2,-2.33 -4.38,-4.83 -6.53,-7.47 -2.16,-2.64 -4.15,-5.26 -5.97,-7.83l0.01 -0.01c-2.13,-3 -4.18,-6.18 -6.13,-9.5 -2.05,-3.5 -3.84,-6.83 -5.34,-9.98l0.02 -0.01c-3.46,-7 -6.2,-14.33 -8.18,-21.86 -1.97,-7.5 -3.19,-15.23 -3.62,-23.04 -0.36,-2.93 -0.63,-5.7 -0.79,-8.26 -0.2,-3.14 -0.31,-6.07 -0.31,-8.77l0.03 -0.01zm41.2 -63.34c-12.42,18.24 -19.53,39.76 -18.71,62.95l-11.09 0.39 11.13 0c0,2.67 0.08,5.13 0.22,7.36 0.17,2.73 0.41,5.22 0.69,7.46l0.09 0.84c0.33,6.3 1.32,12.57 2.92,18.68 1.61,6.12 3.84,12.08 6.66,17.77l0.09 0.13c1.46,3.07 2.92,5.84 4.37,8.31 1.54,2.63 3.25,5.26 5.11,7.88l0.04 0.04c1.66,2.35 3.33,4.56 5,6.6 1.68,2.06 3.5,4.13 5.44,6.19 18.63,16.98 43.53,27.26 69.69,30.71 27.24,3.59 55.69,-0.26 79.81,-11.69 2.2,-1.21 4.32,-2.47 6.35,-3.77 2.08,-1.33 4.3,-2.85 6.62,-4.56 2.19,-1.6 4.29,-3.26 6.29,-4.97 1.94,-1.66 3.8,-3.36 5.56,-5.09 1.81,-1.94 3.49,-3.86 5.03,-5.76 1.53,-1.89 3.08,-3.94 4.64,-6.16 1.45,-2.06 2.87,-4.24 4.25,-6.53 1.51,-2.5 2.78,-4.77 3.81,-6.78l0.27 -0.53c1.37,-2.37 2.65,-4.82 3.84,-7.34 1.23,-2.61 2.31,-5.13 3.21,-7.53l0 -0.05c9.85,-26.02 8.94,-55.24 -0.87,-81.34 -9.64,-25.67 -27.87,-48.24 -52.9,-61.71l-0.09 -0.04c-2.7,-1.49 -5.25,-2.79 -7.62,-3.9 -2.5,-1.16 -5.09,-2.27 -7.78,-3.31 -6.92,-2.69 -14.09,-4.73 -21.41,-6.1 -7.2,-1.35 -14.62,-2.03 -22.18,-2.03 -4.9,0 -9.78,0.3 -14.6,0.89 -4.96,0.61 -9.76,1.48 -14.37,2.62l0.01 0.02c-2.32,0.59 -4.62,1.27 -6.89,2.02l-0.01 -0.04c-1.96,0.65 -4.26,1.51 -6.83,2.56 -22.64,10.06 -42.33,26 -55.81,45.78z"/>
   <path class="fil3" d="M212.6 481.7c0,-12.71 -10.3,-23.02 -23.02,-23.02 -12.71,0 -23.02,10.3 -23.02,23.02 0,12.71 10.3,23.02 23.02,23.02 12.71,0 23.02,-10.3 23.02,-23.02z"/>
   <path class="fil1" d="M650.99 499.9c0.81,-28.45 12.54,-56.58 28.39,-77.72 4.05,-5.67 8.53,-11.05 13.38,-16.04 24.72,-25.75 58.92,-40.35 94.63,-40.35 26.78,0 52.97,8.21 74.93,23.51 4.25,2.97 8.39,6.22 12.28,9.65 50.77,40.33 56.63,118.72 28.8,175.3 -2.7,4.47 -5.73,8.82 -8.99,12.9 -4.33,5.44 -9.13,10.59 -14.24,15.29 -38.11,33.53 -97.42,41.61 -145.56,23.35 -6.86,-2.57 -13.52,-5.75 -19.85,-9.4 -33.66,-20.27 -57.11,-58.46 -62.86,-98.21 -0.63,-5 -0.96,-10.04 -0.96,-15.08 0,-1.07 0.01,-2.15 0.04,-3.21l0 -0z"/>
   <path class="fil2" d="M661.31 478.34c0.79,-26.61 12.07,-52.93 27.3,-72.7 3.9,-5.32 8.26,-10.36 12.9,-15.04 24.15,-24.13 56.94,-37.71 91.09,-37.71 25.67,0 50.78,7.7 72.06,22.03 4.09,2.77 8.06,5.8 11.81,9 48.89,37.74 54.53,111.07 27.71,164 -2.6,4.21 -5.49,8.25 -8.64,12.06 -4.18,5.1 -8.8,9.9 -13.71,14.29 -36.69,31.36 -93.75,38.94 -140.07,21.85 -6.6,-2.45 -13.01,-5.44 -19.12,-8.93 -32.38,-18.95 -54.94,-54.68 -60.49,-91.85 -0.6,-4.56 -0.9,-9.16 -0.9,-13.75 0,-1.09 0.03,-2.19 0.05,-3.26l-0 -0z"/>
   <path class="fil3" d="M650.07 478.03c0.42,-14.09 3.47,-28.02 8.36,-41.05 5.22,-13.91 12.59,-26.88 21.1,-37.99 2.07,-2.83 4.29,-5.61 6.61,-8.33 2.36,-2.74 4.83,-5.41 7.39,-7.99l0.04 -0.05c13.11,-13.1 28.59,-23.35 45.46,-30.33 16.88,-6.99 35.06,-10.69 53.57,-10.69 13.85,0 27.64,2.1 40.92,6.16 13.3,4.06 25.93,10.05 37.44,17.81l0 0.04c2.44,1.66 4.63,3.23 6.56,4.69 2.06,1.57 4.12,3.23 6.15,4.97 25.61,19.92 40.37,48.55 45.56,79.29 5.59,33.08 0.04,68.73 -15,98.42l-0.48 0.84c-1.62,2.63 -3.13,4.91 -4.51,6.84 -1.55,2.16 -3.23,4.33 -5.02,6.5l-0.02 -0.02c-2.31,2.82 -4.68,5.49 -7.08,7.99 -2.4,2.5 -5,5.01 -7.79,7.51l-0.18 0.18c-19.72,16.86 -44.75,27.4 -71.04,31.5 -26.81,4.18 -55,1.68 -80.22,-7.62l-0.04 -0.05c-3.58,-1.33 -7.13,-2.81 -10.61,-4.44 -3.54,-1.65 -6.93,-3.4 -10.15,-5.24l-0.13 -0.09c-17.5,-10.25 -32.36,-24.93 -43.62,-42.03 -11.51,-17.47 -19.29,-37.49 -22.33,-57.89l0 -0.18c-0.35,-2.67 -0.61,-5.2 -0.76,-7.59 -0.18,-2.75 -0.27,-5.29 -0.27,-7.62 0,-0.96 0.02,-0.08 0.05,-1.18l-0.02 -0.05 0.07 -2.34zm29.43 -33.12c-4.08,10.85 -6.61,22.31 -6.95,33.74l-0.03 1.54c-0.01,0.84 0.03,-0.73 0.03,1.42 0,2.28 0.06,4.35 0.18,6.21 0.14,2.12 0.33,4.1 0.56,5.92l0.02 -0c2.57,17.23 9.12,34.11 18.81,48.81 9.38,14.24 21.67,26.43 36.08,34.9l0 -0.01c2.88,1.64 5.73,3.13 8.56,4.44 2.9,1.35 5.87,2.59 8.88,3.71l0.01 -0.03c21.71,8.01 45.97,10.16 69.02,6.57 22.28,-3.47 43.38,-12.31 59.85,-26.39l0.01 0.01c2.09,-1.89 4.22,-3.96 6.37,-6.2 2.13,-2.22 4.13,-4.46 5.96,-6.69l0 -0.05c1.36,-1.65 2.71,-3.41 4.05,-5.27 1.33,-1.86 2.46,-3.52 3.38,-4.97 12.81,-25.45 17.52,-55.96 12.74,-84.29 -4.32,-25.58 -16.45,-49.25 -37.43,-65.45l-0.44 -0.35c-1.68,-1.43 -3.45,-2.86 -5.29,-4.27 -2.01,-1.53 -3.85,-2.86 -5.48,-3.97l-0.02 0.03c-9.77,-6.59 -20.35,-11.62 -31.36,-14.99 -11,-3.36 -22.59,-5.1 -34.4,-5.1 -15.64,0 -30.92,3.09 -45.02,8.92 -14.1,5.84 -27.08,14.44 -38.11,25.46 -2.14,2.16 -4.22,4.41 -6.23,6.74 -1.92,2.24 -3.78,4.58 -5.56,7l-0.18 0.22c-7.26,9.42 -13.55,20.48 -18.02,32.39z"/>
   <path class="fil3" d="M815.63 481.7c0,-12.71 -10.31,-23.02 -23.02,-23.02 -12.71,0 -23.02,10.3 -23.02,23.02 0,12.71 10.31,23.02 23.02,23.02 12.71,0 23.02,-10.3 23.02,-23.02z"/>
  </g>
 </g>
</svg>
