<?xml version="1.0" encoding="UTF-8"?>
<!DOCTYPE svg PUBLIC "-//W3C//DTD SVG 1.1//EN" "http://www.w3.org/Graphics/SVG/1.1/DTD/svg11.dtd">
<!-- Creator: CorelDRAW 2020 (64-Bit Evaluation Version) -->
<svg xmlns="http://www.w3.org/2000/svg" xml:space="preserve" width="42.3333mm" height="42.3333mm" version="1.1" style="shape-rendering:geometricPrecision; text-rendering:geometricPrecision; image-rendering:optimizeQuality; fill-rule:evenodd; clip-rule:evenodd"
viewBox="0 0 980.39 980.39"
 xmlns:xlink="http://www.w3.org/1999/xlink"
 xmlns:xodm="http://www.corel.com/coreldraw/odm/2003">
 <defs>
  <style type="text/css">
   <![CDATA[
    .fil0 {fill:none}
    .fil1 {fill:#592D3D;fill-rule:nonzero}
   ]]>
  </style>
 </defs>
 <g id="Layer_x0020_1">
  <metadata id="CorelCorpID_0Corel-Layer"/>
  <rect class="fil0" x="-0" y="-0" width="980.39" height="980.39"/>
  <g id="_2348985841488">
   <path class="fil1" d="M904.47 420.42c0,-6.95 5.64,-12.58 12.58,-12.58 6.95,0 12.59,5.63 12.59,12.58l0 26.16c0.51,2.99 0.91,6.05 1.19,9.16 0.35,3.85 0.53,7.39 0.53,10.59 0,6.42 -0.56,12.92 -1.66,19.42 -1.08,6.39 -2.71,12.74 -4.87,18.94l0 0.05c-1.05,2.97 -2.31,6.05 -3.76,9.22 -1.25,2.72 -2.64,5.43 -4.15,8.11 -4.21,10.39 -11.35,19.65 -20.02,27.24 -9.39,8.23 -20.75,14.64 -32.14,18.43l-0.49 0.2c-17.31,4.95 -36.63,5.98 -54.86,2.07 -16.86,-3.61 -32.82,-11.4 -45.57,-24.15l-0.29 -0.35c-28.75,-30.81 -29.02,-71.68 -29.26,-109.2 -0.03,-5.24 -0.07,-10.42 -0.19,-15.72 -0.16,-6.92 5.32,-12.67 12.24,-12.83 6.92,-0.16 12.67,5.32 12.83,12.24 0.12,5.12 0.16,10.63 0.2,16.21 0.21,32.62 0.44,68.14 22.27,91.85l0.01 -0.01c9.12,9.12 20.69,14.73 32.99,17.36 14.13,3.03 29.19,2.2 42.77,-1.68l0.01 0.03c8.1,-2.78 16.21,-7.41 22.99,-13.35 6.07,-5.32 10.94,-11.58 13.52,-18.3l0.37 -0.96 0.47 -0.81c1.25,-2.17 2.42,-4.45 3.51,-6.82 1.01,-2.19 1.97,-4.58 2.87,-7.15l0.02 0c1.66,-4.77 2.92,-9.72 3.77,-14.77 0.84,-4.96 1.26,-10.07 1.26,-15.29 0,-3.11 -0.11,-5.9 -0.34,-8.33 -0.25,-2.72 -0.63,-5.49 -1.15,-8.28l-0.25 -1.34 0 -27.96z"/>
   <path class="fil1" d="M219.04 420.65c-0.6,-6.92 4.53,-13.02 11.45,-13.62 6.92,-0.6 13.02,4.53 13.62,11.45 2.99,33.97 1.18,75.84 -15.84,107.49 -13.4,24.91 -35.64,43.29 -71.19,46.96l-0.2 0.05c-1.05,0.09 -2.67,0.19 -4.81,0.28 -2.15,0.09 -3.75,0.14 -4.79,0.14 -1.02,0 -2.63,-0.05 -4.78,-0.14 -2.16,-0.1 -3.78,-0.19 -4.82,-0.28 -9.69,-0.84 -19.16,-3.02 -28.17,-6.46 -8.94,-3.41 -17.48,-8.12 -25.33,-14.01l-0.49 -0.39c-36.83,-30.69 -35.45,-74.31 -34.2,-114.03 0.2,-6.48 0.41,-12.85 0.42,-18.56 0,-6.92 5.61,-12.54 12.54,-12.54 6.92,0 12.54,5.61 12.54,12.54 -0.02,6.57 -0.22,12.91 -0.42,19.35 -1.07,33.8 -2.23,70.91 24.92,93.77 5.77,4.29 12.17,7.78 18.99,10.38 6.82,2.6 14,4.26 21.33,4.88l0.05 0c1.8,0.16 3.04,0.25 3.74,0.28 0.68,0.03 1.91,0.04 3.7,0.04 1.79,0 3.02,-0.02 3.71,-0.05 0.71,-0.03 1.95,-0.13 3.73,-0.28l0 0.03c25.74,-2.72 41.8,-15.96 51.43,-33.86 14.21,-26.41 15.55,-63.19 12.89,-93.43z"/>
  </g>
 </g>
</svg>
