<?xml version="1.0" encoding="UTF-8"?>
<!DOCTYPE svg PUBLIC "-//W3C//DTD SVG 1.1//EN" "http://www.w3.org/Graphics/SVG/1.1/DTD/svg11.dtd">
<!-- Creator: CorelDRAW 2020 (64-Bit Evaluation Version) -->
<svg xmlns="http://www.w3.org/2000/svg" xml:space="preserve" width="42.3333mm" height="42.3333mm" version="1.1" style="shape-rendering:geometricPrecision; text-rendering:geometricPrecision; image-rendering:optimizeQuality; fill-rule:evenodd; clip-rule:evenodd"
viewBox="0 0 980.39 980.39"
 xmlns:xlink="http://www.w3.org/1999/xlink"
 xmlns:xodm="http://www.corel.com/coreldraw/odm/2003">
 <defs>
  <style type="text/css">
   <![CDATA[
    .fil0 {fill:none}
    .fil1 {fill:#592D3D;fill-rule:nonzero}
   ]]>
  </style>
 </defs>
 <g id="Layer_x0020_1">
  <metadata id="CorelCorpID_0Corel-Layer"/>
  <rect class="fil0" x="-0" y="-0" width="980.39" height="980.39"/>
  <g id="_2349067178288">
   <path class="fil1" d="M230.16 553.62c6.79,6.79 6.79,17.81 0,24.6 -6.79,6.79 -17.81,6.79 -24.6,0l-151.44 -151.44c-6.79,-6.79 -6.79,-17.81 0,-24.6 6.79,-6.79 17.81,-6.79 24.6,0l151.44 151.44z"/>
   <path class="fil1" d="M78.72 578.22c-6.79,6.79 -17.81,6.79 -24.6,0 -6.79,-6.79 -6.79,-17.81 0,-24.6l151.44 -151.44c6.79,-6.79 17.81,-6.79 24.6,0 6.79,6.79 6.79,17.81 0,24.6l-151.44 151.44z"/>
   <path class="fil1" d="M926.28 553.62c6.79,6.79 6.79,17.81 0,24.6 -6.79,6.79 -17.81,6.79 -24.6,0l-151.46 -151.44c-6.79,-6.79 -6.79,-17.81 0,-24.6 6.79,-6.79 17.81,-6.79 24.6,0l151.46 151.44z"/>
   <path class="fil1" d="M774.81 578.22c-6.79,6.79 -17.81,6.79 -24.6,0 -6.79,-6.79 -6.79,-17.81 0,-24.6l151.46 -151.44c6.79,-6.79 17.81,-6.79 24.6,0 6.79,6.79 6.79,17.81 0,24.6l-151.46 151.44z"/>
  </g>
 </g>
</svg>
