<?xml version="1.0" encoding="UTF-8"?>
<!DOCTYPE svg PUBLIC "-//W3C//DTD SVG 1.1//EN" "http://www.w3.org/Graphics/SVG/1.1/DTD/svg11.dtd">
<!-- Creator: CorelDRAW 2020 (64-Bit Evaluation Version) -->
<svg xmlns="http://www.w3.org/2000/svg" xml:space="preserve" width="42.3333mm" height="42.3333mm" version="1.1" style="shape-rendering:geometricPrecision; text-rendering:geometricPrecision; image-rendering:optimizeQuality; fill-rule:evenodd; clip-rule:evenodd"
viewBox="0 0 980.39 980.39"
 xmlns:xlink="http://www.w3.org/1999/xlink"
 xmlns:xodm="http://www.corel.com/coreldraw/odm/2003">
 <defs>
  <style type="text/css">
   <![CDATA[
    .fil0 {fill:none}
    .fil1 {fill:#592D3D;fill-rule:nonzero}
   ]]>
  </style>
 </defs>
 <g id="Layer_x0020_1">
  <metadata id="CorelCorpID_0Corel-Layer"/>
  <rect class="fil0" x="-0" y="-0" width="980.39" height="980.39"/>
  <g id="_2349137334448">
   <path class="fil1" d="M75.91 559.99c0,6.95 -5.63,12.58 -12.58,12.58 -6.95,0 -12.58,-5.64 -12.58,-12.58l0 -26.25c-0.51,-2.99 -0.91,-6.05 -1.19,-9.15 -0.35,-3.86 -0.53,-7.39 -0.53,-10.59 0,-6.42 0.56,-12.92 1.66,-19.42 1.08,-6.4 2.71,-12.74 4.87,-18.95l0 -0.05c1.05,-2.98 2.32,-6.07 3.77,-9.25 1.24,-2.7 2.62,-5.41 4.13,-8.08 4.21,-10.38 11.35,-19.65 20.02,-27.24 9.39,-8.23 20.75,-14.64 32.14,-18.43l0.49 -0.2c17.32,-4.95 36.63,-5.98 54.86,-2.07 16.86,3.61 32.82,11.4 45.57,24.15l0.29 0.35c28.75,30.81 29.02,71.68 29.26,109.2 0.03,5.24 0.07,10.42 0.19,15.72 0.16,6.92 -5.32,12.67 -12.24,12.83 -6.92,0.16 -12.67,-5.32 -12.83,-12.24 -0.12,-5.12 -0.16,-10.63 -0.2,-16.21 -0.21,-32.62 -0.44,-68.14 -22.27,-91.85l-0.01 0.01c-9.12,-9.12 -20.69,-14.73 -32.99,-17.36 -14.13,-3.03 -29.19,-2.2 -42.77,1.68l-0.01 -0.03c-8.1,2.78 -16.21,7.41 -22.99,13.35 -6.07,5.32 -10.94,11.58 -13.52,18.3l-0.37 0.96 -0.47 0.82c-1.24,2.15 -2.41,4.43 -3.49,6.79 -1.01,2.2 -1.98,4.6 -2.89,7.19l-0.02 -0.01c-1.66,4.77 -2.92,9.72 -3.77,14.78 -0.84,4.96 -1.26,10.07 -1.26,15.29 0,3.12 0.11,5.9 0.34,8.33 0.25,2.72 0.63,5.49 1.14,8.28l0.25 1.34 0 28.04z"/>
   <path class="fil1" d="M761.34 559.73c0.6,6.92 -4.53,13.02 -11.45,13.62 -6.92,0.6 -13.02,-4.53 -13.62,-11.45 -2.99,-33.99 -1.18,-75.86 15.84,-107.5 13.4,-24.91 35.64,-43.29 71.19,-46.95l0.15 0c1.73,-0.16 3.33,-0.27 4.82,-0.34 2.15,-0.1 3.76,-0.15 4.82,-0.15 2.83,0 6.04,0.16 9.59,0.48l0 -0.05c9.68,0.84 19.17,3.04 28.19,6.49 8.94,3.42 17.47,8.13 25.32,14.02l0.49 0.39c36.83,30.69 35.45,74.31 34.2,114.04 -0.2,6.48 -0.41,12.85 -0.42,18.57 0,6.92 -5.61,12.54 -12.54,12.54 -6.92,0 -12.54,-5.61 -12.54,-12.54 0.02,-6.57 0.22,-12.91 0.42,-19.36 1.07,-33.81 2.23,-70.93 -24.92,-93.78 -5.77,-4.3 -12.17,-7.79 -18.97,-10.39 -6.82,-2.61 -14.03,-4.28 -21.41,-4.91l0 -0.05c-2.1,-0.19 -4.59,-0.28 -7.43,-0.28 -1.78,0 -3.04,0.02 -3.74,0.05 -1.28,0.06 -2.45,0.13 -3.49,0.23l0 0.01c-25.86,2.66 -41.98,15.92 -51.63,33.87 -14.21,26.41 -15.55,63.19 -12.89,93.44z"/>
  </g>
 </g>
</svg>
