<?xml version="1.0" encoding="UTF-8"?>
<!DOCTYPE svg PUBLIC "-//W3C//DTD SVG 1.1//EN" "http://www.w3.org/Graphics/SVG/1.1/DTD/svg11.dtd">
<!-- Creator: CorelDRAW 2020 (64-Bit Evaluation Version) -->
<svg xmlns="http://www.w3.org/2000/svg" xml:space="preserve" width="42.3333mm" height="42.3333mm" version="1.1" style="shape-rendering:geometricPrecision; text-rendering:geometricPrecision; image-rendering:optimizeQuality; fill-rule:evenodd; clip-rule:evenodd"
viewBox="0 0 980.39 980.39"
 xmlns:xlink="http://www.w3.org/1999/xlink"
 xmlns:xodm="http://www.corel.com/coreldraw/odm/2003">
 <defs>
  <style type="text/css">
   <![CDATA[
    .fil0 {fill:none}
    .fil1 {fill:#592D3D;fill-rule:nonzero}
   ]]>
  </style>
 </defs>
 <g id="Layer_x0020_1">
  <metadata id="CorelCorpID_0Corel-Layer"/>
  <rect class="fil0" x="-0" y="-0" width="980.39" height="980.39"/>
  <g id="_2349118949712">
   <path class="fil1" d="M150.36 490.2c0,-27.99 -22.69,-50.67 -50.67,-50.67 -27.99,0 -50.67,22.69 -50.67,50.67 0,27.99 22.69,50.67 50.67,50.67 27.99,0 50.67,-22.69 50.67,-50.67z"/>
   <path class="fil1" d="M99.38 531.1c4.33,-0.24 9.16,-0.63 13.78,-1.11 4.62,-0.48 9.33,-1.06 14,-1.79 4.66,-0.72 9.35,-1.57 14.05,-2.42 4.69,-0.85 9.48,-1.64 14.5,-2.01 -3.94,3.03 -8.27,5.58 -12.84,7.54 -4.54,1.89 -9.22,3.52 -13.97,4.83 -4.75,1.38 -9.62,2.5 -14.51,3.3 -4.95,0.86 -10.01,1.3 -15.05,1.3 -0.01,0 -0.03,0 -0.04,0l0.07 -9.64z"/>
   <path class="fil1" d="M925.69 490.2c0,-27.99 -22.69,-50.67 -50.67,-50.67 -27.99,0 -50.67,22.69 -50.67,50.67 0,27.99 22.69,50.67 50.67,50.67 27.99,0 50.67,-22.69 50.67,-50.67z"/>
   <path class="fil1" d="M875.02 531.1c4.35,-0.24 9.16,-0.63 13.78,-1.11 4.62,-0.48 9.36,-1.06 14.02,-1.79 4.66,-0.72 9.35,-1.57 14.05,-2.42 4.69,-0.85 9.48,-1.64 14.5,-2.01 -3.95,3.03 -8.27,5.57 -12.84,7.54 -4.54,1.89 -9.22,3.52 -13.97,4.84 -4.75,1.38 -9.63,2.49 -14.51,3.29 -4.96,0.87 -10.02,1.3 -15.06,1.3 0,0 -0.02,0 -0.02,0l0.05 -9.64z"/>
  </g>
 </g>
</svg>
