<?xml version="1.0" encoding="UTF-8"?>
<!DOCTYPE svg PUBLIC "-//W3C//DTD SVG 1.1//EN" "http://www.w3.org/Graphics/SVG/1.1/DTD/svg11.dtd">
<!-- Creator: CorelDRAW 2020 (64-Bit Evaluation Version) -->
<svg xmlns="http://www.w3.org/2000/svg" xml:space="preserve" width="42.3333mm" height="42.3333mm" version="1.1" style="shape-rendering:geometricPrecision; text-rendering:geometricPrecision; image-rendering:optimizeQuality; fill-rule:evenodd; clip-rule:evenodd"
viewBox="0 0 980.39 980.39"
 xmlns:xlink="http://www.w3.org/1999/xlink"
 xmlns:xodm="http://www.corel.com/coreldraw/odm/2003">
 <defs>
  <style type="text/css">
   <![CDATA[
    .fil0 {fill:none}
    .fil3 {fill:#592D3D;fill-rule:nonzero}
    .fil1 {fill:gray;fill-rule:nonzero}
    .fil4 {fill:#E2495B;fill-rule:nonzero}
    .fil2 {fill:white;fill-rule:nonzero}
   ]]>
  </style>
 </defs>
 <g id="Layer_x0020_1">
  <metadata id="CorelCorpID_0Corel-Layer"/>
  <rect class="fil0" x="-0" y="-0" width="980.39" height="980.39"/>
  <g id="_2349078514496">
   <path class="fil1" d="M63.4 515.11c-1.88,-53.33 33.85,-98.46 81.38,-119.52 4.97,-2.04 10.13,-3.74 15.35,-5.07 10.36,-2.57 21.05,-3.89 31.73,-3.89 16.28,0 32.46,3.04 47.63,8.92 5.79,2.21 11.43,4.86 16.84,7.83 55.53,29.86 80.46,100.13 58.97,156.93 -2.17,5.69 -4.82,11.29 -7.87,16.58 -7.49,15.61 -18.84,29.09 -32.93,39.16 -4.68,3.45 -9.64,6.63 -14.76,9.41 -51.48,24.45 -121.06,16.92 -162.55,-21.44 -4.14,-4.39 -8.01,-9.12 -11.49,-14.05 -3.97,-5.62 -7.5,-11.64 -10.47,-17.87 -6.29,-12.75 -9.96,-26.68 -10.71,-40.88 -0.66,-5.34 -1.05,-10.76 -1.12,-16.13l-0.01 0.01z"/>
   <path class="fil2" d="M60.34 480.6c-1.88,-53.33 33.85,-98.46 81.38,-119.51 4.97,-2.03 10.12,-3.76 15.33,-5.08 10.35,-2.56 21.05,-3.88 31.74,-3.88 16.29,0 32.46,3.02 47.64,8.92 5.74,2.22 11.36,4.85 16.76,7.82 55.53,29.88 80.46,100.13 58.97,156.93 -2.14,5.72 -4.8,11.31 -7.85,16.59 -2.6,5.09 -5.57,10.01 -8.86,14.68 -3.25,4.62 -6.83,9.03 -10.68,13.15 -4.15,4.12 -8.67,7.95 -13.39,11.41 -4.7,3.46 -9.64,6.61 -14.76,9.4 -51.48,24.44 -121.06,16.92 -162.54,-21.44 -4.16,-4.37 -8.02,-9.1 -11.49,-14.04 -3.99,-5.63 -7.52,-11.65 -10.49,-17.87 -6.33,-12.79 -10.01,-26.8 -10.73,-41.05 -0.66,-5.3 -1.02,-10.68 -1.04,-16.04l0 0z"/>
   <path class="fil3" d="M49.1 481l-0.01 -0.4 -0.03 0 0.03 -0c-0.9,-28.12 7.67,-54.11 22.6,-76.03 15.89,-23.34 39,-42.06 65.49,-53.79l0.31 -0.13c2.41,-0.98 5.21,-2.01 8.4,-3.06l0 -0.04c2.77,-0.92 5.57,-1.74 8.39,-2.46l0.09 0c5.73,-1.42 11.45,-2.48 17.1,-3.17 5.77,-0.7 11.57,-1.06 17.33,-1.06 8.74,0 17.56,0.83 26.32,2.47 8.62,1.61 17.12,4.03 25.38,7.24 3.04,1.18 6.11,2.49 9.19,3.93 3.24,1.51 6.23,3.02 8.94,4.51 29.98,16.16 51.75,43.05 63.21,73.56 11.67,31.05 12.69,65.96 0.87,97.21l-0.01 -0.01c-1.23,3.27 -2.53,6.37 -3.9,9.25 -1.45,3.06 -3.03,6.07 -4.73,9.01 -1.47,2.85 -2.89,5.41 -4.25,7.66 -1.58,2.62 -3.3,5.24 -5.13,7.85 -1.69,2.41 -3.57,4.88 -5.61,7.39 -2.01,2.47 -4.03,4.79 -6.05,6.95l-0.31 0.31c-2.29,2.26 -4.65,4.43 -7.06,6.49 -2.5,2.13 -5.05,4.15 -7.61,6.02 -2.38,1.75 -5,3.54 -7.86,5.36 -2.72,1.73 -5.45,3.35 -8.18,4.84l-0.57 0.31c-28.02,13.3 -60.96,17.8 -92.4,13.66 -30.8,-4.06 -60.31,-16.45 -82.57,-37.03l-0.53 -0.48c-2.4,-2.52 -4.59,-5 -6.56,-7.41 -2.02,-2.47 -4.02,-5.12 -5.99,-7.91l0.03 -0.02c-2.23,-3.16 -4.29,-6.34 -6.15,-9.5 -2.05,-3.49 -3.84,-6.83 -5.34,-9.97l0.02 -0.01c-3.46,-7.01 -6.21,-14.39 -8.2,-22.01 -1.93,-7.37 -3.13,-14.92 -3.57,-22.52 -0.34,-2.68 -0.61,-5.6 -0.81,-8.73 -0.16,-2.52 -0.25,-5.28 -0.27,-8.27zm41.19 -63.74c-12.42,18.23 -19.53,39.76 -18.71,62.95l-11.14 0.39 11.18 0 -0.04 0c0,2.15 0.1,4.58 0.27,7.26 0.15,2.27 0.39,4.75 0.72,7.41l0.04 0.79c0.33,6.37 1.31,12.68 2.91,18.81 1.6,6.1 3.84,12.09 6.68,17.83l0.09 0.13c1.46,3.07 2.92,5.84 4.37,8.3 1.65,2.81 3.36,5.46 5.11,7.94l0.04 0c1.52,2.16 3.19,4.36 5.02,6.59 1.85,2.26 3.66,4.32 5.4,6.16 18.63,17 43.53,27.29 69.71,30.74 27.24,3.59 55.7,-0.26 79.81,-11.69 2.2,-1.21 4.32,-2.47 6.35,-3.77 2.08,-1.32 4.3,-2.85 6.62,-4.56 2.19,-1.6 4.29,-3.26 6.29,-4.97 1.94,-1.66 3.8,-3.36 5.56,-5.09 1.81,-1.94 3.49,-3.86 5.03,-5.76 1.53,-1.89 3.08,-3.94 4.64,-6.16 1.45,-2.06 2.87,-4.24 4.25,-6.53 1.51,-2.5 2.78,-4.76 3.81,-6.78l0.27 -0.53c1.37,-2.37 2.65,-4.82 3.84,-7.34 1.23,-2.61 2.31,-5.13 3.21,-7.53l0 -0.04c9.85,-26.03 8.94,-55.24 -0.87,-81.35 -9.64,-25.67 -27.87,-48.24 -52.9,-61.7l-0.09 -0.04c-2.7,-1.49 -5.25,-2.79 -7.62,-3.9 -2.5,-1.17 -5.09,-2.27 -7.78,-3.31 -6.92,-2.69 -14.09,-4.72 -21.41,-6.1 -7.2,-1.35 -14.62,-2.03 -22.18,-2.03 -4.9,0 -9.78,0.3 -14.6,0.89 -4.96,0.6 -9.76,1.48 -14.37,2.62l0.01 0.02c-2.32,0.59 -4.62,1.27 -6.89,2.02l-0.01 -0.04c-1.96,0.65 -4.26,1.51 -6.83,2.56 -22.64,10.06 -42.33,26 -55.81,45.78z"/>
   <path class="fil4" d="M256.32 466.69l0 10.66c-0.11,0.23 -0.19,0.48 -0.25,0.73 -0.53,4.26 -1.76,8.41 -3.61,12.28 -4.07,8.42 -9.53,16.13 -16.15,22.74 -13.59,13.74 -28.96,25.76 -45.6,35.6 -0.28,0.21 -0.63,0.33 -0.99,0.33 -0.36,0 -0.71,-0.12 -1,-0.34 -13.27,-7.92 -25.83,-17.19 -37.35,-27.5 -8.26,-7.28 -15.5,-15.72 -21.38,-25.03 -4.59,-7.24 -7.04,-15.65 -7.04,-24.22 0,-3.56 0.42,-7.11 1.26,-10.57 6.05,-26.93 39.49,-37.93 60.45,-19.87 1.79,1.52 3.36,3.31 5.15,5.08 0.11,-0.18 0.23,-0.36 0.36,-0.53 9.4,-10.45 20.87,-15.04 34.67,-12.8 15.14,2.54 25.05,11.58 29.88,26.14 0.66,2.4 1.2,4.85 1.6,7.31l-0 0z"/>
   <path class="fil1" d="M650.99 499.95c0.81,-28.45 12.54,-56.58 28.39,-77.71 4.05,-5.67 8.53,-11.05 13.38,-16.04 24.72,-25.73 58.9,-40.3 94.58,-40.3 26.81,0 53,8.24 74.98,23.56 4.26,2.96 8.4,6.21 12.29,9.64 50.77,40.33 56.63,118.73 28.8,175.31 -2.7,4.47 -5.73,8.82 -8.99,12.9 -4.33,5.44 -9.13,10.59 -14.24,15.29 -38.11,33.53 -97.42,41.61 -145.56,23.35 -6.86,-2.57 -13.52,-5.75 -19.85,-9.4 -33.66,-20.27 -57.11,-58.46 -62.86,-98.21 -0.63,-5 -0.96,-10.06 -0.96,-15.1 0,-1.08 0.01,-2.22 0.04,-3.29l0 0z"/>
   <path class="fil2" d="M661.31 478.32c0.79,-26.6 12.07,-52.93 27.3,-72.69 3.9,-5.32 8.26,-10.36 12.9,-15.04 24.15,-24.15 56.96,-37.74 91.13,-37.74 25.65,0 50.76,7.68 72.03,22 4.08,2.78 8.06,5.81 11.81,9.01 48.89,37.74 54.53,111.07 27.71,164 -2.6,4.21 -5.49,8.25 -8.64,12.06 -4.18,5.1 -8.8,9.9 -13.71,14.29 -36.69,31.48 -93.76,39 -140.07,21.89 -6.58,-2.42 -13.01,-5.41 -19.12,-8.87 -32.38,-18.95 -54.94,-54.68 -60.49,-91.85 -0.61,-4.55 -0.9,-9.16 -0.9,-13.76 0,-1.1 0.03,-2.22 0.05,-3.31l0 0z"/>
   <path class="fil3" d="M650.07 478.02c0.42,-14.09 3.47,-28.02 8.36,-41.05 5.22,-13.91 12.59,-26.88 21.1,-37.99 2.07,-2.83 4.29,-5.61 6.61,-8.33 2.36,-2.74 4.83,-5.41 7.39,-7.99l0 -0.05c13.09,-13.09 28.59,-23.35 45.51,-30.35 16.88,-6.99 35.08,-10.69 53.59,-10.69 13.84,0 27.63,2.1 40.91,6.16 13.29,4.06 25.91,10.03 37.42,17.78l0.04 0.04c2.19,1.48 4.37,3.06 6.53,4.71 2.05,1.57 4.1,3.22 6.13,4.95 25.61,19.92 40.37,48.55 45.56,79.29 5.59,33.08 0.04,68.73 -15,98.42l-0.48 0.84c-1.62,2.63 -3.13,4.91 -4.51,6.84 -1.55,2.16 -3.23,4.33 -5.02,6.5l-0.02 -0.02c-2.31,2.82 -4.68,5.49 -7.08,7.99 -2.4,2.5 -5,5.01 -7.79,7.51l-0.18 0.17c-19.71,16.91 -44.72,27.46 -70.99,31.57 -26.83,4.19 -55.04,1.67 -80.27,-7.65 -3.53,-1.3 -7.06,-2.77 -10.55,-4.39 -3.42,-1.58 -6.84,-3.35 -10.24,-5.27l-0.13 -0.09c-17.51,-10.25 -32.36,-24.93 -43.62,-42.03 -11.51,-17.47 -19.29,-37.49 -22.33,-57.89l0 -0.18c-0.35,-2.65 -0.61,-5.19 -0.76,-7.58 -0.18,-2.75 -0.27,-5.3 -0.27,-7.63 0,-1.12 0.03,0.23 0.06,-1.84l0.03 -1.47 -0.04 -0 0.04 0 0 -0.22 4.91 0.05 -4.91 -0.13zm29.43 -33.12c-4.04,10.75 -6.57,22.11 -6.94,33.43l0.03 0 -0.03 0 -0.05 1.87c-0.01,0.85 0.03,-0.75 0.03,1.44 0,2.28 0.06,4.36 0.18,6.22 0.14,2.11 0.33,4.09 0.57,5.91l0.02 -0c2.57,17.23 9.13,34.11 18.81,48.81 9.38,14.24 21.67,26.43 36.08,34.9l0 -0.01c2.72,1.54 5.59,3.01 8.57,4.39 2.87,1.33 5.84,2.56 8.88,3.68 21.73,8.03 46,10.2 69.08,6.59 22.25,-3.48 43.33,-12.32 59.8,-26.45l0.01 0.01c2.09,-1.89 4.22,-3.96 6.37,-6.2 2.13,-2.22 4.13,-4.46 5.96,-6.69l0 -0.05c1.36,-1.65 2.71,-3.4 4.05,-5.27 1.33,-1.86 2.46,-3.52 3.38,-4.97 12.81,-25.45 17.52,-55.97 12.74,-84.29 -4.32,-25.58 -16.45,-49.25 -37.43,-65.45l-0.44 -0.35c-1.67,-1.43 -3.44,-2.85 -5.28,-4.26 -1.77,-1.35 -3.62,-2.68 -5.51,-3.97l-0 0.01c-9.76,-6.57 -20.33,-11.6 -31.34,-14.96 -11,-3.36 -22.59,-5.1 -34.39,-5.1 -15.65,0 -30.94,3.09 -45.04,8.93 -14.06,5.82 -27.04,14.44 -38.11,25.5l-0.02 -0.02c-2.14,2.15 -4.22,4.4 -6.22,6.74 -1.92,2.24 -3.78,4.58 -5.56,7l-0.18 0.22c-7.26,9.42 -13.55,20.48 -18.02,32.39z"/>
   <path class="fil4" d="M860.27 463.4l0 10.53c-0.09,0.24 -0.17,0.48 -0.23,0.73 -0.53,4.2 -1.73,8.29 -3.55,12.11 -4.02,8.31 -9.43,15.93 -15.97,22.45 -13.46,13.6 -28.65,25.42 -45.13,35.13 -0.27,0.2 -0.6,0.31 -0.94,0.31 -0.34,0 -0.66,-0.1 -0.94,-0.3 -13.09,-7.81 -25.51,-16.97 -36.88,-27.14 -8.14,-7.2 -15.26,-15.54 -21.09,-24.72 -4.5,-7.14 -6.89,-15.42 -6.89,-23.86 0,-3.53 0.42,-7.05 1.25,-10.49 5.98,-26.59 39.09,-37.44 59.7,-19.63 1.77,1.51 3.33,3.27 5.08,5.02 0.11,-0.19 0.25,-0.36 0.36,-0.53 9.21,-10.32 20.69,-14.93 34.24,-12.64 15.04,2.5 24.75,11.43 29.5,25.8 0.63,2.37 1.13,4.79 1.48,7.22l0 0z"/>
  </g>
 </g>
</svg>
