<?xml version="1.0" encoding="UTF-8"?>
<!DOCTYPE svg PUBLIC "-//W3C//DTD SVG 1.1//EN" "http://www.w3.org/Graphics/SVG/1.1/DTD/svg11.dtd">
<!-- Creator: CorelDRAW 2020 (64-Bit Evaluation Version) -->
<svg xmlns="http://www.w3.org/2000/svg" xml:space="preserve" width="42.3333mm" height="42.3333mm" version="1.1" style="shape-rendering:geometricPrecision; text-rendering:geometricPrecision; image-rendering:optimizeQuality; fill-rule:evenodd; clip-rule:evenodd"
viewBox="0 0 980.39 980.39"
 xmlns:xlink="http://www.w3.org/1999/xlink"
 xmlns:xodm="http://www.corel.com/coreldraw/odm/2003">
 <defs>
  <style type="text/css">
   <![CDATA[
    .fil0 {fill:none}
    .fil9 {fill:#3CA047;fill-rule:nonzero}
    .fil8 {fill:#4AB749;fill-rule:nonzero}
    .fil2 {fill:#592D3D;fill-rule:nonzero}
    .fil1 {fill:#8D5638;fill-rule:nonzero}
    .fil6 {fill:#999999;fill-rule:nonzero}
    .fil5 {fill:#B3B3B3;fill-rule:nonzero}
    .fil3 {fill:#D69AC7;fill-rule:nonzero}
    .fil4 {fill:#E6E6E6;fill-rule:nonzero}
    .fil7 {fill:white;fill-rule:nonzero}
    .fil10 {fill:white;fill-rule:nonzero}
   ]]>
  </style>
 </defs>
 <g id="Layer_x0020_1">
  <metadata id="CorelCorpID_0Corel-Layer"/>
  <rect class="fil0" x="-0" y="-0" width="980.39" height="980.39"/>
  <path class="fil1" d="M719.39 511.22c-1.79,-2.2 -3.32,-4.64 -4.53,-7.21 -4.33,-3.39 -9.48,-5.58 -14.92,-6.33 -2.64,-0.41 -5.31,-0.61 -7.97,-0.61 -0.04,0 -0.1,0 -0.15,0l-420.43 0c-13.18,0.01 -23.87,10.67 -23.92,23.85 52.28,18.78 150.14,29.27 239.28,29.27 113.67,0 188.16,-16.85 232.63,-38.97z"/>
  <polygon class="fil2" points="271.4,486.38 691.83,486.2 691.83,507.75 271.4,507.93 "/>
  <path class="fil2" d="M614.17 647.91c0.4,-17.04 22.03,-24.24 32.84,-13.43 3.5,3.57 5.46,8.38 5.46,13.38 0,10.56 -8.57,19.13 -19.13,19.13 -5.14,0 -10.07,-2.07 -13.66,-5.74 -3.53,-3.52 -5.52,-8.3 -5.52,-13.28 0,-0.02 0,-0.04 0,-0.06z"/>
  <path class="fil2" d="M321.12 647.37c-0.38,-14.69 15.85,-21.9 26.66,-16.49 14.42,5.41 14.42,25.24 0,34.25 -7.21,3.61 -14.42,0 -21.18,-4.47 -3.51,-3.51 -5.48,-8.27 -5.48,-13.24 0,-0.01 0,-0.03 0,-0.05l-0 0z"/>
  <polygon class="fil2" points="271.4,486.38 691.83,486.2 691.83,507.75 271.4,507.93 "/>
  <path class="fil2" d="M604.92 497.15l0 0.04c0,4.28 -0.25,8.69 -0.74,13.22 -0.49,4.52 -1.19,8.91 -2.11,13.16l-0.01 -0c-0.39,1.82 -0.91,3.91 -1.55,6.25 -0.62,2.24 -1.25,4.34 -1.91,6.3l-0.04 0.21c-2.21,6.2 -5.05,12.2 -8.44,17.91 -3.34,5.62 -7.28,10.98 -11.75,15.99 -1.52,1.7 -3.01,3.27 -4.44,4.69 -1.51,1.49 -3.07,2.93 -4.68,4.31l-0.68 0.55c-24.92,18.02 -57.2,27.38 -89.06,27.18 -31.03,-0.2 -61.85,-9.46 -85.38,-28.6l-0.3 -0.21c-2.53,-2.2 -5.04,-4.63 -7.51,-7.27l0 -0.04c-2.52,-2.69 -4.79,-5.36 -6.79,-7.98l0 -0.04c-4.42,-5.81 -8.19,-12.05 -11.26,-18.59 -3.09,-6.6 -5.47,-13.47 -7.09,-20.51l-0.04 -0.17c-0.41,-1.91 -0.82,-4.08 -1.21,-6.51 -0.37,-2.21 -0.66,-4.37 -0.89,-6.47l0 -0.04c-0.23,-2.22 -0.42,-4.45 -0.54,-6.67 -0.14,-2.48 -0.21,-4.67 -0.21,-6.52l0 -0.16 21.63 0 0 0.16c0,2.08 0.04,3.86 0.13,5.34 0.1,1.89 0.26,3.77 0.45,5.61 0.2,1.83 0.44,3.59 0.71,5.29l0 0.04c0.25,1.57 0.61,3.41 1.05,5.45 1.29,5.58 3.15,10.95 5.53,16.03 2.43,5.19 5.41,10.12 8.87,14.68l0.02 -0.02c1.79,2.35 3.58,4.48 5.33,6.36l0.02 -0.02c1.81,1.93 3.81,3.85 5.99,5.75l-0.01 0.02c19.53,15.76 45.37,23.39 71.58,23.56 27.33,0.18 54.89,-7.73 76.06,-22.95 1.08,-0.94 2.12,-1.92 3.14,-2.92 1.3,-1.29 2.47,-2.51 3.51,-3.67 3.43,-3.84 6.52,-8.07 9.22,-12.61 2.65,-4.46 4.88,-9.21 6.66,-14.19l0.03 0.01c0.57,-1.73 1.08,-3.37 1.5,-4.91 0.39,-1.42 0.8,-3.12 1.22,-5.11l0 -0.04c0.8,-3.68 1.39,-7.32 1.78,-10.88 0.38,-3.49 0.57,-7.14 0.57,-10.94l0 -0.04 21.63 0z"/>
  <path class="fil2" d="M492.89 622.56c-7.78,1.55 -15.73,2.36 -23.68,2.36 -3.15,0 -6.33,-0.15 -9.47,-0.38 -11.18,-0.77 -22.24,-3.06 -32.8,-6.76 -10.65,-3.65 -20.69,-8.91 -29.75,-15.58l-3.35 -2.54c-1.1,-0.86 -2.16,-1.8 -3.23,-2.74 -2.14,-1.82 -4.16,-3.8 -6.01,-5.91 -3.7,-4.16 -6.95,-8.71 -9.69,-13.54 3.84,3.87 7.92,7.54 12.15,10.98 1.05,0.87 2.11,1.71 3.16,2.52 1.04,0.81 2.22,1.48 3.32,2.23 1.1,0.76 2.2,1.51 3.33,2.22l3.44 2.09c9.18,5.42 18.95,9.95 29.02,13.44 10.09,3.53 20.55,6.25 31.09,8.02 10.74,1.74 21.6,2.96 32.45,3.58l0.01 0.01z"/>
  <path class="fil3" d="M793.31 550.33c3.96,-3.99 7.87,-8.02 11.72,-12.1 81.41,-98.62 87.79,-202.6 104.32,-267.45l0 -25.67 -4.4 1.51c1.5,-2.74 2.97,-5.41 4.4,-8.22 -0.11,-0.18 -6.29,6.09 -6.4,5.91 -2.85,2.33 -5.93,4.43 -9.16,6.2l-58.68 20.33c-24.31,4.54 -49.09,6.92 -73.83,6.92 -1.75,0 -3.59,-0.05 -5.28,-0.05 -113.57,-0.47 -114,-26.8 -204.06,-36.05l-173.93 2.85c-46.31,6.92 -66.81,21.29 -158.63,23.16 -79.59,1.62 -150.74,-18.03 -150.74,-18.03l0 22.86c25.24,66.41 8.26,116.14 52.28,199.17 0,-1.17 0,-2.36 -0.09,-3.61 -7.91,-39.14 0,-74.93 3.82,-88.67 0.38,-3.39 0.65,-5.26 0.65,-5.26l0 -0.13c0,-0.22 0,-0.36 0,-0.36l0 0.18c0,0.25 0.2,0.81 0.4,1.62 0.41,-1.3 0.65,-2 0.65,-2 0,0 1.6,8.85 4.58,22.96 7.08,27.91 20.12,77.51 35.06,126.33 1.66,4.38 3.37,8.67 5.12,12.82 0.13,0.38 0.27,0.79 0.41,1.17 50.37,53.86 112,99.79 167.9,134.3 6.02,3.61 11.73,6.98 17.09,10.11 -1.99,-9.97 -2.99,-20.18 -2.99,-30.37 0,-16.03 2.49,-31.96 7.34,-47.23 4.85,-15.27 0.13,0.68 0.38,1.95 0.43,-1.39 0.72,-2.14 0.72,-2.14 0,0 20.6,85.53 62.23,113.26 1.03,0.43 2.07,0.85 3.12,1.19l-0.79 0.29 0.18 0.11c1.05,0.6 2.13,1.17 3.19,1.8 12.47,5.79 25.41,10.97 38.48,15.37 9.75,2.83 17.74,4.31 21.63,4.31 8.56,0 57.68,-19.12 87.77,-88.46 1.98,-5.89 2.94,-9.59 2.94,-9.59l0.5 1.24c0.2,-0.49 0.4,-0.95 0.58,-1.44 9.43,15.69 14.43,33.71 14.43,52.04 0,0.76 -0.01,1.54 -0.03,2.29 45.37,-24.87 89.13,-53.81 129.88,-85.76l0 -0.2c0.49,-1.15 0.96,-2.33 1.44,-3.5l0.11 -0.23 1.46 -3.61 0 0 1.51 -3.75 0 0c26.1,-64.59 42.51,-160.43 42.51,-160.43 0.11,-0.32 0.5,0.16 1.08,1.33 0,-0.99 0,-1.53 0,-1.53 0,0 29.35,40.45 19.15,112.24z"/>
  <path class="fil3" d="M793.31 550.33c3.96,-3.99 7.87,-8.02 11.72,-12.1 81.41,-98.62 87.79,-202.6 104.32,-267.45l0 -25.67 -4.4 1.51c1.5,-2.74 2.97,-5.41 4.4,-8.22 -0.11,-0.18 -6.29,6.09 -6.4,5.91 -2.85,2.33 -5.93,4.43 -9.16,6.2l-58.68 20.33c-24.31,4.54 -49.09,6.92 -73.83,6.92 -1.75,0 -3.59,-0.05 -5.28,-0.05 -113.57,-0.47 -114,-26.8 -204.06,-36.05l-173.93 2.85c-46.31,6.92 -66.81,21.29 -158.63,23.16 -79.59,1.62 -150.74,-18.03 -150.74,-18.03l0 22.86c25.24,66.41 8.26,116.14 52.28,199.17 0,-1.17 0,-2.36 -0.09,-3.61 -7.91,-39.14 0,-74.93 3.82,-88.67 0.38,-3.39 0.65,-5.26 0.65,-5.26l0 -0.13c0,-0.22 0,-0.36 0,-0.36l0 0.18c0,0.25 0.2,0.81 0.4,1.62 0.41,-1.3 0.65,-2 0.65,-2 0,0 1.6,8.85 4.58,22.96 7.08,27.91 20.12,77.51 35.06,126.33 1.66,4.38 3.37,8.67 5.12,12.82 0.13,0.38 0.27,0.79 0.41,1.17 50.37,53.86 112,99.79 167.9,134.3 6.02,3.61 11.73,6.98 17.09,10.11 -1.99,-9.97 -2.99,-20.18 -2.99,-30.37 0,-16.03 2.49,-31.96 7.34,-47.23 4.85,-15.27 0.13,0.68 0.38,1.95 0.43,-1.39 0.72,-2.14 0.72,-2.14 0,0 20.6,85.53 62.23,113.26 1.03,0.43 2.07,0.85 3.12,1.19l-0.79 0.29 0.18 0.11c1.05,0.6 2.13,1.17 3.19,1.8 12.47,5.79 25.41,10.97 38.48,15.37 9.75,2.83 17.74,4.31 21.63,4.31 8.56,0 57.68,-19.12 87.77,-88.46 1.98,-5.89 2.94,-9.59 2.94,-9.59l0.5 1.24c0.2,-0.49 0.4,-0.95 0.58,-1.44 9.43,15.69 14.43,33.71 14.43,52.04 0,0.76 -0.01,1.54 -0.03,2.29 45.37,-24.87 89.13,-53.81 129.88,-85.76l0 -0.2c0.49,-1.15 0.96,-2.33 1.44,-3.5l0.11 -0.23 1.46 -3.61 0 0 1.51 -3.75 0 0c26.1,-64.59 42.51,-160.43 42.51,-160.43 0.11,-0.32 0.5,0.16 1.08,1.33 0,-0.99 0,-1.53 0,-1.53 0,0 29.35,40.45 19.15,112.24z"/>
  <path class="fil4" d="M793.31 550.33c3.96,-3.99 7.87,-8.02 11.72,-12.1 81.41,-98.62 87.79,-202.6 104.32,-267.45l0 -25.67 -4.4 1.51c1.5,-2.74 2.97,-5.41 4.4,-8.22 -0.11,-0.18 -6.29,6.09 -6.4,5.91 -2.85,2.33 -5.93,4.43 -9.16,6.2l-58.68 20.33c-24.31,4.54 -49.09,6.92 -73.83,6.92 -1.75,0 -3.59,-0.05 -5.28,-0.05 -113.57,-0.47 -141.15,-35.49 -204.06,-36.05 -62.91,-0.56 -138.71,-2.22 -173.93,2.85 -35.22,5.06 -66.81,21.29 -158.63,23.16 -79.59,1.62 -150.74,-18.03 -150.74,-18.03l0 22.86c25.24,66.41 8.26,116.14 52.28,199.17 0,-1.17 0,-2.36 -0.09,-3.61 -7.91,-39.14 0,-74.93 3.82,-88.67 0.38,-3.39 0.65,-5.26 0.65,-5.26l0 -0.13c0,-0.22 0,-0.36 0,-0.36l0 0.18c0,0.25 0.2,0.81 0.4,1.62 0.41,-1.3 0.65,-2 0.65,-2 0,0 1.6,8.85 4.58,22.96 7.08,27.91 20.12,77.51 35.06,126.33 1.66,4.38 3.37,8.67 5.12,12.82 0.13,0.38 0.27,0.79 0.41,1.17 50.37,53.86 112,99.79 167.9,134.3 6.02,3.61 11.73,6.98 17.09,10.11 -1.99,-9.97 -2.99,-20.18 -2.99,-30.37 0,-16.03 2.49,-31.96 7.34,-47.23 4.85,-15.27 0.13,0.68 0.38,1.95 0.43,-1.39 0.72,-2.14 0.72,-2.14 0,0 20.6,85.53 62.23,113.26 1.03,0.43 2.07,0.85 3.12,1.19l-0.79 0.29 0.18 0.11c1.05,0.6 2.13,1.17 3.19,1.8 12.47,5.79 25.41,10.97 38.48,15.37 9.75,2.83 17.74,4.31 21.63,4.31 8.56,0 57.68,-19.12 87.77,-88.46 1.98,-5.89 2.94,-9.59 2.94,-9.59l0.5 1.24c0.2,-0.49 0.4,-0.95 0.58,-1.44 9.43,15.69 14.43,33.71 14.43,52.04 0,0.76 -0.01,1.54 -0.03,2.29 45.37,-24.87 89.13,-53.81 129.88,-85.76l0 -0.2c0.49,-1.15 0.96,-2.33 1.44,-3.5l0.11 -0.23 1.46 -3.61 0 0 1.51 -3.75 0 0c26.1,-64.59 42.51,-160.43 42.51,-160.43 0.11,-0.32 0.5,0.16 1.08,1.33 0,-0.99 0,-1.53 0,-1.53 0,0 29.35,40.45 19.15,112.24z"/>
  <path class="fil5" d="M204.65 403.58c6.89,6.14 15.65,9.82 24.86,10.45 -25.76,-20.5 -35.17,-40.36 -38.38,-49.3 -9.33,-31.96 -15.37,-65.09 -18,-98.33 -35.11,-2.44 -70.26,-8.24 -104.33,-16.86l0 22.86c25.24,66.41 8.26,116.14 52.28,199.17 0,-1.17 0,-2.36 -0.09,-3.61 -7.91,-39.13 0,-74.93 3.82,-88.67 0.38,-3.39 0.65,-5.26 0.65,-5.26l0 -0.13c0,-0.22 0,-0.36 0,-0.36l0 0.18c0,0.25 0.2,0.81 0.4,1.62 0.41,-1.3 0.65,-2 0.65,-2 0,0 1.6,8.85 4.58,22.97 7.08,27.9 20.12,77.51 35.06,126.33 1.66,4.38 3.37,8.67 5.12,12.82 0.13,0.38 0.27,0.79 0.41,1.17 50.37,53.86 112,99.79 167.9,134.3 6.02,3.61 11.73,6.98 17.09,10.11 -2,-9.94 -3,-20.16 -3,-30.35 0,-16.03 2.49,-31.96 7.34,-47.23 4.85,-15.27 0.13,0.69 0.38,1.95 0.43,-1.39 0.72,-2.14 0.72,-2.14 0,0 20.6,85.53 62.23,113.26 1.03,0.43 2.07,0.85 3.12,1.19l-0.79 0.29 0.18 0.11c1.04,0.6 2.13,1.17 3.19,1.8 12.47,5.79 25.41,10.97 38.48,15.37 9.75,2.83 17.74,4.31 21.63,4.31 6.36,0 35.17,-10.6 61.88,-44.56 -124.85,-40.62 -280.16,-123.64 -347.36,-291.45z"/>
  <path class="fil6" d="M367.55 601.64c0,0 17.11,16.22 52.8,7.37 -2.65,6.4 -10.69,9.73 -10.69,9.73 0,0 11.12,14.65 34.36,13.97 0,0 -13.93,8.65 -27.99,2.98 -10.91,-1.57 -22.07,-2.65 -33.09,-3.03l-24.35 -16.91 8.97 -14.12z"/>
  <path class="fil2" d="M219.43 267.68c-3.17,0.58 -6.35,1.08 -9.52,1.51 -1.6,0.2 -3.19,0.45 -4.78,0.63l-4.8 0.43 -9.59 0.69c-3.21,0.14 -6.42,0.16 -9.61,0.25 -6.42,0.13 -12.82,-0.13 -19.23,-0.36 -6.42,-0.23 -12.8,-0.67 -19.18,-1.28 -6.38,-0.61 -12.74,-1.26 -19.12,-1.98 -6.38,-0.72 -12.71,-1.8 -19.04,-2.81 -12.72,-2.03 -25.42,-4.8 -37.86,-8.23l-6.94 -1.95 3.79 -13.65 6.99 1.7c11.92,2.9 24.28,5.64 36.54,8.09 12.26,2.45 24.66,4.76 37.08,6.71 6.2,1.06 12.42,1.8 18.66,2.81 6.24,1.01 12.47,1.8 18.73,2.36 12.58,1.7 25.15,2.98 37.87,5.07z"/>
  <path class="fil6" d="M791.96 551.68c18.49,-18.49 16.75,-17.36 32.07,-37.75 -2.7,-62.15 -54.08,-96.82 -54.08,-96.82l3.43 21.02c1.51,0.29 14.26,33.3 13.63,83.07l4.96 30.48z"/>
  <path class="fil6" d="M622.61 679.31c-10.31,-44.88 -40.41,-52.55 -40.41,-52.55l5.79 35.06c3.48,11.22 5.85,22.79 7.02,34.49 9.01,-4.91 18.31,-10.2 27.85,-15.83l-0.24 -1.18z"/>
  <path class="fil2" d="M198.5 455.33c2.52,12.52 6.52,24.73 11.88,36.3 5.23,11.38 11.51,22.37 18.61,32.69l5.57 7.54c0.95,1.23 1.8,2.56 2.81,3.73l2.99 3.61c2.04,2.36 3.95,4.83 6.04,7.21l6.42 6.82c1.08,1.12 2.09,2.31 3.19,3.41l3.43 3.21 6.8 6.45c4.65,4.18 9.61,8.02 14.31,12.17l-11.32 5.98 -0.11 -7.21c0.09,-2.38 0.13,-4.76 0.36,-7.21 0.23,-2.45 0.41,-4.78 0.83,-7.21 0.2,-1.19 0.32,-2.38 0.58,-3.61l0.78 -3.61c1.07,-4.73 2.61,-9.38 4.54,-13.83 0.95,-2.2 2.06,-4.37 3.26,-6.44 0.61,-1.08 1.32,-2.13 2.04,-3.19 0.38,-0.52 0.72,-1.03 1.15,-1.57 0.43,-0.54 0.76,-0.97 1.41,-1.71l8.04 -9.12 1.01 11.81c0.18,1.97 0.54,4.33 0.96,6.51 0.41,2.18 0.92,4.43 1.51,6.64 1.16,4.4 2.69,8.71 4.53,12.87 1.92,4.17 4.28,8.14 7.03,11.82 2.92,3.69 6.33,6.98 10.13,9.77 -4.59,-1.7 -8.86,-4.19 -12.61,-7.34 -3.81,-3.24 -7.17,-7 -9.99,-11.12 -2.81,-4.14 -5.25,-8.59 -7.21,-13.2 -0.97,-2.31 -1.8,-4.65 -2.63,-7.05 -0.82,-2.45 -1.5,-4.96 -2,-7.5l9.01 2.68c0,0.15 -0.4,0.63 -0.61,0.99 -0.22,0.36 -0.47,0.83 -0.7,1.25 -0.45,0.86 -0.9,1.8 -1.32,2.67 -0.83,1.85 -1.59,3.76 -2.24,5.68 -1.27,3.94 -2.26,7.97 -2.91,12.06 -0.65,4.12 -1.05,8.34 -1.17,12.51 -0.11,2.09 0,4.22 0,6.33l0.29 6.36 0.72 15.57 -12.04 -9.59c-2.6,-2.07 -5.17,-4.13 -7.73,-6.24l-3.86 -3.15c-1.26,-1.07 -2.6,-2.06 -3.77,-3.23l-7.21 -6.9 -3.61 -3.44c-1.15,-1.21 -2.25,-2.45 -3.35,-3.7l-6.62 -7.48c-2.18,-2.51 -4.07,-5.26 -6.09,-7.91 -3.99,-5.3 -7.72,-10.86 -11.12,-16.56 -6.64,-11.52 -11.87,-23.83 -15.55,-36.6 -3.49,-12.64 -5.62,-25.88 -4.43,-38.9z"/>
  <path class="fil7" d="M736.93 435c0.92,0.84 1.67,1.86 2.2,2.99 0.57,1.13 1.09,2.31 1.52,3.5 0.84,2.38 1.55,4.84 2.09,7.32 1,4.95 1.67,9.97 1.95,15 0.16,3.17 0.26,6.4 0.26,9.6 0,6.85 -0.43,13.75 -1.24,20.54 -2.38,20.09 -7.87,39.77 -16.22,58.18 -8.32,18.63 -20.12,35.6 -34.69,49.91 -14.43,14.17 -32.08,24.7 -51.4,30.64 16.14,-10.65 30.68,-23.61 43.1,-38.41 12.02,-14.62 22.08,-30.86 29.83,-48.11 7.84,-17.36 13.98,-35.49 18.21,-54.06 2.17,-9.34 3.91,-18.91 5.07,-28.41 0.58,-4.78 0.97,-9.59 1.13,-14.42 0.02,-0.8 0.03,-1.61 0.03,-2.41 0,-1.6 -0.06,-3.22 -0.19,-4.81 -0.07,-1.21 -0.23,-2.42 -0.47,-3.61 -0.19,-1.2 -0.6,-2.36 -1.19,-3.43l-0 0z"/>
  <path class="fil2" d="M68.29 244.89c19.61,38.71 23.76,70.62 28.06,103.67 2.56,19.73 5.19,39.89 11.49,62.19 2.57,-24.31 8.36,-40.73 8.39,-40.81l13.44 -39.13 7.38 40.74c0.05,0.28 17.58,97.14 44.17,159.79l0.19 0.46 0.19 0.6c5.72,18.45 35.66,44.37 71.46,70.03 30.02,21.52 63.64,42.37 91.28,58.88 -0.25,-3.65 -0.37,-7.22 -0.37,-10.7 0,-8.39 0.68,-16.94 2.02,-25.57 1.31,-8.45 3.28,-16.8 5.88,-24.97 2.61,-8.21 7.62,-10.81 14.88,-8.5 7.07,2.25 10.58,12.65 15.66,27.73 9.21,27.31 25.25,74.84 49.99,89.62l-0.01 0.01c9.67,5.43 20.53,9.92 30.48,13.28 12.64,4.28 23.13,6.57 27.32,6.57 4.41,0 23.44,-7.44 44.81,-30.31 13.15,-14.07 26.52,-33.81 36.89,-60.97l7.93 -20.78 11.42 19.09c5.18,8.66 9.14,17.95 11.8,27.59 1.43,5.19 2.49,10.47 3.17,15.78l6.75 -3.5c35.96,-18.63 78.47,-40.65 105.6,-71.85 44.95,-59.71 44.97,-165.56 44.97,-165.87l0.18 -33.64 19.42 27.47c0.08,0.11 22.79,31.63 23.14,87.55 56.22,-74.01 71.65,-150.52 83.51,-209.37 6.49,-32.23 11.97,-59.41 22.49,-79.38l19.09 10.06c-9.13,17.34 -14.31,43.05 -20.46,73.55 -13.73,68.15 -32.06,159.11 -109.85,245.14l-23.97 26.51 5.3 -35.29c3.92,-26.1 2.42,-47.7 -0.94,-64.46 -5.06,38.84 -17.14,93.14 -46.04,131.2l-0.42 0.55c-29.87,34.43 -74.44,57.52 -112.13,77.04 -7.44,3.85 -14.6,7.56 -21.51,11.3l-16.5 8.93 0.66 -20.44c0.01,-0.97 -0.03,0.75 -0.03,-1.51 0,-8.23 -1.09,-16.3 -3.22,-24l-0.3 -1.06c-9.54,18.77 -20.39,33.56 -31.16,45.08 -26.25,28.1 -53.7,37.23 -60.61,37.23 -6,0 -19.34,-2.71 -34.24,-7.76 -10.96,-3.71 -23.15,-8.79 -34.36,-15.11l-0.25 -0.13c-27.64,-16.51 -44.62,-58.72 -55.23,-89.15 -0.33,4.05 -0.5,8.17 -0.5,12.34 0,5.07 0.24,9.95 0.71,14.61 0.5,4.88 1.23,9.74 2.21,14.51l4.82 23.67 -20.83 -12.22c-30.71,-18.02 -74.53,-44.28 -112.04,-71.17 -38.7,-27.75 -71.47,-56.89 -79.27,-80.6 -13.76,-32.53 -25.13,-73.69 -33.04,-106.65 -0.02,11.99 1.14,25.11 4.38,38.54l19.58 81.11 -39.56 -73.46c-27.69,-51.42 -32.74,-90.23 -37.59,-127.58 -4.05,-31.16 -7.97,-61.24 -25.95,-96.74l19.27 -9.72z"/>
  <path class="fil2" d="M909.26 241.09c0.51,0.92 1.23,1.72 2.09,2.33 1.14,0.78 2.49,1.22 3.88,1.26 0.06,0 0.13,0 0.19,0 0.98,0 1.95,-0.21 2.84,-0.62l0 0 -0.16 0 -0.36 0.2 -0.86 0.43 -1.8 0.92 -3.6 1.8c-2.4,1.2 -4.81,2.4 -7.21,3.61 -4.85,2.38 -9.75,4.63 -14.65,6.87 -4.9,2.24 -9.91,4.34 -14.91,6.44 -4.99,2.09 -10.09,4.02 -15.27,5.88 -2.6,0.92 -5.21,1.8 -7.91,2.58 -2.8,0.86 -5.68,1.56 -8.57,2.07 -0.85,0.15 -1.46,0.2 -2.13,0.29l-2.02 0.23c-1.33,0.16 -2.67,0.29 -4.02,0.41 -2.69,0.25 -5.41,0.54 -8.09,0.72 -4.2,0.34 -8.44,0.52 -12.66,0.52 -6.67,0 -13.35,-0.45 -19.96,-1.3 10.56,-2.85 20.94,-5.21 31.31,-7.73l15.48 -3.61c2.33,-0.67 4.64,-1.51 6.88,-2.45 2.36,-0.94 4.74,-2.06 7.21,-3.1 4.78,-2.14 9.53,-4.45 14.29,-6.8 4.76,-2.34 9.54,-4.7 14.3,-7.08l14.31 -7.21 7.21 -3.61 3.61 -1.8 1.8 -0.87 0.95 -0.45 0.54 -0.23 0.29 -0.14 0.09 0c0.96,-0.44 2.01,-0.66 3.07,-0.66 2.56,0 4.94,1.32 6.29,3.49l3.84 6.09 -12.73 7.55 -3.55 -6.04z"/>
  <path class="fil8" d="M592.3 287.37c-6.54,0 -9.64,-2.36 -28.08,-19.45 -13.5,-12.49 -22.77,-18.68 -34.09,-20.66 -14.12,-2.47 -28.54,-1.59 -43.91,13.84 -15.38,-15.43 -29.78,-16.23 -43.91,-13.84 -11.32,1.98 -20.59,8.17 -34.09,20.66 -18.44,17.09 -21.54,19.45 -28.08,19.45 -1.83,0 -3.31,1.48 -3.31,3.32 0,0.88 0.35,1.72 0.97,2.34 31.54,31.54 67.69,47.34 108.43,47.37 40.74,0.03 76.88,15.83 108.43,-47.37 0.62,-0.62 0.97,-1.47 0.97,-2.34 0,-1.83 -1.48,-3.32 -3.31,-3.32l0 0z"/>
  <path class="fil9" d="M594.14 293.49l-0.99 -3.98c-127.19,29.06 -213.02,0.96 -213.02,0.96l-3.19 -0.56c-0.07,0.26 -0.1,0.54 -0.1,0.81 0,0.86 0.34,1.69 0.95,2.31 31.55,31.54 67.69,47.34 108.43,47.37 40.47,0 76.45,-15.63 107.92,-46.91z"/>
  <path class="fil2" d="M449.41 301.7c24.24,-1.7 48.11,-2.6 71.91,-5.41 11.88,-1.37 23.7,-3.14 35.46,-5.16 11.75,-2.02 23.43,-4.34 35.17,-6.85l2.42 10.54c-11.86,2.81 -23.83,5.1 -35.91,6.87 -12.08,1.77 -24.05,4.06 -36.34,3.71 -12.17,0.67 -24.34,0.97 -36.5,0.49 -12.13,-0.41 -24.28,-1.88 -36.18,-4.21l-0.01 0.01z"/>
  <path class="fil2" d="M381.83 285.33c3.05,0.78 6.44,1.8 9.7,2.67 3.26,0.87 6.58,1.95 9.9,2.94 3.32,0.99 6.63,1.98 9.95,3.19 3.44,1.21 6.76,2.82 9.84,4.76 -3.53,1.04 -7.21,1.59 -10.9,1.62 -3.61,0 -7.12,-0.29 -10.69,-0.58 -3.57,-0.29 -7.08,-0.85 -10.6,-1.53 -3.58,-0.65 -7.12,-1.6 -10.56,-2.8l3.37 -10.28z"/>
  <path class="fil10" d="M592.3 287.37c-6.54,0 -9.64,-2.36 -28.08,-19.45 -13.5,-12.49 -22.59,-20.35 -34.09,-20.66 -20.21,-0.54 -34.52,11.03 -44.63,11.03 -10.11,0 -18.84,-13.58 -43.26,-11.03 -11.43,1.19 -20.59,8.17 -34.09,20.66 -18.44,17.09 -21.54,19.45 -28.08,19.45 -1.83,0 -3.31,1.48 -3.31,3.32 0,0.88 0.35,1.72 0.97,2.34 31.54,31.54 67.69,47.34 108.43,47.37 40.74,0.03 76.88,15.83 108.43,-47.37 0.62,-0.62 0.97,-1.47 0.97,-2.35 0,-1.8 -1.44,-3.27 -3.24,-3.32l0 0z"/>
  <path class="fil2" d="M586.07 293.8c-2.26,-0.67 -4.58,-1.85 -7.46,-3.86 -4.32,-3.02 -9.87,-8.03 -19.29,-16.76l0.01 -0.01c-6.45,-5.97 -11.84,-10.82 -16.88,-14.15 -4.3,-2.84 -8.27,-4.47 -12.49,-4.58 -10.55,-0.28 -19.72,3.37 -27.29,6.38 -6.33,2.52 -11.76,4.68 -17.17,4.68 -5.45,0 -9.74,-2.25 -14.85,-4.92 -6.35,-3.32 -14.42,-7.55 -27.68,-6.17 -4.52,0.47 -8.69,2.15 -13.14,4.99 -4.98,3.18 -10.35,7.8 -16.79,13.77l0.01 0.01c-9.42,8.73 -14.97,13.73 -19.29,16.76 -2.08,1.45 -3.87,2.47 -5.55,3.18 13.59,12.58 27.97,22.19 43.15,28.82 17.17,7.5 35.43,11.26 54.79,11.28 7.39,0.01 14.17,0.47 20.81,0.91 29.17,1.98 55.58,3.76 79.12,-40.34zm0.77 -15.63c2.34,1.64 3.7,1.99 5.47,1.99l0 0.03 0.14 0c2.88,0.06 5.46,1.27 7.31,3.17 1.86,1.92 3,4.51 3,7.33 0,1.35 -0.28,2.72 -0.82,4 -0.33,0.8 -0.75,1.56 -1.27,2.25 -28.25,56.05 -59.77,53.93 -94.67,51.56 -6.65,-0.45 -13.43,-0.91 -19.85,-0.91 -21.38,-0.02 -41.57,-4.18 -60.53,-12.46 -18.94,-8.27 -36.6,-20.61 -52.99,-37l0 -0.03c-0.97,-0.97 -1.74,-2.14 -2.27,-3.41 -0.53,-1.29 -0.81,-2.65 -0.81,-4 0,-2.88 1.18,-5.51 3.08,-7.42 1.92,-1.92 4.55,-3.11 7.44,-3.11 1.77,0 3.13,-0.35 5.47,-1.99 3.47,-2.43 8.69,-7.15 17.71,-15.51l0.03 0c7.05,-6.52 13.01,-11.63 18.84,-15.36 6.35,-4.06 12.48,-6.47 19.39,-7.19 17.51,-1.82 27.75,3.54 35.79,7.75 3.35,1.75 6.17,3.23 8.2,3.23 2.81,0 6.99,-1.67 11.88,-3.61 8.81,-3.51 19.48,-7.75 32.92,-7.39 7.28,0.19 13.61,2.65 20.09,6.94 5.75,3.79 11.65,9.11 18.7,15.63l0.03 0c9.02,8.36 14.24,13.08 17.72,15.51z"/>
  <path class="fil7" d="M530.13 258.6c-7.53,0.64 -14.97,2.44 -21.98,5.3 -3.5,1.39 -6.98,2.89 -10.54,4.36 -3.65,1.67 -7.57,2.74 -11.57,3.14 -0.09,-0 -0.18,0 -0.27,0 -2.05,0 -4.09,-0.39 -5.99,-1.16 -1.86,-0.71 -3.67,-1.56 -5.41,-2.52 -3.24,-1.86 -6.63,-3.58 -10.06,-5.1 -3.43,-1.43 -7.04,-2.49 -10.71,-3.12 -3.68,-0.6 -7.42,-0.9 -11.15,-0.9 -0.06,0 -0.13,0 -0.19,0 3.05,-0.61 6.17,-0.92 9.29,-0.92 0.75,0 1.51,0.02 2.25,0.05 3.91,0.23 7.79,1 11.51,2.25 3.65,1.3 7.21,2.88 10.63,4.69 3.37,1.69 6.69,3.3 9.95,3.14 3.6,-0.36 7.14,-1.29 10.46,-2.72 3.61,-1.28 7.21,-2.72 10.82,-3.84 5.64,-1.93 11.58,-2.92 17.54,-2.92 1.81,0 3.63,0.09 5.43,0.27l0 0z"/>
 </g>
</svg>
