<?xml version="1.0" encoding="UTF-8"?>
<!DOCTYPE svg PUBLIC "-//W3C//DTD SVG 1.1//EN" "http://www.w3.org/Graphics/SVG/1.1/DTD/svg11.dtd">
<!-- Creator: CorelDRAW 2020 (64-Bit Evaluation Version) -->
<svg xmlns="http://www.w3.org/2000/svg" xml:space="preserve" width="42.3333mm" height="42.3333mm" version="1.1" style="shape-rendering:geometricPrecision; text-rendering:geometricPrecision; image-rendering:optimizeQuality; fill-rule:evenodd; clip-rule:evenodd"
viewBox="0 0 980.39 980.39"
 xmlns:xlink="http://www.w3.org/1999/xlink"
 xmlns:xodm="http://www.corel.com/coreldraw/odm/2003">
 <defs>
  <style type="text/css">
   <![CDATA[
    .fil0 {fill:none}
    .fil4 {fill:#3CA047;fill-rule:nonzero}
    .fil3 {fill:#4AB749;fill-rule:nonzero}
    .fil2 {fill:#592D3D;fill-rule:nonzero}
    .fil1 {fill:#666666;fill-rule:nonzero}
    .fil5 {fill:#E6E6E6;fill-rule:nonzero}
    .fil6 {fill:white;fill-rule:nonzero}
   ]]>
  </style>
 </defs>
 <g id="Layer_x0020_1">
  <metadata id="CorelCorpID_0Corel-Layer"/>
  <rect class="fil0" x="-0" y="-0" width="980.39" height="980.39"/>
  <g id="_2596260501424">
   <path class="fil1" d="M797.7 527.88c53.54,-43.5 102.9,-103.49 133.67,-162.83 -0.11,-0.19 -6.6,6.39 -6.71,6.2 -0.11,-0.19 -39.85,35.52 -154.17,34.99 -144.3,-0.59 -114.49,-41 -288.43,-41 -153.99,0 -129.53,22.48 -274.51,30.54 -117.42,6.53 -158.14,-24.59 -158.14,-24.59l-0.38 0.62c20.53,39.52 46.4,76.19 76.73,108.81 8.17,8.8 16.76,17.36 25.5,25.5 9.15,8.66 18.97,16.92 29.01,24.59 9.8,7.47 20.18,14.6 30.88,21.2 41.06,22.69 87.9,39.98 139.25,51.31 12.27,2.7 24.59,4.99 36.52,6.81 124.46,11.06 266.81,12.67 379.64,-58.86 10.63,-7.3 21.11,-15.15 31.14,-23.3z"/>
   <path class="fil2" d="M138.87 446.22c0,-4.37 -3.54,-7.91 -7.9,-7.91 -4.37,0 -7.91,3.54 -7.91,7.91 0,4.37 3.54,7.9 7.91,7.9 4.37,0 7.9,-3.54 7.9,-7.9z"/>
   <path class="fil2" d="M187.63 454.12c0,-3.09 -2.51,-5.6 -5.6,-5.6 -3.09,0 -5.6,2.51 -5.6,5.6 0,3.09 2.51,5.6 5.6,5.6 3.09,0 5.6,-2.51 5.6,-5.6z"/>
   <path class="fil2" d="M305.9 538.59c0,-3.09 -2.51,-5.6 -5.6,-5.6 -3.09,0 -5.6,2.51 -5.6,5.6 0,3.09 2.51,5.6 5.6,5.6 3.09,0 5.6,-2.51 5.6,-5.6z"/>
   <path class="fil2" d="M505.96 544.89c0,-3.09 -2.51,-5.6 -5.6,-5.6 -3.09,0 -5.6,2.51 -5.6,5.6 0,3.09 2.51,5.6 5.6,5.6 3.09,0 5.6,-2.51 5.6,-5.6z"/>
   <path class="fil2" d="M526.38 532c0,-3.09 -2.51,-5.6 -5.6,-5.6 -3.09,0 -5.6,2.51 -5.6,5.6 0,3.09 2.51,5.6 5.6,5.6 3.09,0 5.6,-2.51 5.6,-5.6z"/>
   <path class="fil2" d="M641.18 526.41c0,-3.09 -2.51,-5.6 -5.6,-5.6 -3.09,0 -5.6,2.51 -5.6,5.6 0,3.09 2.51,5.6 5.6,5.6 3.09,0 5.6,-2.51 5.6,-5.6z"/>
   <path class="fil2" d="M646.78 491.63c0,-3.09 -2.51,-5.6 -5.6,-5.6 -3.09,0 -5.6,2.51 -5.6,5.6 0,3.09 2.51,5.6 5.6,5.6 3.09,0 5.6,-2.51 5.6,-5.6z"/>
   <path class="fil2" d="M292.76 505.94c0,-5.61 -4.55,-10.16 -10.16,-10.16 -5.61,0 -10.16,4.55 -10.16,10.16 0,5.61 4.55,10.16 10.16,10.16 5.61,0 10.16,-4.55 10.16,-10.16z"/>
   <path class="fil2" d="M681.35 537.59c0,-2.18 -1.77,-3.95 -3.95,-3.95 -2.18,0 -3.95,1.77 -3.95,3.95 0,2.18 1.77,3.95 3.95,3.95 2.18,0 3.95,-1.77 3.95,-3.95z"/>
   <path class="fil2" d="M765.72 516.08c0,-4.37 -3.54,-7.9 -7.9,-7.9 -4.37,0 -7.91,3.54 -7.91,7.9 0,4.37 3.54,7.91 7.91,7.91 4.37,0 7.9,-3.54 7.9,-7.91z"/>
   <path class="fil2" d="M424.54 568.96c0,-4.37 -3.54,-7.91 -7.91,-7.91 -4.37,0 -7.9,3.54 -7.9,7.91 0,4.37 3.54,7.9 7.9,7.9 4.37,0 7.91,-3.54 7.91,-7.9z"/>
   <path class="fil2" d="M763.41 453.94c0,-3.09 -2.51,-5.6 -5.6,-5.6 -3.09,0 -5.6,2.51 -5.6,5.6 0,3.09 2.51,5.6 5.6,5.6 3.09,0 5.6,-2.51 5.6,-5.6z"/>
   <path class="fil2" d="M784.39 472.54c0,-3.09 -2.51,-5.6 -5.6,-5.6 -3.09,0 -5.6,2.51 -5.6,5.6 0,3.09 2.51,5.6 5.6,5.6 3.09,0 5.6,-2.51 5.6,-5.6z"/>
   <path class="fil3" d="M598.18 414.64c-6.87,0 -10.12,-2.48 -29.46,-20.41 -14.17,-13.11 -23.89,-19.59 -35.76,-21.67 -14.81,-2.59 -29.94,-1.67 -46.07,14.53 -16.13,-16.19 -31.24,-17.02 -46.07,-14.53 -11.88,2.08 -21.6,8.57 -35.76,21.67 -19.35,17.93 -22.6,20.41 -29.46,20.41 -1.92,0 -3.47,1.56 -3.47,3.48 0,0.92 0.37,1.81 1.02,2.46 33.1,33.1 71.01,49.66 113.76,49.7 42.74,0.04 80.66,16.61 113.76,-49.7 0.65,-0.65 1.02,-1.54 1.02,-2.46 0,-1.92 -1.56,-3.48 -3.48,-3.48l0 0z"/>
   <path class="fil4" d="M600.11 421.07l-1.04 -4.18c-133.45,30.49 -223.49,1 -223.49,1l-3.35 -0.59c-0.07,0.28 -0.11,0.56 -0.11,0.85 0,0.91 0.36,1.78 1,2.42 33.1,33.1 71.01,49.66 113.76,49.7 42.46,0 80.21,-16.4 113.23,-49.21z"/>
   <path class="fil2" d="M448.26 429.67c25.44,-1.78 50.48,-2.72 75.44,-5.67 12.46,-1.44 24.87,-3.29 37.2,-5.41 12.33,-2.12 24.59,-4.56 36.9,-7.19l2.53 11.06c-12.45,2.95 -25,5.35 -37.67,7.2 -12.67,1.86 -25.23,4.26 -38.13,3.9 -12.77,0.7 -25.53,1.02 -38.3,0.51 -12.72,-0.43 -25.47,-1.97 -37.96,-4.42l-0.02 0.01z"/>
   <path class="fil2" d="M377.36 412.5c3.2,0.81 6.75,1.89 10.17,2.8 3.42,0.91 6.9,2.04 10.38,3.08 3.48,1.04 6.96,2.08 10.44,3.35 3.62,1.27 7.09,2.96 10.32,4.99 -3.71,1.09 -7.57,1.67 -11.44,1.7 -3.78,0 -7.47,-0.3 -11.21,-0.61 -3.74,-0.3 -7.43,-0.89 -11.12,-1.61 -3.76,-0.68 -7.48,-1.68 -11.08,-2.93l3.53 -10.78z"/>
   <path class="fil5" d="M598.18 414.64c-6.87,0 -10.12,-2.48 -29.46,-20.41 -14.17,-13.11 -23.7,-21.35 -35.76,-21.67 -21.2,-0.57 -36.22,11.57 -46.83,11.57 -10.61,0 -19.76,-14.24 -45.39,-11.57 -11.99,1.25 -21.6,8.57 -35.76,21.67 -19.35,17.93 -22.6,20.41 -29.46,20.41 -1.92,0 -3.48,1.56 -3.48,3.48 0,0.92 0.37,1.81 1.02,2.46 33.1,33.1 71.01,49.66 113.76,49.7 42.74,0.04 80.66,16.61 113.76,-49.7 0.65,-0.65 1.02,-1.54 1.02,-2.46 0,-1.89 -1.51,-3.44 -3.4,-3.48l0 0z"/>
   <path class="fil2" d="M591.63 421.38c-2.37,-0.7 -4.81,-1.94 -7.82,-4.05 -4.54,-3.17 -10.36,-8.42 -20.24,-17.58l0.01 -0.02c-6.77,-6.26 -12.42,-11.35 -17.71,-14.85 -4.51,-2.98 -8.68,-4.69 -13.1,-4.8 -11.07,-0.3 -20.69,3.53 -28.63,6.69 -6.65,2.64 -12.34,4.91 -18.02,4.91 -5.72,0 -10.22,-2.36 -15.58,-5.16 -6.66,-3.49 -15.13,-7.92 -29.04,-6.47 -4.74,0.49 -9.11,2.25 -13.79,5.24 -5.22,3.34 -10.85,8.19 -17.62,14.44l0.01 0.02c-9.88,9.15 -15.7,14.4 -20.24,17.58 -2.18,1.53 -4.06,2.59 -5.82,3.33 14.25,13.2 29.35,23.28 45.28,30.24 18.01,7.87 37.17,11.82 57.48,11.83 7.76,0.01 14.86,0.49 21.83,0.96 30.6,2.08 58.31,3.95 83,-42.32zm0.81 -16.4c2.45,1.72 3.88,2.09 5.74,2.09l0 0.02 0.15 0c3.02,0.07 5.72,1.33 7.67,3.32 1.95,2.01 3.15,4.73 3.15,7.69 0,1.42 -0.3,2.85 -0.86,4.2 -0.35,0.84 -0.79,1.64 -1.33,2.36 -29.64,58.81 -62.71,56.58 -99.33,54.1 -6.97,-0.47 -14.09,-0.95 -20.83,-0.96 -22.43,-0.02 -43.61,-4.38 -63.51,-13.07 -19.87,-8.68 -38.4,-21.62 -55.6,-38.82l0 -0.03c-1.02,-1.02 -1.82,-2.24 -2.38,-3.58 -0.56,-1.35 -0.85,-2.78 -0.85,-4.2 0,-3.02 1.24,-5.78 3.23,-7.78 2.01,-2.02 4.78,-3.27 7.81,-3.27 1.86,0 3.28,-0.37 5.74,-2.09 3.64,-2.55 9.12,-7.51 18.59,-16.28l0.03 0c7.39,-6.84 13.65,-12.2 19.76,-16.11 6.67,-4.26 13.1,-6.79 20.35,-7.54 18.37,-1.91 29.12,3.71 37.55,8.13 3.52,1.84 6.47,3.39 8.6,3.39 2.95,0 7.34,-1.75 12.46,-3.79 9.25,-3.68 20.44,-8.14 34.54,-7.76 7.64,0.2 14.27,2.79 21.08,7.28 6.03,3.98 12.23,9.56 19.61,16.4l0.03 0c9.47,8.77 14.94,13.73 18.59,16.28z"/>
   <path class="fil6" d="M532.95 384.45c-7.9,0.67 -15.71,2.56 -23.06,5.56 -3.67,1.46 -7.32,3.03 -11.06,4.58 -3.83,1.76 -7.94,2.88 -12.14,3.29 -0.09,0 -0.19,0 -0.28,0 -2.15,0 -4.29,-0.41 -6.28,-1.21 -1.95,-0.75 -3.85,-1.64 -5.68,-2.65 -3.4,-1.96 -6.95,-3.76 -10.55,-5.35 -3.6,-1.5 -7.39,-2.61 -11.23,-3.28 -3.86,-0.63 -7.79,-0.94 -11.7,-0.94 -0.06,0 -0.13,0 -0.19,0 3.2,-0.63 6.48,-0.96 9.74,-0.96 0.78,0 1.58,0.02 2.36,0.06 4.1,0.24 8.18,1.05 12.07,2.36 3.83,1.37 7.56,3.02 11.15,4.91 3.54,1.78 7.02,3.46 10.44,3.29 3.78,-0.38 7.49,-1.35 10.97,-2.85 3.78,-1.34 7.57,-2.86 11.35,-4.03 5.92,-2.02 12.15,-3.07 18.4,-3.07 1.9,0 3.81,0.1 5.69,0.28l0 0z"/>
   <path class="fil2" d="M435.66 433.4c6.09,0 6.11,-9.46 0,-9.46 -6.11,0 -6.09,9.46 0,9.46z"/>
  </g>
 </g>
</svg>
