<?xml version="1.0" encoding="UTF-8"?>
<!DOCTYPE svg PUBLIC "-//W3C//DTD SVG 1.1//EN" "http://www.w3.org/Graphics/SVG/1.1/DTD/svg11.dtd">
<!-- Creator: CorelDRAW 2020 (64-Bit Evaluation Version) -->
<svg xmlns="http://www.w3.org/2000/svg" xml:space="preserve" width="42.3333mm" height="42.3333mm" version="1.1" style="shape-rendering:geometricPrecision; text-rendering:geometricPrecision; image-rendering:optimizeQuality; fill-rule:evenodd; clip-rule:evenodd"
viewBox="0 0 1193.64 1193.64"
 xmlns:xlink="http://www.w3.org/1999/xlink"
 xmlns:xodm="http://www.corel.com/coreldraw/odm/2003">
 <defs>
  <style type="text/css">
   <![CDATA[
    .fil0 {fill:none}
    .fil1 {fill:#BF4722}
   ]]>
  </style>
 </defs>
 <g id="Layer_x0020_1">
  <metadata id="CorelCorpID_0Corel-Layer"/>
  <rect class="fil0" x="-0" y="-0" width="1193.64" height="1193.64"/>
  <path class="fil1" d="M372.54 215.01l208.59 142.39c4.71,3.14 10.21,4.85 15.85,4.95 5.65,-0.04 11.17,-1.76 15.85,-4.95l208.75 -142.87c8.11,-5.81 12.58,-15.49 11.77,-25.48 -0.81,-9.99 -6.79,-18.81 -15.73,-23.21l-208.59 -103.28c-7.91,-3.84 -17.13,-3.84 -25.05,0l-207.96 103.28c-9.1,4.42 -15.16,13.41 -15.88,23.57 -0.72,10.15 4.01,19.92 12.39,25.6l0 0zm295.29 187.08c0.02,9.44 4.64,18.27 12.36,23.62l167.22 114.29c10.71,7.38 25.03,6.46 34.71,-2.24l140.28 -125.47c6.25,-5.59 9.72,-13.67 9.48,-22.09 -0.25,-8.41 -4.18,-16.28 -10.75,-21.49l-133.94 -107.11c-9.74,-7.73 -23.32,-8.25 -33.6,-1.28l-173.41 118.6c-7.59,5.26 -12.19,13.88 -12.36,23.15l0 0zm-415.92 155.47c6.76,6.07 10.23,15.03 9.35,24.1 -0.88,9.13 -6.15,17.24 -14.11,21.71l-99.86 59.86c-10.12,6.05 -22.9,5.18 -32.12,-2.19 -9.22,-7.37 -12.96,-19.71 -9.41,-31.01l36.93 -116.21c2.9,-9.21 10.24,-16.3 19.49,-18.84 9.25,-2.69 19.22,-0.33 26.31,6.23l63.41 56.35zm541.61 12.13l-180.54 -123.55c-9.6,-6.46 -22.11,-6.46 -31.7,0l-180.54 123.55c-7.18,4.97 -11.73,12.96 -12.36,21.71 -0.47,8.81 3.02,17.37 9.51,23.31l180.38 161.38c5.2,4.64 11.91,7.2 18.86,7.18 6.95,-0 13.65,-2.55 18.86,-7.18l180.38 -161.38c6.5,-5.91 9.95,-14.5 9.35,-23.31 -0.5,-8.75 -5.01,-16.77 -12.21,-21.71l0 0zm-481.54 -31.92l-140.12 -125.47c-6.3,-5.73 -9.78,-13.96 -9.51,-22.51 0.15,-8.43 4.05,-16.33 10.62,-21.55l133.94 -107.75c9.8,-7.71 23.41,-8.23 33.76,-1.28l173.25 118.6c8.04,5.27 12.89,14.28 12.89,23.94 0,9.66 -4.85,18.67 -12.89,23.94l-167.07 114.29c-10.77,7.35 -25.11,6.43 -34.87,-2.23l0 0zm719.46 180.22l-142.66 -85.4c-10.59,-6.38 -24.08,-5.09 -33.28,3.19l-174.36 155.64c-7.36,6.57 -10.81,16.5 -9.13,26.26 1.68,9.76 8.25,17.94 17.37,21.63l241.88 98.01c3.32,1.38 6.87,2.08 10.46,2.08 11.23,0.04 21.42,-6.6 26,-16.92l74.97 -167.92c6.1,-13.29 1.24,-29.07 -11.25,-36.56l0 0zm19.81 -204.16l36.93 116.21 -0.32 0c2.73,8.7 1.18,18.18 -4.18,25.53 -5.36,7.35 -13.88,11.68 -22.93,11.66 -5.08,0.02 -10.07,-1.36 -14.42,-3.99l-100.02 -59.86c-7.79,-4.56 -12.88,-12.67 -13.63,-21.71 -0.93,-9.08 2.55,-18.06 9.35,-24.1l63.4 -56.51c7.16,-6.42 17.06,-8.76 26.31,-6.23 9.25,2.64 16.57,9.78 19.49,19l0 0zm-529.09 303.76c1.7,-9.71 -1.72,-19.62 -9.04,-26.18l-174.35 -155.64c-9.21,-8.28 -22.7,-9.58 -33.29,-3.19l-142.66 85.4c-12.35,7.51 -17.24,23.1 -11.41,36.39l75.13 167.93c6.22,14 22.32,20.56 36.46,14.85l241.72 -98.01c9.12,-3.66 15.72,-11.81 17.44,-21.55l0 -0zm85.59 47.89l194.01 78.54c9.49,4.06 16.04,12.98 17.12,23.3 1.23,10.45 -3.41,20.72 -12.05,26.66l-194.17 134.88c-4.66,3.27 -10.18,5.05 -15.85,5.11 -5.67,-0.09 -11.19,-1.87 -15.85,-5.11l-194.01 -134.88c-8.66,-5.92 -13.36,-16.18 -12.2,-26.66 1.29,-10.43 8.08,-19.34 17.75,-23.3l194.01 -78.54c6.82,-2.72 14.42,-2.72 21.24,0l0 0z"/>
 </g>
</svg>
