<?xml version="1.0" encoding="UTF-8"?>
<!DOCTYPE svg PUBLIC "-//W3C//DTD SVG 1.1//EN" "http://www.w3.org/Graphics/SVG/1.1/DTD/svg11.dtd">
<!-- Creator: CorelDRAW 2020 (64-Bit Evaluation Version) -->
<svg xmlns="http://www.w3.org/2000/svg" xml:space="preserve" width="42.3333mm" height="42.3333mm" version="1.1" style="shape-rendering:geometricPrecision; text-rendering:geometricPrecision; image-rendering:optimizeQuality; fill-rule:evenodd; clip-rule:evenodd"
viewBox="0 0 1193.64 1193.64"
 xmlns:xlink="http://www.w3.org/1999/xlink"
 xmlns:xodm="http://www.corel.com/coreldraw/odm/2003">
 <defs>
  <style type="text/css">
   <![CDATA[
    .fil0 {fill:none}
    .fil1 {fill:#087EA4;fill-rule:nonzero}
   ]]>
  </style>
 </defs>
 <g id="Layer_x0020_1">
  <metadata id="CorelCorpID_0Corel-Layer"/>
  <rect class="fil0" x="-0" y="-0" width="1193.64" height="1193.64"/>
  <g id="_2248369398304">
   <circle class="fil1" cx="596.82" cy="596.82" r="102.31"/>
   <path class="fil1" d="M1082.81 596.82c0,-52.57 -51.49,-102.03 -134.74,-139.5 -89.42,-40.24 -213.56,-65.13 -351.24,-65.13 -137.67,0 -261.82,24.89 -351.24,65.13 -83.25,37.46 -134.74,86.92 -134.74,139.5 0,52.57 51.49,102.03 134.74,139.5 89.42,40.24 213.56,65.13 351.24,65.13 137.67,0 261.82,-24.89 351.24,-65.13 83.25,-37.46 134.74,-86.92 134.74,-139.5zm-113.76 -186.06c101.9,45.85 164.92,111.5 164.92,186.06 0,74.56 -63.02,140.21 -164.92,186.06 -95.73,43.08 -227.37,69.72 -372.22,69.72 -144.85,0 -276.49,-26.64 -372.22,-69.72 -101.9,-45.85 -164.92,-111.5 -164.92,-186.06 0,-74.56 63.02,-140.21 164.92,-186.06 95.73,-43.08 227.37,-69.72 372.22,-69.72 144.85,0 276.49,26.64 372.22,69.72z"/>
   <path class="fil1" d="M839.9 1017.77l0.01 -0.01c45.49,-26.27 62.56,-95.64 53.36,-186.57 -9.87,-97.63 -50.36,-217.58 -119.13,-336.72l-0.04 0.03c-68.85,-119.24 -152.49,-214.33 -232.06,-271.66 -74.11,-53.4 -142.73,-73.27 -188.3,-46.98l-0.01 0.01c-45.49,26.27 -62.56,95.64 -53.36,186.57 9.87,97.63 50.36,217.58 119.13,336.72l0.04 -0.03c68.85,119.24 152.49,214.33 232.06,271.66 74.11,53.4 142.73,73.27 188.3,46.98zm104.13 -191.57c11.02,109.04 -13.22,195.21 -75.24,233.62l-0.19 0.19 -3.31 1.91c-64.54,37.26 -152.86,15.51 -243.46,-49.77 -85.15,-61.35 -174.03,-162.01 -246.45,-287.44l-0.39 -0.78c-72.22,-125.29 -114.85,-252.32 -125.38,-356.49 -11.02,-109.04 13.22,-195.21 75.24,-233.62l0.19 -0.19 3.31 -1.91c64.54,-37.26 152.86,-15.51 243.46,49.77 85.15,61.35 174.03,162.01 246.45,287.44l0.39 0.78c72.22,125.29 114.85,252.32 125.38,356.49z"/>
   <path class="fil1" d="M353.74 1017.77c45.57,26.3 114.19,6.42 188.3,-46.98 79.58,-57.33 163.22,-152.42 232.06,-271.66l0.04 0.03c68.77,-119.14 109.26,-239.09 119.13,-336.72 9.19,-90.92 -7.87,-160.3 -53.36,-186.57l-0.01 -0.01c-45.57,-26.3 -114.19,-6.42 -188.3,46.98 -79.58,57.33 -163.22,152.42 -232.06,271.66l-0.04 -0.03c-68.77,119.14 -109.26,239.09 -119.13,336.72 -9.19,90.92 7.87,160.3 53.36,186.57l0.01 0.01zm218.07 -5.61c-90.61,65.28 -178.92,87.03 -243.46,49.77l-3.31 -1.91 -0.19 -0.19c-62.02,-38.41 -86.26,-124.59 -75.24,-233.62 10.53,-104.17 53.15,-231.2 125.38,-356.49l0.39 -0.78c72.42,-125.43 161.3,-226.1 246.45,-287.44 90.61,-65.28 178.92,-87.03 243.46,-49.77l3.31 1.91 0.19 0.19c62.02,38.41 86.26,124.58 75.24,233.62 -10.53,104.17 -53.15,231.2 -125.38,356.49l-0.39 0.78c-72.42,125.43 -161.3,226.1 -246.45,287.44z"/>
  </g>
 </g>
</svg>
