<?xml version="1.0" encoding="UTF-8"?>
<!DOCTYPE svg PUBLIC "-//W3C//DTD SVG 1.1//EN" "http://www.w3.org/Graphics/SVG/1.1/DTD/svg11.dtd">
<!-- Creator: CorelDRAW 2020 (64-Bit Evaluation Version) -->
<svg xmlns="http://www.w3.org/2000/svg" xml:space="preserve" width="42.3333mm" height="42.3333mm" version="1.1" style="shape-rendering:geometricPrecision; text-rendering:geometricPrecision; image-rendering:optimizeQuality; fill-rule:evenodd; clip-rule:evenodd"
viewBox="0 0 1193.64 1193.64"
 xmlns:xlink="http://www.w3.org/1999/xlink"
 xmlns:xodm="http://www.corel.com/coreldraw/odm/2003">
 <defs>
  <style type="text/css">
   <![CDATA[
    .fil0 {fill:none}
    .fil1 {fill:#663795;fill-rule:nonzero}
    .fil2 {fill:white;fill-rule:nonzero}
   ]]>
  </style>
 </defs>
 <g id="Layer_x0020_1">
  <metadata id="CorelCorpID_0Corel-Layer"/>
  <rect class="fil0" x="-0" y="-0" width="1193.64" height="1193.64"/>
  <g id="_1748798056240">
   <path class="fil1" d="M596.82 247.06c-193.14,-0 -349.76,156.62 -349.76,349.76 0,193.14 156.63,349.77 349.76,349.77 193.14,0 349.77,-156.63 349.77,-349.77 -0.51,-192.91 -156.86,-349.26 -349.78,-349.77l0.02 0.01z"/>
   <path class="fil2" d="M322.24 596.82c0,151.62 122.96,274.58 274.58,274.58l-274.55 -282.47c-0.02,1.96 -0.03,3.93 -0.03,5.92 0,0.66 -0,1.31 -0,1.97z"/>
   <path class="fil2" d="M329.54 536.9c27.97,-125.59 139.36,-214.92 268.01,-214.92 87.56,0 169.92,41.8 221.61,112.46l-37.47 32.59c-43.11,-59.03 -111.73,-94.24 -184.86,-94.75 -95.15,0.56 -179.94,60.43 -212.32,149.88l287.3 287.3c72.78,-25.83 127.46,-87.1 144.88,-162.38l-119.91 0.02 0 -49.98 174.85 0c-0.83,128.12 -89.86,238.78 -214.81,267l-327.28 -327.22z"/>
  </g>
 </g>
</svg>
