<?xml version="1.0" encoding="UTF-8"?>
<!DOCTYPE svg PUBLIC "-//W3C//DTD SVG 1.1//EN" "http://www.w3.org/Graphics/SVG/1.1/DTD/svg11.dtd">
<!-- Creator: CorelDRAW 2020 (64-Bit Evaluation Version) -->
<svg xmlns="http://www.w3.org/2000/svg" xml:space="preserve" width="42.3333mm" height="42.3333mm" version="1.1" style="shape-rendering:geometricPrecision; text-rendering:geometricPrecision; image-rendering:optimizeQuality; fill-rule:evenodd; clip-rule:evenodd"
viewBox="0 0 1193.64 1193.64"
 xmlns:xlink="http://www.w3.org/1999/xlink"
 xmlns:xodm="http://www.corel.com/coreldraw/odm/2003">
 <defs>
  <style type="text/css">
   <![CDATA[
    .fil0 {fill:none}
    .fil3 {fill:#592D3D;fill-rule:nonzero}
    .fil5 {fill:gray;fill-rule:nonzero}
    .fil1 {fill:#A56941;fill-rule:nonzero}
    .fil4 {fill:#B3B3B3;fill-rule:nonzero}
    .fil2 {fill:#CCCCCC;fill-rule:nonzero}
    .fil6 {fill:white;fill-rule:nonzero}
   ]]>
  </style>
 </defs>
 <g id="Layer_x0020_1">
  <metadata id="CorelCorpID_0Corel-Layer"/>
  <rect class="fil0" x="-0" y="-0" width="1193.64" height="1193.64"/>
  <g id="_2560249924320">
   <path class="fil1" d="M71.5 608.52c0,-290.13 235.2,-525.33 525.32,-525.33 290.12,0 525.32,235.2 525.32,525.33 0,0.12 0,0.37 0,0.5 0,158.1 -71.43,307.94 -194.26,407.4 -10.79,8.76 -21.92,17.09 -33.38,24.98 -118.48,75.21 -268.14,75.21 -403.26,63.18 -13.12,-1.97 -26.19,-4.45 -39.17,-7.31 -51.85,-11.42 -102.05,-29.05 -148.43,-54.75 -11.46,-7.06 -22.57,-14.69 -33.34,-22.88 -10.79,-8.2 -21.21,-17.08 -31.09,-26.34 -9.39,-8.71 -18.45,-17.76 -27.18,-27.14 -90.23,-96.85 -140.53,-224.5 -140.53,-356.95 0,-0.19 0,-0.51 0,-0.7l0 0.01z"/>
   <path class="fil2" d="M71.5 608.52c0,-290.13 235.2,-525.33 525.32,-525.33 290.12,0 525.32,235.2 525.32,525.33 0,0.12 0,0.37 0,0.5 0,158.1 -71.43,307.94 -194.26,407.4 -10.79,8.76 -21.92,17.09 -33.38,24.98 -118.48,75.21 -268.14,75.21 -403.26,63.18 -13.12,-1.97 -26.19,-4.45 -39.17,-7.31 -51.85,-11.42 -102.05,-29.05 -148.43,-54.75 -11.46,-7.06 -22.57,-14.69 -33.34,-22.88 -10.79,-8.2 -21.21,-17.08 -31.09,-26.34 -9.39,-8.71 -18.45,-17.76 -27.18,-27.14 -90.23,-96.85 -140.53,-224.5 -140.53,-356.95 0,-0.19 0,-0.51 0,-0.7l0 0.01z"/>
   <path class="fil3" d="M59.68 608.52c0,-148.32 60.12,-282.61 157.33,-379.81 97.2,-97.2 231.49,-157.33 379.81,-157.33 148.32,0 282.61,60.12 379.81,157.33 97.2,97.2 157.33,231.49 157.33,379.81l0 0.5c0,80.82 -18.27,159.54 -52.23,230.78 -33.94,71.18 -83.6,134.9 -146.42,185.77 -5.41,4.39 -11.01,8.75 -16.81,13.09 -5.82,4.35 -11.59,8.5 -17.31,12.44l-0.37 0.28c-60.91,38.67 -129.63,57.97 -200.38,66.06 -69.95,7.99 -141.94,4.95 -210.23,-1.13l-0.74 -0.05c-6.3,-0.95 -13,-2.09 -20.05,-3.41 -7.27,-1.36 -13.88,-2.71 -19.9,-4.03 -26.27,-5.79 -52.27,-13.2 -77.75,-22.48 -25.38,-9.25 -50.09,-20.34 -73.87,-33.51l-0.46 -0.28c-11.88,-7.32 -23.32,-15.17 -34.31,-23.53l0.02 -0.02c-5.78,-4.39 -11.16,-8.71 -16.13,-12.92 -5.38,-4.56 -10.67,-9.29 -15.85,-14.14 -4.69,-4.35 -9.4,-8.88 -14.12,-13.59 -4.74,-4.73 -9.3,-9.45 -13.67,-14.15 -46.14,-49.53 -82.07,-106.94 -106.47,-168.91 -24.39,-61.94 -37.25,-128.41 -37.25,-196.07l0 -0.69zm174.04 -363.1c-92.92,92.92 -150.4,221.3 -150.4,363.09l0 0.7c0,64.75 12.28,128.3 35.58,187.48 23.32,59.22 57.66,114.09 101.77,161.43 4.36,4.69 8.7,9.19 13.02,13.5 4.34,4.34 8.86,8.69 13.56,13.04l0.05 0.05c4.84,4.53 9.83,8.99 14.98,13.35 5.24,4.44 10.31,8.53 15.15,12.21l0.05 0c10.43,7.94 21.1,15.28 32.02,22.02 22.57,12.5 46.11,23.05 70.34,31.88 24.18,8.81 49.21,15.93 74.79,21.56 6.95,1.53 13.37,2.86 19.16,3.94 6.01,1.13 12.41,2.2 19.22,3.23l-0 0.02c66.61,5.91 136.75,8.84 204.78,1.06 67.49,-7.71 132.84,-26.01 190.41,-62.55l0.01 0.02c5.61,-3.87 11,-7.74 16.19,-11.63 5.33,-3.99 10.68,-8.17 16.07,-12.54 60,-48.59 107.47,-109.52 139.96,-177.64 32.46,-68.09 49.92,-143.34 49.92,-220.62l0 -0.5c0,-141.8 -57.48,-270.18 -150.4,-363.1 -92.93,-92.93 -221.3,-150.4 -363.1,-150.4 -141.8,0 -270.18,57.48 -363.1,150.4z"/>
   <path class="fil4" d="M596.82 83.2c-267.24,0 -487.87,199.56 -521.01,457.78 58.5,-54.99 105.61,-121.37 138.17,-194.76 125.52,27.48 254.18,41.41 382.84,41.63 0.3,-0 0.73,-0 0.95,-0 128.25,0 256.72,-14.27 381.95,-41.74 32.51,73.51 79.62,139.89 138.09,194.9 -33.13,-258.24 -253.75,-457.8 -520.99,-457.8z"/>
   <path class="fil5" d="M213.98 346.19c20.93,4.53 41.98,8.7 63.16,12.51 20.89,-69.71 53.63,-145.49 100.69,-227.77l0 0c-2.62,1.22 -5.24,2.44 -7.88,3.68l-0.34 0.16c-2.58,1.24 -5.16,2.5 -7.72,3.8l-1.16 0.57c-2.4,1.2 -4.8,2.44 -7.19,3.7l-1.97 1.04c-7.4,3.94 -14.73,8.02 -21.92,12.27l-1.57 0.92 -0.28 0.18c-2.27,1.31 -4.52,2.67 -6.74,4.08l-1.71 1.06c-7.04,4.4 -13.96,8.95 -20.78,13.65l-2.13 1.48c-1.97,1.4 -3.94,2.8 -5.91,4.22l-1.4 1.02 -0.29 0.2c-4.29,3.14 -8.54,6.31 -12.72,9.53l-1.22 0.94c-1.97,1.54 -3.94,3.11 -5.91,4.71l-2.3 1.85 -4.75 3.94 -1.54 1.28c-4.04,3.37 -7.99,6.8 -11.93,10.28l-2.25 1.97 -5.3 4.82 -2.54 2.23c-5.62,5.25 -11.11,10.61 -16.48,16.09l-1.97 1.97c-0.43,0.43 -0.85,0.87 -1.26,1.32 -1.38,1.42 -2.74,2.84 -4.1,4.27 -0.91,0.96 -1.81,1.97 -2.7,2.92 -2.71,2.89 -5.37,5.81 -8,8.78l-0.94 1.08c-0.61,0.69 -1.24,1.38 -1.85,2.09l-4.06 4.8c-0.22,0.28 -0.43,0.53 -0.67,0.79l-2.36 2.82c-1.2,1.42 -2.38,2.85 -3.56,4.29 -0.77,0.92 -1.54,1.97 -2.31,2.84l-1.3 1.62c-2.09,2.63 -4.14,5.25 -6.16,7.88l-0.14 0.18c-1.04,1.34 -2.07,2.68 -3.09,4.04 -0.79,1.02 -1.56,2.07 -2.3,3.09l-1.97 2.62 -2.4 3.31 -1.97 2.66 -2.78 3.94c-1.12,1.59 -2.22,3.19 -3.33,4.8 -1.1,1.62 -2.19,3.23 -3.25,4.84l-0.49 0.71 -2.99 4.55 -3.43 5.36c-1.03,1.63 -1.97,3.27 -3.05,4.9l0 0c-1.12,1.81 -2.24,3.62 -3.35,5.45 -1.11,1.83 -1.97,3.31 -2.92,4.97 -0.94,1.65 -1.81,3.07 -2.68,4.61l-1.12 1.97 -2.22 3.94c-0.83,1.52 -1.67,3.01 -2.48,4.53 -0.28,0.49 -0.55,0.98 -0.81,1.47 -0.83,1.54 -1.65,3.09 -2.46,4.65 -0.81,1.56 -1.34,2.54 -1.97,3.82l-1.66 3.21 -1.83 3.7c-0.77,1.54 -1.54,3.05 -2.29,4.61l-1.61 3.37 -0.59 1.28c-0.87,1.81 -1.71,3.64 -2.56,5.48l-1.42 3.13c-0.81,1.79 -1.59,3.6 -2.38,5.42l-1.97 4.61c-0.89,2.11 -1.73,4.22 -2.6,6.32 -0.63,1.52 -1.24,3.01 -1.85,4.53 -0.22,0.51 -0.41,1.04 -0.61,1.57 -0.69,1.73 -1.36,3.49 -1.97,5.24 -0.61,1.75 -1.2,3.09 -1.77,4.65l-0.32 0.85c-0.75,1.97 -1.46,3.94 -2.17,6.03 -0.71,2.09 -1.26,3.52 -1.97,5.3 -0.73,2.13 -1.44,4.24 -2.13,6.36 -0.59,1.79 -1.18,3.58 -1.75,5.38 -0.69,2.15 -1.34,4.27 -1.97,6.42 -0.55,1.81 -1.08,3.62 -1.62,5.45 -0.63,2.15 -1.26,4.31 -1.85,6.48 -0.51,1.81 -1.01,3.64 -1.48,5.48 -0.59,2.19 -1.16,4.37 -1.71,6.58 -0.47,1.81 -0.91,3.66 -1.34,5.49 -0.53,2.2 -1.06,4.43 -1.58,6.64 -0.41,1.83 -0.81,3.68 -1.2,5.52 -0.47,2.24 -0.96,4.51 -1.44,6.77 -0.35,1.79 -0.69,3.58 -1.02,5.4 -0.33,1.81 -0.77,3.94 -1.12,5.91l-0.36 1.97 -0.65 3.94c-0.36,2.15 -0.73,4.31 -1.06,6.48 0,0.41 -0.14,0.83 -0.2,1.24 -0.59,3.94 -1.14,7.88 -1.66,11.82 58.47,-55.11 105.58,-121.42 138.22,-194.89l-0.03 0.02z"/>
   <path class="fil3" d="M596.82 95.02c-129.85,0 -248.43,48.16 -338.82,127.59 -82.86,72.81 -142.08,171.87 -164.64,284.17 18.67,-19.85 35.94,-40.95 51.68,-63.14 22.66,-31.94 42.17,-66.18 58.14,-102.19l3.92 -8.84 9.37 2.05c62.39,13.66 125.45,23.94 188.78,30.83 63.73,6.93 127.72,10.46 191.57,10.57l0.95 -0 0 -0.05c63.58,0 127.08,-3.51 190.06,-10.39 63.54,-6.94 126.82,-17.35 189.4,-31.08l9.38 -2.06 3.91 8.84c15.94,36.04 35.42,70.29 58.04,102.22 15.74,22.22 33.03,43.35 51.71,63.22 -22.56,-112.31 -81.77,-211.37 -164.62,-284.17 -90.4,-79.43 -208.97,-127.59 -338.83,-127.59zm-354.33 109.86c94.58,-83.1 218.59,-133.5 354.33,-133.5 135.75,0 259.75,50.4 354.33,133.5 95.74,84.12 161.29,201.78 178.34,334.63l4.18 32.58 -23.93 -22.51c-29.83,-28.06 -56.76,-59.03 -80.38,-92.36 -21.76,-30.71 -40.69,-63.37 -56.46,-97.57 -60.15,12.87 -121.14,22.71 -182.58,29.43 -64.09,7 -128.42,10.57 -192.55,10.57l0 -0.05 -0.95 0c-64.96,-0.11 -129.78,-3.67 -194.06,-10.66 -61.23,-6.66 -121.99,-16.39 -181.97,-29.19 -15.82,34.17 -34.77,66.84 -56.56,97.54 -23.62,33.29 -50.54,64.23 -80.35,92.26l-23.94 22.5 4.18 -32.56c17.05,-132.84 82.62,-250.5 178.36,-334.62z"/>
   <path class="fil6" d="M609.05 116.38c-24.75,3.31 -49.12,6.66 -73.18,11.34 -24.07,4.69 -47.84,10.2 -71.25,17.02 -23.42,6.81 -46.52,14.73 -69.28,23.77 -22.77,9.04 -45.2,19.16 -67.86,29.64 19.31,-15.92 40.44,-29.73 62.76,-40.93 44.83,-22.77 93.81,-36.95 143.92,-41.71 11.06,-1.08 22.31,-1.66 33.45,-1.66 13.83,0 27.75,0.87 41.45,2.53l0 0z"/>
  </g>
 </g>
</svg>
