<?xml version="1.0" encoding="UTF-8"?>
<!DOCTYPE svg PUBLIC "-//W3C//DTD SVG 1.1//EN" "http://www.w3.org/Graphics/SVG/1.1/DTD/svg11.dtd">
<!-- Creator: CorelDRAW 2020 (64-Bit Evaluation Version) -->
<svg xmlns="http://www.w3.org/2000/svg" xml:space="preserve" width="42.3333mm" height="42.3333mm" version="1.1" style="shape-rendering:geometricPrecision; text-rendering:geometricPrecision; image-rendering:optimizeQuality; fill-rule:evenodd; clip-rule:evenodd"
viewBox="0 0 980.39 980.39"
 xmlns:xlink="http://www.w3.org/1999/xlink"
 xmlns:xodm="http://www.corel.com/coreldraw/odm/2003">
 <defs>
  <style type="text/css">
   <![CDATA[
    .fil0 {fill:none}
    .fil4 {fill:#592D3D;fill-rule:nonzero}
    .fil3 {fill:#666666;fill-rule:nonzero}
    .fil2 {fill:gray;fill-rule:nonzero}
    .fil1 {fill:#B3B3B3;fill-rule:nonzero}
    .fil6 {fill:white;fill-rule:nonzero}
    .fil5 {fill:white;fill-rule:nonzero}
   ]]>
  </style>
 </defs>
 <g id="Layer_x0020_1">
  <metadata id="CorelCorpID_0Corel-Layer"/>
  <rect class="fil0" x="-0" y="-0" width="980.39" height="980.39"/>
  <g id="_2560241852288">
   <path class="fil1" d="M923.62 602.18c0,-0.13 0,-0.27 0,-0.4 0,-30.41 -18.29,-57.86 -46.36,-69.57 20.84,-14.06 33.35,-37.57 33.35,-62.72 0,-0.09 0,-0.18 0,-0.28 0,-35.87 -24.54,-65.88 -57.45,-73.48 6.35,-11.38 9.7,-24.22 9.7,-37.26 0,-0.02 0,-0.06 0,-0.07 0,-41.59 -33.03,-75.3 -73.79,-75.3 -0.02,0 -0.04,0 -0.06,0 -10.8,0 -21.47,2.43 -31.2,7.1 0.57,-3.77 0.86,-7.58 0.86,-11.39 0,-0.04 0,-0.09 0,-0.13 0,-41.61 -33.03,-75.35 -73.79,-75.35 -21.93,0.02 -42.7,9.93 -56.53,26.95 -2.08,-39.71 -34.27,-71.27 -73.63,-71.27 -27.03,0.08 -51.83,15.01 -64.58,38.84 -12.75,-23.83 -37.57,-38.76 -64.59,-38.85 -39.4,0 -71.59,31.56 -73.63,71.27 -13.84,-17.01 -34.61,-26.92 -56.54,-26.95 -40.73,0 -73.78,33.73 -73.78,75.35 0,0.03 0,0.06 0,0.09 0,3.82 0.29,7.66 0.85,11.43 -9.72,-4.66 -20.39,-7.09 -31.17,-7.09 -0.02,0 -0.03,0 -0.05,0 -40.74,0 -73.79,33.74 -73.79,75.35 -0,0.04 -0,0.08 -0,0.12 0,13.03 3.35,25.85 9.71,37.21 -32.88,7.6 -57.43,37.61 -57.43,73.48 -0,0.06 -0,0.16 -0,0.22 0,25.17 12.53,48.71 33.4,62.76 -28.1,11.9 -46.35,39.46 -46.35,69.98 0,29.93 17.59,57.1 44.9,69.34 -12.14,13.84 -18.86,31.67 -18.86,50.1 0,0.09 0,0.19 0,0.28 0,36.83 25.9,67.5 60.12,74.06 -14.87,13.32 704.5,14.12 690.06,0.71 36.43,-4.61 64.59,-36.31 64.59,-74.76 0,-0.07 0,-0.16 0,-0.23 0,-18.45 -6.71,-36.28 -18.88,-50.14 27.3,-12.07 44.92,-39.14 44.92,-68.99 0,-0.13 0,-0.28 0,-0.41l0 0zm-726.44 186.72c-1.2,-0.67 -2.44,-1.29 -3.68,-1.82 1.25,-0.74 3.68,1.82 3.68,1.82z"/>
   <path class="fil2" d="M454.5 778.42c-12.13,11.08 -27.99,17.23 -44.42,17.23 -35.88,0 -65.17,-28.74 -65.87,-64.6 -6.5,2.08 -13.3,3.15 -20.14,3.15 -36.45,0 -66.01,-29.56 -66.01,-66.01 0,-7.91 1.43,-15.75 4.2,-23.15 -34.72,-2.32 -61.7,-31.17 -61.7,-65.97 0,-17.68 7.08,-34.63 19.65,-47.04 -24.24,-10.5 -39.94,-34.41 -39.94,-60.83 0,-25.78 14.96,-49.23 38.32,-60.1 -9.84,-11.89 -15.23,-26.88 -15.23,-42.32 0,-36.67 29.74,-66.42 66.41,-66.43l0.21 0c-1.29,-5.2 -1.94,-10.57 -1.94,-15.94 0,-36.75 29.78,-66.56 66.53,-66.59 2.44,0 4.89,0.14 7.31,0.4 -13.03,-10.91 -29.51,-16.91 -46.51,-16.91 -40.74,0 -73.77,33.73 -73.77,75.35 0,0.03 0,0.06 0,0.09 0,3.82 0.29,7.66 0.86,11.43 -9.7,-4.64 -20.35,-7.06 -31.12,-7.06 -0.03,0 -0.07,0 -0.09,0 -40.74,0 -73.79,33.74 -73.79,75.35 0,0.04 0,0.08 0,0.12 0,13.03 3.35,25.85 9.71,37.21 -32.88,7.6 -57.43,37.61 -57.43,73.48 -0,0.06 -0,0.16 -0,0.22 0,25.17 12.53,48.71 33.4,62.76 -28.1,11.9 -46.35,39.46 -46.35,69.98 0,29.93 17.59,57.1 44.9,69.34 -12.14,13.84 -18.86,31.67 -18.86,50.1 0,0.09 0,0.19 0,0.28 0,36.83 25.9,67.5 60.12,74.06 -7.25,6.46 159.94,10.01 331.56,10.33 -9,-7.37 -15.9,-17.01 -19.98,-27.91l-0 -0z"/>
   <path class="fil2" d="M454.25 779.47c-5.97,5.3 -12.79,9.44 -20.13,12.29 -7.61,2.95 -15.76,4.5 -24.05,4.5 -18.11,0 -34.55,-7.25 -46.56,-19.03 -11.82,-11.6 -19.34,-27.59 -19.9,-45.36 -3.03,0.93 -6.13,1.64 -9.26,2.13 -3.41,0.53 -6.85,0.8 -10.28,0.8 -18.4,0 -35.05,-7.46 -47.11,-19.52 -12.06,-12.06 -19.52,-28.71 -19.52,-47.11 0,-3.98 0.36,-7.95 1.07,-11.87 0.66,-3.65 1.63,-7.24 2.89,-10.73 -17.19,-1.36 -32.45,-9.16 -43.46,-20.94 -11.19,-11.96 -18,-28.02 -18,-45.58 0,-8.92 1.79,-17.66 5.16,-25.73 3.26,-7.8 8,-14.98 14.04,-21.11 -11.86,-5.33 -21.65,-13.86 -28.51,-24.31 -7.02,-10.69 -10.98,-23.39 -10.98,-36.72 0,-13.01 3.77,-25.43 10.5,-35.97 6.59,-10.33 16,-18.85 27.47,-24.35 -4.72,-5.85 -8.39,-12.42 -10.91,-19.4 -2.6,-7.23 -3.96,-14.91 -3.96,-22.7 0,-18.5 7.51,-35.26 19.63,-47.39 12,-12.01 28.54,-19.48 46.82,-19.64 -0.56,-2.38 -0.99,-4.79 -1.28,-7.22 -0.33,-2.69 -0.49,-5.41 -0.49,-8.11 0,-18.54 7.52,-35.34 19.66,-47.5 12.15,-12.16 28.94,-19.69 47.48,-19.71 1.19,-0 2.41,0.03 3.64,0.1 0.57,0.03 1.15,0.07 1.72,0.12 -6.07,-4.8 -12.84,-8.56 -20.03,-11.17 -7.8,-2.84 -16.1,-4.32 -24.53,-4.32 -20.2,0 -38.49,8.36 -51.73,21.89 -13.24,13.52 -21.43,32.21 -21.43,52.85l0 0.09c0,1.89 0.07,3.79 0.21,5.67 0.14,1.9 0.36,3.8 0.64,5.67l0.17 1.14 -1.04 -0.5c-4.81,-2.3 -9.86,-4.05 -15.05,-5.23 -5.17,-1.17 -10.47,-1.77 -15.81,-1.77l-0.09 0c-20.2,0 -38.49,8.36 -51.74,21.89 -13.24,13.52 -21.44,32.21 -21.44,52.85l0 0.12c0,6.46 0.83,12.87 2.45,19.07 1.62,6.2 4.03,12.21 7.18,17.84l0.4 0.71 -0.8 0.18c-16.46,3.8 -30.82,13.28 -41.01,26.3 -9.98,12.77 -15.95,28.96 -15.95,46.58 -0.01,0.07 -0,0.15 -0.01,0.22 0,12.48 3.11,24.56 8.8,35.26 5.69,10.7 13.98,20.02 24.33,26.99l0.94 0.63 -1.04 0.44c-13.93,5.9 -25.43,15.69 -33.44,27.78 -8.01,12.09 -12.54,26.5 -12.54,41.63 0,14.84 4.36,29 12.11,40.97 7.75,11.97 18.88,21.74 32.42,27.82l0.76 0.34 -0.54 0.62c-6.02,6.86 -10.7,14.72 -13.87,23.14 -3.17,8.42 -4.83,17.41 -4.83,26.55l0 0.28c0,18.11 6.31,34.72 16.81,47.66 10.68,13.16 25.7,22.52 42.81,25.8l1.22 0.24 -0.93 0.83c-0.02,0.02 -0.03,0.01 -0.03,0.02 -0.13,0.45 3.05,1.06 9.06,1.8 6.49,0.8 16.11,1.55 28.31,2.22 57.81,3.2 173.79,4.98 292.12,5.21 -4.01,-3.46 -7.58,-7.37 -10.64,-11.65 -3.22,-4.5 -5.88,-9.4 -7.91,-14.59zm-20.57 11.14c7.46,-2.89 14.4,-7.16 20.41,-12.65l0.4 -0.36 0.54 0.46 0.06 0.15c2.02,5.4 4.74,10.49 8.08,15.14 3.33,4.65 7.26,8.86 11.72,12.51l1.33 1.09 -1.72 -0c-118.96,-0.22 -235.79,-2 -293.88,-5.22 -12.26,-0.68 -21.9,-1.42 -28.4,-2.23 -6.37,-0.79 -9.88,-1.79 -10.1,-3.04 -17.11,-3.46 -32.11,-12.9 -42.83,-26.09 -10.67,-13.15 -17.09,-30.03 -17.09,-48.43l0 -0.28c0,-9.29 1.69,-18.42 4.91,-26.98 3.13,-8.3 7.7,-16.07 13.56,-22.9 -13.43,-6.19 -24.47,-15.99 -32.2,-27.93 -7.87,-12.16 -12.31,-26.55 -12.31,-41.63 0,-15.38 4.6,-30.02 12.75,-42.31 7.94,-11.99 19.26,-21.75 32.96,-27.79 -10.09,-7.01 -18.19,-16.24 -23.81,-26.8 -5.79,-10.88 -8.95,-23.15 -8.95,-35.84l0.01 -0.22c-0,-17.9 6.07,-34.35 16.21,-47.33 10.19,-13.04 24.5,-22.58 40.91,-26.56 -3.01,-5.52 -5.33,-11.38 -6.9,-17.42 -1.64,-6.3 -2.49,-12.82 -2.49,-19.37l0 -0.12c0,-20.97 8.33,-39.96 21.79,-53.71 13.47,-13.75 32.07,-22.26 52.61,-22.26l0.09 0c5.42,0 10.81,0.61 16.08,1.81 4.9,1.11 9.69,2.73 14.27,4.84 -0.21,-1.54 -0.37,-3.09 -0.49,-4.64 -0.14,-1.92 -0.22,-3.85 -0.22,-5.76l-0 -0.09c0,-20.97 8.33,-39.97 21.79,-53.71 13.46,-13.75 32.06,-22.25 52.61,-22.25 8.56,0 17,1.51 24.94,4.4 7.94,2.89 15.39,7.15 21.96,12.65l1.55 1.3 -2.01 -0.22c-1.22,-0.13 -2.45,-0.23 -3.67,-0.3 -1.17,-0.06 -2.36,-0.1 -3.57,-0.1 -18.2,0.01 -34.68,7.41 -46.61,19.34 -11.93,11.94 -19.3,28.43 -19.3,46.63 0,2.67 0.16,5.33 0.48,7.97 0.32,2.64 0.8,5.26 1.43,7.83l0.19 0.76 -0.99 0c-18.16,0 -34.62,7.37 -46.52,19.28 -11.91,11.91 -19.27,28.36 -19.27,46.53 0,7.65 1.34,15.19 3.89,22.28 2.55,7.09 6.33,13.75 11.2,19.64l0.51 0.61 -0.72 0.34c-11.57,5.38 -21.07,13.89 -27.67,24.23 -6.6,10.35 -10.3,22.54 -10.3,35.31 0,13.09 3.89,25.56 10.78,36.05 6.89,10.5 16.79,19.02 28.8,24.22l0.83 0.36 -0.65 0.64c-6.23,6.15 -11.1,13.42 -14.4,21.34 -3.31,7.92 -5.06,16.5 -5.06,25.26 0,17.24 6.68,33 17.66,44.75 10.98,11.74 26.26,19.46 43.46,20.61l0.82 0.06 -0.29 0.77c-1.37,3.67 -2.42,7.45 -3.11,11.29 -0.69,3.83 -1.04,7.73 -1.04,11.65 0,18.05 7.32,34.4 19.15,46.24 11.84,11.84 28.18,19.16 46.24,19.16 3.4,0 6.77,-0.26 10.1,-0.78 3.33,-0.52 6.63,-1.3 9.85,-2.33l0.79 -0.25 0.01 0.83c0.34,17.76 7.77,33.77 19.56,45.32 11.78,11.56 27.92,18.67 45.7,18.67 8.14,0 16.14,-1.52 23.6,-4.42z"/>
   <path class="fil3" d="M804.84 624.14l-45.22 100.97 50.99 75.71c15.81,-1.17 24.04,-2.58 22.36,-4.09 36.43,-4.61 64.59,-36.31 64.59,-74.76 0,-4.19 -0.36,-8.39 -1.04,-12.53 -25.84,-78.33 -91.69,-85.3 -91.69,-85.3z"/>
   <path class="fil4" d="M915.9 602.18l0 -0.4 -0.03 0c0,-13.66 -4.1,-26.65 -11.35,-37.53 -7.24,-10.87 -17.64,-19.64 -30.22,-24.89l-13.27 -5.53 11.91 -8.03c9.35,-6.31 16.83,-14.74 21.98,-24.42 5.14,-9.67 7.95,-20.59 7.95,-31.88l0 -0.28c0,-15.99 -5.39,-30.66 -14.42,-42.21 -9.19,-11.76 -22.15,-20.3 -37,-23.73l-10.04 -2.32 5.01 -8.98c2.86,-5.13 5.04,-10.57 6.51,-16.2 1.45,-5.57 2.19,-11.38 2.19,-17.31l0 -0.07c0,-18.7 -7.4,-35.61 -19.37,-47.83 -11.94,-12.19 -28.44,-19.72 -46.67,-19.72l-0.06 0c-4.89,0 -9.68,0.53 -14.3,1.58 -4.69,1.07 -9.25,2.65 -13.58,4.72l-13.17 6.31 2.18 -14.42c0.26,-1.74 0.46,-3.45 0.59,-5.13 0.12,-1.63 0.19,-3.33 0.19,-5.11l0 -0.13c0,-18.72 -7.4,-35.64 -19.37,-47.86 -11.94,-12.19 -28.44,-19.74 -46.66,-19.74l0 -0.03c-9.76,0.01 -19.3,2.24 -27.97,6.37 -8.66,4.13 -16.4,10.15 -22.57,17.73l-12.66 15.59 -1.05 -20.07c-0.94,-17.88 -8.67,-33.93 -20.61,-45.48 -11.8,-11.42 -27.75,-18.43 -45.3,-18.43l0 -0.03c-12.07,0.03 -23.66,3.4 -33.67,9.42 -10,6.01 -18.4,14.68 -24.09,25.34l-6.81 12.74 -6.82 -12.74c-5.7,-10.65 -14.1,-19.31 -24.1,-25.33 -10.02,-6.02 -21.61,-9.39 -33.68,-9.43l0 0.03c-17.57,0 -33.53,7.01 -45.33,18.43 -11.93,11.55 -19.66,27.6 -20.58,45.48l-1.03 20.07 -12.68 -15.59c-6.17,-7.58 -13.91,-13.59 -22.58,-17.73 -8.67,-4.13 -18.21,-6.36 -27.96,-6.37l0 0.03c-18.22,0 -34.72,7.54 -46.66,19.74 -11.96,12.22 -19.37,29.14 -19.37,47.86l-0.03 0 0.03 0.09c0,1.79 0.06,3.5 0.18,5.14 0.13,1.73 0.32,3.46 0.58,5.17l2.16 14.39 -13.15 -6.31c-4.32,-2.07 -8.87,-3.65 -13.55,-4.72 -4.61,-1.05 -9.4,-1.58 -14.28,-1.58l-0.05 0c-18.22,0 -34.72,7.55 -46.66,19.74 -11.97,12.22 -19.37,29.14 -19.37,47.86l-0.01 0.12 0.01 0c0,5.91 0.74,11.72 2.2,17.28 1.46,5.62 3.65,11.05 6.51,16.17l5.02 8.97 -10.04 2.32c-14.84,3.43 -27.8,11.98 -36.99,23.74 -9.02,11.54 -14.42,26.21 -14.42,42.2l-0.03 0.22 0.02 0c0,11.34 2.8,22.27 7.94,31.92 5.15,9.68 12.65,18.12 22.02,24.42l11.84 7.97 -13.14 5.56c-12.6,5.34 -23,14.2 -30.26,25.16 -7.24,10.94 -11.34,23.98 -11.34,37.7 0,13.47 3.94,26.29 10.94,37.09 7.02,10.84 17.1,19.7 29.36,25.2l9.56 4.28 -6.89 7.86c-5.45,6.21 -9.69,13.33 -12.56,20.97 -2.86,7.59 -4.36,15.73 -4.36,24.04l0 0.28c0,16.43 5.71,31.48 15.2,43.17 9.65,11.88 23.19,20.33 38.63,23.29l15.32 2.94 -2.05 1.84c37.33,3.46 183.42,5.32 330.14,5.48 147.01,0.16 293.5,-1.43 330.68,-4.89l-2.83 -2.64 16.39 -2.08c16.37,-2.07 30.88,-10.29 41.29,-22.32 10.28,-11.9 16.52,-27.58 16.52,-44.78l0.03 0 0 -0.23 -0.03 0c0,-8.32 -1.5,-16.47 -4.36,-24.07 -2.88,-7.65 -7.12,-14.77 -12.58,-20.99l-6.94 -7.91 9.64 -4.26c12.26,-5.42 22.33,-14.19 29.33,-24.95 7.01,-10.76 10.95,-23.53 10.95,-36.96l0 -0.41 0.03 0zm1.51 -46.46c7.6,11.4 12.39,24.67 13.63,38.71l0.33 0 0 8.16c0,16.43 -4.86,32.12 -13.49,45.37 -6.91,10.6 -16.21,19.64 -27.36,26.23 3.88,5.62 7.04,11.67 9.42,18.01 3.54,9.4 5.39,19.39 5.39,29.52l-0.03 0 0 0.23 0.03 0c0,21.02 -7.68,40.24 -20.34,54.89 -12.58,14.56 -30.12,24.59 -49.94,27.38 -26.73,6.81 -187.33,10.05 -347.26,9.87 -158.49,-0.17 -317.55,-3.72 -346.31,-10.5 -19.08,-3.65 -35.81,-14.08 -47.71,-28.74 -11.68,-14.39 -18.71,-32.84 -18.71,-52.92l0 -0.28c0,-10.12 1.86,-20.1 5.39,-29.49 2.39,-6.35 5.56,-12.41 9.44,-18.04 -11.18,-6.67 -20.49,-15.75 -27.39,-26.4 -8.62,-13.32 -13.48,-29.05 -13.48,-45.51 0,-16.79 5.03,-32.79 13.94,-46.24 6.65,-10.04 15.48,-18.66 25.99,-25.11 -6.98,-6.42 -12.77,-13.95 -17.17,-22.21 -6.35,-11.93 -9.81,-25.35 -9.81,-39.18l0.03 -0.03 0 -0.19 -0.03 0c0,-19.52 6.64,-37.5 17.75,-51.71 9.4,-12.03 22.01,-21.34 36.51,-26.59 -1.53,-3.65 -2.79,-7.4 -3.79,-11.23 -1.81,-6.94 -2.74,-14.06 -2.74,-21.16l0.03 -0.06 0 -0.06 -0.03 0c0,-22.89 9.12,-43.65 23.85,-58.7 14.76,-15.08 35.16,-24.4 57.68,-24.4l0.05 0c5.9,0 11.83,0.68 17.68,2.01 1.64,0.37 3.27,0.8 4.88,1.28 0.01,-22.88 9.12,-43.62 23.85,-58.66 14.76,-15.08 35.16,-24.4 57.68,-24.4l0 0.03c12.17,0.01 23.98,2.75 34.62,7.83 5.9,2.81 11.45,6.34 16.54,10.53 3.82,-15.47 11.9,-29.22 22.9,-39.86 14.63,-14.16 34.39,-22.85 56.11,-22.85l0 0.03c14.96,0.05 29.28,4.19 41.61,11.61 8.83,5.31 16.66,12.3 22.98,20.67 6.32,-8.37 14.14,-15.37 22.98,-20.68 12.33,-7.42 26.65,-11.56 41.6,-11.6l0 -0.03c21.7,0 41.45,8.69 56.08,22.85 10.99,10.64 19.08,24.39 22.91,39.86 5.09,-4.19 10.65,-7.73 16.54,-10.53 10.65,-5.07 22.46,-7.81 34.63,-7.82l0 -0.03c22.53,0 42.92,9.32 57.68,24.4 14.73,15.04 23.84,35.79 23.85,58.67 1.62,-0.48 3.26,-0.91 4.9,-1.28 5.85,-1.33 11.78,-2.01 17.69,-2.01l0.06 0c22.53,0 42.92,9.32 57.69,24.39 14.74,15.04 23.85,35.79 23.85,58.67l0 0.07c0,7.11 -0.93,14.23 -2.74,21.18 -1,3.83 -2.26,7.59 -3.79,11.25 14.51,5.25 27.12,14.56 36.53,26.59 11.11,14.21 17.75,32.19 17.75,51.71l0 0.28c0,13.86 -3.45,27.26 -9.77,39.15 -4.38,8.24 -10.15,15.75 -17.11,22.17 10.47,6.38 19.27,14.92 25.93,24.91z"/>
   <path class="fil5" d="M148.66 828.69c0,-190.31 154.28,-401.88 344.59,-401.88 190.31,0 344.59,211.57 344.59,401.88 0,0.08 0.08,0.33 0,0.33l-689.18 0.13c-0.12,0 0,-57.87 0,-57.76l-0 57.3z"/>
   <path class="fil1" d="M493.45 412.03c-169.42,0 -326,137.5 -354.15,303.82 0,0 260.08,19.67 354.81,-86.23 -6.01,29.26 -22.89,51.51 -20.04,55.97 3.98,6.25 52.86,-7.65 66.2,-32.58l-4.73 -7.08c64.47,23.41 190.53,52.42 275.49,-35.68 -56.17,-116.6 -182.65,-198.23 -317.59,-198.23z"/>
   <path class="fil2" d="M275.61 713.03c-11.29,-12.19 -17.57,-28.21 -17.57,-44.84 0,-7.91 1.43,-15.77 4.2,-23.17 -34.69,-2.28 -61.7,-31.11 -61.7,-65.89 0,-3.17 0.23,-6.35 0.69,-9.48 -31.12,43.52 -52.96,93.4 -62.01,146.21 16.62,0.93 33.55,1.46 50.27,1.46 28.68,0 57.68,-1.59 86.15,-4.34l-0.03 0.05z"/>
   <path class="fil2" d="M274.3 712.49c-5.28,-5.93 -9.42,-12.71 -12.27,-19.99 -3.01,-7.68 -4.59,-15.92 -4.59,-24.31 0,-3.98 0.36,-7.96 1.07,-11.88 0.66,-3.65 1.63,-7.24 2.88,-10.73 -17.17,-1.34 -32.43,-9.13 -43.45,-20.9 -11.19,-11.95 -18,-28 -18,-45.55 0,-1.58 0.06,-3.18 0.18,-4.78 0.06,-0.79 0.13,-1.57 0.21,-2.36 -15.13,21.45 -28.01,44.41 -38.22,68.49 -10.16,23.96 -17.68,49.02 -22.15,74.8 8.26,0.46 16.59,0.82 24.9,1.05 8.18,0.24 16.41,0.36 24.65,0.36 14.02,0 28.1,-0.38 42.13,-1.08 14.28,-0.72 28.54,-1.78 42.67,-3.13zm-11.13 -20.44c2.91,7.43 7.18,14.32 12.65,20.29l1.07 -0.1 -1.19 1.77 -0.36 -0.39c-14.45,1.39 -29.04,2.48 -43.64,3.22 -14.09,0.71 -28.19,1.09 -42.19,1.09 -8.14,0 -16.4,-0.13 -24.68,-0.37 -8.6,-0.25 -17.16,-0.62 -25.63,-1.09l-0.69 -0.04 0.12 -0.68c4.47,-26.1 12.06,-51.48 22.35,-75.75 10.57,-24.91 23.97,-48.63 39.76,-70.71l1.47 -2.05 -0.36 2.5c-0.22,1.55 -0.39,3.12 -0.51,4.7 -0.11,1.55 -0.17,3.12 -0.17,4.69 0,17.23 6.69,32.99 17.67,44.71 10.98,11.73 26.27,19.44 43.45,20.57l0.82 0.06 -0.29 0.77c-1.37,3.67 -2.41,7.45 -3.11,11.29 -0.69,3.83 -1.05,7.74 -1.05,11.67 0,8.24 1.56,16.32 4.51,23.86z"/>
   <path class="fil4" d="M807.57 634.9c-41.04,31.55 -84.62,45.08 -125.93,48.31 -55.56,4.34 -106.88,-10.04 -142.26,-24.13 -4.45,5.59 -10.31,10.46 -16.72,14.54 -9.2,5.87 -19.57,10.2 -28.27,12.69 -10,2.86 -18.88,3.21 -23.07,0.84 -1.43,-0.81 -2.59,-1.87 -3.45,-3.2l-0.01 0c-3.59,-5.52 -0.36,-12.29 4.36,-22.21l1.41 -2.97c-108.95,82.98 -316.82,73.72 -317.47,73.7l0.6 -15.44c0.68,0.03 236.21,10.51 329.71,-90.53l20.66 -22.33 -7.49 29.48c-3.57,14.04 -9.25,25.96 -13.44,34.76 -1.35,2.83 -3.13,4.17 -4.31,5.07 1.99,-0.38 4.84,-1.09 8.25,-2.06 7.54,-2.16 16.44,-5.86 24.21,-10.81 6.59,-4.2 12.3,-9.23 15.46,-14.82l3.39 -5.99 6.3 2.63c33.85,14.12 85.31,29.69 140.98,25.35 38.61,-3.01 79.32,-15.65 117.63,-45.1l9.45 12.23z"/>
   <path class="fil6" d="M210.25 306.57c-9.06,0.42 -17.96,2.62 -26.17,6.46 -7.76,3.57 -14.68,8.8 -20.23,15.28 -0.71,0.78 -1.37,1.61 -1.98,2.48 -0.62,0.85 -1.29,1.65 -1.89,2.58 -1.2,1.75 -2.31,3.59 -3.31,5.47 -2.04,3.77 -3.74,7.76 -5.04,11.85 -2.04,7.21 -3.09,14.69 -3.09,22.19 0,1.55 0.05,3.14 0.14,4.68 -3.55,-6.8 -5.41,-14.38 -5.41,-22.06 0,-2.18 0.15,-4.37 0.45,-6.53l0.69 -3.7 0.37 -1.86c0.14,-0.61 0.35,-1.2 0.53,-1.81 0.36,-1.21 0.72,-2.43 1.12,-3.63 0.4,-1.2 0.98,-2.33 1.47,-3.5 1.03,-2.31 2.23,-4.57 3.57,-6.73 0.66,-1.1 1.47,-2.08 2.2,-3.12 0.72,-1.05 1.51,-2.06 2.35,-3.01 6.63,-7.8 15.44,-13.45 25.29,-16.23 4.14,-1.25 8.46,-1.89 12.78,-1.89 5.53,0 11.02,1.04 16.16,3.06l0 0z"/>
   <path class="fil6" d="M310.95 225.16c-0.9,-0.03 -1.84,-0.05 -2.75,-0.05 -6.91,0 -13.82,0.89 -20.5,2.63 -7.11,1.92 -13.87,5.02 -19.99,9.12 -6.1,4.15 -11.5,9.31 -15.92,15.23 -1.08,1.52 -2.33,2.98 -3.27,4.62l-1.56 2.43c-0.56,0.8 -0.92,1.68 -1.41,2.58 -1.98,3.49 -3.77,7.12 -5.29,10.83 -0.21,-1.59 -0.31,-3.2 -0.31,-4.81 0,-2.59 0.28,-5.19 0.82,-7.72 0.22,-1.03 0.35,-2.11 0.67,-3.13l0.95 -3.05c0.66,-2.04 1.5,-4.05 2.47,-5.96 3.9,-7.92 9.82,-14.68 17.15,-19.59 7.26,-4.89 15.68,-7.83 24.4,-8.52 1.25,-0.11 2.51,-0.17 3.76,-0.17 7.29,0 14.45,1.91 20.77,5.53l0 -0z"/>
  </g>
 </g>
</svg>
