<?xml version="1.0" encoding="UTF-8"?>
<!DOCTYPE svg PUBLIC "-//W3C//DTD SVG 1.1//EN" "http://www.w3.org/Graphics/SVG/1.1/DTD/svg11.dtd">
<!-- Creator: CorelDRAW 2020 (64-Bit Evaluation Version) -->
<svg xmlns="http://www.w3.org/2000/svg" xml:space="preserve" width="42.3333mm" height="42.3333mm" version="1.1" style="shape-rendering:geometricPrecision; text-rendering:geometricPrecision; image-rendering:optimizeQuality; fill-rule:evenodd; clip-rule:evenodd"
viewBox="0 0 1193.64 1193.64"
 xmlns:xlink="http://www.w3.org/1999/xlink"
 xmlns:xodm="http://www.corel.com/coreldraw/odm/2003">
 <defs>
  <style type="text/css">
   <![CDATA[
    .fil0 {fill:none}
    .fil4 {fill:none;fill-rule:nonzero}
    .fil3 {fill:#592D3D;fill-rule:nonzero}
    .fil6 {fill:#666666;fill-rule:nonzero}
    .fil1 {fill:gray;fill-rule:nonzero}
    .fil5 {fill:#A56941;fill-rule:nonzero}
    .fil2 {fill:#B3B3B3;fill-rule:nonzero}
   ]]>
  </style>
    <clipPath id="id0" style="clip-rule:nonzero">
     <path d="M596.82 68c-230.32,0 -417.03,186.7 -417.03,417.03l0 223.58c0,230.32 186.72,417.03 417.03,417.03 92.21,0 177.44,-29.94 246.48,-80.6 103.4,-75.88 170.55,-198.32 170.55,-336.43l0 -223.58c0,-230.33 -186.72,-417.03 -417.03,-417.03z"/>
    </clipPath>
    <clipPath id="id1" style="clip-rule:nonzero">
     <path d="M596.82 68c-230.32,0 -417.03,186.7 -417.03,417.03l0 223.58c0,230.32 186.72,417.03 417.03,417.03 92.21,0 177.44,-29.94 246.48,-80.6 103.4,-75.88 170.55,-198.32 170.55,-336.43l0 -223.58c0,-230.33 -186.72,-417.03 -417.03,-417.03z"/>
    </clipPath>
 </defs>
 <g id="Layer_x0020_1">
  <metadata id="CorelCorpID_0Corel-Layer"/>
  <rect class="fil0" x="-0" y="-0" width="1193.64" height="1193.64"/>
  <g id="_2596263140528">
   <g style="clip-path:url(#id0)">
    <polygon class="fil1" points="179.79,68 1013.86,68 1013.86,1125.65 179.79,1125.65 "/>
   </g>
   <g style="clip-path:url(#id1)">
    <g>
     <path id="1" class="fil2" d="M746.94 829.34c125.82,0 99.81,158.37 101.02,334.48l-101.02 0 0 -334.48z"/>
     <path class="fil2" d="M436.58 829.34c-125.83,0 -99.81,158.37 -101.02,334.48l101.02 0 0 -334.48z"/>
     <path class="fil2" d="M760.07 1260.86l-331.24 0c-10.16,-0.01 -18.4,-8.25 -18.4,-18.41 0,0 0,0 0,0l0 -394.7c0,0 0,0 0,0 0,-10.16 8.24,-18.4 18.4,-18.41l323.32 0c18.15,0 26.34,10.62 26.34,27.56l0 385.49c0,0.02 0,0.04 0,0.06 0,10.16 -8.24,18.41 -18.41,18.41 -0.01,0 -0.01,0 -0.01,0l0 0z"/>
     <path class="fil3" d="M436.58 821.02l8.32 0 0 16.64 -8.32 0c-83.24,0 -94.16,78.57 -94.16,185.47 0,20.97 0.34,40.21 0.69,60.02 0.41,23.45 0.83,47.67 0.78,72.36l69.41 0 0 16.64 -86.07 0 0.06 -8.35c0.19,-27.34 -0.29,-54.34 -0.74,-80.38 -0.38,-21.69 -0.75,-42.73 -0.75,-60.28 0,-116.49 12.85,-202.11 110.79,-202.11z"/>
     <polygon class="fil3" points="428.84,821.19 752.15,821.06 752.15,837.63 428.84,837.76 "/>
     <path class="fil3" d="M746.94 837.66l-8.32 0 0 -16.64 8.32 0c97.95,0 110.79,85.64 110.79,202.15 0,17.54 -0.37,38.58 -0.75,60.25 -0.46,26.03 -0.93,53.03 -0.74,80.36l0.06 8.35 -86.15 0 0 -16.64 69.49 0c-0.05,-24.68 0.37,-48.9 0.78,-72.33 0.35,-19.8 0.68,-39.03 0.68,-59.99 0,-106.93 -10.91,-185.52 -94.16,-185.52z"/>
     <polygon class="fil3" points="428.84,821.19 752.15,821.06 752.15,837.63 428.84,837.76 "/>
    </g>
   </g>
   <path class="fil4" d="M596.82 68c-230.32,0 -417.03,186.7 -417.03,417.03l0 223.58c0,230.32 186.72,417.03 417.03,417.03 92.21,0 177.44,-29.94 246.48,-80.6 103.4,-75.88 170.55,-198.32 170.55,-336.43l0 -223.58c0,-230.33 -186.72,-417.03 -417.03,-417.03z"/>
   <path class="fil3" d="M596.82 76.32c-112.86,0 -215.04,45.75 -289.01,119.71 -73.96,73.96 -119.71,176.14 -119.71,289l0 223.58c0,112.86 45.75,215.04 119.71,289 73.96,73.96 176.14,119.71 289,119.71 44.42,0 87.16,-7.07 127.15,-20.15 41.45,-13.55 79.99,-33.56 114.42,-58.82 51.63,-37.89 94.03,-87.61 123.21,-145.17 28.09,-55.42 43.93,-118.13 43.93,-184.57l0 -223.58c0,-112.87 -45.75,-215.04 -119.71,-289 -73.96,-73.96 -176.14,-119.71 -289.01,-119.71zm-300.77 107.95c76.98,-76.97 183.32,-124.58 300.77,-124.58 117.45,0 223.79,47.61 300.77,124.58 76.97,76.97 124.58,183.31 124.58,300.77l0 223.58c0,69.07 -16.49,134.33 -45.75,192.05 -30.37,59.91 -74.5,111.66 -128.22,151.08 -35.83,26.3 -75.95,47.12 -119.1,61.23 -41.67,13.62 -86.14,20.99 -132.29,20.99 -117.45,0 -223.79,-47.61 -300.76,-124.59 -76.98,-76.97 -124.59,-183.31 -124.59,-300.76l0 -223.58c0,-117.46 47.61,-223.79 124.58,-300.77z"/>
   <path class="fil5" d="M224.67 470.69c0,-204.23 165.56,-369.79 369.79,-369.79 204.23,0 369.79,165.56 369.79,369.79 0,0.08 0,0.26 0,0.35 0,111.29 -50.28,216.76 -136.74,286.78 -7.6,6.17 -15.43,12.03 -23.5,17.58 -83.4,52.94 -188.75,52.94 -283.87,44.47 -9.23,-1.38 -18.44,-3.13 -27.57,-5.14 -36.5,-8.04 -71.84,-20.45 -104.48,-38.54 -8.07,-4.97 -15.89,-10.34 -23.47,-16.11 -7.6,-5.77 -14.93,-12.02 -21.89,-18.54 -6.61,-6.13 -12.99,-12.5 -19.13,-19.11 -63.51,-68.18 -98.92,-158.03 -98.92,-251.26 0,-0.14 0,-0.36 0,-0.5l0 0.01z"/>
   <path class="fil2" d="M224.67 470.69c0,-204.23 165.56,-369.79 369.79,-369.79 204.23,0 369.79,165.56 369.79,369.79 0,0.08 0,0.26 0,0.35 0,111.29 -50.28,216.76 -136.74,286.78 -7.6,6.17 -15.43,12.03 -23.5,17.58 -83.4,52.94 -188.75,52.94 -283.87,44.47 -9.23,-1.38 -18.44,-3.13 -27.57,-5.14 -36.5,-8.04 -71.84,-20.45 -104.48,-38.54 -8.07,-4.97 -15.89,-10.34 -23.47,-16.11 -7.6,-5.77 -14.93,-12.02 -21.89,-18.54 -6.61,-6.13 -12.99,-12.5 -19.13,-19.11 -63.51,-68.18 -98.92,-158.03 -98.92,-251.26 0,-0.14 0,-0.36 0,-0.5l0 0.01z"/>
   <path class="fil3" d="M216.35 470.69c0,-104.41 42.32,-198.94 110.74,-267.36 68.42,-68.42 162.95,-110.75 267.36,-110.75 104.41,0 198.94,42.32 267.36,110.75 68.42,68.42 110.75,162.95 110.75,267.36l0 0.35c0,56.89 -12.86,112.31 -36.77,162.45 -23.89,50.1 -58.85,94.96 -103.07,130.77 -3.8,3.09 -7.75,6.16 -11.83,9.22 -4.09,3.06 -8.16,5.98 -12.18,8.75l-0.26 0.19c-42.88,27.22 -91.25,40.81 -141.05,46.5 -49.24,5.63 -99.91,3.49 -147.99,-0.8l-0.52 -0.03c-4.44,-0.67 -9.15,-1.47 -14.12,-2.4 -5.11,-0.96 -9.77,-1.91 -14.01,-2.84 -18.49,-4.07 -36.79,-9.29 -54.73,-15.83 -17.87,-6.51 -35.26,-14.32 -52,-23.59l-0.32 -0.19c-8.36,-5.16 -16.42,-10.68 -24.15,-16.57l0.01 -0.01c-4.07,-3.09 -7.85,-6.13 -11.36,-9.1 -3.79,-3.21 -7.51,-6.53 -11.16,-9.95 -3.3,-3.06 -6.61,-6.25 -9.94,-9.57 -3.34,-3.33 -6.55,-6.65 -9.62,-9.96 -32.48,-34.86 -57.77,-75.28 -74.95,-118.9 -17.17,-43.6 -26.22,-90.39 -26.22,-138.02l0 -0.48zm122.51 -255.6c-65.41,65.41 -105.87,155.78 -105.87,255.59l0 0.5c0,45.58 8.64,90.32 25.05,131.97 16.41,41.68 40.59,80.31 71.64,113.63 3.07,3.3 6.12,6.47 9.16,9.5 3.06,3.05 6.24,6.12 9.55,9.18l0.03 0.03c3.4,3.19 6.92,6.33 10.54,9.4 3.69,3.13 7.25,6.01 10.66,8.59l0.03 0c7.34,5.59 14.86,10.76 22.54,15.5 15.89,8.8 32.46,16.23 49.52,22.44 17.02,6.2 34.64,11.21 52.65,15.18 4.89,1.08 9.41,2.01 13.49,2.77 4.23,0.79 8.74,1.55 13.53,2.27l-0 0.01c46.89,4.16 96.26,6.22 144.15,0.75 47.51,-5.43 93.51,-18.31 134.03,-44.03l0.01 0.01c3.94,-2.72 7.75,-5.45 11.4,-8.18 3.75,-2.81 7.52,-5.75 11.31,-8.83 42.24,-34.2 75.65,-77.1 98.52,-125.05 22.85,-47.93 35.14,-100.9 35.14,-155.3l0 -0.35c0,-99.82 -40.46,-190.19 -105.87,-255.6 -65.42,-65.41 -155.78,-105.87 -255.6,-105.87 -99.82,0 -190.18,40.46 -255.6,105.87z"/>
   <path class="fil6" d="M676.64 328.37c-17.84,33.27 -83.18,51.9 -88.49,43.55 -5.96,-9.33 52.46,-76.69 19.27,-147.14m69.22 103.58l0 0 0 0z"/>
   <path class="fil1" d="M936.72 284.54c-60.32,-125.17 -194.45,-196.85 -339.28,-196.85 -181.86,0 -351.42,131.69 -381.67,310.16 0,0 280.6,21.24 381.57,-93.43 13.32,6.53 216.38,107.59 339.37,-19.88z"/>
   <path class="fil3" d="M597.45 100.76c-24.16,1.6 -48.24,5.09 -71.88,10.17l-17.58 4.23c-5.82,1.57 -11.59,3.28 -17.38,4.92l-17.18 5.55c-5.67,2.02 -11.27,4.16 -16.91,6.29 -22.33,8.76 -44.26,19.38 -64.97,31.48 -20.88,12.24 -40.94,26.05 -59.94,40.98 16.95,-17.55 36,-33.2 56.5,-46.49 20.56,-13.44 42.5,-24.8 65.35,-33.72 5.78,-2.08 11.53,-4.24 17.33,-6.25 5.88,-1.79 11.7,-3.74 17.61,-5.41 5.91,-1.66 11.9,-3.04 17.87,-4.45 5.97,-1.42 12.03,-2.44 18.02,-3.51 17.37,-2.95 35.02,-4.48 52.64,-4.48 6.81,0 13.77,0.27 20.55,0.69l-0.02 -0.01z"/>
   <path class="fil1" d="M646.06 330.41c-14.32,26.77 -66.76,41.68 -71.02,34.92 -4.78,-7.49 42.12,-61.58 15.47,-118.14m55.55 83.22l0 0 0 0z"/>
   <path class="fil3" d="M234.55 399.09c0.73,0.03 253.49,11.3 353.84,-97.14l22.22 -24.01 -8.11 31.67c-3.88,15.16 -9.93,27.89 -14.4,37.28 -1.42,2.98 -3.25,4.45 -4.51,5.43 2.13,-0.41 5.13,-1.16 8.73,-2.19 8.1,-2.31 17.66,-6.29 26,-11.61 7.04,-4.49 13.17,-9.89 16.58,-15.91l3.63 -6.4 6.77 2.82c30.9,12.89 75.44,26.9 124.74,27.96 48.96,1.05 102.78,-10.7 152.79,-49.15l10.14 13.13c-53.5,41.14 -110.99,53.72 -163.25,52.6 -48.67,-1.04 -92.66,-13.96 -124.54,-26.65 -4.77,5.97 -11.06,11.19 -17.94,15.58 -9.88,6.3 -21.01,10.96 -30.35,13.62 -10.76,3.07 -20.3,3.45 -24.8,0.9 -1.52,-0.86 -2.77,-2.02 -3.7,-3.5 -3.76,-5.88 -0.32,-13.11 4.72,-23.72l1.54 -3.25c-116.92,89.08 -340.02,79.13 -340.72,79.1l0.65 -16.57z"/>
  </g>
 </g>
</svg>
