<?xml version="1.0" encoding="UTF-8"?>
<!DOCTYPE svg PUBLIC "-//W3C//DTD SVG 1.1//EN" "http://www.w3.org/Graphics/SVG/1.1/DTD/svg11.dtd">
<!-- Creator: CorelDRAW 2020 (64-Bit Evaluation Version) -->
<svg xmlns="http://www.w3.org/2000/svg" xml:space="preserve" width="42.3333mm" height="42.3333mm" version="1.1" style="shape-rendering:geometricPrecision; text-rendering:geometricPrecision; image-rendering:optimizeQuality; fill-rule:evenodd; clip-rule:evenodd"
viewBox="0 0 1193.64 1193.64"
 xmlns:xlink="http://www.w3.org/1999/xlink"
 xmlns:xodm="http://www.corel.com/coreldraw/odm/2003">
 <defs>
  <style type="text/css">
   <![CDATA[
    .fil0 {fill:none}
    .fil4 {fill:#592D3D;fill-rule:nonzero}
    .fil3 {fill:gray;fill-rule:nonzero}
    .fil7 {fill:#8D5638;fill-rule:nonzero}
    .fil8 {fill:#999999;fill-rule:nonzero}
    .fil5 {fill:#A56941;fill-rule:nonzero}
    .fil2 {fill:#C683B4;fill-rule:nonzero}
    .fil6 {fill:#CCCCCC;fill-rule:nonzero}
    .fil1 {fill:#D69AC7;fill-rule:nonzero}
    .fil9 {fill:white;fill-rule:nonzero}
   ]]>
  </style>
 </defs>
 <g id="Layer_x0020_1">
  <metadata id="CorelCorpID_0Corel-Layer"/>
  <rect class="fil0" x="-0" y="-0" width="1193.64" height="1193.64"/>
  <g id="_2596265964752">
   <path class="fil1" d="M596.82 119.48c-290.85,0 -526.64,235.77 -526.64,526.63l0 286.1c16.6,18.42 44.41,34.26 80.53,47.6l23.32 -69.62 25.31 84.83c267.42,71.14 817.03,44.26 924.11,-62.81l0 -286.1c0,-290.86 -235.79,-526.63 -526.64,-526.63z"/>
   <path class="fil2" d="M143.69 977.16c2.31,0.89 4.64,1.75 7,2.66l23.34 -69.62 25.31 84.83c79.16,21.01 183.03,33.53 292.84,37.86l47.76 -45.9 -408.61 -307.48c0,0 -10.75,177.6 12.36,297.64z"/>
   <path class="fil2" d="M799 720.39l44.31 298.93c60.92,-7.6 116.63,-17.98 163,-31.04l0 0c0,0 57.93,-64.58 51.68,-308.77 -6.25,-244.19 -258.98,40.88 -258.98,40.88z"/>
   <path class="fil3" d="M596.82 119.48c-290.85,0 -526.64,235.77 -526.64,526.63l0 286.1c16.6,18.42 44.41,34.26 80.53,47.6l23.32 -69.62 25.31 84.83c267.42,71.14 817.03,44.26 924.11,-62.81l0 -286.1c0,-290.86 -235.79,-526.63 -526.64,-526.63z"/>
   <path class="fil4" d="M596.82 129.98c-142.53,0 -271.56,57.77 -364.96,151.17 -93.4,93.4 -151.17,222.43 -151.17,364.96l0 281.95c7.09,7.18 16.18,13.97 27.05,20.4 10.6,6.27 22.84,12.14 36.53,17.63l30.35 -90.63 33.09 110.91c136.44,35.07 343.81,45.17 528.33,32.63 172.27,-11.71 323.76,-42.81 376.91,-91.3l0 -281.6c0,-142.53 -57.77,-271.56 -151.17,-364.96 -93.4,-93.4 -222.44,-151.17 -364.96,-151.17zm-379.82 136.32c97.2,-97.2 231.49,-157.33 379.82,-157.33 148.32,0 282.61,60.12 379.82,157.33 97.2,97.2 157.32,231.49 157.32,379.81l0 290.45 -3.08 3.08c-53.96,53.95 -213.19,88.04 -393.45,100.29 -189.08,12.85 -402.28,2.07 -540.76,-34.77l-5.71 -1.52 -17.52 -58.73 -16.24 48.48 -10.1 -3.73c-18.96,-7 -35.78,-14.72 -50.04,-23.15 -14.12,-8.35 -25.81,-17.44 -34.68,-27.28l-2.71 -3.01 0 -290.11c0,-148.33 60.12,-282.61 157.32,-379.81z"/>
   <path class="fil5" d="M126.86 628c0,-257.9 209.07,-466.98 466.97,-466.98 257.9,0 466.98,209.08 466.98,466.98 0,0.1 0,0.33 0,0.44 0,140.54 -63.5,273.74 -172.68,362.15 -9.59,7.79 -19.48,15.19 -29.67,22.2 -105.32,66.86 -238.36,66.86 -358.47,56.16 -11.66,-1.75 -23.28,-3.96 -34.82,-6.49 -46.1,-10.15 -90.72,-25.82 -131.94,-48.67 -10.19,-6.28 -20.07,-13.06 -29.64,-20.34 -9.6,-7.29 -18.85,-15.18 -27.64,-23.42 -8.35,-7.74 -16.4,-15.78 -24.16,-24.13 -80.21,-86.1 -124.92,-199.57 -124.92,-317.3 0,-0.17 0,-0.45 0,-0.63l0 0.01z"/>
   <path class="fil6" d="M126.86 628c0,-257.9 209.07,-466.98 466.97,-466.98 257.9,0 466.98,209.08 466.98,466.98 0,0.1 0,0.33 0,0.44 0,140.54 -63.5,273.74 -172.68,362.15 -9.59,7.79 -19.48,15.19 -29.67,22.2 -105.32,66.86 -238.36,66.86 -358.47,56.16 -11.66,-1.75 -23.28,-3.96 -34.82,-6.49 -46.1,-10.15 -90.72,-25.82 -131.94,-48.67 -10.19,-6.28 -20.07,-13.06 -29.64,-20.34 -9.6,-7.29 -18.85,-15.18 -27.64,-23.42 -8.35,-7.74 -16.4,-15.78 -24.16,-24.13 -80.21,-86.1 -124.92,-199.57 -124.92,-317.3 0,-0.17 0,-0.45 0,-0.63l0 0.01z"/>
   <path class="fil4" d="M116.35 628c0,-131.85 53.45,-251.22 139.85,-337.63 86.4,-86.4 205.78,-139.85 337.63,-139.85 131.85,0 251.22,53.45 337.63,139.85 86.4,86.4 139.85,205.78 139.85,337.63l0 0.44c0,71.85 -16.24,141.82 -46.43,205.14 -30.17,63.28 -74.32,119.92 -130.16,165.13 -4.8,3.9 -9.78,7.78 -14.94,11.64 -5.17,3.87 -10.3,7.56 -15.39,11.06l-0.33 0.25c-54.15,34.37 -115.23,51.54 -178.12,58.72 -62.18,7.1 -126.17,4.4 -186.87,-1l-0.66 -0.04c-5.6,-0.84 -11.56,-1.86 -17.83,-3.03 -6.46,-1.21 -12.34,-2.41 -17.69,-3.58 -23.35,-5.15 -46.46,-11.74 -69.11,-19.99 -22.56,-8.22 -44.53,-18.08 -65.66,-29.79l-0.41 -0.25c-10.56,-6.51 -20.73,-13.48 -30.5,-20.92l0.02 -0.02c-5.14,-3.91 -9.92,-7.74 -14.34,-11.49 -4.78,-4.05 -9.49,-8.25 -14.09,-12.57 -4.17,-3.87 -8.36,-7.89 -12.55,-12.08 -4.22,-4.21 -8.27,-8.41 -12.15,-12.58 -41.01,-44.03 -72.96,-95.06 -94.64,-150.15 -21.68,-55.06 -33.11,-114.14 -33.11,-174.29l-0 -0.61zm154.71 -322.77c-82.6,82.6 -133.7,196.72 -133.7,322.76l0 0.63c0,57.56 10.92,114.05 31.63,166.66 20.72,52.64 51.26,101.41 90.46,143.5 3.87,4.17 7.73,8.17 11.57,12 3.86,3.85 7.88,7.72 12.06,11.59l0.04 0.04c4.3,4.03 8.74,7.99 13.31,11.87 4.66,3.95 9.16,7.58 13.46,10.85l0.04 0c9.27,7.06 18.76,13.58 28.47,19.58 20.06,11.11 40.99,20.49 62.53,28.34 21.49,7.83 43.74,14.16 66.48,19.17 6.18,1.36 11.88,2.54 17.04,3.5 5.34,1 11.03,1.96 17.09,2.87l-0 0.01c59.21,5.25 121.56,7.86 182.04,0.94 59.99,-6.85 118.09,-23.12 169.26,-55.6l0.01 0.01c4.98,-3.44 9.78,-6.88 14.39,-10.33 4.73,-3.54 9.5,-7.26 14.28,-11.15 53.34,-43.19 95.53,-97.36 124.41,-157.91 28.86,-60.52 44.38,-127.42 44.38,-196.12l0 -0.44c0,-126.05 -51.09,-240.17 -133.7,-322.77 -82.6,-82.6 -196.72,-133.7 -322.77,-133.7 -126.05,0 -240.17,51.09 -322.77,133.7z"/>
   <polygon class="fil7" points="226.6,589.78 995.54,589.78 995.54,477.48 226.6,477.48 "/>
   <path class="fil1" d="M961.46 921.5c-5.5,6.79 -11.16,13.43 -17,19.9 -4.38,4.85 4.52,-1.96 17,-19.9zm26.26 -554.16c-53.39,-95.25 -146.18,-160.83 -253.45,-191.01l-11.11 -2.99c-39.74,-10.99 -81.61,-12.25 -124.85,-12.25 -46.72,0 -91.84,4.8 -134.4,17.5l-7.46 2.22c-56.59,19.2 -109.36,48.61 -155.52,86.55 -5.11,4.18 -10.12,8.45 -15.02,12.82 -49.61,41.47 -88.12,93.99 -114.61,153.88 -2.57,5.74 -4.99,11.54 -7.28,17.38 -6.82,17.4 -12.36,35.37 -16.49,53.57 -56.11,221.61 31.23,357.56 108.75,440.89 7.65,8.23 -101.41,-178.3 -30.5,-378.13 13.53,-0.51 35.43,-0.89 63.36,-1.17l27.13 -88.6 30.53 88.2c47.97,-0.23 104.83,-0.26 164.35,-0.21l21.57 -91.66 24.37 91.7c130.19,0.25 265.11,0.91 341.86,1.35l23.11 -91.33 26.26 91.61 14.37 0.09c87.69,186.3 31.18,307.32 -1.21,353.77 67.08,-82.76 103.81,-186.25 103.81,-292.86 0,-0.17 0,-0.45 0,-0.63 -0,-151.31 -77.55,-260.67 -77.55,-260.67z"/>
   <path class="fil8" d="M961.46 921.5c-5.5,6.79 -11.16,13.43 -17,19.9 -4.38,4.85 4.52,-1.96 17,-19.9zm26.26 -554.16c-53.39,-95.25 -146.18,-160.83 -253.45,-191.01l-11.11 -2.99c-39.74,-10.99 -81.61,-12.25 -124.85,-12.25 -46.72,0 -91.84,4.8 -134.4,17.5l-7.46 2.22c-56.59,19.2 -109.36,48.61 -155.52,86.55 -5.11,4.18 -10.12,8.45 -15.02,12.82 -49.61,41.47 -88.12,93.99 -114.61,153.88 -2.57,5.74 -4.99,11.54 -7.28,17.38 -6.82,17.4 -12.36,35.37 -16.49,53.57 -56.11,221.61 31.23,357.56 108.75,440.89 7.65,8.23 -101.41,-178.3 -30.5,-378.13 13.53,-0.51 35.43,-0.89 63.36,-1.17l27.13 -88.6 30.53 88.2c47.97,-0.23 104.83,-0.26 164.35,-0.21l21.57 -91.66 24.37 91.7c130.19,0.25 265.11,0.91 341.86,1.35l23.11 -91.33 26.26 91.61 14.37 0.09c87.69,186.3 31.18,307.32 -1.21,353.77 67.08,-82.76 103.81,-186.25 103.81,-292.86 0,-0.17 0,-0.45 0,-0.63 -0,-151.31 -77.55,-260.67 -77.55,-260.67z"/>
   <path class="fil4" d="M936.66 934.39c5.8,-6.43 11.3,-12.86 16.49,-19.27 18.71,-26.97 45.57,-79.7 45.84,-156.49 0.17,-50.1 -10.99,-110.4 -43.04,-180.47l-15.58 -0.1 -17.7 -61.75 -15.58 61.56 -8.2 -0.05c-44.26,-0.25 -107.88,-0.58 -178.78,-0.86 -52.05,-0.21 -107.99,-0.39 -163.04,-0.49l-8.07 -0.02 -15.68 -59 -13.88 58.98 -8.31 -0.01c-29.76,-0.03 -58.86,-0.03 -86.51,0 -27.62,0.03 -53.81,0.1 -77.8,0.21l-7.47 0.03 -22.49 -64.96 -19.99 65.25 -7.68 0.08c-14.13,0.14 -26.78,0.31 -37.64,0.51 -6.8,0.12 -12.89,0.27 -18.21,0.42 -55.69,166.32 14.39,322.22 29.9,356.71 4.01,8.93 6.22,13.81 0.52,19.13 -5.23,4.86 -10.18,4.59 -15.18,-0.78 -39.56,-42.53 -81.64,-98.53 -106.74,-172.37 -25.09,-73.82 -33.12,-165.19 -4.51,-278.21l0.01 0c2.12,-9.29 4.58,-18.51 7.38,-27.6 2.86,-9.29 6.04,-18.39 9.51,-27.24 2.27,-5.79 4.76,-11.72 7.47,-17.79l-0.02 -0.01c13.65,-30.86 30.45,-59.85 50.29,-86.49 19.49,-26.16 41.84,-49.98 66.95,-71 2.13,-1.9 4.67,-4.11 7.6,-6.6 3.06,-2.61 5.64,-4.78 7.75,-6.5l0.02 0.02c23.6,-19.39 48.87,-36.59 75.46,-51.39 26.61,-14.81 54.5,-27.21 83.33,-36.99l0.37 -0.12 7.46 -2.22c21.89,-6.54 44.39,-11.03 67.36,-13.89 22.9,-2.85 46.28,-4.07 70.03,-4.07 21.79,0 43.29,0.32 64.56,2.05 21.36,1.73 42.37,4.89 63,10.59l0.01 -0.02 11.24 3.04c55.99,15.75 108.14,40.95 153.08,74.81 43.19,32.55 79.72,73.1 106.59,120.97 6.46,9.39 78.97,118.03 78.97,265.99l0.04 0 0 0.63c0,54.46 -9.39,108.15 -27.35,158.82 -17.87,50.43 -44.27,97.86 -78.37,140.06 -7.65,11 -14.26,18.26 -17.53,21.4 -0.48,0.47 -0.94,0.88 -1.36,1.25 -4.31,6.66 -9.47,9.12 -13.8,8.88 -9.56,4.7 -12.7,1.82 -9.13,-8.4 -0.65,-4.3 1.21,-9.68 7.16,-14.72 0.37,-0.48 0.8,-1 1.28,-1.53zm41.91 -561.92c-25.42,-45.34 -60.04,-83.79 -101.03,-114.68 -42.8,-32.25 -92.53,-56.28 -145.98,-71.33l-11.12 -2.99 -0.08 -0.04c-19.08,-5.28 -38.85,-8.24 -59.14,-9.88 -20.41,-1.65 -41.47,-1.96 -62.92,-1.96 -22.97,0 -45.51,1.17 -67.49,3.91 -21.9,2.72 -43.25,6.98 -63.91,13.15l-7.4 2.2c-27.61,9.39 -54.24,21.23 -79.57,35.32 -25.52,14.21 -49.76,30.7 -72.36,49.27l0 0.04c-3,2.46 -5.48,4.52 -7.42,6.17 -2.08,1.78 -4.51,3.89 -7.27,6.36l-0.25 0.21c-24,20.06 -45.31,42.74 -63.83,67.6 -18.85,25.31 -34.86,52.95 -47.92,82.47l-0.04 0.04c-2.42,5.4 -4.78,11.05 -7.08,16.93 -3.36,8.56 -6.37,17.17 -9.02,25.77 -2.68,8.7 -5.02,17.48 -7.02,26.28l-0.04 0.25c-27.49,108.59 -19.91,196.01 4.02,266.4 15.19,44.68 37,82.62 60.61,114.8 -24.57,-71.14 -52.42,-194.92 -6.45,-324.47l2.38 -6.71 7.14 -0.27c6.49,-0.24 15.2,-0.46 25.83,-0.66 8.78,-0.16 18.88,-0.31 30.13,-0.43l34.29 -111.95 38.57 111.43c21.91,-0.09 45.57,-0.15 70.41,-0.17 25.07,-0.03 51.33,-0.03 78.19,-0.01l29.26 -124.34 33.06 124.4c52.54,0.1 105.58,0.28 155.06,0.47 66.63,0.26 126.83,0.57 170.58,0.81l30.64 -121.1 34.82 121.47 13.12 0.08 2.8 5.95c35.65,75.74 47.96,141.1 47.77,195.37 -0.07,20.08 -1.85,38.64 -4.8,55.67 4.96,-11.09 9.47,-22.37 13.53,-33.81 17.15,-48.39 26.12,-99.72 26.12,-151.84l0 -0.63 0.04 0c0,-147.98 -75.45,-254.37 -75.66,-254.68l-0.46 -0.66 -0.11 -0.2z"/>
   <path class="fil8" d="M741.14 151.83l-11.33 -3.05c-44.13,-12.25 -89.16,-13.22 -131.52,-13.22 -53.55,0 -99.91,6.11 -141.64,18.63l-7.46 2.22 -0.86 0.26c-59.47,20.28 -114.97,51.18 -163.56,91.04 -5.25,4.31 -10.5,8.75 -15.48,13.22 -51.87,43.45 -92.66,98.22 -121.21,162.81 -2.73,6.11 -5.25,12.34 -7.74,18.51 -7.32,18.71 -37.27,104.63 -41.58,123.68l126.97 1.75c13.53,-0.51 35.43,-0.89 63.35,-1.17l27.14 -88.6 30.53 88.2c47.96,-0.23 104.83,-0.26 164.35,-0.21l21.57 -91.66 24.38 91.79c130.19,0.25 265.11,0.91 341.86,1.35l23.11 -91.33 26.26 91.61 14.37 0.09 127.99 60.26c0,-150.89 -72.3,-260.84 -81.37,-274.15 -54.83,-96.98 -150.01,-168.76 -268.14,-202.02zm290.88 558.88c-5.55,-45.37 -19.55,-96.74 -46.41,-153.77l-6.81 -14.48 -11.36 0 -46.88 -163.91 -41.39 163.33c-70.78,-0.38 -187.42,-0.94 -302.61,-1.21l-45.43 -170.81 -40.16 170.68c-47.97,0 -90.25,0 -126.2,0.16l-50 -144.62 -44.5 145.3c-20.04,0.26 -35.29,0.59 -45.51,0.98l-17.21 0.67 -5.76 16.21c-25.1,70.88 -31.76,147.52 -19.78,228.05 -27.84,-70.02 -39.32,-159.99 -9.89,-275.95l0.16 -0.67c3.84,-16.93 9.08,-33.75 15.42,-49.93 2.1,-5.41 4.39,-10.89 6.84,-16.37 25.46,-57.52 61.69,-106.21 107.68,-144.65l0.58 -0.51c4.64,-4.11 9.43,-8.21 14.25,-12.17 43.66,-35.89 93.54,-63.75 147.06,-82.07l7.09 -2.1c36.97,-11.1 78.55,-16.51 127.09,-16.51 38.9,0 80.06,0.89 118.08,11.41l11.17 2.99c105.46,29.76 189.99,93.25 238.08,178.96l0.65 1.15 0.77 1.11c0.74,1.03 72.84,104.39 72.84,245.96 -0.01,27.76 -2.71,55.51 -7.88,82.71l0.02 0.02z"/>
   <path class="fil6" d="M961.46 921.5c-5.5,6.79 -11.16,13.43 -17,19.9 -4.38,4.85 4.52,-1.96 17,-19.9zm-705.2 24.4c7.65,8.23 -101.41,-178.3 -30.5,-378.13 13.53,-0.51 35.43,-0.89 63.36,-1.17l27.13 -88.6 30.53 88.2c47.97,-0.23 104.83,-0.26 164.35,-0.21l21.57 -91.66 24.37 91.7c130.19,0.25 265.11,0.91 341.86,1.35l23.11 -91.33 26.26 91.61 14.37 0.09c87.69,186.3 31.18,307.32 -1.21,353.77"/>
   <path class="fil4" d="M936.66 934.39c5.8,-6.43 11.3,-12.86 16.49,-19.27 18.71,-26.97 45.57,-79.7 45.84,-156.49 0.17,-50.1 -10.99,-110.4 -43.04,-180.47l-15.58 -0.1 -17.7 -61.75 -15.58 61.56 -8.2 -0.05c-44.26,-0.25 -107.88,-0.58 -178.78,-0.86 -52.05,-0.21 -107.99,-0.39 -163.04,-0.49l-8.07 -0.02 -15.68 -59 -13.88 58.98 -8.31 -0.01c-29.76,-0.03 -58.86,-0.03 -86.51,0 -27.62,0.03 -53.81,0.1 -77.8,0.21l-7.47 0.03 -22.49 -64.96 -19.99 65.25 -7.68 0.08c-14.13,0.14 -26.78,0.31 -37.64,0.51 -6.8,0.12 -12.89,0.27 -18.21,0.42 -55.69,166.32 14.39,322.22 29.9,356.71 4.01,8.93 6.22,13.81 0.52,19.13 -5.23,4.86 -10.18,4.59 -15.18,-0.78l7.74 -7.2 -3.65 -3.92c-1.35,-0.24 -2.5,-0.6 -3.19,-1.08l-5.37 2.4c-16.33,-36.33 -90.94,-202.28 -28.24,-378.95l2.38 -6.71 7.14 -0.27c6.49,-0.24 15.2,-0.46 25.83,-0.66 8.78,-0.16 18.88,-0.31 30.13,-0.43l34.29 -111.95 38.57 111.43c21.91,-0.09 45.57,-0.15 70.41,-0.17 25.07,-0.03 51.33,-0.03 78.19,-0.01l29.26 -124.34 33.06 124.4c52.54,0.1 105.58,0.28 155.06,0.47 66.63,0.26 126.83,0.57 170.58,0.81l30.64 -121.1 34.82 121.47 13.12 0.08 2.8 5.95c35.65,75.74 47.96,141.1 47.77,195.37 -0.28,82.73 -29.61,139.78 -49.87,168.84l0.03 0.02c-7.66,11.02 -14.28,18.29 -17.55,21.43 -0.48,0.47 -0.94,0.88 -1.36,1.25 -4.31,6.66 -9.47,9.12 -13.8,8.88 -9.56,4.7 -12.7,1.82 -9.13,-8.4 -0.65,-4.3 1.21,-9.68 7.16,-14.72 0.37,-0.48 0.8,-1 1.28,-1.53zm-676.27 7.68c-2.38,0.33 -5.36,0.27 -7.71,-0.15l3.65 3.92 4.06 -3.78zm-10.9 -1.22c-0.88,-0.6 -1.04,-1.39 -0,-2.36 5.17,-4.82 -4.8,4.4 -5.34,4.75l5.35 -2.39z"/>
   <path class="fil4" d="M216.54 562.96c0.31,-1.31 0.58,-2.31 0.93,-3.39 0.35,-1.09 0.7,-2.1 1.09,-3.12 0.8,-2.05 1.75,-4.04 2.64,-5.99 1.95,-3.91 4.22,-7.67 6.74,-11.23 2.49,-3.62 5.36,-7.02 8.54,-10.07 3.47,-3.28 7.67,-5.69 12.26,-7.01 0,0.21 0.01,0.45 0.01,0.66 0,4.31 -0.51,8.6 -1.52,12.78 -0.49,2 -1.03,3.94 -1.63,5.81l-1.75 5.69c-1.17,3.77 -2.34,7.5 -3.5,11.19 -0.58,1.86 -1.19,3.66 -1.75,5.48 -0.3,0.89 -0.65,1.75 -0.98,2.68 -0.33,0.93 -0.69,1.75 -0.98,2.45l-20.08 -5.94z"/>
   <path class="fil4" d="M962.65 557.24c1.62,-0.12 3.24,-0.19 4.87,-0.19 2.01,0 4.05,0.1 6.04,0.3 3.65,0.32 7.33,0.82 10.93,1.51 1.75,0.35 3.64,0.7 5.46,1.12 1.83,0.38 3.67,0.89 5.44,1.5 4.01,1.35 7.73,3.49 10.92,6.27 -3.2,2.77 -6.92,4.91 -10.93,6.28 -1.78,0.61 -3.61,1.11 -5.44,1.49 -1.75,0.44 -3.64,0.79 -5.46,1.14 -3.64,0.68 -7.28,1.18 -10.92,1.51 -1.97,0.18 -3.96,0.29 -5.94,0.29 -1.65,0 -3.32,-0.08 -4.97,-0.2l0 -21.01z"/>
   <path class="fil9" d="M497.26 544.09c0.41,-8.33 1.31,-16.69 2.61,-24.94 1.26,-8.23 2.8,-16.4 4.57,-24.51 1.77,-8.11 3.76,-16.19 6.02,-24.21 2.23,-8.05 5,-16.07 8.1,-23.8 -0.39,8.33 -1.33,16.7 -2.65,24.95 -1.25,8.23 -2.77,16.4 -4.56,24.51 -1.78,8.11 -3.3,16.28 -6.02,24.21 -2.26,8.04 -5.01,16.03 -8.08,23.79l0.01 -0z"/>
   <path class="fil9" d="M887.93 544.09c0.41,-8.33 1.31,-16.69 2.6,-24.94 1.27,-8.23 2.8,-16.4 4.57,-24.52 1.77,-8.11 3.3,-16.28 5.94,-24.19 2.24,-8.06 4.93,-16.02 8,-23.78 -0.39,8.35 -1.32,16.69 -2.62,24.94 -1.28,8.24 -2.8,16.41 -4.56,24.52 -1.75,8.12 -3.78,16.19 -6.04,24.21 -2.19,8.01 -4.87,16.03 -7.88,23.76l-0.01 -0z"/>
   <path class="fil1" d="M134.38 572.43c3.5,-22.97 10.29,-45.4 20.01,-66.52m-20.01 66.52l0 0 0 0z"/>
   <path class="fil4" d="M123.97 571.12c0.16,-1.75 0.32,-3.24 0.56,-4.78 0.25,-1.54 0.51,-3.01 0.8,-4.52 0.61,-2.98 1.31,-5.92 2.15,-8.75 1.65,-5.81 3.69,-11.53 6.08,-17.06 2.31,-5.58 5.08,-11.01 8.22,-16.15 3.3,-5.34 7.58,-10.04 12.59,-13.84 0.1,1.68 0.15,3.39 0.15,5.09 0,4.4 -0.34,8.82 -0.99,13.17 -0.44,2.85 -0.89,5.69 -1.45,8.47 -0.56,2.78 -1.02,5.59 -1.45,8.37l-2.85 16.61 -1.45 8.19c-0.21,1.37 -0.49,2.73 -0.74,4.06 -0.25,1.33 -0.52,2.75 -0.77,3.83l-20.85 -2.69z"/>
   <path class="fil1" d="M1065.32 620.99c0,0 -0.81,-36.38 -14.65,-83.38m14.65 83.38l0 0 0 0z"/>
   <path class="fil4" d="M1054.82 621.2l-0.42 -4.83c-0.14,-1.75 -0.28,-3.38 -0.39,-5.06l-0.79 -10.22 -1.59 -20.66c-0.53,-6.92 -1.24,-13.85 -1.75,-20.89 -0.14,-3.5 -0.28,-7.11 -0.17,-10.75 0.03,-3.75 0.34,-7.5 0.88,-11.2 4.76,5.73 8.66,12.18 11.52,19.06 1.41,3.32 2.7,6.78 3.79,10.23 1.17,3.5 2.17,7 3.17,10.5 1.97,6.97 3.57,14.12 4.72,21.29 0.58,3.59 1.1,7.21 1.42,10.87 0.19,1.82 0.32,3.67 0.42,5.52 0.1,1.87 0.14,3.62 0.12,5.74l-20.92 0.39z"/>
   <path class="fil9" d="M605.56 164.96c-24.88,1.45 -49.77,4.38 -74.34,8.64 -6.09,1.19 -12.25,2.49 -18.27,3.61 -6.02,1.12 -12.08,2.82 -18.12,4.22l-17.96 4.76c-5.95,1.75 -11.85,3.64 -17.77,5.46 -23.62,7.56 -46.77,16.84 -69.04,27.54 -22.45,10.87 -44.33,23.22 -65.24,36.77 18.61,-17.02 39.35,-31.88 61.42,-44.03 22.1,-12.36 45.53,-22.57 69.61,-30.35 6.09,-1.75 12.15,-3.66 18.24,-5.34 6.09,-1.68 12.25,-3.19 18.47,-4.55 6.21,-1.36 12.43,-2.45 18.64,-3.5 6.22,-1.05 12.54,-1.88 18.8,-2.66 13.3,-1.62 26.86,-2.44 40.3,-2.44 11.74,0 23.59,0.65 35.25,1.87l0 0.01z"/>
  </g>
 </g>
</svg>
