<?xml version="1.0" encoding="UTF-8"?>
<!DOCTYPE svg PUBLIC "-//W3C//DTD SVG 1.1//EN" "http://www.w3.org/Graphics/SVG/1.1/DTD/svg11.dtd">
<!-- Creator: CorelDRAW 2020 (64-Bit Evaluation Version) -->
<svg xmlns="http://www.w3.org/2000/svg" xml:space="preserve" width="42.3333mm" height="42.3333mm" version="1.1" style="shape-rendering:geometricPrecision; text-rendering:geometricPrecision; image-rendering:optimizeQuality; fill-rule:evenodd; clip-rule:evenodd"
viewBox="0 0 1193.64 1193.64"
 xmlns:xlink="http://www.w3.org/1999/xlink"
 xmlns:xodm="http://www.corel.com/coreldraw/odm/2003">
 <defs>
  <style type="text/css">
   <![CDATA[
    .fil0 {fill:none}
    .fil3 {fill:#592D3D;fill-rule:nonzero}
    .fil4 {fill:#666666;fill-rule:nonzero}
    .fil6 {fill:#999999;fill-rule:nonzero}
    .fil1 {fill:#A56941;fill-rule:nonzero}
    .fil5 {fill:#B3B3B3;fill-rule:nonzero}
    .fil2 {fill:#CCCCCC;fill-rule:nonzero}
    .fil7 {fill:white;fill-rule:nonzero}
   ]]>
  </style>
 </defs>
 <g id="Layer_x0020_1">
  <metadata id="CorelCorpID_0Corel-Layer"/>
  <rect class="fil0" x="-0" y="-0" width="1193.64" height="1193.64"/>
  <g id="_1748700550368">
   <path class="fil1" d="M123.2 648.8c0,-266.95 216.42,-483.36 483.37,-483.36 266.95,0 483.36,216.41 483.36,483.36 0,0.11 0,0.34 0,0.46 0,145.47 -65.73,283.34 -178.75,374.86 -9.93,8.06 -20.16,15.72 -30.71,22.98 -109.01,69.2 -246.73,69.2 -371.05,58.13 -12.07,-1.81 -24.1,-4.1 -36.04,-6.72 -47.71,-10.51 -93.9,-26.73 -136.57,-50.37 -10.55,-6.5 -20.77,-13.52 -30.68,-21.06 -9.93,-7.55 -19.51,-15.72 -28.61,-24.24 -8.64,-8.02 -16.98,-16.34 -25.01,-24.98 -83.02,-89.11 -129.31,-206.57 -129.31,-328.43 0,-0.17 0,-0.47 0,-0.65l-0 0.01z"/>
   <path class="fil2" d="M123.2 648.8c0,-266.95 216.42,-483.36 483.37,-483.36 266.95,0 483.36,216.41 483.36,483.36 0,0.11 0,0.34 0,0.46 0,145.47 -65.73,283.34 -178.75,374.86 -9.93,8.06 -20.16,15.72 -30.71,22.98 -109.01,69.2 -246.73,69.2 -371.05,58.13 -12.07,-1.81 -24.1,-4.1 -36.04,-6.72 -47.71,-10.51 -93.9,-26.73 -136.57,-50.37 -10.55,-6.5 -20.77,-13.52 -30.68,-21.06 -9.93,-7.55 -19.51,-15.72 -28.61,-24.24 -8.64,-8.02 -16.98,-16.34 -25.01,-24.98 -83.02,-89.11 -129.31,-206.57 -129.31,-328.43 0,-0.17 0,-0.47 0,-0.65l-0 0.01z"/>
   <path class="fil3" d="M112.33 648.8c0,-136.48 55.32,-260.04 144.76,-349.48 89.44,-89.44 213,-144.76 349.48,-144.76 136.48,0 260.04,55.32 349.48,144.76 89.44,89.44 144.76,213 144.76,349.48l0 0.46c0,74.37 -16.81,146.8 -48.06,212.34 -31.23,65.49 -76.92,124.12 -134.72,170.93 -4.97,4.04 -10.13,8.06 -15.46,12.05 -5.35,4.01 -10.66,7.82 -15.93,11.44l-0.34 0.26c-56.05,35.58 -119.28,53.34 -184.37,60.78 -64.36,7.35 -130.6,4.56 -193.44,-1.03l-0.68 -0.05c-5.8,-0.87 -11.97,-1.93 -18.45,-3.14 -6.69,-1.25 -12.77,-2.49 -18.31,-3.71 -24.17,-5.32 -48.1,-12.14 -71.54,-20.68 -23.35,-8.51 -46.09,-18.71 -67.97,-30.84l-0.43 -0.25c-10.93,-6.74 -21.46,-13.96 -31.57,-21.65l0.01 -0.02c-5.32,-4.04 -10.26,-8.01 -14.84,-11.89 -4.95,-4.2 -9.82,-8.54 -14.59,-13.01 -4.32,-4 -8.65,-8.17 -12.99,-12.51 -4.36,-4.36 -8.56,-8.7 -12.58,-13.02 -42.45,-45.57 -75.52,-98.4 -97.97,-155.42 -22.44,-57 -34.27,-118.15 -34.27,-180.41l-0 -0.63zm160.14 -334.1c-85.5,85.5 -138.39,203.62 -138.39,334.09l0 0.65c0,59.58 11.3,118.06 32.74,172.51 21.45,54.49 53.05,104.97 93.64,148.54 4.01,4.31 8,8.46 11.98,12.42 4,3.99 8.15,7.99 12.48,12l0.04 0.04c4.45,4.17 9.05,8.28 13.78,12.28 4.82,4.09 9.49,7.85 13.94,11.23l0.04 0c9.6,7.3 19.42,14.06 29.47,20.26 20.76,11.5 42.42,21.21 64.72,29.33 22.25,8.11 45.28,14.65 68.82,19.84 6.4,1.41 12.3,2.63 17.63,3.62 5.53,1.04 11.42,2.03 17.69,2.97l-0 0.02c61.29,5.44 125.83,8.13 188.43,0.98 62.09,-7.09 122.23,-23.93 175.2,-57.55l0.01 0.01c5.16,-3.56 10.12,-7.12 14.9,-10.69 4.9,-3.67 9.83,-7.52 14.78,-11.54 55.21,-44.71 98.89,-100.78 128.78,-163.46 29.87,-62.65 45.93,-131.89 45.93,-203l0 -0.46c0,-130.47 -52.89,-248.6 -138.39,-334.1 -85.51,-85.51 -203.63,-138.39 -334.1,-138.39 -130.48,0 -248.6,52.89 -334.1,138.39z"/>
   <path class="fil4" d="M712.99 466.4c-23.3,43.49 -108.73,67.84 -115.66,56.94 -7.77,-12.2 68.59,-100.24 25.19,-192.33m90.48 135.4l0 0 0 0z"/>
   <path class="fil5" d="M1121.19 364.04c-9.24,-9.24 -56.28,3.32 -103.63,-0.42 -93.98,-127.7 -242.24,-204.35 -400.76,-207.21 -4.42,-37.11 -1.36,-68.28 -4.73,-72.66 -4.51,-5.83 -28.07,22.98 -34.19,56.18 -21.58,-27.18 -58.24,-41.68 -59.29,-34.07 -0.69,4.86 13.48,25.53 26.83,54.18 -202.22,24.41 -367.99,167.18 -425.98,356.97 -25.11,21.6 -48.67,36.86 -48.93,46.55 -0.49,17.98 71.23,16.96 102.53,14.17l0 -0.11c109.9,-3.62 324.36,-24.97 428.4,-132.08 -10.03,34.61 -28.46,60.11 -24.91,65.55 5.44,8.46 69.44,-9.4 90.73,-42.11 86.98,35.5 252.76,78.21 396.84,-29.28l-0.4 -0.78c26.26,-21.94 68.99,-63.28 57.48,-74.87z"/>
   <path class="fil3" d="M1017.63 374.5c-9.78,0.43 -19.32,0.2 -28.99,-0.25 -9.67,-0.45 -19.19,-1.22 -28.76,-2.28 -4.78,-0.52 -9.57,-1.09 -14.33,-1.81 -4.77,-0.72 -9.55,-1.3 -14.3,-2.23 -9.65,-1.73 -19.16,-4.52 -28.23,-8.23 9.46,-2.41 19.24,-4.04 28.99,-4.75 4.77,-0.4 9.53,-0.67 14.3,-0.87l14.28 -0.61c9.51,-0.4 19.01,-0.62 28.48,-0.81 9.48,-0.2 18.99,-0.22 28.3,0l0.25 21.86z"/>
   <path class="fil6" d="M173.02 577.81l0 -0.11c30.8,-1.02 70,-3.44 112.6,-8.77 4.77,-101.33 39.87,-220.31 119.45,-359.59l0 0 -12.32 -5.89c-131.37,61.06 -230.8,175.1 -273.31,313.61 -25.11,21.6 -48.67,36.86 -48.92,46.55 -0.51,17.99 71.21,16.98 102.5,14.19z"/>
   <path class="fil3" d="M1113.26 371.56c-2.31,-1.13 -15.49,-0.05 -32.67,1.35 -18.51,1.51 -40.96,3.34 -63.87,1.54l-4.93 -0.39 -2.97 -4.03c-45.98,-62.48 -105.24,-112.47 -172.39,-147.19 -67.19,-34.74 -142.26,-54.2 -219.79,-55.6l-9.5 -0.17 -1.12 -9.38c-2.32,-19.49 -2.61,-37.63 -2.83,-51.15l-0.01 -1.18c-6.07,9.47 -12.06,22.56 -14.64,36.52l-4.33 23.47 -14.82 -18.67c-9.35,-11.78 -21.82,-20.9 -32.36,-26.45l0.59 1.07c5.07,9.24 11.5,20.96 17.66,34.15l6.33 13.58 -14.91 1.8c-98.27,11.86 -187.75,52.3 -259.89,112.75 -73.14,61.29 -128.45,143.13 -157,236.58l-0.93 3.05 -2.38 2.05c-7.15,6.16 -14.09,11.73 -20.43,16.82 -13.38,10.75 -23.66,19.01 -24.64,21.43 0.59,0.32 3.83,0.14 8.69,1.27 9.27,2.16 21.73,3.21 34.56,3.56 13.15,0.36 26.57,-0 37.5,-0.65l0 -0.53 10.53 -0.35c64.72,-2.13 166.03,-10.46 259.01,-39.13 62.55,-19.28 121.23,-47.74 161.96,-89.68l30.27 -31.16 -12.09 41.74c-5.38,18.56 -12.78,34.09 -18.34,45.79 -2.33,4.91 -5.44,6.95 -7.06,8.38 2.92,-0.49 7.67,-1.65 13.55,-3.32 11.32,-3.21 24.8,-8.82 36.6,-16.4 8.9,-5.72 16.71,-12.46 21.58,-19.93l4.9 -7.53 8.26 3.37c42.65,17.41 104.54,36.58 173.19,38.21 65.79,1.57 138.01,-12.99 205.7,-60.79l-0.11 -0.21 6.62 -5.53c8.28,-6.91 18.15,-15.72 27.29,-24.8 9.43,-9.36 18.15,-19.02 23.56,-27.13 2.86,-4.28 5.47,-6.46 5.66,-7.1zm-34.37 -20.31c23.63,-1.93 41.51,-3.39 49.99,5.1l0 0.05c0.42,0.42 0.76,0.79 1.02,1.09 7.18,8.59 4.3,20.37 -4.29,33.24 -6.3,9.45 -15.97,20.21 -26.28,30.44 -7.38,7.32 -15.07,14.37 -22.07,20.46l0.67 1.31 -7.32 5.46c-74.27,55.42 -154.11,72.12 -226.58,70.39 -67.94,-1.62 -129.18,-19.46 -173.11,-36.66 -6.23,7.27 -14.08,13.68 -22.58,19.14 -13.71,8.81 -29.34,15.32 -42.46,19.04 -15.09,4.27 -28.37,4.63 -34.33,0.75l-0.05 0c-1.62,-1.06 -2.97,-2.39 -4.03,-4.02l-0.01 0.01c-5.1,-7.8 -0.43,-17.6 6.44,-32.03l0.99 -2.07c-39.16,28.95 -86.88,50.07 -136.79,65.46 -94.22,29.05 -196.42,37.7 -262.53,39.99l-1.58 0.14c-12.59,1.12 -31.52,1.97 -49.81,1.47 -14.3,-0.39 -28.32,-1.58 -38.98,-4.07 -14.57,-3.39 -24.47,-9.82 -25.43,-20.67 -0.06,-0.67 -0.08,-1.32 -0.07,-1.95 0.32,-12.05 14.3,-23.29 32.78,-38.14 5.52,-4.44 11.51,-9.25 17.57,-14.39 30.09,-96.33 87.36,-180.62 162.83,-243.86 71.57,-59.98 159.52,-101.08 256.17,-115.62 -3.78,-7.39 -7.38,-13.95 -10.46,-19.56 -6.91,-12.59 -11.63,-21.19 -10.75,-27.37 0.36,-2.47 1.3,-4.61 2.8,-6.42 3.59,-4.33 9.34,-5.77 16.38,-4.53 3.87,0.69 8.73,2.28 14.08,4.68 9.45,4.24 20.94,11.3 31.46,20.61 4.55,-12.34 10.69,-23.21 16.44,-30.97 3.4,-4.59 6.82,-8.28 9.86,-10.76 5.52,-4.51 11.24,-6 16.45,-3.91 2.11,0.85 3.9,2.19 5.34,4.05 3.81,4.96 3.97,14.74 4.2,29.08 0.17,10.66 0.39,24.36 1.77,39.65 77.56,2.84 152.47,22.93 219.74,57.71 68.62,35.48 129.35,86.24 176.9,149.56 19.6,1.08 39.22,-0.52 55.63,-1.86z"/>
   <path class="fil3" d="M129.27 521.96c0,0 0,0.43 0,0.71l-0.22 0.96 -0.51 2.01c-0.38,1.36 -0.78,2.75 -1.2,4.15 -0.85,2.81 -1.81,5.69 -2.79,8.61 -0.98,2.92 -1.92,5.94 -3.21,9.06 -0.72,1.62 -1.56,3.21 -2.5,4.71 -1.08,1.79 -2.35,3.48 -3.75,5.02 -3.05,-2.68 -5.37,-6.09 -6.74,-9.91 -0.62,-1.7 -1.09,-3.47 -1.38,-5.26 -0.38,-1.81 -0.56,-3.62 -0.78,-5.35 -0.18,-1.8 -0.27,-3.62 -0.27,-5.43 0,-1.81 0.09,-3.64 0.27,-5.44 0.17,-1.82 0.47,-3.65 0.87,-5.44 0.22,-0.91 0.45,-1.81 0.74,-2.74 0.14,-0.47 0.3,-0.94 0.49,-1.4 0.18,-0.51 0.33,-0.87 0.65,-1.63l20.31 7.36z"/>
   <path class="fil7" d="M617.32 185.48c-25.76,1.5 -51.53,4.51 -76.97,8.98 -6.31,1.22 -12.6,2.55 -18.92,3.72 -6.32,1.16 -12.5,2.92 -18.75,4.37l-18.59 4.93c-6.16,1.81 -12.27,3.77 -18.39,5.65 -24.39,7.8 -48.37,17.46 -71.44,28.51 -23.21,11.19 -45.86,23.98 -67.52,38.01 19.31,-17.61 40.67,-32.94 63.57,-45.55 22.91,-12.76 47.06,-23.34 72.04,-31.34 6.31,-1.81 12.58,-3.79 18.88,-5.53 6.3,-1.74 12.68,-3.3 19.12,-4.71 6.43,-1.41 12.86,-2.54 19.31,-3.62 6.45,-1.09 12.96,-1.94 19.44,-2.75 13.93,-1.68 28.01,-2.56 42.05,-2.56 12.06,0 24.21,0.63 36.19,1.89l-0.02 0.01z"/>
  </g>
 </g>
</svg>
