<?xml version="1.0" encoding="UTF-8"?>
<!DOCTYPE svg PUBLIC "-//W3C//DTD SVG 1.1//EN" "http://www.w3.org/Graphics/SVG/1.1/DTD/svg11.dtd">
<!-- Creator: CorelDRAW 2020 (64-Bit Evaluation Version) -->
<svg xmlns="http://www.w3.org/2000/svg" xml:space="preserve" width="42.3333mm" height="42.3333mm" version="1.1" style="shape-rendering:geometricPrecision; text-rendering:geometricPrecision; image-rendering:optimizeQuality; fill-rule:evenodd; clip-rule:evenodd"
viewBox="0 0 980.39 980.39"
 xmlns:xlink="http://www.w3.org/1999/xlink"
 xmlns:xodm="http://www.corel.com/coreldraw/odm/2003">
 <defs>
  <style type="text/css">
   <![CDATA[
    .fil0 {fill:none}
    .fil3 {fill:#592D3D;fill-rule:nonzero}
    .fil4 {fill:gray;fill-rule:nonzero}
    .fil1 {fill:#A56941;fill-rule:nonzero}
    .fil5 {fill:#D69AC7;fill-rule:nonzero}
    .fil2 {fill:#E6E6E6;fill-rule:nonzero}
   ]]>
  </style>
 </defs>
 <g id="Layer_x0020_1">
  <metadata id="CorelCorpID_0Corel-Layer"/>
  <rect class="fil0" x="-0" y="-0" width="980.39" height="980.39"/>
  <g id="_2560249496752">
   <path class="fil1" d="M183.7 497.02c0,-169.27 137.23,-306.5 306.5,-306.5 169.27,0 306.5,137.23 306.5,306.5 0,0.07 0,0.22 0,0.29 0,92.24 -41.68,179.66 -113.34,237.7 -6.29,5.11 -12.79,9.97 -19.47,14.57 -69.12,43.88 -156.45,43.88 -235.28,36.86 -7.65,-1.15 -15.28,-2.6 -22.85,-4.26 -30.25,-6.67 -59.54,-16.95 -86.6,-31.94 -6.69,-4.12 -13.17,-8.57 -19.45,-13.35 -6.3,-4.79 -12.37,-9.97 -18.14,-15.37 -5.48,-5.08 -10.77,-10.36 -15.86,-15.84 -52.64,-56.51 -81.99,-130.98 -81.99,-208.26 0,-0.11 0,-0.3 0,-0.41l-0 0.01z"/>
   <path class="fil2" d="M183.7 497.02c0,-169.27 137.23,-306.5 306.5,-306.5 169.27,0 306.5,137.23 306.5,306.5 0,0.07 0,0.22 0,0.29 0,92.24 -41.68,179.66 -113.34,237.7 -6.29,5.11 -12.79,9.97 -19.47,14.57 -69.12,43.88 -156.45,43.88 -235.28,36.86 -7.65,-1.15 -15.28,-2.6 -22.85,-4.26 -30.25,-6.67 -59.54,-16.95 -86.6,-31.94 -6.69,-4.12 -13.17,-8.57 -19.45,-13.35 -6.3,-4.79 -12.37,-9.97 -18.14,-15.37 -5.48,-5.08 -10.77,-10.36 -15.86,-15.84 -52.64,-56.51 -81.99,-130.98 -81.99,-208.26 0,-0.11 0,-0.3 0,-0.41l-0 0.01z"/>
   <path class="fil3" d="M176.81 497.02c0,-86.54 35.08,-164.89 91.79,-221.6 56.71,-56.71 135.06,-91.79 221.6,-91.79 86.54,0 164.89,35.08 221.6,91.79 56.71,56.71 91.79,135.06 91.79,221.6l0 0.29c0,47.15 -10.66,93.08 -30.47,134.64 -19.8,41.53 -48.77,78.71 -85.43,108.38 -3.15,2.56 -6.42,5.11 -9.81,7.64 -3.39,2.54 -6.76,4.96 -10.1,7.26l-0.22 0.16c-35.54,22.56 -75.63,33.83 -116.91,38.54 -40.81,4.66 -82.81,2.89 -122.66,-0.66l-0.43 -0.03c-3.68,-0.55 -7.58,-1.22 -11.7,-1.99 -4.24,-0.79 -8.1,-1.58 -11.61,-2.35 -15.33,-3.38 -30.5,-7.7 -45.36,-13.12 -14.81,-5.4 -29.23,-11.87 -43.1,-19.55l-0.27 -0.16c-6.93,-4.27 -13.61,-8.85 -20.02,-13.73l0.01 -0.01c-3.37,-2.56 -6.51,-5.08 -9.41,-7.54 -3.14,-2.66 -6.23,-5.42 -9.25,-8.25 -2.74,-2.54 -5.48,-5.18 -8.24,-7.93 -2.77,-2.76 -5.42,-5.52 -7.97,-8.26 -26.92,-28.9 -47.89,-62.39 -62.12,-98.55 -14.23,-36.14 -21.73,-74.92 -21.73,-114.4l-0 -0.4zm101.54 -211.85c-54.21,54.21 -87.75,129.11 -87.75,211.84l0 0.41c0,37.78 7.17,74.86 20.76,109.39 13.6,34.55 33.64,66.56 59.37,94.18 2.55,2.74 5.08,5.36 7.6,7.88 2.53,2.53 5.17,5.07 7.91,7.61l0.03 0.03c2.82,2.64 5.74,5.25 8.74,7.79 3.06,2.59 6.01,4.98 8.84,7.12l0.03 0c6.09,4.63 12.31,8.92 18.68,12.85 13.17,7.29 26.9,13.45 41.04,18.6 14.11,5.14 28.71,9.29 43.64,12.58 4.06,0.89 7.8,1.67 11.18,2.3 3.51,0.66 7.24,1.29 11.21,1.88l-0 0.01c38.86,3.45 79.79,5.16 119.48,0.62 39.37,-4.5 77.51,-15.17 111.09,-36.5l0.01 0.01c3.27,-2.25 6.42,-4.52 9.45,-6.78 3.11,-2.33 6.23,-4.77 9.37,-7.32 35.01,-28.35 62.7,-63.9 81.66,-103.64 18.94,-39.72 29.12,-83.63 29.12,-128.72l0 -0.29c0,-82.73 -33.53,-157.63 -87.75,-211.85 -54.22,-54.22 -129.12,-87.75 -211.85,-87.75 -82.73,0 -157.63,33.53 -211.85,87.75z"/>
   <path class="fil3" d="M404.27 267.63c12.92,-7.53 26.82,-13.33 41.27,-17.23 14.51,-3.98 29.59,-6.08 44.66,-6.16 0.35,0 0.71,0 1.06,0 14.76,0 29.53,1.98 43.76,5.84 14.44,3.87 28.36,9.8 41.16,17.54 -14.03,-4.35 -28.34,-7.9 -42.74,-10.51 -13.88,-2.44 -28.04,-3.68 -42.16,-3.68 -0.32,0 -0.68,0 -1,0 -14.44,0.09 -28.96,1.49 -43.16,4.01 -14.39,2.6 -28.75,6.04 -42.8,10.16l-0.03 0.02z"/>
   <path class="fil3" d="M404.27 299.74c12.92,-7.53 26.82,-13.33 41.27,-17.23 14.53,-3.93 29.58,-6.02 44.65,-6.1 0.46,-0 0.94,-0 1.39,-0 14.66,0 29.26,1.93 43.41,5.74 14.46,3.89 28.38,9.81 41.17,17.55 -14.03,-4.34 -28.34,-7.86 -42.75,-10.49 -13.92,-2.44 -28.07,-3.71 -42.22,-3.71 -0.29,0 -0.62,0 -0.91,0 -14.42,0.09 -28.93,1.49 -43.14,4.01 -14.41,2.64 -28.82,6.11 -42.87,10.21l-0 0.02z"/>
   <path class="fil4" d="M576.12 299.89c-14.06,2.99 -28.43,5.21 -42.76,6.52 -14.33,1.38 -28.72,2.11 -43.16,2.18 -14.42,0 -28.84,-0.54 -43.2,-1.89 -14.31,-1.26 -28.68,-3.55 -42.71,-6.78 14.46,-0.45 28.72,-0.39 43.08,-0.43l42.84 -0.1 42.85 -0.15c14.29,0 28.62,-0.01 43.08,0.64z"/>
   <path class="fil4" d="M576.12 267.76c-14.12,2.79 -28.5,4.83 -42.8,5.99 -14.33,1.26 -28.7,1.91 -43.11,1.97 -14.4,0.06 -28.79,-0.48 -43.16,-1.7 -14.32,-1.12 -28.66,-3.27 -42.76,-6.26 14.44,-0.68 28.72,-0.8 43.05,-0.96l42.86 -0.27c14.27,0 28.55,-0.07 42.87,0 14.32,0.07 28.62,0.35 43.05,1.23z"/>
   <path class="fil5" d="M916.6 497.02c-108.3,-6.81 -101.53,-198.57 -165.57,-161.02l0 0 0.48 0.79c-1.24,10 -12.74,115.04 29.98,257.49 0.47,-1.44 0.93,-2.88 1.39,-4.33 2.3,6.21 19.53,44.93 87.1,26.61 -46.63,-39.32 -36.16,-86.48 -36.16,-86.48 0,0 51.19,1.52 82.77,-33.06z"/>
   <path class="fil4" d="M916.6 497.02c-108.3,-6.81 -101.53,-198.57 -165.57,-161.02l0 0 0.48 0.79c-1.24,10 -12.74,115.04 29.98,257.49 0.47,-1.44 0.93,-2.88 1.39,-4.33 2.3,6.21 19.53,44.93 87.1,26.61 -46.63,-39.32 -36.16,-86.48 -36.16,-86.48 0,0 51.19,1.52 82.77,-33.06z"/>
   <path class="fil3" d="M901.3 501.78c-51.34,-11.52 -74.76,-64.08 -94.23,-107.76 -5.96,-13.37 -11.53,-25.88 -17.28,-35.69 -8.92,-15.21 -18.46,-23.83 -31.72,-18.2 -1.28,11.93 -4.89,55.97 2.61,120.35 3.74,32.13 10.25,69.28 21.19,109.97l0.52 -1.64 6.95 18.77c0.97,2.61 5.09,12.07 16.25,19.05 10.09,6.32 25.87,10.53 50.23,6.1 -38.51,-39.91 -28.76,-83.92 -28.73,-84.06l1.17 -5.59 5.7 0.13c0.13,0 38.2,1.13 67.34,-21.43zm-81.68 -113.37c19.73,44.28 43.83,98.37 97.41,101.74l14.34 0.9 -9.68 10.6c-26.86,29.4 -66.67,34.36 -81.83,35.16 -1,12.64 0.25,45.57 34.57,74.5l10.03 8.46 -12.7 3.44c-36.03,9.77 -59.07,4.06 -73.44,-4.94 -5.84,-3.66 -10.26,-7.88 -13.56,-11.88l-3.57 10.87 -6.3 -21.01c-15.04,-50.14 -23.42,-95.71 -27.9,-134.21 -7.71,-66.19 -3.9,-111.69 -2.6,-123.7l-2.87 -4.72 6.03 -3.54c24.55,-14.4 40.22,-2.34 54.08,21.3 6.17,10.53 11.88,23.34 17.98,37.04z"/>
   <path class="fil3" d="M796.69 497.02c1.16,7.33 1.77,14.77 1.77,22.21 0,0.89 -0.02,1.81 -0.02,2.68 -0.19,8.27 -0.81,16.7 -1.84,24.93 -0.54,4.13 -1.16,8.25 -1.87,12.37 -0.75,4.1 -1.55,8.2 -2.48,12.28 -1.81,8.14 -4.17,16.25 -6.9,24.12l-8.72 -2.92c2.42,-7.73 4.75,-15.5 6.8,-23.35l1.52 -5.89 1.4 -5.93 1.34 -5.94 1.23 -5.97c1.62,-7.97 2.87,-16.02 4.06,-24.13 1.18,-8.11 2.3,-16.24 3.7,-24.46z"/>
   <path class="fil3" d="M755.44 334.39c4.69,7.44 9.02,15.15 12.82,23.05 0.95,1.98 1.86,3.98 2.78,5.97l2.64 6.03 2.47 6.11 2.3 6.16c2.97,8.23 5.57,16.64 7.63,25.13 2.06,8.5 3.36,17.22 3.87,25.95 -3.17,-8.17 -6.08,-16.29 -9.12,-24.35 -3.05,-8.05 -6.11,-16.03 -9.61,-23.85l-2.63 -5.85 -2.75 -5.74 -2.81 -5.75 -2.93 -5.69c-3.94,-7.57 -8.14,-14.94 -12.49,-22.33l7.84 -4.87z"/>
   <path class="fil5" d="M63.79 497.02c108.3,-6.81 101.53,-198.57 165.57,-161.02l0 0 -0.48 0.79c1.24,10 12.74,115.04 -29.98,257.49 -0.47,-1.44 -0.93,-2.88 -1.39,-4.33 -2.3,6.21 -19.53,44.93 -87.1,26.61 46.63,-39.32 36.16,-86.48 36.16,-86.48 0,0 -51.19,1.52 -82.77,-33.06z"/>
   <path class="fil4" d="M63.79 497.02c108.3,-6.81 101.53,-198.57 165.57,-161.02l0 0 -0.48 0.79c1.24,10 12.74,115.04 -29.98,257.49 -0.47,-1.44 -0.93,-2.88 -1.39,-4.33 -2.3,6.21 -19.53,44.93 -87.1,26.61 46.63,-39.32 36.16,-86.48 36.16,-86.48 0,0 -51.19,1.52 -82.77,-33.06z"/>
   <path class="fil3" d="M63.36 490.16c53.58,-3.37 77.68,-57.46 97.41,-101.74 6.1,-13.7 11.81,-26.51 17.99,-37.04 13.86,-23.64 29.53,-35.69 54.08,-21.3l6.03 3.54 -2.87 4.72c1.3,12.01 5.11,57.51 -2.59,123.7 -4.48,38.5 -12.86,84.07 -27.9,134.21l-6.3 21.01 -3.56 -10.87c-3.3,4 -7.72,8.22 -13.56,11.88 -14.37,9 -37.41,14.71 -73.44,4.94l-12.7 -3.44 10.03 -8.46c34.31,-28.93 35.57,-61.86 34.57,-74.5 -15.16,-0.8 -54.97,-5.76 -81.83,-35.16l-9.68 -10.6 14.34 -0.9zm109.96 -96.14c-19.46,43.69 -42.89,96.24 -94.23,107.76 29.14,22.56 67.22,21.43 67.34,21.43l5.7 -0.13 1.17 5.59c0.03,0.14 9.78,44.15 -28.73,84.06 24.36,4.43 40.14,0.22 50.23,-6.1 11.16,-6.99 15.28,-16.44 16.25,-19.05l6.95 -18.77 0.52 1.64c10.95,-40.69 17.46,-77.85 21.2,-109.97 7.49,-64.38 3.88,-108.42 2.61,-120.35 -13.26,-5.62 -22.8,2.99 -31.72,18.2 -5.75,9.81 -11.32,22.32 -17.28,35.69z"/>
   <path class="fil3" d="M183.7 497.02c1.4,8.23 2.51,16.36 3.72,24.45 1.22,8.09 2.44,16.14 4.06,24.13l1.23 5.97 1.35 5.94 1.4 5.93 1.52 5.89c2.06,7.85 4.37,15.61 6.8,23.35l-8.72 2.92c-2.73,-7.88 -5.08,-15.99 -6.9,-24.12 -0.93,-4.08 -1.74,-8.18 -2.48,-12.28 -0.75,-4.1 -1.32,-8.25 -1.86,-12.39 -1.03,-8.22 -1.65,-16.65 -1.83,-24.93 -0.01,-0.9 -0.03,-1.86 -0.03,-2.79 0,-7.39 0.58,-14.79 1.74,-22.07l0.01 -0z"/>
   <path class="fil3" d="M232.82 339.21c-4.34,7.34 -8.55,14.75 -12.49,22.33l-2.96 5.65 -2.81 5.75 -2.75 5.74 -2.63 5.85c-3.45,7.83 -6.6,15.81 -9.61,23.85 -3.01,8.04 -5.95,16.18 -9.12,24.35 0.5,-8.73 1.81,-17.44 3.87,-25.94 2.06,-8.5 4.66,-16.91 7.64,-25.14l2.3 -6.16 2.49 -6.01 2.64 -6.03c0.92,-2 1.83,-4 2.78,-5.97 3.81,-7.89 8.11,-15.65 12.77,-23.05l7.88 4.78z"/>
   <path class="fil3" d="M143.53 530.17l-1.84 -17.91c-0.3,-3.06 -0.68,-6.11 -0.91,-9.19 -0.08,-1.56 -0.17,-3.12 -0.13,-4.75 0,-0.05 0,-0.11 0,-0.16 0,-1.6 0.12,-3.2 0.35,-4.77 2.09,2.52 3.82,5.35 5.11,8.36 0.65,1.46 1.22,2.95 1.73,4.46 0.52,1.51 1.01,3.02 1.48,4.6 0.47,1.57 0.87,3.07 1.26,4.6 0.39,1.53 0.72,3.12 1.02,4.7 0.3,1.57 0.56,3.16 0.75,4.77 0.21,1.65 0.34,3.32 0.35,4.98l-9.19 0.32z"/>
   <path class="fil3" d="M827.6 528.47c0.1,-2.57 0.44,-5.14 1.01,-7.65 0.28,-1.23 0.61,-2.46 0.94,-3.68 0.33,-1.22 0.76,-2.42 1.15,-3.62 0.82,-2.4 1.87,-4.75 3.08,-6.98 1.29,-2.32 3.03,-4.38 5.11,-6.03 0.17,1.48 0.26,2.98 0.26,4.47 0,1.07 -0.05,2.14 -0.13,3.21 -0.1,1.15 -0.21,2.4 -0.36,3.56l-0.32 3.54 -0.72 7.01c-0.25,2.3 -0.5,4.7 -0.83,6.81l-9.19 -0.64z"/>
  </g>
 </g>
</svg>
