<?xml version="1.0" encoding="UTF-8"?>
<!DOCTYPE svg PUBLIC "-//W3C//DTD SVG 1.1//EN" "http://www.w3.org/Graphics/SVG/1.1/DTD/svg11.dtd">
<!-- Creator: CorelDRAW 2020 (64-Bit Evaluation Version) -->
<svg xmlns="http://www.w3.org/2000/svg" xml:space="preserve" width="42.3333mm" height="42.3333mm" version="1.1" style="shape-rendering:geometricPrecision; text-rendering:geometricPrecision; image-rendering:optimizeQuality; fill-rule:evenodd; clip-rule:evenodd"
viewBox="0 0 1193.64 1193.64"
 xmlns:xlink="http://www.w3.org/1999/xlink"
 xmlns:xodm="http://www.corel.com/coreldraw/odm/2003">
 <defs>
  <style type="text/css">
   <![CDATA[
    .fil0 {fill:none}
    .fil3 {fill:#592D3D;fill-rule:nonzero}
    .fil4 {fill:#666666;fill-rule:nonzero}
    .fil7 {fill:gray;fill-rule:nonzero}
    .fil6 {fill:#999999;fill-rule:nonzero}
    .fil1 {fill:#A56941;fill-rule:nonzero}
    .fil2 {fill:#B3B3B3;fill-rule:nonzero}
    .fil5 {fill:#D69AC7;fill-rule:nonzero}
    .fil8 {fill:white;fill-rule:nonzero}
   ]]>
  </style>
 </defs>
 <g id="Layer_x0020_1">
  <metadata id="CorelCorpID_0Corel-Layer"/>
  <rect class="fil0" x="-0" y="-0" width="1193.64" height="1193.64"/>
  <g id="_1748703940208">
   <path class="fil1" d="M71.44 608.47c0,-288.77 234.11,-522.88 522.88,-522.88 288.78,0 522.88,234.11 522.88,522.88 0,0.12 0,0.37 0,0.5 0,157.36 -71.1,306.5 -193.36,405.51 -10.74,8.72 -21.81,17.01 -33.22,24.86 -117.93,74.86 -266.9,74.86 -401.39,62.88 -13.05,-1.96 -26.07,-4.43 -38.99,-7.27 -51.61,-11.37 -101.58,-28.91 -147.74,-54.49 -11.41,-7.03 -22.47,-14.62 -33.18,-22.78 -10.74,-8.17 -21.11,-17 -30.95,-26.22 -9.34,-8.67 -18.36,-17.68 -27.05,-27.02 -89.81,-96.4 -139.88,-223.46 -139.88,-355.28 0,-0.19 0,-0.51 0,-0.7l0 0.01z"/>
   <path class="fil2" d="M71.44 608.47c0,-288.77 234.11,-522.88 522.88,-522.88 288.78,0 522.88,234.11 522.88,522.88 0,0.12 0,0.37 0,0.5 0,157.36 -71.1,306.5 -193.36,405.51 -10.74,8.72 -21.81,17.01 -33.22,24.86 -117.93,74.86 -266.9,74.86 -401.39,62.88 -13.05,-1.96 -26.07,-4.43 -38.99,-7.27 -51.61,-11.37 -101.58,-28.91 -147.74,-54.49 -11.41,-7.03 -22.47,-14.62 -33.18,-22.78 -10.74,-8.17 -21.11,-17 -30.95,-26.22 -9.34,-8.67 -18.36,-17.68 -27.05,-27.02 -89.81,-96.4 -139.88,-223.46 -139.88,-355.28 0,-0.19 0,-0.51 0,-0.7l0 0.01z"/>
   <path class="fil3" d="M59.68 608.47c0,-147.63 59.84,-281.3 156.59,-378.05 96.75,-96.75 230.41,-156.59 378.05,-156.59 147.64,0 281.3,59.84 378.05,156.59 96.75,96.75 156.59,230.41 156.59,378.05l0 0.5c0,80.45 -18.18,158.8 -51.99,229.7 -33.78,70.85 -83.21,134.27 -145.74,184.9 -5.38,4.37 -10.96,8.72 -16.73,13.03 -5.79,4.33 -11.53,8.46 -17.23,12.38l-0.37 0.28c-60.62,38.49 -129.03,57.71 -199.44,65.75 -69.62,7.95 -141.28,4.93 -209.25,-1.12l-0.74 -0.05c-6.27,-0.94 -12.94,-2.08 -19.96,-3.39 -7.23,-1.36 -13.81,-2.7 -19.81,-4.01 -26.15,-5.76 -52.03,-13.14 -77.38,-22.38 -25.26,-9.21 -49.86,-20.24 -73.52,-33.36l-0.46 -0.28c-11.83,-7.29 -23.21,-15.1 -34.15,-23.42l0.02 -0.02c-5.75,-4.37 -11.1,-8.67 -16.06,-12.86 -5.35,-4.54 -10.62,-9.24 -15.78,-14.07 -4.67,-4.33 -9.36,-8.84 -14.05,-13.53 -4.72,-4.71 -9.26,-9.41 -13.6,-14.08 -45.93,-49.3 -81.69,-106.44 -105.98,-168.12 -24.27,-61.65 -37.07,-127.81 -37.07,-195.16l0 -0.69zm173.23 -361.41c-92.49,92.49 -149.7,220.26 -149.71,361.4l0 0.7c0,64.45 12.23,127.71 35.42,186.61 23.2,58.94 57.39,113.55 101.29,160.68 4.34,4.67 8.66,9.15 12.96,13.44 4.32,4.32 8.82,8.64 13.5,12.98l0.05 0.05c4.81,4.51 9.79,8.95 14.9,13.29 5.22,4.42 10.26,8.49 15.08,12.15l0.05 0c10.38,7.9 21.01,15.21 31.87,21.92 22.46,12.44 45.89,22.95 70.01,31.73 24.07,8.77 48.98,15.85 74.44,21.46 6.92,1.52 13.31,2.84 19.07,3.92 5.98,1.12 12.35,2.2 19.13,3.21l-0 0.02c66.3,5.88 136.11,8.8 203.83,1.06 67.17,-7.68 132.22,-25.89 189.52,-62.26l0.01 0.02c5.58,-3.85 10.95,-7.71 16.12,-11.57 5.3,-3.97 10.63,-8.13 15.99,-12.48 59.72,-48.37 106.97,-109.02 139.3,-176.82 32.31,-67.77 49.69,-142.68 49.69,-219.6l0 -0.5c0,-141.14 -57.21,-268.92 -149.71,-361.41 -92.49,-92.5 -220.27,-149.71 -361.41,-149.71 -141.14,0 -268.92,57.21 -361.41,149.71z"/>
   <polygon class="fil4" points="183.14,565.68 1044.13,565.68 1044.13,439.93 183.14,439.93 "/>
   <path class="fil5" d="M1005.96 937.11c-6.16,7.61 -12.5,15.03 -19.04,22.29 -4.9,5.43 5.06,-2.2 19.04,-22.29zm29.4 -620.5c-59.79,-106.65 -163.68,-180.08 -283.8,-213.87l-12.45 -3.35c-44.5,-12.31 -91.38,-13.72 -139.8,-13.72 -52.32,0 -102.83,5.37 -150.48,19.6l-8.35 2.49c-169.28,56.96 -309.2,200.29 -345.9,363.1 -62.84,248.04 34.95,400.27 121.75,493.57 8.57,9.21 -113.56,-199.64 -34.15,-423.4 15.15,-0.57 39.68,-1 70.94,-1.31l30.38 -99.21 34.19 98.75c53.71,-0.25 117.38,-0.29 184.02,-0.23l24.15 -102.64 27.29 102.68c145.78,0.27 296.85,1.02 382.78,1.51l25.88 -102.26 29.4 102.58 16.09 0.1c98.19,208.6 34.91,344.11 -1.35,396.11 75.11,-92.66 116.24,-208.54 116.24,-327.92 0,-0.19 0,-0.51 0,-0.7 0,-169.42 -86.84,-291.88 -86.84,-291.88z"/>
   <path class="fil6" d="M1005.96 937.11c-6.16,7.61 -12.5,15.03 -19.04,22.29 -4.9,5.43 5.06,-2.2 19.04,-22.29zm29.4 -620.5c-59.79,-106.65 -163.68,-180.08 -283.8,-213.87l-12.45 -3.35c-44.5,-12.31 -91.38,-13.72 -139.8,-13.72 -52.32,0 -102.83,5.37 -150.48,19.6l-8.35 2.49c-169.28,56.96 -309.2,200.29 -345.9,363.1 -62.84,248.04 34.95,400.27 121.75,493.57 8.57,9.21 -113.56,-199.64 -34.15,-423.4 15.15,-0.57 39.68,-1 70.94,-1.31l30.38 -99.21 34.19 98.75c53.71,-0.25 117.38,-0.29 184.02,-0.23l24.15 -102.64 27.29 102.68c145.78,0.27 296.85,1.02 382.78,1.51l25.88 -102.26 29.4 102.58 16.09 0.1c98.19,208.6 34.91,344.11 -1.35,396.11 75.11,-92.66 116.24,-208.54 116.24,-327.92 0,-0.19 0,-0.51 0,-0.7 0,-169.42 -86.84,-291.88 -86.84,-291.88z"/>
   <path class="fil7" d="M251.56 539.71c1.77,-113.4 38.97,-247.83 129.8,-406.62l0 0c-5.32,2.46 -10.58,4.99 -15.8,7.61l-1.16 0.57c-2.39,1.2 -4.78,2.43 -7.15,3.69l-1.96 1.04c-7.37,3.92 -14.64,7.99 -21.82,12.21l-1.76 1.04c-2.28,1.35 -4.53,2.73 -6.78,4.12l-1.69 1.06c-7.02,4.38 -13.91,8.9 -20.7,13.58l-2.12 1.47c-2.11,1.49 -4.23,2.98 -6.33,4.49l-1.27 0.92c-4.27,3.12 -8.5,6.29 -12.68,9.49l-1.22 0.94c-1.96,1.53 -3.92,3.1 -5.88,4.68l-2.31 1.84c-1.96,1.59 -3.92,3.17 -5.88,4.8l0 0c-4.14,3.43 -8.19,6.96 -12.23,10.53l-2.24 1.96 -5.27 4.8 -2.59 2.31c-5.58,5.23 -11.05,10.57 -16.4,16.02l-2.69 2.76c-1.57,1.61 -3.12,3.21 -4.64,4.84l-2.69 2.9c-2.68,2.93 -5.32,5.85 -7.94,8.76 -0.9,1 -1.8,1.96 -2.69,3.02 -1.39,1.59 -2.76,3.19 -4.14,4.8l-2.98 3.55c-1.33,1.59 -2.67,3.17 -3.92,4.78 -1.06,1.29 -2.09,2.61 -3.16,3.92 -2.08,2.61 -4.14,5.21 -6.17,7.84 -1.08,1.37 -2.13,2.74 -3.17,4.14 -1.04,1.39 -2.35,3.12 -3.51,4.7l-3.12 4.27c-1.1,1.53 -2.21,3.04 -3.29,4.57 -1.84,2.63 -3.69,5.27 -5.49,7.94 -0.98,1.43 -1.96,2.9 -2.9,4.35 -0.94,1.45 -2.18,3.25 -3.23,4.9 -1.06,1.65 -1.96,3.02 -2.9,4.53 -0.94,1.51 -2.22,3.53 -3.31,5.31 -0.84,1.35 -1.69,2.71 -2.51,4.06 -1.72,2.86 -3.42,5.74 -5.1,8.63 -0.82,1.41 -1.61,2.82 -2.41,4.24 -1.06,1.86 -2.12,3.74 -3.16,5.63 -0.78,1.43 -1.57,2.86 -2.33,4.29 -1.25,2.33 -2.49,4.69 -3.7,7.04 -0.8,1.53 -1.59,3.06 -2.37,4.59 -1.25,2.51 -2.51,5 -3.72,7.53 -0.67,1.35 -1.31,2.72 -1.96,4.09 -1.02,2.14 -1.96,4.29 -3.02,6.45l-1.78 3.92c-1.45,3.23 -2.87,6.49 -4.25,9.8 -0.43,1.02 -0.84,2.06 -1.27,3.08 -1.04,2.49 -1.96,4.98 -3.06,7.49 -0.53,1.31 -1.04,2.63 -1.55,3.92 -0.96,2.47 -1.96,4.96 -2.84,7.45l-1.2 3.23c-1.31,3.44 -2.52,6.87 -3.65,10.31l-1.1 3.33c-0.86,2.61 -1.71,5.23 -2.53,7.84 -0.39,1.23 -0.78,2.49 -1.16,3.74 -0.94,3.02 -1.84,6.05 -2.7,9.08 -0.2,0.65 -0.39,1.29 -0.57,1.96 -1.02,3.61 -2,7.23 -2.94,10.86l-0.88 3.49c-0.37,1.45 -0.73,2.92 -1.08,4.39 -3.06,13.11 -5.64,25.93 -7.84,38.48 -0.2,1.29 -0.43,2.57 -0.63,3.92l-0.47 2.98c-0.59,3.83 -1.12,7.67 -1.61,11.53 -0.12,0.84 -0.21,1.71 -0.31,2.55 -0.39,3.12 -0.74,6.25 -1.08,9.39l-0.36 3.55c-0.33,3.29 -0.63,6.61 -0.88,9.92l-0.18 1.96c-0.3,3.92 -0.55,7.87 -0.74,11.86 0,1.04 -0.1,2.09 -0.16,3.14 -0.14,3.08 -0.26,6.16 -0.35,9.23 0,1.16 0,2.31 -0.1,3.47 0,4.02 -0.14,8.06 -0.14,12.09l0 0.2c0,4.35 0,8.66 0.16,12.98 0,1.49 0.12,2.98 0.16,4.47 0.1,2.88 0.19,5.76 0.33,8.64 0.1,1.74 0.22,3.47 0.31,5.21 0.16,2.61 0.32,5.21 0.49,7.84l0.47 5.55c0.22,2.47 0.41,4.94 0.67,7.39 0.18,1.96 0.41,3.8 0.61,5.7 0.27,2.37 0.53,4.76 0.82,7.13 0.23,1.96 0.51,3.92 0.76,5.78 0.31,2.31 0.65,4.65 0.98,6.96 0.29,1.96 0.61,3.92 0.92,5.88 0.37,2.27 0.73,4.56 1.14,6.84 0.33,1.96 0.69,3.92 1.06,5.88 0.41,2.26 0.84,4.51 1.29,6.74 0.45,2.23 0.78,3.92 1.2,5.88 0.47,2.24 0.94,4.45 1.45,6.67 0.51,2.22 0.88,3.92 1.33,5.74 0.53,2.22 1.06,4.41 1.61,6.59 0.55,2.18 0.96,3.82 1.47,5.72 0.51,1.9 1.16,4.35 1.77,6.53 0.51,1.96 1.04,3.76 1.59,5.63 0.63,2.18 1.27,4.33 1.96,6.49 0.69,2.16 1.12,3.7 1.71,5.57 0.59,1.86 1.39,4.29 2.1,6.43 0.61,1.82 1.2,3.67 1.82,5.49 0.74,2.14 1.49,4.27 2.25,6.41l1.96 5.37c0.8,2.14 1.63,4.27 2.45,6.41 0.67,1.74 1.33,3.51 1.96,5.25 0.86,2.13 1.75,4.29 2.63,6.43 0.7,1.69 1.39,3.39 2.12,5.08 0.94,2.19 1.96,4.35 2.86,6.52 0.7,1.63 1.41,3.24 2.14,4.84 1.02,2.27 2.09,4.51 3.16,6.74 0.7,1.51 1.39,3.02 2.12,4.51 1.18,2.47 2.41,4.9 3.65,7.35l1.86 3.72c3.76,7.33 7.68,14.56 11.76,21.7 0.71,1.22 1.43,2.41 2.14,3.61 1.37,2.35 2.72,4.7 4.14,7.02 0.86,1.41 1.75,2.78 2.61,4.19 1.29,2.1 2.59,4.2 3.92,6.25 0.94,1.49 1.96,2.94 2.88,4.39 1.27,1.96 2.57,3.92 3.92,5.88 1,1.49 1.96,2.98 3.06,4.47 1.29,1.96 2.59,3.76 3.92,5.64 1.06,1.51 2.16,3 3.23,4.51 1.08,1.51 2.63,3.63 3.92,5.43 1.29,1.8 2.25,3 3.37,4.49l4.06 5.29c1.16,1.49 2.33,2.96 3.51,4.43 1.18,1.47 2.76,3.45 4.16,5.15 1.39,1.71 2.41,2.92 3.63,4.37 1.22,1.45 2.82,3.37 4.25,5.04l3.74 4.31 4.35 4.9c1.27,1.43 2.57,2.82 3.92,4.24 0.78,0.86 1.59,1.71 2.39,2.57 4.64,2.68 -112.67,-203.25 -34.44,-423.7 14.82,-0.96 38.79,-1.37 69.31,-1.69z"/>
   <path class="fil3" d="M978.2 951.55c6.49,-7.2 12.65,-14.4 18.47,-21.58 20.95,-30.2 51.03,-89.24 51.32,-175.22 0.19,-56.1 -12.3,-123.62 -48.2,-202.07l-17.45 -0.11 -19.82 -69.14 -17.44 68.93 -9.18 -0.05c-49.56,-0.28 -120.79,-0.65 -200.18,-0.96 -58.28,-0.23 -120.93,-0.43 -182.56,-0.54l-9.03 -0.02 -17.56 -66.06 -15.54 66.05 -9.3 -0.01c-33.32,-0.03 -65.9,-0.03 -96.86,0 -30.92,0.03 -60.25,0.11 -87.12,0.23l-8.37 0.04 -25.18 -72.74 -22.38 73.07 -8.6 0.08c-15.82,0.16 -29.99,0.35 -42.15,0.58 -7.61,0.14 -14.44,0.3 -20.4,0.47 -62.35,186.23 16.12,360.79 33.48,399.41 4.49,10 6.97,15.46 0.59,21.42 -5.85,5.44 -11.4,5.14 -16.99,-0.88 -44.29,-47.62 -91.42,-110.33 -119.52,-192.99 -28.09,-82.65 -37.08,-184.93 -5.03,-311.43l0.02 0c18.73,-82.85 63.4,-160.67 124.79,-225.11 62.2,-65.29 141.67,-116.96 228.76,-146.27l0.37 -0.14 8.35 -2.49c24.51,-7.32 49.7,-12.36 75.42,-15.55 25.64,-3.18 51.82,-4.55 78.41,-4.55 24.4,0 48.48,0.36 72.29,2.29 23.92,1.94 47.44,5.48 70.54,11.86l0 -0.02 12.59 3.4c62.69,17.64 121.09,45.85 171.4,83.77 48.36,36.45 89.26,81.86 119.35,135.46 7.24,10.51 88.42,132.16 88.43,297.83l0.05 0 0 0.7c0,60.98 -10.51,121.1 -30.62,177.83 -20.01,56.46 -49.57,109.57 -87.75,156.83 -8.57,12.32 -15.96,20.45 -19.63,23.96 -0.54,0.52 -1.05,0.99 -1.53,1.4 -4.83,7.46 -10.6,10.22 -15.45,9.94 -10.71,5.26 -14.23,2.04 -10.23,-9.41 -0.73,-4.82 1.35,-10.84 8.01,-16.48 0.42,-0.54 0.9,-1.12 1.44,-1.72zm46.92 -629.19c-28.46,-50.77 -67.23,-93.82 -113.13,-128.41 -47.93,-36.12 -103.61,-63.02 -163.45,-79.87l-12.45 -3.34 -0.09 -0.05c-21.37,-5.91 -43.5,-9.22 -66.22,-11.06 -22.86,-1.85 -46.44,-2.2 -70.45,-2.2 -25.72,0 -50.96,1.31 -75.57,4.37 -24.53,3.05 -48.43,7.81 -71.56,14.72l-8.35 2.49 -0 -0.01c-83.27,28.09 -159.28,77.56 -218.84,140.08 -58.64,61.56 -101.24,135.68 -118.97,214.35l-0.05 0.28c-30.79,121.55 -22.31,219.4 4.48,298.2 17.01,50.03 41.43,92.5 67.87,128.54 -27.51,-79.66 -58.7,-218.25 -7.22,-363.31l2.66 -7.51 7.99 -0.3c7.27,-0.27 17.02,-0.52 28.92,-0.74 9.83,-0.18 21.14,-0.34 33.74,-0.48l38.39 -125.35 43.19 124.77c24.54,-0.1 51.03,-0.17 78.84,-0.2 28.07,-0.03 57.47,-0.03 87.55,-0.01l32.76 -139.23 37.02 139.29c58.83,0.12 118.22,0.31 173.62,0.53 74.61,0.3 142.01,0.64 191,0.91l34.31 -135.59 38.99 136.01 14.69 0.09 3.14 6.66c39.92,84.81 53.7,157.99 53.49,218.75 -0.08,22.48 -2.07,43.27 -5.37,62.33 5.55,-12.41 10.61,-25.05 15.15,-37.86 19.21,-54.18 29.25,-111.66 29.25,-170.02l0 -0.7 0.05 0c0,-165.7 -84.48,-284.82 -84.72,-285.17l-0.52 -0.74 -0.13 -0.23z"/>
   <path class="fil8" d="M633.74 116.79c-27.87,1.55 -55.81,4.8 -83.31,9.63 -6.84,1.33 -13.72,2.78 -20.46,4.04 -6.74,1.25 -13.52,3.16 -20.29,4.72l-20.13 5.33c-6.64,1.96 -13.25,4.08 -19.88,6.1 -26.34,8.48 -52.24,18.89 -77.25,30.87 -25.12,12.18 -49.65,26.07 -73.03,41.21 20.88,-19.06 44.06,-35.7 68.78,-49.31 24.69,-13.83 50.97,-25.22 77.92,-33.89 6.8,-1.96 13.58,-4.08 20.43,-5.98 6.84,-1.9 13.72,-3.57 20.66,-5.08 6.94,-1.51 13.91,-2.76 20.89,-3.92 6.98,-1.16 14.02,-2.12 21.05,-2.98 15.06,-1.86 30.29,-2.81 45.47,-2.81 13.05,0 26.2,0.72 39.16,2.08l-0.02 -0.02z"/>
   <path class="fil3" d="M171.87 535.65c0.35,-1.47 0.65,-2.59 1.04,-3.8 0.39,-1.22 0.78,-2.35 1.22,-3.49 0.9,-2.29 1.96,-4.53 2.96,-6.71 2.18,-4.38 4.72,-8.59 7.55,-12.58 2.79,-4.06 6,-7.86 9.56,-11.28 3.88,-3.67 8.59,-6.37 13.72,-7.84 0,0.24 0.01,0.5 0.01,0.74 0,4.82 -0.57,9.63 -1.71,14.31 -0.55,2.23 -1.16,4.41 -1.82,6.51l-1.96 6.37c-1.31,4.22 -2.62,8.4 -3.92,12.53 -0.65,2.08 -1.33,4.1 -1.96,6.14 -0.33,1 -0.72,1.96 -1.1,3 -0.37,1.04 -0.76,1.96 -1.1,2.75l-22.48 -6.65z"/>
   <path class="fil8" d="M486.2 514.52c0.44,-9.29 1.45,-18.73 2.9,-27.94 1.41,-9.21 3.14,-18.37 5.12,-27.44 1.98,-9.08 4.21,-18.13 6.74,-27.11 2.51,-8.99 5.61,-17.97 9.08,-26.63 -0.44,9.33 -1.48,18.69 -2.96,27.93 -1.4,9.21 -3.11,18.36 -5.11,27.45 -2,9.08 -3.7,18.23 -6.74,27.11 -2.53,9 -5.61,17.95 -9.05,26.64l0.01 -0z"/>
   <path class="fil8" d="M923.64 514.52c0.46,-9.33 1.46,-18.69 2.92,-27.92 1.43,-9.22 3.13,-18.37 5.12,-27.45 1.99,-9.08 3.69,-18.23 6.65,-27.09 2.51,-9.02 5.51,-17.94 8.96,-26.63 -0.44,9.36 -1.48,18.69 -2.93,27.93 -1.43,9.22 -3.14,18.38 -5.11,27.46 -1.96,9.09 -4.23,18.13 -6.76,27.11 -2.46,8.96 -5.45,17.94 -8.83,26.6l-0.01 0z"/>
  </g>
 </g>
</svg>
