<?xml version="1.0" encoding="UTF-8"?>
<!DOCTYPE svg PUBLIC "-//W3C//DTD SVG 1.1//EN" "http://www.w3.org/Graphics/SVG/1.1/DTD/svg11.dtd">
<!-- Creator: CorelDRAW 2020 (64-Bit Evaluation Version) -->
<svg xmlns="http://www.w3.org/2000/svg" xml:space="preserve" width="42.3333mm" height="42.3333mm" version="1.1" style="shape-rendering:geometricPrecision; text-rendering:geometricPrecision; image-rendering:optimizeQuality; fill-rule:evenodd; clip-rule:evenodd"
viewBox="0 0 1193.64 1193.64"
 xmlns:xlink="http://www.w3.org/1999/xlink"
 xmlns:xodm="http://www.corel.com/coreldraw/odm/2003">
 <defs>
  <style type="text/css">
   <![CDATA[
    .fil0 {fill:none}
    .fil5 {fill:#592D3D;fill-rule:nonzero}
    .fil6 {fill:gray;fill-rule:nonzero}
    .fil3 {fill:#999999;fill-rule:nonzero}
    .fil1 {fill:#A56941;fill-rule:nonzero}
    .fil2 {fill:#B3B3B3;fill-rule:nonzero}
    .fil4 {fill:#CCCCCC;fill-rule:nonzero}
    .fil8 {fill:#D69AC7;fill-rule:nonzero}
    .fil7 {fill:white;fill-rule:nonzero}
   ]]>
  </style>
 </defs>
 <g id="Layer_x0020_1">
  <metadata id="CorelCorpID_0Corel-Layer"/>
  <rect class="fil0" x="-0" y="-0" width="1193.64" height="1193.64"/>
  <g id="_2596268273824">
   <path class="fil1" d="M187.7 735.76c0,-224.88 182.3,-407.18 407.18,-407.18 224.88,0 407.18,182.3 407.18,407.18 0,0.09 0,0.29 0,0.39 0,122.54 -55.37,238.68 -150.57,315.78 -8.36,6.79 -16.99,13.24 -25.87,19.36 -91.83,58.3 -207.84,58.3 -312.57,48.97 -10.16,-1.53 -20.3,-3.45 -30.36,-5.66 -40.19,-8.85 -79.1,-22.51 -115.05,-42.44 -8.88,-5.48 -17.5,-11.39 -25.84,-17.74 -8.37,-6.36 -16.44,-13.24 -24.1,-20.42 -7.28,-6.75 -14.3,-13.77 -21.07,-21.04 -69.94,-75.07 -108.93,-174.01 -108.93,-276.67 0,-0.15 0,-0.4 0,-0.55l0 0.01z"/>
   <path class="fil2" d="M758.64 233.06c0,-90.69 -73.52,-164.22 -164.22,-164.22 -90.69,0 -164.22,73.52 -164.22,164.22 0,90.69 73.52,164.22 164.22,164.22 90.7,0 164.22,-73.52 164.22,-164.22z"/>
   <path class="fil3" d="M457.19 323.26c29.31,44.63 39.49,5.33 134.63,5.33 163.65,0 112.38,38.16 141.49,-7.86 -42.11,-14.73 -67.16,-29.6 -134.52,-29.6 -64.57,0 -97.49,15.78 -141.59,32.13z"/>
   <path class="fil4" d="M187.7 735.76c0,-224.88 182.3,-407.18 407.18,-407.18 224.88,0 407.18,182.3 407.18,407.18 0,0.09 0,0.29 0,0.39 0,122.54 -55.37,238.68 -150.57,315.78 -8.36,6.79 -16.99,13.24 -25.87,19.36 -91.83,58.3 -207.84,58.3 -312.57,48.97 -10.16,-1.53 -20.3,-3.45 -30.36,-5.66 -40.19,-8.85 -79.1,-22.51 -115.05,-42.44 -8.88,-5.48 -17.5,-11.39 -25.84,-17.74 -8.37,-6.36 -16.44,-13.24 -24.1,-20.42 -7.28,-6.75 -14.3,-13.77 -21.07,-21.04 -69.94,-75.07 -108.93,-174.01 -108.93,-276.67 0,-0.15 0,-0.4 0,-0.55l0 0.01z"/>
   <path class="fil5" d="M178.54 735.76c0,-114.96 46.6,-219.05 121.94,-294.4 75.34,-75.34 179.43,-121.94 294.4,-121.94 114.96,0 219.05,46.6 294.4,121.94 75.34,75.34 121.94,179.43 121.94,294.4l0 0.39c0,62.65 -14.16,123.67 -40.48,178.88 -26.31,55.17 -64.8,104.56 -113.49,143.99 -4.19,3.4 -8.53,6.79 -13.02,10.15 -4.51,3.37 -8.98,6.59 -13.42,9.64l-0.28 0.21c-47.21,29.97 -100.48,44.94 -155.31,51.2 -54.22,6.19 -110.02,3.84 -162.95,-0.87l-0.57 -0.03c-4.88,-0.73 -10.08,-1.62 -15.54,-2.65 -5.63,-1.05 -10.76,-2.1 -15.43,-3.12 -20.36,-4.49 -40.52,-10.23 -60.26,-17.43 -19.67,-7.17 -38.83,-15.76 -57.26,-25.97l-0.36 -0.22c-9.21,-5.68 -18.08,-11.76 -26.59,-18.24l0.01 -0.02c-4.48,-3.41 -8.65,-6.75 -12.51,-10.02 -4.17,-3.53 -8.27,-7.2 -12.29,-10.96 -3.64,-3.37 -7.29,-6.88 -10.94,-10.53 -3.67,-3.67 -7.21,-7.33 -10.59,-10.97 -35.76,-38.39 -63.62,-82.89 -82.53,-130.92 -18.9,-48.01 -28.87,-99.53 -28.87,-151.97l0 -0.54zm134.89 -281.44c-72.02,72.03 -116.57,171.53 -116.58,281.43l0 0.55c0,50.19 9.52,99.45 27.58,145.32 18.07,45.9 44.69,88.43 78.88,125.12 3.38,3.63 6.74,7.13 10.09,10.47 3.36,3.36 6.87,6.73 10.51,10.11l0.04 0.04c3.75,3.51 7.62,6.97 11.61,10.35 4.06,3.44 7.99,6.61 11.74,9.46l0.03 0c8.08,6.15 16.36,11.84 24.82,17.07 17.49,9.69 35.74,17.87 54.52,24.71 18.74,6.83 38.14,12.34 57.97,16.71 5.39,1.19 10.36,2.21 14.85,3.05 4.66,0.87 9.62,1.71 14.9,2.5l0 0.01c51.63,4.58 106,6.85 158.73,0.82 52.31,-5.97 102.96,-20.16 147.58,-48.48l0.01 0.01c4.34,-2.99 8.53,-6 12.55,-9.01 4.13,-3.09 8.28,-6.33 12.45,-9.72 46.51,-37.66 83.3,-84.89 108.48,-137.69 25.16,-52.77 38.69,-111.1 38.69,-171.01l0 -0.39c0,-109.91 -44.55,-209.42 -116.58,-281.44 -72.02,-72.02 -171.53,-116.58 -281.44,-116.58 -109.91,0 -209.42,44.55 -281.44,116.58z"/>
   <path class="fil5" d="M749.48 233.06c0,-42.82 -17.35,-81.58 -45.41,-109.64 -28.06,-28.06 -66.83,-45.41 -109.64,-45.41 -42.82,0 -81.58,17.35 -109.64,45.41 -28.06,28.06 -45.41,66.83 -45.41,109.64 0,42.82 17.35,81.58 45.41,109.64 28.06,28.06 66.83,45.41 109.64,45.41 42.82,0 81.58,-17.35 109.64,-45.41 28.06,-28.06 45.41,-66.83 45.41,-109.64zm-32.46 -122.59c31.37,31.37 50.78,74.72 50.78,122.59 0,47.87 -19.41,91.22 -50.78,122.59 -31.37,31.37 -74.72,50.78 -122.59,50.78 -47.87,0 -91.22,-19.41 -122.59,-50.78 -31.37,-31.37 -50.78,-74.72 -50.78,-122.59 0,-47.87 19.41,-91.22 50.78,-122.59 31.37,-31.37 74.72,-50.78 122.59,-50.78 47.88,0 91.22,19.41 122.59,50.78z"/>
   <path class="fil6" d="M685.38 579.06c-19.64,36.63 -91.58,57.15 -97.43,47.96 -6.56,-10.27 57.76,-84.44 21.22,-162.02m76.21 114.06l0 0 0 0z"/>
   <path class="fil7" d="M474.01 177.98c4.21,-12.07 10.5,-23.31 18.59,-33.2 2.09,-2.42 4.15,-4.9 6.35,-7.24 2.2,-2.33 4.58,-4.58 6.91,-6.73 2.34,-2.15 4.9,-4.17 7.45,-6.11 2.55,-1.94 5.21,-3.81 7.89,-5.57 2.69,-1.75 5.5,-3.37 8.35,-4.87l4.31 -2.18c1.42,-0.76 2.89,-1.46 4.37,-2.07 3.05,-1.16 5.94,-2.47 8.99,-3.49 3.05,-1.02 6.1,-2.02 9.16,-2.76 9.02,-2.33 18.33,-3.54 27.65,-3.54 3.43,0 6.88,0.17 10.29,0.48 -12.44,1.2 -24.77,3.77 -36.64,7.62 -1.53,0.4 -2.9,1.07 -4.35,1.53l-4.35 1.53c-2.87,1.11 -5.63,2.52 -8.46,3.74 -2.82,1.22 -5.46,2.83 -8.21,4.23 -2.75,1.4 -5.25,3.19 -7.89,4.76 -2.64,1.57 -5.08,3.48 -7.63,5.21 -2.55,1.73 -4.81,3.85 -7.27,5.72 -2.46,1.88 -4.58,4.09 -6.91,6.1l-6.53 6.58c-8.43,9.23 -15.87,19.4 -22.06,30.24l-0 0z"/>
   <path class="fil2" d="M475.08 345.85c-131.83,44.36 -240.78,155.97 -269.36,282.76 -48.94,193.16 27.22,311.7 94.81,384.36 6.67,7.17 -106.03,-211.05 -3.71,-367.87 93.27,-3.54 232.66,-21.95 298.85,-95.95 -6.62,32.25 -25.22,56.87 -22.16,61.73 4.4,6.88 58.3,-8.44 73.03,-35.93l1.27 -5.51c53,19.2 140.07,40.59 219.81,10.09 187.97,211.11 19.26,444.75 33.02,429.48 67.73,-74.58 105.32,-171.91 105.32,-272.7 0,-0.15 0,-0.39 0,-0.54 0,-131.92 -67.59,-227.27 -67.59,-227.27 -46.59,-83.04 -127.49,-140.22 -221.03,-166.54m-242.25 3.91l0 0 0 0z"/>
   <path class="fil3" d="M330.28 643.23c8.21,-79.71 38.16,-171.73 98.76,-277.66l0 0c-4.14,1.91 -8.24,3.89 -12.3,5.92l-0.9 0.44c-1.86,0.93 -3.72,1.89 -5.57,2.87l-1.53 0.81c-5.74,3.05 -11.4,6.22 -16.99,9.51l-1.37 0.81c-1.77,1.05 -3.52,2.12 -5.28,3.21l-1.31 0.82c-5.47,3.41 -10.84,6.94 -16.12,10.58l-1.65 1.14c-1.65,1.16 -3.3,2.32 -4.93,3.5l-0.99 0.72c-3.33,2.43 -6.62,4.89 -9.88,7.39l-0.95 0.73c-1.53,1.19 -3.05,2.41 -4.58,3.65l-1.8 1.44c-1.53,1.23 -3.05,2.47 -4.58,3.74l0 0c-3.22,2.67 -6.38,5.42 -9.52,8.2l-1.74 1.53 -4.11 3.74 -2.02 1.8c-4.35,4.07 -8.6,8.23 -12.78,12.47l-2.09 2.15c-1.22,1.25 -2.43,2.5 -3.62,3.77l-2.09 2.26c-2.09,2.28 -4.15,4.55 -6.18,6.82 -0.7,0.78 -1.4,1.53 -2.09,2.35 -1.08,1.24 -2.15,2.49 -3.22,3.76 -0.78,0.9 -1.53,1.8 -2.3,2.72 -1.04,1.23 -2.08,2.47 -3.05,3.72 -0.82,1.01 -1.63,2.03 -2.46,3.05 -1.62,2.03 -3.22,4.06 -4.81,6.11 -0.84,1.07 -1.66,2.14 -2.47,3.22 -0.81,1.08 -1.83,2.43 -2.73,3.66l-2.43 3.33c-0.85,1.19 -1.73,2.37 -2.56,3.56 -1.44,2.04 -2.87,4.11 -4.27,6.18 -0.76,1.12 -1.53,2.26 -2.26,3.39 -0.73,1.13 -1.69,2.53 -2.52,3.82 -0.82,1.28 -1.53,2.35 -2.26,3.52 -0.73,1.18 -1.73,2.75 -2.58,4.14 -0.66,1.05 -1.31,2.11 -1.95,3.16 -1.34,2.23 -2.66,4.47 -3.97,6.72 -0.64,1.1 -1.25,2.2 -1.88,3.3 -0.82,1.45 -1.65,2.92 -2.46,4.38 -0.61,1.11 -1.22,2.23 -1.82,3.34 -0.98,1.82 -1.94,3.65 -2.88,5.48 -0.63,1.19 -1.24,2.38 -1.85,3.57 -0.98,1.95 -1.95,3.89 -2.9,5.86 -0.52,1.05 -1.02,2.12 -1.53,3.19 -0.8,1.66 -1.53,3.34 -2.35,5.02l-1.39 3.05c-1.13,2.51 -2.24,5.06 -3.31,7.63 -0.34,0.79 -0.66,1.6 -0.99,2.4 -0.81,1.94 -1.53,3.88 -2.38,5.83 -0.39,1.02 -0.81,2.04 -1.2,3.05 -0.75,1.93 -1.53,3.86 -2.21,5.8l-0.93 2.52c-1.02,2.68 -1.96,5.35 -2.84,8.03l-0.86 2.6c-0.67,2.04 -1.33,4.07 -1.97,6.1 -0.3,0.96 -0.61,1.94 -0.9,2.92 -0.73,2.35 -1.44,4.71 -2.11,7.07 -0.15,0.5 -0.3,1.01 -0.44,1.53 -0.79,2.81 -1.56,5.63 -2.29,8.46l-0.69 2.72c-0.29,1.13 -0.56,2.28 -0.84,3.42 -2.38,10.21 -4.4,20.19 -6.1,29.98 -0.16,0.99 -0.34,1.99 -0.49,2.98l-0.37 2.3c-0.46,2.99 -0.87,5.99 -1.25,8.99 -0.09,0.66 -0.17,1.33 -0.25,1.99 -0.3,2.42 -0.58,4.87 -0.84,7.31l-0.27 2.76c-0.26,2.56 -0.49,5.14 -0.69,7.72l-0.14 1.53c-0.23,3.05 -0.43,6.13 -0.58,9.23 0,0.81 -0.08,1.64 -0.12,2.44 -0.11,2.4 -0.2,4.8 -0.27,7.19 0,0.9 0,1.8 -0.08,2.7 0,3.13 -0.11,6.27 -0.11,9.42l0 0.15c0,3.37 0.04,6.74 0.12,10.11 0,1.16 0.09,2.32 0.12,3.48 0.08,2.24 0.15,4.49 0.26,6.73 0.08,1.36 0.17,2.7 0.24,4.06 0.12,2.03 0.25,4.06 0.38,6.1 0.1,1.53 0.24,2.88 0.36,4.32 0.17,1.92 0.32,3.85 0.52,5.75 0.14,1.53 0.32,2.96 0.47,4.44 0.21,1.85 0.41,3.71 0.64,5.56 0.18,1.53 0.4,3.05 0.59,4.5 0.24,1.8 0.5,3.62 0.76,5.42 0.23,1.53 0.47,3.05 0.72,4.58 0.29,1.77 0.56,3.56 0.89,5.33 0.26,1.53 0.53,3.05 0.82,4.58 0.32,1.76 0.66,3.51 1.01,5.25 0.35,1.74 0.61,3.05 0.93,4.58 0.37,1.74 0.73,3.47 1.13,5.19 0.4,1.73 0.69,3.05 1.04,4.47 0.39,1.72 0.82,3.43 1.25,5.13 0.43,1.69 0.75,2.97 1.14,4.44 0.44,1.71 0.9,3.4 1.37,5.1 0.41,1.53 0.81,2.93 1.23,4.38 0.49,1.69 0.99,3.37 1.53,5.05 0.53,1.68 0.87,2.88 1.33,4.33 0.46,1.45 1.08,3.34 1.63,5.01 0.47,1.42 0.93,2.85 1.42,4.27l1.76 4.99 1.53 4.18c0.63,1.67 1.27,3.33 1.91,4.99 0.52,1.36 1.04,2.73 1.53,4.09 0.67,1.66 1.36,3.34 2.05,5 0.55,1.31 1.08,2.64 1.65,3.95 0.73,1.71 1.53,3.39 2.23,5.08 0.55,1.27 1.1,2.52 1.66,3.77 0.79,1.77 1.63,3.51 2.46,5.25 0.55,1.17 1.08,2.35 1.65,3.51 0.92,1.92 1.88,3.81 2.84,5.72l1.45 2.9c2.93,5.71 5.99,11.34 9.16,16.9 0.55,0.95 1.11,1.88 1.66,2.81 1.07,1.83 2.12,3.67 3.22,5.47 0.67,1.1 1.36,2.17 2.03,3.27 1.01,1.63 2.02,3.27 3.05,4.87 0.73,1.16 1.53,2.29 2.24,3.42 0.99,1.53 2,3.05 3.05,4.58 0.78,1.16 1.53,2.32 2.38,3.48 1.01,1.53 2.01,2.93 3.05,4.4 0.82,1.18 1.68,2.33 2.52,3.51 0.84,1.18 2.04,2.83 3.05,4.23 1.01,1.4 1.75,2.33 2.63,3.5l3.16 4.12c0.9,1.16 1.82,2.31 2.73,3.45 0.92,1.14 2.15,2.69 3.24,4.02 1.08,1.33 1.88,2.27 2.83,3.4 0.94,1.13 2.2,2.63 3.31,3.92 1.12,1.3 1.94,2.24 2.92,3.36l3.39 3.82c0.99,1.11 2,2.2 3.05,3.3l1.75 1.91c4.43,2.93 -105.19,-212.64 -3.83,-368 10.56,-0.61 21.71,-1.2 33.4,-2.06z"/>
   <path class="fil3" d="M835.96 550.96c0,0 -3.21,31.77 -77.28,43.08 35.28,2.44 72.87,-0.7 108.96,-14.52 4.92,5.51 -31.67,-28.56 -31.67,-28.56z"/>
   <path class="fil5" d="M477.98 354.5c-64.96,21.86 -124.26,60.42 -170.7,109.18 -45.66,47.94 -78.84,105.65 -92.64,166.93l-0.04 0.21c-23.98,94.65 -17.37,170.85 3.49,232.21 13.9,40.89 34.16,75.3 55.93,104.24 -24.8,-73.51 -58.01,-215.02 15.15,-327.16l2.59 -3.97 4.75 -0.18c53.2,-2.02 121.53,-8.92 182.2,-28.4 43.74,-14.04 83.4,-34.59 110.17,-64.51l22.54 -25.2 -6.8 33.11c-3.96,19.29 -11.7,35.51 -17.19,47.03 -1.36,2.85 -3.12,4.32 -4.45,5.3 2.31,-0.46 5.44,-1.25 9.11,-2.3 8.79,-2.52 19.13,-6.83 28.16,-12.6 7.46,-4.76 13.94,-10.43 17.66,-16.73l3.3 -14.34 9.71 3.52c25.95,9.4 60.22,19.34 97.69,23.18 37.1,3.8 77.37,1.62 115.75,-13.05l5.88 -2.25 4.2 4.72c118.77,133.39 98.84,275.31 69.31,361.02 10.24,-17.74 19.07,-36.22 26.42,-55.28 17.44,-45.16 26.62,-93.57 26.62,-142.88l0 -0.54c0,-129.07 -65.72,-221.78 -65.91,-222.05l-0.4 -0.57 -0.1 -0.18c-22.18,-39.53 -52.38,-73.05 -88.13,-99.99 -37.35,-28.14 -80.75,-49.1 -127.39,-62.22l4.94 -17.6c48.82,13.73 94.29,35.7 133.47,65.22 37.67,28.38 69.53,63.74 92.97,105.48 5.64,8.2 68.86,102.97 68.86,231.91l0 0.54c0,51.48 -9.62,102.12 -27.91,149.47 -18.27,47.3 -45.18,91.24 -79.78,129.35l-2.17 2.41c-6.98,10.46 -14.59,18.07 -20.97,22.51 -15.09,15.38 -17.9,15.24 -12.97,3.97 -4.29,-2.7 -0.45,-15.03 20.16,-38.47l2.96 -5.4c18.49,-33.67 126.04,-229.61 -29.61,-409.85 -39.5,13.82 -80.38,15.79 -118.08,11.92 -35.12,-3.6 -67.45,-12.27 -93.23,-21.08 -5.34,8.93 -13.88,16.55 -23.46,22.66 -10.71,6.84 -22.79,11.9 -32.96,14.81 -11.63,3.34 -21.97,3.81 -26.92,1.16 -1.82,-0.97 -3.28,-2.3 -4.36,-3.98l-0.04 -0.04c-4.03,-6.41 -0.32,-14.19 5.12,-25.61 1.49,-3.13 3.16,-6.63 4.87,-10.44 -25.99,19.74 -57.66,34.41 -91.48,45.27 -60.73,19.5 -128.55,26.76 -182.3,29.06 -82.34,131.83 -11.74,307.61 4.23,347.34 3.61,8.98 5.61,13.99 0.81,18.46 -4.52,4.25 -8.85,4.03 -13.18,-0.63 -34.49,-37.08 -71.19,-85.92 -93.07,-150.29 -21.88,-64.36 -28.88,-144.01 -3.92,-242.52l0.01 0.01c14.59,-64.52 49.37,-125.12 97.18,-175.3 48.44,-50.85 110.32,-91.08 178.14,-113.9l5.79 17.32z"/>
   <path class="fil8" d="M865.06 577.3c0,0 -16.35,-21.83 -61.64,-47.32m61.64 47.32l0 0 0 0z"/>
   <path class="fil5" d="M857.64 582.78l-2.7 -2.92 -3.05 -3.23c-2.12,-2.15 -4.3,-4.35 -6.52,-6.49 -4.46,-4.31 -9.08,-8.58 -13.74,-12.82 -4.66,-4.24 -9.62,-8.31 -14.39,-12.7 -2.38,-2.2 -4.78,-4.44 -7.07,-6.9 -2.41,-2.43 -4.66,-5.04 -6.7,-7.79 3.42,0.42 6.83,1.11 10.15,2.05 3.22,0.96 6.43,2.11 9.52,3.41 3.05,1.36 6.11,2.79 9.02,4.44 2.92,1.65 5.86,3.25 8.73,5.02 5.76,3.51 11.32,7.47 16.53,11.74 2.61,2.21 5.24,4.44 7.63,6.92 1.25,1.21 2.46,2.49 3.65,3.81 0.59,0.69 1.19,1.33 1.77,2.06 0.58,0.73 1.1,1.36 1.86,2.43l-14.7 10.97z"/>
   <path class="fil7" d="M625.58 352.89c-21.7,1.2 -43.46,3.73 -64.88,7.49 -5.33,1.04 -10.69,2.17 -15.94,3.15 -5.25,0.98 -10.53,2.46 -15.8,3.68l-15.68 4.15c-5.17,1.53 -10.32,3.17 -15.48,4.75 -20.52,6.61 -40.68,14.71 -60.16,24.04 -19.56,9.49 -38.67,20.3 -56.87,32.09 16.26,-14.84 34.31,-27.8 53.56,-38.4 19.23,-10.77 39.69,-19.64 60.68,-26.39 5.3,-1.53 10.58,-3.17 15.91,-4.66 5.33,-1.48 10.69,-2.78 16.09,-3.95 5.41,-1.18 10.84,-2.15 16.27,-3.05 5.43,-0.9 10.91,-1.65 16.39,-2.32 11.73,-1.45 23.59,-2.19 35.41,-2.19 10.16,0 20.4,0.56 30.49,1.62l-0.01 -0.01z"/>
   <path class="fil5" d="M640.41 329.47c7.71,-1.84 15.65,-2.83 23.57,-2.93 3.91,-0.09 7.8,0 11.71,0.2 3.91,0.2 7.82,0.46 11.72,0.8 7.83,0.68 15.71,1.79 23.44,3.34 7.81,1.52 15.54,3.7 23,6.48l-5.95 17.32c-7.04,-2.11 -14.1,-4.24 -21.28,-6.21 -7.17,-1.97 -14.43,-3.83 -21.75,-5.66l-11.07 -2.69c-3.71,-0.87 -7.44,-1.76 -11.14,-2.76 -7.63,-1.92 -15.1,-4.6 -22.26,-7.89l0.01 0.01z"/>
   <path class="fil5" d="M461.24 341.16c6.75,-2.62 13.75,-4.75 20.83,-6.33 7.05,-1.62 14.24,-2.89 21.38,-3.74 3.57,-0.43 7.14,-0.81 10.69,-1.08 3.54,-0.27 7.16,-0.5 10.68,-0.52 0.42,0 0.89,-0.01 1.33,-0.01 6.88,0 13.76,0.82 20.45,2.42 -6.39,3.39 -13.14,6.23 -20.04,8.4 -3.34,1.11 -6.7,2.09 -10.06,3.05l-10 2.94c-6.63,2.02 -13.24,3.97 -19.75,6.11 -6.52,2.14 -13.01,4.15 -19.53,6.1l-5.98 -17.34z"/>
   <path class="fil5" d="M625.56 328.58c0,-4.92 -3.99,-8.92 -8.91,-8.92 -4.92,0 -8.92,3.99 -8.92,8.92 0,4.92 3.99,8.92 8.92,8.92 4.92,0 8.91,-3.99 8.91,-8.92z"/>
   <path class="fil5" d="M598.11 328.58c0,-3.48 -2.82,-6.3 -6.3,-6.3 -3.48,0 -6.3,2.82 -6.3,6.3 0,3.48 2.82,6.3 6.3,6.3 3.48,0 6.3,-2.82 6.3,-6.3z"/>
  </g>
 </g>
</svg>
