<?xml version="1.0" encoding="UTF-8"?>
<!DOCTYPE svg PUBLIC "-//W3C//DTD SVG 1.1//EN" "http://www.w3.org/Graphics/SVG/1.1/DTD/svg11.dtd">
<!-- Creator: CorelDRAW 2020 (64-Bit Evaluation Version) -->
<svg xmlns="http://www.w3.org/2000/svg" xml:space="preserve" width="42.3333mm" height="42.3333mm" version="1.1" style="shape-rendering:geometricPrecision; text-rendering:geometricPrecision; image-rendering:optimizeQuality; fill-rule:evenodd; clip-rule:evenodd"
viewBox="0 0 1193.64 1193.64"
 xmlns:xlink="http://www.w3.org/1999/xlink"
 xmlns:xodm="http://www.corel.com/coreldraw/odm/2003">
 <defs>
  <style type="text/css">
   <![CDATA[
    .fil0 {fill:none}
    .fil1 {fill:#1A1A1A;fill-rule:nonzero}
    .fil4 {fill:#592D3D;fill-rule:nonzero}
    .fil3 {fill:#999999;fill-rule:nonzero}
    .fil2 {fill:#CCCCCC;fill-rule:nonzero}
   ]]>
  </style>
 </defs>
 <g id="Layer_x0020_1">
  <metadata id="CorelCorpID_0Corel-Layer"/>
  <rect class="fil0" x="-0" y="-0" width="1193.64" height="1193.64"/>
  <g id="_1748696293168">
   <path class="fil1" d="M1108.58 907.81c0,0 0.53,-5.22 1.42,-14.63 -11.86,-250.98 -219.12,-450.82 -473,-450.82 -261.54,0 -473.56,212.03 -473.56,473.56 0,12.93 0.55,25.73 1.58,38.4 21.5,-69.81 286.39,-138.38 529.82,-236.26 176.06,113.07 413.74,189.74 413.74,189.74z"/>
   <path class="fil2" d="M1077.18 318.82l0 0c-112.36,-157.82 -855.59,-123.97 -965.38,-14.15 -118.84,118.84 51.8,623.13 51.8,623.13 0,-72.96 284.64,-146.12 538.58,-248.24 176.06,113.07 406.4,192.69 406.4,192.69 0,0 49.64,-472.38 -31.41,-553.44z"/>
   <path class="fil3" d="M832.4 310.71c-64.98,-7.1 -327.21,-2.56 -572.45,45.54 -31.33,5.72 -62.81,13.54 -93.36,22.82 -7.55,2.43 -15.07,4.9 -22.4,7.69 -7.33,2.79 -14.63,5.64 -21.62,8.88 -6.9,3.08 -13.7,6.64 -20.18,10.51 -6.28,3.83 -19.26,15.64 -23.98,20.22l-12.96 -27.62c6.61,-6.45 14,-12.2 21.9,-17.02 7.41,-4.56 15.14,-8.71 23.08,-12.29 15.32,-6.99 31.36,-13.03 47.49,-17.94 31.59,-9.53 64.13,-17.32 96.78,-22.91 32.49,-5.81 65.14,-10.14 97.82,-13.67 32.68,-3.53 63.56,-14.1 96.33,-15.76 178.57,-7.04 351.84,3.63 383.57,11.57z"/>
   <path class="fil3" d="M83.41 596.62c6.16,-2.52 12.07,-4.88 18.11,-7.23 6.04,-2.34 12.04,-4.63 18.07,-6.87 12.05,-4.56 24.18,-8.88 36.31,-13.07 24.29,-8.39 48.7,-16.36 73.25,-23.91 12.27,-3.8 24.53,-7.55 36.89,-11.04l18.5 -5.32c6.16,-1.78 12.32,-3.55 18.54,-5.2l37.17 -9.93 37.28 -9.32c49.99,-11.86 232.12,-64.27 283.22,-68.14 -12.43,3.19 -298.61,97.32 -313.77,101.88l-36.62 10.95c-24.34,7.36 -48.61,15 -72.79,22.92 -12.12,3.83 -24.14,7.93 -36.18,12 -12.04,4.07 -24.04,8.26 -36.04,12.43l-17.93 6.41c-6,2.09 -11.97,4.25 -17.9,6.46l-17.75 6.59c-5.89,2.19 -11.88,4.47 -17.57,6.71l-10.78 -26.33z"/>
   <path class="fil3" d="M1012.84 508.46c-70.87,64.18 -182.06,118.95 -300.88,167.22l29.31 28.02 0 0c0,0 178.38,-70.94 271.57,-195.23z"/>
   <path class="fil3" d="M130.07 839.91c0.03,-3.25 0.42,-6.49 1.17,-9.64 0.75,-2.99 1.8,-5.91 3.11,-8.69 2.47,-5.11 5.63,-9.91 9.33,-14.21 6.83,-7.82 14.59,-14.81 23.08,-20.77 16.05,-11.22 33.15,-21.22 50.83,-29.7 34.74,-17.2 70.43,-31.25 106.16,-44.86 35.74,-13.62 71.72,-26.31 107.66,-39.06 35.93,-12.74 72.02,-25.12 107.95,-37.78 71.76,-25.3 141.67,-55.57 211.63,-85.13 17.5,-7.35 166.56,-97.04 182.36,-107.71 -14.77,12.07 -119.89,89.67 -177.21,119.34 -69.41,31.96 -139.24,63.63 -210.62,90.45 -35.74,13.31 -71.53,26.4 -107.28,39.5 -35.75,13.1 -71.49,26.12 -106.86,39.87 -17.75,6.89 -35.26,13.94 -52.66,21.31 -17.4,7.37 -34.64,15.02 -51.39,23.34 -16.6,7.97 -32.66,17.36 -47.82,27.89 -7.09,4.98 -13.63,10.78 -19.41,17.21 -5.33,6.19 -14.1,19.97 -14.06,25.79l-15.98 -7.16z"/>
   <path class="fil4" d="M698.2 669.74c28.58,-11.88 57.15,-23.74 85.43,-36.14l10.65 -4.63 10.56 -4.74 10.65 -4.72 10.49 -4.9 10.51 -4.85c3.55,-1.62 6.96,-3.34 10.44,-4.99 6.94,-3.36 13.9,-6.66 20.76,-10.19 27.62,-13.73 54.58,-28.61 80.88,-44.65 26.38,-15.91 52.12,-33.68 76.37,-52.75 -2.56,2.95 -5.08,5.93 -7.71,8.88 -2.63,2.95 -5.15,5.91 -7.97,8.59 -5.54,5.52 -11.04,11.17 -16.95,16.28 -2.91,2.64 -5.88,5.19 -8.88,7.79 -3,2.61 -6.05,4.97 -9.09,7.47 -3.03,2.5 -6.12,4.9 -9.23,7.3l-9.44 7.1c-25.55,18.12 -52.21,34.95 -79.65,49.93 -6.82,3.87 -13.74,7.51 -20.65,11.17 -6.91,3.66 -13.85,7.28 -20.84,10.79l-10.47 5.33 -10.65 5.1c-7.1,3.39 -14.06,6.82 -21.18,10.01 -28.42,13.12 -57.14,25.36 -86.16,36.71l-7.87 -19.88z"/>
   <path class="fil4" d="M1114.71 793.59c-2.52,-0.41 -4.81,-0.82 -7.1,-1.28 -2.29,-0.46 -4.67,-0.94 -7,-1.46 -4.65,-0.98 -9.23,-2.15 -13.83,-3.3 -9.16,-2.37 -18.24,-4.99 -27.23,-7.86 -17.9,-5.67 -35.74,-12.44 -52.98,-19.89 -17.24,-7.38 -34.25,-15.82 -50.67,-24.92 -16.4,-9.18 -32.18,-19.67 -46.97,-31.2 4.3,1.93 8.56,3.89 12.76,5.95 4.21,2.06 8.34,4.15 12.64,6.02 8.47,3.87 16.81,7.97 25.35,11.63 16.88,7.76 33.99,14.86 51.34,21.3l13.01 4.81 13.12 4.55c8.77,2.93 17.57,5.72 26.43,8.29 8.86,2.57 17.75,5.02 26.63,7.33l6.69 1.62c2.24,0.57 4.47,1.1 6.71,1.58 4.44,1.01 9.02,2.02 13.3,2.82l-2.22 14.02z"/>
   <path class="fil4" d="M841.81 312.32c-64.78,-8.19 -129.81,-11.75 -194.82,-12.75 -65.01,-0.99 -130.04,0.76 -194.81,5.59 -32.38,2.36 -64.71,5.47 -96.9,9.5 -32.19,4.03 -64.23,8.88 -95.97,14.84 -31.51,5.8 -63.14,13.58 -93.83,22.83 -15.03,4.57 -29.99,10.25 -44.36,16.74 -7.02,3.14 -13.94,6.76 -20.55,10.71 -6.28,3.75 -12.17,8.19 -17.48,13.22l-15.07 -15c6.44,-6.26 13.62,-11.81 21.31,-16.48 7.28,-4.46 14.96,-8.55 22.75,-12.07 15.23,-6.86 31.06,-12.84 47.04,-17.74 31.5,-9.54 63.75,-17.28 96.3,-22.93 64.8,-11.59 130.15,-18.09 195.59,-21.61 33.29,-1.55 67.56,-2.71 101.14,-2.71 31.73,0 63.69,0.93 95.19,2.31 16.33,0.94 32.67,2.06 48.98,3.45 16.31,1.38 32.58,3.16 48.8,5.2 32.43,3.92 64.78,9.69 96.66,16.86l0.03 0.03z"/>
   <path class="fil4" d="M122.25 826.03c0.02,-3.21 0.41,-6.41 1.14,-9.53 0.73,-2.97 1.75,-5.87 3.04,-8.65 2.42,-5.1 5.53,-9.9 9.19,-14.2 6.76,-7.8 14.45,-14.78 22.89,-20.73 15.92,-11.19 32.89,-21.15 50.4,-29.61 34.46,-17.13 69.86,-31.1 105.31,-44.63 35.45,-13.53 71.16,-26.17 106.82,-38.81 35.67,-12.64 71.38,-24.85 106.96,-37.55 71.21,-25.16 142.02,-51.34 211.39,-80.76 17.36,-7.33 34.61,-14.93 51.73,-22.8 17.13,-7.87 34.37,-15.47 50.93,-24.48 16.83,-8.48 33.4,-17.41 49.71,-26.77 16.31,-9.36 32.88,-18.29 48.08,-29.95 -14.65,11.98 -30.07,23.08 -45.82,33.57 -15.75,10.49 -31.95,20.5 -48.36,29.98 -16.4,9.48 -33.07,18.41 -49.94,27.09 -16.87,8.68 -34,16.88 -51.17,24.86 -68.86,31.95 -139.54,59.4 -210.38,86.09 -35.5,13.24 -71.01,26.24 -106.43,39.27 -35.42,13.03 -70.92,25.95 -106.02,39.64 -17.52,6.83 -34.97,13.87 -52.21,21.21 -17.24,7.35 -34.35,14.93 -50.97,23.22 -16.48,7.9 -32.28,17.24 -47.25,27.73 -7.03,4.95 -13.46,10.72 -19.16,17.12 -5.33,6.16 -8.61,12.78 -8.57,18.61l-21.31 0.08z"/>
   <path class="fil4" d="M76.86 580.84c24,-9.85 48.09,-18.45 72.33,-27.07 24.23,-8.63 48.61,-16.44 73.11,-24.02 49,-15.12 98.37,-29.05 148.15,-41.24 49.78,-12.2 99.68,-23.5 150.19,-32.51l18.89 -3.43 9.46 -1.77 9.48 -1.51 37.97 -5.59c12.66,-1.95 25.39,-3.41 38.1,-4.86 12.71,-1.45 25.44,-2.84 38.17,-4.1 -12.47,2.89 -24.96,5.68 -37.44,8.4 -12.43,2.75 -25.01,5.22 -37.42,8.22 -24.86,5.72 -49.83,11.04 -74.57,17.15 -49.71,11.43 -99.11,23.96 -148.2,37.58l-36.8 10.28 -36.68 10.78c-24.39,7.31 -48.71,14.84 -72.91,22.74 -12.14,3.82 -24.2,7.92 -36.25,11.97 -12.05,4.05 -24.09,8.2 -36.13,12.32 -23.93,8.43 -47.93,17.2 -71.35,26.33l-8.1 -19.65z"/>
   <path class="fil4" d="M1068.52 324.98c-2.84,-3.98 -6.14,-7.85 -9.88,-11.58 -67.01,-66.99 -264.94,-93.56 -463.49,-91.42 -199.07,2.15 -397.57,33.22 -465.31,81.45 -4.06,2.89 -7.58,5.81 -10.51,8.74l0 0.04c-98.47,98.47 13,481.48 45.8,585.82 39.16,-48.46 168.12,-94.6 318.31,-148.33 69.61,-24.91 143.88,-51.48 214.78,-79.98l5.08 -2.04 4.61 2.96c150.7,96.79 341.01,168.78 391.42,187.07 7.32,-77.02 40.03,-461.63 -29.7,-531.37l-0.61 -0.61 -0.51 -0.72zm5.1 -26.65c4.46,4.46 8.43,9.08 11.88,13.88 83.49,86.88 33.79,559.76 33.65,561.13l-1.38 13.36 -12.68 -4.41c-0.66,-0.23 -227.56,-78.67 -404.02,-190.83 -70.74,28.3 -142.81,54.08 -210.46,78.29 -172.86,61.84 -316.35,113.18 -316.35,158.06l0 65.21 -20.72 -61.84c-0.49,-1.47 -172.79,-510.51 -49.26,-634.04l0.02 0.02c3.81,-3.81 8.24,-7.49 13.24,-11.06 71.09,-50.61 274.61,-83.17 477.45,-85.36 203.35,-2.19 407.24,26.2 478.64,97.58z"/>
  </g>
 </g>
</svg>
