<?xml version="1.0" encoding="UTF-8"?>
<!DOCTYPE svg PUBLIC "-//W3C//DTD SVG 1.1//EN" "http://www.w3.org/Graphics/SVG/1.1/DTD/svg11.dtd">
<!-- Creator: CorelDRAW 2020 (64-Bit Evaluation Version) -->
<svg xmlns="http://www.w3.org/2000/svg" xml:space="preserve" width="42.3333mm" height="42.3333mm" version="1.1" style="shape-rendering:geometricPrecision; text-rendering:geometricPrecision; image-rendering:optimizeQuality; fill-rule:evenodd; clip-rule:evenodd"
viewBox="0 0 1193.64 1193.64"
 xmlns:xlink="http://www.w3.org/1999/xlink"
 xmlns:xodm="http://www.corel.com/coreldraw/odm/2003">
 <defs>
  <style type="text/css">
   <![CDATA[
    .fil0 {fill:none}
    .fil3 {fill:#592D3D;fill-rule:nonzero}
    .fil2 {fill:#999999;fill-rule:nonzero}
    .fil4 {fill:#B3B3B3;fill-rule:nonzero}
    .fil1 {fill:#CCCCCC;fill-rule:nonzero}
    .fil5 {fill:white;fill-rule:nonzero}
   ]]>
  </style>
 </defs>
 <g id="Layer_x0020_1">
  <metadata id="CorelCorpID_0Corel-Layer"/>
  <rect class="fil0" x="-0" y="-0" width="1193.64" height="1193.64"/>
  <g id="_1748798102560">
   <path class="fil1" d="M663.27 339.33c0,-47.22 -38.28,-85.5 -85.5,-85.5 -47.22,0 -85.49,38.28 -85.49,85.5 0,47.22 38.28,85.49 85.49,85.49 47.22,0 85.5,-38.28 85.5,-85.49z"/>
   <path class="fil2" d="M577.77 424.82c0.01,0 0.03,0 0.04,0 47.2,0 85.48,-38.28 85.48,-85.48 0,-5.95 -0.63,-11.91 -1.86,-17.72 -55.43,-8.59 -112.9,-3.6 -168.85,10.8 -0.18,2.27 -0.31,4.56 -0.31,6.88 0,-0 0,0.02 0,0.02 0,47.21 38.28,85.49 85.49,85.49 0,0 0,0 0,0l0 0z"/>
   <path class="fil3" d="M652.46 339.33c0,-20.63 -8.36,-39.3 -21.88,-52.82 -13.51,-13.51 -32.19,-21.87 -52.81,-21.87 -20.63,0 -39.3,8.36 -52.81,21.87 -13.52,13.52 -21.88,32.19 -21.88,52.82 0,20.63 8.36,39.3 21.88,52.81 13.51,13.51 32.19,21.87 52.81,21.87 20.63,0 39.3,-8.36 52.81,-21.87 13.52,-13.51 21.88,-32.19 21.88,-52.81zm-6.6 -68.09c17.43,17.43 28.2,41.5 28.2,68.09 0,26.59 -10.78,50.67 -28.2,68.09 -17.43,17.43 -41.5,28.21 -68.09,28.21 -26.59,0 -50.67,-10.78 -68.09,-28.21 -17.43,-17.43 -28.2,-41.5 -28.2,-68.09 0,-26.59 10.78,-50.67 28.2,-68.09 17.43,-17.43 41.51,-28.21 68.09,-28.21 26.59,0 50.67,10.78 68.09,28.21z"/>
   <path class="fil1" d="M125.48 818.28c0,-0.06 0,-0.23 0,-0.28 0,-34.71 3.98,-69.42 11.76,-103.24 1.56,-6.68 3.26,-13.29 5.08,-19.83 5.22,-58.16 36.01,-106.13 77.18,-148.97 8.57,-6.86 10.28,-22.27 18.85,-30.84 29.14,-25.7 54.83,-51.41 87.39,-72.03 133.64,-85.67 310.13,-131.93 452.35,-53.12 29.12,15.41 61.67,23.98 85.66,44.55 46.28,39.4 78.81,85.68 125.09,123.36 41.11,34.21 47.97,89.1 62.56,136.97 1.84,6.53 3.52,13.13 5.06,19.81 7.8,33.84 11.78,68.55 11.78,103.26 0,0.06 0,0.22 0,0.28l-942.74 0.07z"/>
   <path class="fil4" d="M157.75 634.6c-8.3,19.15 -13.54,39.55 -15.44,60.33 -1.82,6.54 -3.5,13.14 -5.05,19.82 -7.8,33.84 -11.77,68.55 -11.77,103.25 0,0.06 0,0.23 0,0.28l360.22 0c37.96,-2.98 76.69,-4.44 114.87,-4.44 38.19,0 76.92,1.45 114.93,4.36l352.72 0.07c0,-0.06 0,-0.23 0,-0.28 0,-34.71 -3.98,-69.42 -11.76,-103.24 -1.56,-6.68 -3.25,-13.29 -5.08,-19.83 -6.23,-20.47 -11.08,-42.21 -17.76,-63.02 -291.51,-107.86 -586.29,-105.57 -875.88,2.68z"/>
   <path class="fil2" d="M137.26 714.75c-7.8,33.84 -11.77,68.55 -11.77,103.25 0,0.06 0,0.23 0,0.28l149.45 0c-2.81,-145.24 -40.08,-266.53 148.99,-414.39 -135.63,51.48 -259.21,164.55 -286.67,310.85z"/>
   <path class="fil3" d="M114.72 818.28l0 -0.28 -0.04 0c0,-17.63 1.02,-35.35 3.04,-53.06 2.01,-17.67 5.02,-35.23 9.02,-52.58l0 -0.04c0.57,-2.44 1.41,-5.83 2.53,-10.18 0.88,-3.43 1.69,-6.51 2.44,-9.22 2.88,-30.3 12.28,-57.88 26.28,-83.4 13.98,-25.5 32.54,-48.95 53.75,-71.02l0.35 -0.37 0.7 -0.56c2.39,-1.91 4.46,-6.58 6.59,-11.37 2.91,-6.56 5.89,-13.27 11.33,-18.71l0.51 -0.42c6.7,-5.91 12.62,-11.27 18.49,-16.59 22.39,-20.26 44.02,-39.85 70.21,-56.45l-0 -0.01c73.16,-46.9 159.04,-82.21 245.45,-92.36 74.74,-8.77 149.9,1.25 217.73,38.78l0.01 -0.01c9.56,5.06 19.96,9.54 30.27,13.97 20.37,8.76 40.42,17.39 57.37,31.93l-0.02 0.02c22.94,19.53 42.13,40.2 61.21,60.73 20.23,21.78 40.32,43.41 63.69,62.44l0.08 0.08c35.78,29.78 47.12,72.44 58.16,114 2.6,9.77 5.18,19.49 7.81,28.13l0.08 0.21c1.87,6.65 3.6,13.42 5.19,20.31 4.01,17.38 7.02,34.93 9.03,52.54 2.02,17.72 3.04,35.47 3.04,53.13l0 11.04c-321.45,0 -642.89,0.05 -964.34,0.07l0.03 -10.76zm24.43 -50.98c-1.51,13.29 -2.43,26.72 -2.75,40.22l920.88 -0.07c-0.32,-13.48 -1.23,-26.9 -2.75,-40.2 -1.93,-16.91 -4.8,-33.68 -8.61,-50.17 -1.49,-6.46 -3.13,-12.89 -4.93,-19.3l0.02 -0.01c-3.01,-9.89 -5.49,-19.25 -8,-28.67 -10.16,-38.25 -20.6,-77.52 -50.98,-102.87l-0.01 0.01c-24.66,-20.08 -45.21,-42.2 -65.89,-64.47 -18.84,-20.29 -37.81,-40.7 -59.37,-59.06l-0.04 0c-14.38,-12.33 -32.99,-20.34 -51.89,-28.47 -10.53,-4.53 -21.16,-9.1 -31.79,-14.73l-0.21 -0.12c-63.54,-35.21 -134.37,-44.58 -205.04,-36.28 -82.95,9.74 -165.64,43.79 -236.25,89.06l-0.08 0.04c-24.77,15.69 -45.69,34.62 -67.33,54.22 -6.16,5.57 -12.37,11.2 -18.17,16.32l0.01 0.01c-2.81,2.81 -4.9,7.53 -6.95,12.13 -3.07,6.92 -6.07,13.68 -12.02,18.8 -19.85,20.69 -37.17,42.57 -50.13,66.2 -12.83,23.4 -21.38,48.54 -23.84,75.97l-0.1 1.08 -0.24 0.87c-1.01,3.63 -1.88,6.84 -2.59,9.65 -0.58,2.26 -1.37,5.52 -2.36,9.76l-0.01 -0c-3.8,16.5 -6.67,33.24 -8.58,50.09z"/>
   <path class="fil1" d="M98.63 698.18c330.28,-140.45 668.3,-142.36 1001.06,0 31.57,13.51 31.39,251.86 0,240.95 -324.97,-113.14 -668.64,-114.34 -1001.06,0 -39.54,13.59 -35.69,-225.77 0,-240.95z"/>
   <path class="fil3" d="M1045.75 855.34c1.49,5.82 2.31,11.82 2.43,17.83 0.16,5.89 -0.2,11.74 -0.47,17.61l-0.65 8.77c-0.29,2.92 -0.58,5.83 -0.94,8.74 -0.72,5.81 -1.6,11.59 -2.86,17.3l-14.17 -2.54c0.79,-5.71 1.8,-11.36 2.95,-17.02l1.8 -8.48 1.8 -8.46c1.33,-5.64 2.47,-11.29 4,-16.93 1.51,-5.78 3.58,-11.43 6.11,-16.82l-0.01 0z"/>
   <path class="fil3" d="M1043.19 673.04c2.76,11.24 4.99,22.73 6.54,34.21 0.78,5.74 1.4,11.51 1.96,17.27 0.56,5.76 0.88,11.56 1.19,17.34 0.47,11.56 0.67,23.12 0.11,34.66 -0.49,11.53 -1.99,23.12 -4.41,34.41 -1.8,-11.51 -3.01,-22.87 -4.18,-34.21 -1.17,-11.34 -2.18,-22.6 -3.69,-33.82 -0.7,-5.62 -1.49,-11.2 -2.34,-16.78 -0.85,-5.58 -1.8,-11.15 -2.74,-16.69 -1.93,-11.11 -4.14,-22.13 -6.46,-33.15l14.02 -3.23z"/>
   <path class="fil3" d="M904.19 634.94c6.87,38.94 9.91,79.65 9.72,121.87 -0.19,42.09 -3.62,85.55 -9.69,130.13l-14.24 -1.91c6.01,-44.08 9.39,-86.93 9.58,-128.28 0.19,-41.22 -2.81,-81.08 -9.55,-119.34l14.18 -2.48z"/>
   <path class="fil3" d="M777.14 609.43c4.66,38.8 6.72,79.4 6.59,121.53 -0.13,41.99 -2.46,85.39 -6.59,129.95l-14.29 -1.29c4.1,-44.18 6.41,-87.15 6.54,-128.65 0.13,-41.36 -1.92,-81.39 -6.54,-119.84l14.29 -1.69z"/>
   <path class="fil3" d="M654.14 698.25c2.17,12.31 3.62,24.77 4.26,37.22 0.72,12.42 0.94,24.85 1.17,37.29l0 18.66c0,6.21 0,12.42 -0.22,18.63 -0.27,12.43 -0.72,24.85 -1.57,37.26l-14.41 -0.72c0.4,-12.37 1.03,-24.72 1.69,-37.08l2.18 -37.04c0.83,-12.35 1.48,-24.72 2.43,-37.09 0.95,-12.37 2.36,-24.73 4.45,-37.13z"/>
   <path class="fil3" d="M657.88 596.35c0.33,3.42 0.51,6.91 0.51,10.35 0,0.35 0,0.73 0,1.08 0,1.91 -0.09,3.82 -0.14,5.73l-0.24 5.74c-0.31,3.82 -0.58,7.65 -1.22,11.49 -0.65,4.02 -1.93,7.91 -3.74,11.54 -2.16,-3.47 -3.8,-7.24 -4.87,-11.18 -1.03,-3.74 -1.67,-7.49 -2.36,-11.25l-0.88 -5.62c-0.23,-1.89 -0.5,-3.76 -0.7,-5.64 -0.41,-3.7 -0.63,-7.43 -0.63,-11.15 0,-0.05 0,-0.12 0,-0.17l14.28 -0.92z"/>
   <path class="fil3" d="M542.31 595.88c0.32,38.71 0.45,79.1 0.45,120.93 -0.01,41.81 -0.17,85.04 -0.45,129.45l-14.35 -0.06c0.28,-44.41 0.44,-87.62 0.45,-129.39 0.01,-41.75 -0.13,-82.1 -0.45,-120.82l14.35 -0.11z"/>
   <path class="fil3" d="M426.38 608.03c-1.85,38.71 -2.68,78.98 -2.63,120.6 0.05,41.65 0.98,84.84 2.63,129.3l-14.35 0.51c-1.65,-44.45 -2.57,-87.8 -2.63,-129.81 -0.05,-42.04 0.77,-82.56 2.63,-121.28l14.35 0.68z"/>
   <path class="fil3" d="M293.14 761.6c2.12,9.93 3.82,20.11 4.89,30.22 1.13,10.07 1.96,20.11 2.97,30.16l2.72 30.12c0.85,10.03 1.67,20.08 2.25,30.14l-14.41 1.15c-1.04,-10.1 -1.67,-20.24 -2.13,-30.38 -0.23,-5.08 -0.36,-10.15 -0.5,-15.23l-0.18 -15.23c0,-10.16 0.09,-20.33 0.63,-30.49 0.48,-10.21 1.79,-20.44 3.76,-30.47l0 -0z"/>
   <path class="fil3" d="M305.94 632.91c-0.45,6.57 -1.15,13.11 -1.89,19.64l-1.19 9.81 -1.3 9.82c-0.97,6.55 -1.71,13.11 -2.88,19.68 -1.12,6.67 -2.83,13.28 -5.05,19.66 -1.86,-6.54 -3.08,-13.27 -3.59,-20.06 -0.54,-6.7 -0.58,-13.36 -0.69,-20.06l0 -10.01c0.11,-3.35 0.2,-6.68 0.36,-10.01 0.36,-6.68 0.88,-13.34 1.8,-19.97l14.42 1.49z"/>
   <path class="fil3" d="M176.87 670.53c-6.12,38.34 -8.83,78.41 -8.66,119.9 0.17,41.46 3.25,84.54 8.72,128.93l-14.29 1.75c-5.5,-44.65 -8.6,-88.28 -8.77,-130.61 -0.17,-42.3 2.59,-83.13 8.83,-122.22l14.18 2.25z"/>
   <path class="fil3" d="M1048.88 838.9c3.73,0 6.75,-3.02 6.75,-6.75 0,-3.73 -3.02,-6.75 -6.75,-6.75 -3.73,0 -6.75,3.02 -6.75,6.75 0.05,3.71 3.05,6.7 6.75,6.75z"/>
   <path class="fil2" d="M1065.27 669.45c9.12,39.08 13.16,79.9 12.9,122.18 -0.26,42.13 -4.8,85.67 -12.84,130.36l-14.12 -2.53c7.9,-43.92 12.36,-86.63 12.62,-127.88 0.25,-41.1 -3.68,-80.81 -12.56,-118.86l14.01 -3.26z"/>
   <path class="fil2" d="M926.2 631.34c6.87,38.94 9.91,79.65 9.72,121.87 -0.19,42.09 -3.62,85.55 -9.69,130.15l-14.24 -1.91c6.01,-44.09 9.39,-86.94 9.58,-128.29 0.19,-41.22 -2.81,-81.08 -9.55,-119.34l14.18 -2.48z"/>
   <path class="fil2" d="M799.09 605.54c4.66,38.8 6.72,79.4 6.59,121.53 -0.13,41.99 -2.46,85.39 -6.59,129.95l-14.29 -1.3c4.1,-44.18 6.4,-87.15 6.54,-128.65 0.13,-41.36 -1.92,-81.39 -6.54,-119.84l14.29 -1.69z"/>
   <path class="fil2" d="M679.7 592.19c2.46,38.65 3.56,79.15 3.5,121.21 -0.07,42.02 -1.3,85.34 -3.5,129.73l-14.35 -0.68c2.2,-44.4 3.43,-87.52 3.5,-129.05 0.07,-41.49 -1.03,-81.67 -3.5,-120.31l14.35 -0.9z"/>
   <path class="fil2" d="M563.99 591.4c0.31,38.67 0.45,79.06 0.44,120.89 -0.01,41.82 -0.16,85.07 -0.44,129.48l-14.35 -0.06c0.28,-44.41 0.43,-87.65 0.44,-129.42 0.01,-41.77 -0.14,-82.12 -0.44,-120.78l14.35 -0.11z"/>
   <path class="fil2" d="M447.92 603.26c-1.86,38.71 -2.68,78.98 -2.63,120.6 0.05,41.65 0.98,84.84 2.63,129.3l-14.35 0.5c-1.65,-44.45 -2.57,-87.8 -2.63,-129.8 -0.05,-42.04 0.77,-82.56 2.63,-121.28l14.35 0.68z"/>
   <path class="fil2" d="M327.37 627.91c-3.99,38.52 -5.79,78.7 -5.68,120.27 0.1,41.47 2.11,84.6 5.71,129.11l-14.35 1.13c-3.6,-44.48 -5.61,-87.97 -5.71,-130.23 -0.1,-42.16 1.7,-82.82 5.74,-121.73l14.29 1.46z"/>
   <path class="fil2" d="M198.26 665.47c-6.12,38.34 -8.83,78.41 -8.66,119.91 0.17,41.46 3.25,84.54 8.72,128.93l-14.29 1.74c-5.5,-44.65 -8.6,-88.28 -8.77,-130.61 -0.17,-42.29 2.59,-83.13 8.83,-122.21l14.18 2.25z"/>
   <path class="fil3" d="M94.41 688.26c167.08,-71.05 336.14,-106.94 505.51,-106.94 168.24,0 336.78,35.41 503.99,106.94 23.12,9.89 33.13,103.75 29.22,174.63 -0.94,17.07 -2.61,32.94 -5,46.06 -2.57,14.06 -6.1,25.26 -10.65,31.94 -5.59,8.21 -12.66,11.43 -21.34,8.41 -161.71,-56.3 -328.13,-84.67 -495.53,-84.67 -166.47,0 -333.86,28.09 -498.49,84.72 -10.14,3.49 -18.41,-0.28 -24.97,-9.63 -5.25,-7.48 -9.22,-19.37 -11.99,-34 -2.59,-13.67 -4.26,-30.11 -5.04,-47.71 -3.1,-69.93 9.42,-159.17 34.26,-169.74zm505.51 -85.33c-166.53,0 -332.76,35.3 -497.07,105.17 -16.52,7.02 -23.98,85.89 -21.18,148.98 0.73,16.56 2.29,31.96 4.7,44.68 2.23,11.76 5.05,20.8 8.44,25.64 0.59,0.84 -0.1,1.67 0.32,1.53 166.91,-57.42 336.66,-85.9 505.49,-85.9 168.64,0 336.42,28.45 499.58,84.89 2.58,-4.35 4.84,-12.32 6.75,-22.75 2.2,-12.08 3.76,-27.07 4.66,-43.44 3.54,-64.14 -1.5,-147.35 -16.14,-153.62 -164.43,-70.35 -330.15,-105.17 -495.55,-105.17z"/>
   <path class="fil3" d="M461.3 567.25c22.93,-4.77 46.28,-8.31 69.55,-10.33 5.85,-0.5 11.68,-1.01 17.54,-1.4l17.56 -1.01c5.87,-0.25 11.72,-0.36 17.59,-0.54l17.59 -0.23c23.41,0 46.91,1.14 70.23,3.31 23.25,2.08 46.64,5.64 69.46,10.49 -23.41,-0.52 -46.82,-1.42 -70.01,-2.04 -23.19,-0.61 -46.53,-0.88 -69.77,-0.94l-17.41 -0.01c-5.82,0 -11.63,0.21 -17.45,0.2l-17.43 0.25c-5.82,0.2 -11.63,0.29 -17.47,0.36 -23.23,0.59 -46.53,1.42 -69.97,1.89z"/>
   <path class="fil5" d="M318.24 477.42c12.69,-10.12 26.26,-19.45 40.32,-27.6 14.01,-8.32 28.47,-15.92 43.22,-22.8 3.6,-1.8 7.44,-3.35 11.16,-5.01 3.73,-1.66 7.44,-3.35 11.24,-4.81 7.6,-2.97 15.12,-6.08 22.87,-8.64 15.29,-5.46 31.08,-10.04 46.92,-13.52 -3.73,1.64 -7.49,3.21 -11.25,4.74 -3.76,1.53 -7.55,2.95 -11.26,4.61 -7.47,3.14 -14.96,6.16 -22.38,9.4l-5.56 2.39c-1.8,0.78 -3.74,1.53 -5.58,2.38l-11.07 4.92c-3.71,1.58 -7.36,3.29 -11.06,4.95 -3.69,1.66 -7.36,3.31 -10.99,5.1l-10.98 5.1c-3.6,1.8 -7.2,3.6 -10.9,5.4 -7.2,3.49 -14.41,7.2 -21.7,10.8 -14.39,7.25 -28.73,14.76 -42.99,22.6z"/>
  </g>
 </g>
</svg>
