<?xml version="1.0" encoding="UTF-8"?>
<!DOCTYPE svg PUBLIC "-//W3C//DTD SVG 1.1//EN" "http://www.w3.org/Graphics/SVG/1.1/DTD/svg11.dtd">
<!-- Creator: CorelDRAW 2020 (64-Bit Evaluation Version) -->
<svg xmlns="http://www.w3.org/2000/svg" xml:space="preserve" width="42.3333mm" height="42.3333mm" version="1.1" style="shape-rendering:geometricPrecision; text-rendering:geometricPrecision; image-rendering:optimizeQuality; fill-rule:evenodd; clip-rule:evenodd"
viewBox="0 0 1193.64 1193.64"
 xmlns:xlink="http://www.w3.org/1999/xlink"
 xmlns:xodm="http://www.corel.com/coreldraw/odm/2003">
 <defs>
  <style type="text/css">
   <![CDATA[
    .fil0 {fill:none}
    .fil2 {fill:#592D3D;fill-rule:nonzero}
    .fil1 {fill:#CCCCCC;fill-rule:nonzero}
    .fil3 {fill:#E6E6E6;fill-rule:nonzero}
   ]]>
  </style>
 </defs>
 <g id="Layer_x0020_1">
  <metadata id="CorelCorpID_0Corel-Layer"/>
  <rect class="fil0" x="-0" y="-0" width="1193.64" height="1193.64"/>
  <g id="_1748794841952">
   <path class="fil1" d="M71.5 608.52c0,-290.13 235.2,-525.33 525.32,-525.33 290.12,0 525.32,235.2 525.32,525.33 0,0.12 0,0.37 0,0.5 0,158.1 -71.43,307.94 -194.26,407.4 -10.79,8.76 -21.92,17.09 -33.38,24.98 -118.48,75.21 -268.14,75.21 -403.26,63.18 -13.12,-1.97 -26.19,-4.45 -39.17,-7.31 -51.85,-11.42 -102.05,-29.05 -148.43,-54.75 -11.46,-7.06 -22.57,-14.69 -33.34,-22.88 -10.79,-8.2 -21.21,-17.08 -31.09,-26.34 -9.39,-8.71 -18.45,-17.76 -27.18,-27.14 -90.23,-96.85 -140.53,-224.5 -140.53,-356.95 0,-0.19 0,-0.51 0,-0.7l0 0.01z"/>
   <path class="fil2" d="M59.68 608.52c0,-148.32 60.12,-282.61 157.33,-379.81 97.2,-97.2 231.49,-157.33 379.81,-157.33 148.32,0 282.61,60.12 379.81,157.33 97.2,97.2 157.33,231.49 157.33,379.81l0 0.5c0,80.82 -18.27,159.54 -52.23,230.78 -33.94,71.18 -83.6,134.9 -146.42,185.77 -5.41,4.39 -11.01,8.75 -16.81,13.09 -5.82,4.35 -11.59,8.5 -17.31,12.44l-0.37 0.28c-60.91,38.67 -129.63,57.97 -200.38,66.06 -69.95,7.99 -141.94,4.95 -210.23,-1.13l-0.74 -0.05c-6.3,-0.95 -13,-2.09 -20.05,-3.41 -7.27,-1.36 -13.88,-2.71 -19.9,-4.03 -26.27,-5.79 -52.27,-13.2 -77.75,-22.48 -25.38,-9.25 -50.09,-20.34 -73.87,-33.51l-0.46 -0.28c-11.88,-7.32 -23.32,-15.17 -34.31,-23.53l0.02 -0.02c-5.78,-4.39 -11.16,-8.71 -16.13,-12.92 -5.38,-4.56 -10.67,-9.29 -15.85,-14.14 -4.69,-4.35 -9.4,-8.88 -14.12,-13.59 -4.74,-4.73 -9.3,-9.45 -13.67,-14.15 -46.14,-49.53 -82.07,-106.94 -106.47,-168.91 -24.39,-61.94 -37.25,-128.41 -37.25,-196.07l0 -0.69zm174.04 -363.1c-92.92,92.92 -150.4,221.3 -150.4,363.09l0 0.7c0,64.75 12.28,128.3 35.58,187.48 23.32,59.22 57.66,114.09 101.77,161.43 4.36,4.69 8.7,9.19 13.02,13.5 4.34,4.34 8.86,8.69 13.56,13.04l0.05 0.05c4.84,4.53 9.83,8.99 14.98,13.35 5.24,4.44 10.31,8.53 15.15,12.21l0.05 0c10.43,7.94 21.1,15.28 32.02,22.02 22.57,12.5 46.11,23.05 70.34,31.88 24.18,8.81 49.21,15.93 74.79,21.56 6.95,1.53 13.37,2.86 19.16,3.94 6.01,1.13 12.41,2.2 19.22,3.23l-0 0.02c66.61,5.91 136.75,8.84 204.78,1.06 67.49,-7.71 132.84,-26.01 190.41,-62.55l0.01 0.02c5.61,-3.87 11,-7.74 16.19,-11.63 5.33,-3.99 10.68,-8.17 16.07,-12.54 60,-48.59 107.47,-109.52 139.96,-177.64 32.46,-68.09 49.92,-143.34 49.92,-220.62l0 -0.5c0,-141.8 -57.48,-270.18 -150.4,-363.1 -92.93,-92.93 -221.3,-150.4 -363.1,-150.4 -141.8,0 -270.18,57.48 -363.1,150.4z"/>
   <path class="fil2" d="M673.06 934.92c-30.62,0 -49.47,-25.13 -71.84,-25.13 -22.37,0 -51.05,25.13 -81.2,25.13 -30.15,0 -46.73,-21.88 -46.73,-52.21 0,-32.79 32.99,-90.71 123.3,-90.71 90.32,0 128.78,54.63 128.78,89.53 -0.08,32.24 -21.66,53.39 -52.3,53.39z"/>
   <path class="fil2" d="M673.06 946.74c-19.51,0 -34.01,-8.1 -47.38,-15.56 -8.89,-4.96 -17.15,-9.57 -24.46,-9.57 -7.87,0 -18.41,4.85 -29.74,10.05 -15.75,7.25 -32.78,15.07 -51.46,15.07 -18.24,0 -32.68,-6.66 -42.82,-17.98 -10.32,-11.53 -15.73,-27.6 -15.73,-46.04 0,-21.92 12.45,-53.33 42.68,-75.57 21.35,-15.71 51.57,-26.96 92.44,-26.96 41.74,0 73.38,11.1 95.91,26.76 30.71,21.35 44.68,51.51 44.68,74.58l-0.05 0c-0.05,19.25 -6.63,35.38 -17.87,46.85 -11.46,11.7 -27.52,18.35 -46.21,18.35zm-35.94 -36.15c10.75,6 22.42,12.52 35.94,12.52 12.17,0 22.38,-4.07 29.4,-11.25 7,-7.14 11.1,-17.57 11.13,-30.33l-0.05 0c0,-16.54 -10.8,-38.7 -34.53,-55.19 -18.96,-13.18 -46.05,-22.52 -82.43,-22.52 -35.26,0 -60.81,9.33 -78.5,22.34 -23.36,17.19 -32.99,40.53 -32.99,56.55 0,12.68 3.32,23.28 9.64,30.35 5.66,6.32 14.16,10.04 25.28,10.04 13.71,0 28.24,-6.68 41.67,-12.86 13.82,-6.36 26.69,-12.27 39.52,-12.27 13.3,0 24.18,6.07 35.9,12.61z"/>
   <path class="fil3" d="M618.76 914.27c-8.98,-24.12 -39.66,-39.88 -74.54,-36.79 -29.13,2.64 -53.03,17.9 -62.71,37.61 7.72,12.33 20.7,19.83 38.42,19.83 30.23,0 58.88,-25.13 81.28,-25.13 6.1,0.21 12.09,1.74 17.55,4.47l0 0z"/>
   <path class="fil2" d="M508.32 861.9l1.71 -0.69 1.44 -0.49c0.92,-0.32 1.85,-0.55 2.77,-0.79 1.84,-0.48 3.73,-0.83 5.61,-1.04 2.09,-0.28 4.21,-0.42 6.32,-0.42 1.73,0 3.46,0.09 5.18,0.28 8.01,0.76 15.65,3.84 21.96,8.83 5.96,4.71 10.45,11.06 12.9,18.25 1.18,3.51 1.79,7.2 1.79,10.9 0,3.27 -0.47,6.52 -1.4,9.65 -4.93,-5.08 -8.78,-9.73 -12.66,-13.55 -1.77,-1.81 -3.68,-3.52 -5.67,-5.08 -1.82,-1.37 -3.81,-2.52 -5.91,-3.39 -3.62,-1.5 -7.53,-2.28 -11.46,-2.28 -0.35,0 -0.7,0.01 -1.05,0.02 -2.25,0.06 -4.53,0.27 -6.76,0.59 -1.12,0.2 -2.28,0.38 -3.39,0.61l-1.66 0.37 -0.77 0.16c-0.18,0 -0.57,0.16 -0.43,0l-8.54 -21.94z"/>
  </g>
 </g>
</svg>
