<?xml version="1.0" encoding="UTF-8"?>
<!DOCTYPE svg PUBLIC "-//W3C//DTD SVG 1.1//EN" "http://www.w3.org/Graphics/SVG/1.1/DTD/svg11.dtd">
<!-- Creator: CorelDRAW 2020 (64-Bit Evaluation Version) -->
<svg xmlns="http://www.w3.org/2000/svg" xml:space="preserve" width="42.3333mm" height="42.3333mm" version="1.1" style="shape-rendering:geometricPrecision; text-rendering:geometricPrecision; image-rendering:optimizeQuality; fill-rule:evenodd; clip-rule:evenodd"
viewBox="0 0 1193.64 1193.64"
 xmlns:xlink="http://www.w3.org/1999/xlink"
 xmlns:xodm="http://www.corel.com/coreldraw/odm/2003">
 <defs>
  <style type="text/css">
   <![CDATA[
    .fil0 {fill:none}
    .fil2 {fill:#592D3D;fill-rule:nonzero}
    .fil1 {fill:#CCCCCC;fill-rule:nonzero}
    .fil3 {fill:#E6E6E6;fill-rule:nonzero}
   ]]>
  </style>
 </defs>
 <g id="Layer_x0020_1">
  <metadata id="CorelCorpID_0Corel-Layer"/>
  <rect class="fil0" x="-0" y="-0" width="1193.64" height="1193.64"/>
  <g id="_1748703608912">
   <path class="fil1" d="M71.5 608.52c0,-290.13 235.2,-525.33 525.32,-525.33 290.12,0 525.32,235.2 525.32,525.33 0,0.12 0,0.37 0,0.5 0,158.1 -71.43,307.94 -194.26,407.41 -10.79,8.76 -21.92,17.09 -33.38,24.98 -118.48,75.21 -268.14,75.21 -403.26,63.18 -13.12,-1.97 -26.19,-4.45 -39.17,-7.31 -51.85,-11.42 -102.05,-29.05 -148.43,-54.75 -11.46,-7.06 -22.58,-14.69 -33.34,-22.88 -10.79,-8.21 -21.21,-17.08 -31.09,-26.34 -9.39,-8.71 -18.45,-17.76 -27.18,-27.14 -90.23,-96.85 -140.53,-224.5 -140.53,-356.94 0,-0.19 0,-0.51 0,-0.7l0 0.01z"/>
   <path class="fil2" d="M59.68 608.51c0,-148.32 60.13,-282.6 157.33,-379.8 97.2,-97.2 231.49,-157.33 379.81,-157.33 148.32,0 282.61,60.13 379.81,157.33 97.2,97.2 157.33,231.49 157.33,379.82l0 0.5c0,80.82 -18.27,159.54 -52.23,230.78 -33.94,71.18 -83.6,134.9 -146.42,185.77 -5.41,4.39 -11.01,8.75 -16.81,13.09 -5.82,4.35 -11.59,8.5 -17.31,12.44l-0.37 0.28c-60.91,38.67 -129.63,57.97 -200.38,66.06 -69.95,7.99 -141.94,4.95 -210.23,-1.13l-0.69 -0.05c-6.46,-0.97 -13.17,-2.11 -20.1,-3.41 -7.27,-1.36 -13.88,-2.71 -19.9,-4.03 -26.27,-5.79 -52.27,-13.2 -77.75,-22.48 -25.38,-9.25 -50.09,-20.34 -73.87,-33.51l-0.46 -0.28c-6.11,-3.77 -11.91,-7.53 -17.38,-11.29 -5.71,-3.92 -11.35,-8 -16.93,-12.24l0.02 -0.02c-5.78,-4.39 -11.16,-8.71 -16.13,-12.93 -5.38,-4.56 -10.67,-9.28 -15.85,-14.13 -4.69,-4.35 -9.4,-8.88 -14.11,-13.59 -4.74,-4.74 -9.3,-9.45 -13.67,-14.15 -46.14,-49.53 -82.07,-106.94 -106.47,-168.91 -24.39,-61.94 -37.24,-128.41 -37.24,-196.07l0 -0.7zm174.04 -363.09c-92.93,92.92 -150.4,221.3 -150.4,363.1l0 0.69c0,64.75 12.29,128.3 35.58,187.48 23.31,59.22 57.66,114.09 101.77,161.43 4.36,4.69 8.7,9.19 13.02,13.51 4.34,4.34 8.86,8.68 13.56,13.04l0.05 0.05c4.84,4.53 9.84,8.99 14.98,13.35 5.24,4.44 10.31,8.53 15.15,12.21l0.05 0c5.2,3.95 10.5,7.79 15.91,11.5 5.51,3.78 10.88,7.29 16.11,10.52 22.57,12.5 46.11,23.05 70.34,31.88 24.18,8.81 49.21,15.93 74.79,21.56 6.95,1.53 13.37,2.85 19.16,3.94 6.14,1.15 12.52,2.23 19.18,3.23l-0 0.01c66.62,5.91 136.78,8.84 204.83,1.07 67.49,-7.71 132.84,-26.01 190.4,-62.55l0.01 0.01c5.61,-3.86 11.01,-7.74 16.19,-11.62 5.33,-3.99 10.69,-8.17 16.07,-12.54 60,-48.59 107.47,-109.52 139.95,-177.65 32.46,-68.08 49.92,-143.34 49.92,-220.62l0 -0.5c0,-141.8 -57.48,-270.18 -150.4,-363.1 -92.93,-92.93 -221.3,-150.4 -363.1,-150.4 -141.8,0 -270.18,57.48 -363.1,150.4z"/>
   <path class="fil2" d="M484.85 848.51c0,-37.22 223.95,-31.63 223.95,0 0,61.83 -50.14,111.98 -111.98,111.98 -61.83,0 -111.98,-50.14 -111.98,-111.98l0 0z"/>
   <path class="fil3" d="M586.98 890.14c-33.38,-1.97 -62.49,13.29 -72.18,35.88 21.13,22.34 50.56,35 81.32,35 16.21,0 32.25,-3.53 46.96,-10.32 4.41,-2.02 8.72,-4.39 12.82,-6.99 -1.81,-27.79 -31.39,-51.24 -68.93,-53.57z"/>
   <path class="fil2" d="M478.94 848.51c0,-16.67 29.05,-26.18 67.06,-29.8 14.34,-1.36 30.07,-2 45.93,-1.94 15.86,0.05 31.84,0.8 46.68,2.18 42.29,3.94 76.1,14.01 76.1,29.56 0,32.54 -13.2,62.02 -34.53,83.35 -21.34,21.33 -50.81,34.53 -83.35,34.53 -32.55,0 -62.02,-13.2 -83.35,-34.53 -18.34,-18.34 -30.67,-42.7 -33.77,-69.86l-0.77 0.77 0 -14.26zm68.17 -18.08c-31.87,3.03 -56.23,9 -56.35,18.01l0 0.06c0,29.28 11.87,55.8 31.07,75 19.19,19.19 45.71,31.07 75,31.07 29.28,0 55.8,-11.88 75,-31.07 19.2,-19.19 31.07,-45.71 31.07,-75 0,-8.13 -29.03,-14.46 -65.34,-17.84 -14.54,-1.35 -30.15,-2.08 -45.62,-2.13 -15.47,-0.05 -30.81,0.56 -44.82,1.9z"/>
   <path class="fil2" d="M553.73 869.39c0.89,-0.22 1.24,-0.32 1.81,-0.41l1.47 -0.28c0.97,-0.18 1.97,-0.27 2.88,-0.35 1.43,-0.15 2.88,-0.22 4.31,-0.22 0.45,0 0.93,0.01 1.38,0.02 3.84,0.08 7.69,0.62 11.41,1.6 7.8,1.97 14.88,6.15 20.38,12.02 5.17,5.57 8.65,12.52 10,20.01 0.35,1.97 0.53,3.97 0.53,5.97 0,4.98 -1.1,9.91 -3.21,14.42 -4.08,-5.77 -7.21,-10.95 -10.48,-15.28 -1.46,-2.08 -3.09,-4.06 -4.82,-5.91 -1.59,-1.63 -3.38,-3.06 -5.32,-4.25 -3.68,-2.2 -7.79,-3.61 -12.03,-4.12 -2.23,-0.28 -4.49,-0.45 -6.73,-0.47 -1.16,0 -2.32,0 -3.47,0.1l-1.67 0.12 -0.77 0c-0.2,0 -0.59,0 -0.45,0l-5.22 -22.95z"/>
  </g>
 </g>
</svg>
