<?xml version="1.0" encoding="UTF-8"?>
<!DOCTYPE svg PUBLIC "-//W3C//DTD SVG 1.1//EN" "http://www.w3.org/Graphics/SVG/1.1/DTD/svg11.dtd">
<!-- Creator: CorelDRAW 2020 (64-Bit Evaluation Version) -->
<svg xmlns="http://www.w3.org/2000/svg" xml:space="preserve" width="42.3333mm" height="42.3333mm" version="1.1" style="shape-rendering:geometricPrecision; text-rendering:geometricPrecision; image-rendering:optimizeQuality; fill-rule:evenodd; clip-rule:evenodd"
viewBox="0 0 1193.64 1193.64"
 xmlns:xlink="http://www.w3.org/1999/xlink"
 xmlns:xodm="http://www.corel.com/coreldraw/odm/2003">
 <defs>
  <style type="text/css">
   <![CDATA[
    .fil0 {fill:none}
    .fil2 {fill:#592D3D;fill-rule:nonzero}
    .fil4 {fill:gray;fill-rule:nonzero}
    .fil3 {fill:#999999;fill-rule:nonzero}
    .fil1 {fill:#CCCCCC;fill-rule:nonzero}
    .fil5 {fill:white;fill-rule:nonzero}
   ]]>
  </style>
 </defs>
 <g id="Layer_x0020_1">
  <metadata id="CorelCorpID_0Corel-Layer"/>
  <g id="_1748802109072">
   <rect class="fil0" x="-0" y="-0" width="1193.64" height="1193.64"/>
   <g>
    <path class="fil1" d="M71.5 608.52c0,-290.13 235.2,-525.33 525.32,-525.33 290.12,0 525.32,235.2 525.32,525.33 0,0.12 0,0.37 0,0.5 0,158.1 -71.43,307.94 -194.26,407.4 -10.79,8.76 -21.92,17.09 -33.38,24.98 -118.48,75.21 -268.14,75.21 -403.26,63.18 -13.12,-1.97 -26.19,-4.45 -39.17,-7.31 -51.85,-11.42 -102.05,-29.05 -148.43,-54.75 -11.46,-7.06 -22.57,-14.69 -33.34,-22.88 -10.79,-8.2 -21.21,-17.08 -31.09,-26.34 -9.39,-8.71 -18.45,-17.76 -27.18,-27.14 -90.23,-96.85 -140.53,-224.5 -140.53,-356.95 0,-0.19 0,-0.51 0,-0.7l0 0.01z"/>
    <path class="fil2" d="M59.68 608.52c0,-148.32 60.12,-282.61 157.33,-379.81 97.2,-97.2 231.49,-157.33 379.81,-157.33 148.32,0 282.61,60.12 379.81,157.33 97.2,97.2 157.33,231.49 157.33,379.81l0 0.5c0,80.82 -18.27,159.54 -52.23,230.78 -33.94,71.18 -83.6,134.9 -146.42,185.77 -5.41,4.39 -11.01,8.75 -16.81,13.09 -5.82,4.35 -11.59,8.5 -17.31,12.44l-0.37 0.28c-60.91,38.67 -129.63,57.97 -200.38,66.06 -69.95,7.99 -141.94,4.95 -210.23,-1.13l-0.74 -0.05c-6.3,-0.95 -13,-2.09 -20.05,-3.41 -7.27,-1.36 -13.88,-2.71 -19.9,-4.03 -26.27,-5.79 -52.27,-13.2 -77.75,-22.48 -25.38,-9.25 -50.09,-20.34 -73.87,-33.51l-0.46 -0.28c-11.88,-7.32 -23.32,-15.17 -34.31,-23.53l0.02 -0.02c-5.78,-4.39 -11.16,-8.71 -16.13,-12.92 -5.38,-4.56 -10.67,-9.29 -15.85,-14.14 -4.69,-4.35 -9.4,-8.88 -14.12,-13.59 -4.74,-4.73 -9.3,-9.45 -13.67,-14.15 -46.14,-49.53 -82.07,-106.94 -106.47,-168.91 -24.39,-61.94 -37.25,-128.41 -37.25,-196.07l0 -0.69zm174.04 -363.1c-92.92,92.92 -150.4,221.3 -150.4,363.09l0 0.7c0,64.75 12.28,128.3 35.58,187.48 23.32,59.22 57.66,114.09 101.77,161.43 4.36,4.69 8.7,9.19 13.02,13.5 4.34,4.34 8.86,8.69 13.56,13.04l0.05 0.05c4.84,4.53 9.83,8.99 14.98,13.35 5.24,4.44 10.31,8.53 15.15,12.21l0.05 0c10.43,7.94 21.1,15.28 32.02,22.02 22.57,12.5 46.11,23.05 70.34,31.88 24.18,8.81 49.21,15.93 74.79,21.56 6.95,1.53 13.37,2.86 19.16,3.94 6.01,1.13 12.41,2.2 19.22,3.23l-0 0.02c66.61,5.91 136.75,8.84 204.78,1.06 67.49,-7.71 132.84,-26.01 190.41,-62.55l0.01 0.02c5.61,-3.87 11,-7.74 16.19,-11.63 5.33,-3.99 10.68,-8.17 16.07,-12.54 60,-48.59 107.47,-109.52 139.96,-177.64 32.46,-68.09 49.92,-143.34 49.92,-220.62l0 -0.5c0,-141.8 -57.48,-270.18 -150.4,-363.1 -92.93,-92.93 -221.3,-150.4 -363.1,-150.4 -141.8,0 -270.18,57.48 -363.1,150.4z"/>
    <path class="fil3" d="M712.13 889.04c-7.15,0 -10.54,-2.58 -30.68,-21.25 -14.75,-13.65 -24.87,-20.4 -37.24,-22.57 -15.42,-2.7 -31.18,-1.73 -47.98,15.12 -16.8,-16.86 -32.53,-17.72 -47.97,-15.12 -12.37,2.17 -22.49,8.92 -37.24,22.57 -20.15,18.67 -23.53,21.25 -30.68,21.25 -2,0 -3.62,1.62 -3.62,3.62 0,0.96 0.38,1.88 1.06,2.56 34.46,34.46 73.95,51.71 118.45,51.75 44.51,0.04 83.99,17.29 118.46,-51.75 0.68,-0.68 1.06,-1.6 1.06,-2.56 0,-2 -1.62,-3.62 -3.62,-3.63l0 0z"/>
    <path class="fil4" d="M714.14 895.73l-1.08 -4.35c-138.96,31.75 -232.72,1.04 -232.72,1.04l-3.49 -0.61c-0.07,0.29 -0.11,0.58 -0.11,0.88 0,0.94 0.37,1.85 1.03,2.52 34.46,34.46 73.95,51.71 118.46,51.75 44.22,0 83.52,-17.08 117.91,-51.24z"/>
    <path class="fil2" d="M556.02 904.69c26.49,-1.85 52.56,-2.83 78.56,-5.91 12.98,-1.5 25.9,-3.43 38.74,-5.63 12.84,-2.2 25.6,-4.75 38.42,-7.48l2.64 11.52c-12.96,3.07 -26.03,5.57 -39.23,7.5 -13.2,1.93 -26.27,4.43 -39.7,4.06 -13.29,0.73 -26.59,1.06 -39.88,0.53 -13.25,-0.45 -26.53,-2.05 -39.53,-4.6l-0.02 0.01z"/>
    <path class="fil2" d="M482.19 886.81c3.33,0.85 7.03,1.97 10.59,2.91 3.57,0.94 7.19,2.13 10.81,3.21 3.62,1.08 7.25,2.17 10.87,3.49 3.76,1.32 7.38,3.08 10.75,5.2 -3.86,1.14 -7.88,1.74 -11.91,1.77 -3.94,0 -7.78,-0.32 -11.68,-0.63 -3.9,-0.32 -7.74,-0.92 -11.58,-1.67 -3.91,-0.71 -7.78,-1.75 -11.54,-3.06l3.68 -11.22z"/>
    <path class="fil5" d="M644.21 857.61c-8.23,0.7 -16.36,2.67 -24.01,5.79 -3.82,1.52 -7.62,3.15 -11.52,4.77 -3.99,1.83 -8.27,3 -12.64,3.43 -0.09,0 -0.2,0 -0.29,0 -2.24,0 -4.47,-0.43 -6.54,-1.26 -2.02,-0.78 -4.01,-1.71 -5.91,-2.76 -3.54,-2.04 -7.24,-3.92 -10.99,-5.57 -3.74,-1.56 -7.69,-2.72 -11.7,-3.41 -4.02,-0.65 -8.11,-0.98 -12.18,-0.98 -0.06,0 -0.14,0 -0.21,0 3.33,-0.66 6.74,-1 10.15,-1 0.81,0 1.64,0.02 2.45,0.06 4.27,0.25 8.52,1.09 12.57,2.46 3.98,1.42 7.88,3.15 11.61,5.12 3.68,1.85 7.31,3.61 10.87,3.43 3.93,-0.4 7.8,-1.41 11.43,-2.97 3.94,-1.4 7.88,-2.97 11.81,-4.2 6.16,-2.1 12.65,-3.19 19.16,-3.19 1.97,0 3.96,0.1 5.93,0.29l0 0.01z"/>
    <path class="fil2" d="M705.32 896.06c-2.46,-0.73 -5,-2.02 -8.15,-4.22 -4.72,-3.3 -10.79,-8.77 -21.08,-18.31l0.01 -0.01c-7.05,-6.52 -12.93,-11.82 -18.44,-15.46 -4.7,-3.1 -9.03,-4.88 -13.65,-5 -11.52,-0.31 -21.54,3.68 -29.81,6.97 -6.92,2.75 -12.85,5.11 -18.76,5.11 -5.96,0 -10.64,-2.46 -16.22,-5.37 -6.94,-3.63 -15.76,-8.25 -30.24,-6.74 -4.94,0.51 -9.49,2.35 -14.35,5.46 -5.44,3.47 -11.3,8.52 -18.34,15.04l0.01 0.01c-10.29,9.54 -16.35,15 -21.08,18.31 -2.27,1.59 -4.23,2.7 -6.07,3.47 14.84,13.75 30.56,24.24 47.14,31.49 18.76,8.19 38.71,12.3 59.86,12.32 8.08,0.01 15.48,0.51 22.73,1 31.86,2.16 60.72,4.11 86.43,-44.07zm0.84 -17.08c2.56,1.79 4.04,2.18 5.97,2.18l0 0.03 0.15 0.01c3.14,0.07 5.96,1.38 7.99,3.46 2.03,2.09 3.28,4.92 3.28,8.01 0,1.48 -0.31,2.97 -0.89,4.37 -0.36,0.87 -0.82,1.7 -1.38,2.46 -30.86,61.24 -65.3,58.92 -103.43,56.33 -7.26,-0.49 -14.67,-0.99 -21.68,-1 -23.36,-0.02 -45.41,-4.56 -66.13,-13.62 -20.69,-9.04 -39.99,-22.51 -57.89,-40.42l0 -0.03c-1.06,-1.06 -1.9,-2.33 -2.48,-3.73 -0.58,-1.41 -0.89,-2.9 -0.89,-4.37 0,-3.15 1.29,-6.02 3.37,-8.1 2.09,-2.1 4.97,-3.4 8.13,-3.4 1.93,0 3.42,-0.39 5.97,-2.18 3.8,-2.65 9.5,-7.82 19.35,-16.95l0.03 0c7.7,-7.13 14.21,-12.71 20.58,-16.78 6.94,-4.44 13.64,-7.07 21.19,-7.85 19.13,-1.99 30.31,3.86 39.1,8.46 3.66,1.92 6.74,3.53 8.96,3.53 3.06,0 7.64,-1.82 12.98,-3.94 9.63,-3.83 21.29,-8.47 35.97,-8.08 7.95,0.21 14.86,2.9 21.95,7.58 6.28,4.15 12.73,9.96 20.43,17.08l0.03 0c9.85,9.13 15.56,14.3 19.35,16.95z"/>
    <path class="fil2" d="M542.9 908.57c6.34,0 6.36,-9.85 0,-9.85 -6.36,0 -6.34,9.85 0,9.85z"/>
   </g>
  </g>
 </g>
</svg>
