<?xml version="1.0" encoding="UTF-8"?>
<!DOCTYPE svg PUBLIC "-//W3C//DTD SVG 1.1//EN" "http://www.w3.org/Graphics/SVG/1.1/DTD/svg11.dtd">
<!-- Creator: CorelDRAW 2020 (64-Bit Evaluation Version) -->
<svg xmlns="http://www.w3.org/2000/svg" xml:space="preserve" width="42.3333mm" height="42.3333mm" version="1.1" style="shape-rendering:geometricPrecision; text-rendering:geometricPrecision; image-rendering:optimizeQuality; fill-rule:evenodd; clip-rule:evenodd"
viewBox="0 0 1193.64 1193.64"
 xmlns:xlink="http://www.w3.org/1999/xlink"
 xmlns:xodm="http://www.corel.com/coreldraw/odm/2003">
 <defs>
  <style type="text/css">
   <![CDATA[
    .fil0 {fill:none}
    .fil2 {fill:#592D3D;fill-rule:nonzero}
    .fil1 {fill:#CCCCCC;fill-rule:nonzero}
    .fil3 {fill:#E6E6E6;fill-rule:nonzero}
   ]]>
  </style>
 </defs>
 <g id="Layer_x0020_1">
  <metadata id="CorelCorpID_0Corel-Layer"/>
  <rect class="fil0" x="-0" y="-0" width="1193.64" height="1193.64"/>
  <g id="_1748703614192">
   <path class="fil1" d="M71.5 608.52c0,-290.13 235.2,-525.33 525.32,-525.33 290.12,0 525.32,235.2 525.32,525.33 0,0.12 0,0.37 0,0.5 0,158.1 -71.43,307.94 -194.26,407.4 -10.79,8.76 -21.92,17.09 -33.38,24.98 -118.48,75.21 -268.14,75.21 -403.26,63.18 -13.12,-1.97 -26.19,-4.45 -39.17,-7.31 -51.85,-11.42 -102.05,-29.05 -148.43,-54.75 -11.46,-7.06 -22.57,-14.69 -33.34,-22.88 -10.79,-8.2 -21.21,-17.08 -31.09,-26.34 -9.39,-8.71 -18.45,-17.76 -27.18,-27.14 -90.23,-96.85 -140.53,-224.5 -140.53,-356.95 0,-0.19 0,-0.51 0,-0.7l0 0.01z"/>
   <path class="fil2" d="M702.48 890c0,-58.68 -47.57,-106.25 -106.25,-106.25 -58.68,0 -106.24,47.57 -106.24,106.25 0,58.68 47.57,106.25 106.24,106.25 58.68,0 106.25,-47.57 106.25,-106.25z"/>
   <path class="fil3" d="M579.51 930.3c-27.71,-6.64 -54.39,1.97 -65.88,19.44 17.66,26.73 47.59,42.83 79.63,42.83 8.22,0 16.45,-1.07 24.4,-3.17 4,-1.05 7.97,-2.38 11.81,-3.94 2.66,-23.65 -18.71,-47.7 -49.96,-55.16z"/>
   <path class="fil2" d="M554.78 907.87l1.58 0 1.28 0c0.85,0 1.66,0 2.46,0.12 1.61,0.11 3.23,0.35 4.81,0.69 3.21,0.63 6.36,1.64 9.34,3.01 6.25,2.81 11.58,7.36 15.32,13.1 3.52,5.44 5.43,11.79 5.45,18.28 -0.01,5.97 -1.86,11.8 -5.3,16.68 -2.56,-5.43 -4.41,-10.24 -6.52,-14.35 -0.93,-1.95 -2,-3.85 -3.19,-5.65 -1.1,-1.6 -2.39,-3.06 -3.84,-4.35 -2.75,-2.4 -6,-4.19 -9.49,-5.24 -1.84,-0.56 -3.72,-1.02 -5.61,-1.36 -0.96,-0.14 -1.97,-0.32 -2.9,-0.43l-1.44 -0.14 -0.65 0c-0.16,0 -0.51,0 -0.38,0l-0.93 -20.34z"/>
   <path class="fil2" d="M694.6 890c0,-27.16 -11.01,-51.76 -28.81,-69.56 -17.8,-17.8 -42.39,-28.81 -69.56,-28.81 -27.16,0 -51.76,11.01 -69.56,28.81 -17.8,17.8 -28.81,42.39 -28.81,69.56 0,27.16 11.01,51.76 28.81,69.56 17.8,17.8 42.4,28.81 69.56,28.81 27.17,0 51.76,-11.01 69.56,-28.81 17.8,-17.8 28.81,-42.39 28.81,-69.56zm-17.67 -80.7c20.65,20.65 33.43,49.19 33.43,80.7 0,31.51 -12.77,60.04 -33.43,80.7 -20.65,20.65 -49.18,33.43 -80.7,33.43 -31.51,0 -60.04,-12.78 -80.7,-33.43 -20.65,-20.65 -33.43,-49.19 -33.43,-80.7 0,-31.51 12.77,-60.04 33.43,-80.7 20.65,-20.65 49.18,-33.43 80.7,-33.43 31.52,0 60.05,12.78 80.7,33.43z"/>
   <path class="fil2" d="M59.68 608.52c0,-148.32 60.12,-282.61 157.33,-379.81 97.2,-97.2 231.49,-157.33 379.81,-157.33 148.32,0 282.61,60.12 379.81,157.33 97.2,97.2 157.33,231.49 157.33,379.81l0 0.5c0,80.82 -18.27,159.54 -52.23,230.78 -33.94,71.18 -83.6,134.9 -146.42,185.77 -5.41,4.39 -11.01,8.75 -16.81,13.09 -5.82,4.35 -11.59,8.5 -17.31,12.44l-0.37 0.28c-60.91,38.67 -129.63,57.97 -200.38,66.06 -69.95,7.99 -141.94,4.95 -210.23,-1.13l-0.74 -0.05c-6.3,-0.95 -13,-2.09 -20.05,-3.41 -7.27,-1.36 -13.88,-2.71 -19.9,-4.03 -26.27,-5.79 -52.27,-13.2 -77.75,-22.48 -25.38,-9.25 -50.09,-20.34 -73.87,-33.51l-0.46 -0.28c-11.88,-7.32 -23.32,-15.17 -34.31,-23.53l0.02 -0.02c-5.78,-4.39 -11.16,-8.71 -16.13,-12.92 -5.38,-4.56 -10.67,-9.29 -15.85,-14.14 -4.69,-4.35 -9.4,-8.88 -14.12,-13.59 -4.74,-4.73 -9.3,-9.45 -13.67,-14.15 -46.14,-49.53 -82.07,-106.94 -106.47,-168.91 -24.39,-61.94 -37.25,-128.41 -37.25,-196.07l0 -0.69zm174.04 -363.1c-92.92,92.92 -150.4,221.3 -150.4,363.09l0 0.7c0,64.75 12.28,128.3 35.58,187.48 23.32,59.22 57.66,114.09 101.77,161.43 4.36,4.69 8.7,9.19 13.02,13.5 4.34,4.34 8.86,8.69 13.56,13.04l0.05 0.05c4.84,4.53 9.83,8.99 14.98,13.35 5.24,4.44 10.31,8.53 15.15,12.21l0.05 0c10.43,7.94 21.1,15.28 32.02,22.02 22.57,12.5 46.11,23.05 70.34,31.88 24.18,8.81 49.21,15.93 74.79,21.56 6.95,1.53 13.37,2.86 19.16,3.94 6.01,1.13 12.41,2.2 19.22,3.23l-0 0.02c66.61,5.91 136.75,8.84 204.78,1.06 67.49,-7.71 132.84,-26.01 190.41,-62.55l0.01 0.02c5.61,-3.87 11,-7.74 16.19,-11.63 5.33,-3.99 10.68,-8.17 16.07,-12.54 60,-48.59 107.47,-109.52 139.96,-177.64 32.46,-68.09 49.92,-143.34 49.92,-220.62l0 -0.5c0,-141.8 -57.48,-270.18 -150.4,-363.1 -92.93,-92.93 -221.3,-150.4 -363.1,-150.4 -141.8,0 -270.18,57.48 -363.1,150.4z"/>
  </g>
 </g>
</svg>
