<?xml version="1.0" encoding="UTF-8"?>
<!DOCTYPE svg PUBLIC "-//W3C//DTD SVG 1.1//EN" "http://www.w3.org/Graphics/SVG/1.1/DTD/svg11.dtd">
<!-- Creator: CorelDRAW 2020 (64-Bit Evaluation Version) -->
<svg xmlns="http://www.w3.org/2000/svg" xml:space="preserve" width="42.3333mm" height="42.3333mm" version="1.1" style="shape-rendering:geometricPrecision; text-rendering:geometricPrecision; image-rendering:optimizeQuality; fill-rule:evenodd; clip-rule:evenodd"
viewBox="0 0 1193.64 1193.64"
 xmlns:xlink="http://www.w3.org/1999/xlink"
 xmlns:xodm="http://www.corel.com/coreldraw/odm/2003">
 <defs>
  <style type="text/css">
   <![CDATA[
    .fil0 {fill:none}
    .fil2 {fill:#592D3D;fill-rule:nonzero}
    .fil1 {fill:#CCCCCC;fill-rule:nonzero}
    .fil4 {fill:#E6E6E6;fill-rule:nonzero}
    .fil3 {fill:#F28195;fill-rule:nonzero}
   ]]>
  </style>
 </defs>
 <g id="Layer_x0020_1">
  <metadata id="CorelCorpID_0Corel-Layer"/>
  <rect class="fil0" x="-0" y="-0" width="1193.64" height="1193.64"/>
  <g id="_1748828343936">
   <path class="fil1" d="M71.5 608.52c0,-290.13 235.2,-525.33 525.32,-525.33 290.12,0 525.32,235.2 525.32,525.33 0,0.12 0,0.37 0,0.5 0,158.1 -71.43,307.94 -194.26,407.4 -10.79,8.76 -21.92,17.09 -33.38,24.98 -118.48,75.21 -268.14,75.21 -403.26,63.18 -13.12,-1.97 -26.19,-4.45 -39.17,-7.31 -51.85,-11.42 -102.05,-29.05 -148.43,-54.75 -11.46,-7.06 -22.57,-14.69 -33.34,-22.88 -10.79,-8.2 -21.21,-17.08 -31.09,-26.34 -9.39,-8.71 -18.45,-17.76 -27.18,-27.14 -90.23,-96.85 -140.53,-224.5 -140.53,-356.95 0,-0.19 0,-0.51 0,-0.7l0 0.01z"/>
   <path class="fil2" d="M59.68 608.52c0,-148.32 60.12,-282.61 157.33,-379.81 97.2,-97.2 231.49,-157.33 379.81,-157.33 148.32,0 282.61,60.12 379.81,157.33 97.2,97.2 157.33,231.49 157.33,379.81l0 0.5c0,80.82 -18.27,159.54 -52.23,230.78 -33.94,71.18 -83.6,134.9 -146.42,185.77 -5.41,4.39 -11.01,8.75 -16.81,13.09 -5.82,4.35 -11.59,8.5 -17.31,12.44l-0.37 0.28c-60.91,38.67 -129.63,57.97 -200.38,66.06 -69.95,7.99 -141.94,4.95 -210.23,-1.13l-0.74 -0.05c-6.3,-0.95 -13,-2.09 -20.05,-3.41 -7.27,-1.36 -13.88,-2.71 -19.9,-4.03 -26.27,-5.79 -52.27,-13.2 -77.75,-22.48 -25.38,-9.25 -50.09,-20.34 -73.87,-33.51l-0.46 -0.28c-11.88,-7.32 -23.32,-15.17 -34.31,-23.53l0.02 -0.02c-5.78,-4.39 -11.16,-8.71 -16.13,-12.92 -5.38,-4.56 -10.67,-9.29 -15.85,-14.14 -4.69,-4.35 -9.4,-8.88 -14.12,-13.59 -4.74,-4.73 -9.3,-9.45 -13.67,-14.15 -46.14,-49.53 -82.07,-106.94 -106.47,-168.91 -24.39,-61.94 -37.25,-128.41 -37.25,-196.07l0 -0.69zm174.04 -363.1c-92.92,92.92 -150.4,221.3 -150.4,363.09l0 0.7c0,64.75 12.28,128.3 35.58,187.48 23.32,59.22 57.66,114.09 101.77,161.43 4.36,4.69 8.7,9.19 13.02,13.5 4.34,4.34 8.86,8.69 13.56,13.04l0.05 0.05c4.84,4.53 9.83,8.99 14.98,13.35 5.24,4.44 10.31,8.53 15.15,12.21l0.05 0c10.43,7.94 21.1,15.28 32.02,22.02 22.57,12.5 46.11,23.05 70.34,31.88 24.18,8.81 49.21,15.93 74.79,21.56 6.95,1.53 13.37,2.86 19.16,3.94 6.01,1.13 12.41,2.2 19.22,3.23l-0 0.02c66.61,5.91 136.75,8.84 204.78,1.06 67.49,-7.71 132.84,-26.01 190.41,-62.55l0.01 0.02c5.61,-3.87 11,-7.74 16.19,-11.63 5.33,-3.99 10.68,-8.17 16.07,-12.54 60,-48.59 107.47,-109.52 139.96,-177.64 32.46,-68.09 49.92,-143.34 49.92,-220.62l0 -0.5c0,-141.8 -57.48,-270.18 -150.4,-363.1 -92.93,-92.93 -221.3,-150.4 -363.1,-150.4 -141.8,0 -270.18,57.48 -363.1,150.4z"/>
   <path class="fil2" d="M484.85 848.51c0,-37.22 223.95,-31.63 223.95,0 0,61.83 -50.14,111.98 -111.98,111.98 -61.83,0 -111.98,-50.14 -111.98,-111.98l0 0z"/>
   <path class="fil2" d="M478.94 848.51c0,-16.67 29.05,-26.18 67.07,-29.8 14.34,-1.36 30.07,-2 45.93,-1.94 15.86,0.06 31.83,0.8 46.68,2.18 42.29,3.94 76.1,14 76.1,29.56 0,32.54 -13.2,62.02 -34.53,83.35 -21.34,21.33 -50.81,34.53 -83.35,34.53 -32.55,0 -62.02,-13.2 -83.35,-34.53 -18.34,-18.34 -30.67,-42.7 -33.77,-69.86l-0.77 0.77 0 -14.26zm68.18 -18.08c-31.92,3.04 -56.32,9.02 -56.36,18.05l0 0.02c0,29.29 11.88,55.81 31.07,75 19.2,19.2 45.71,31.07 75,31.07 29.28,0 55.8,-11.88 75,-31.07 19.19,-19.19 31.07,-45.71 31.07,-75 0,-8.13 -29.03,-14.46 -65.34,-17.84 -14.54,-1.35 -30.15,-2.08 -45.61,-2.14 -15.47,-0.05 -30.81,0.56 -44.82,1.9z"/>
   <path class="fil3" d="M660.81 897.23c0,-15.87 -28.65,-28.75 -63.98,-28.75 -35.33,0 -63.98,12.88 -63.98,28.75l0 0 0 87.32c0,28.38 28.65,51.36 63.98,51.36 35.33,0 63.98,-22.98 63.98,-51.36l0 -87.3 0 -0.02z"/>
   <path class="fil4" d="M660.81 897.23c0,-15.87 -28.65,-28.75 -63.98,-28.75 -35.33,0 -63.98,12.88 -63.98,28.75l0 0 0 87.32c0,28.38 28.65,51.36 63.98,51.36 35.33,0 63.98,-22.98 63.98,-51.36l0 -87.3 0 -0.02z"/>
   <path class="fil2" d="M652.93 897.23c0,-4.56 -5.38,-9.25 -14.07,-13.16 -10.6,-4.77 -25.46,-7.71 -42.04,-7.71 -16.58,0 -31.43,2.95 -42.04,7.71 -8.69,3.91 -14.07,8.6 -14.07,13.16l0 87.32c0,11.68 6.03,22.37 15.78,30.2 10.23,8.21 24.48,13.29 40.32,13.29 15.84,0 30.09,-5.08 40.32,-13.29 9.75,-7.83 15.78,-18.51 15.78,-30.2l0 -87.32zm-7.67 -27.5c14.47,6.5 23.42,16.18 23.42,27.5l0 87.32c0,16.69 -8.29,31.68 -21.69,42.44 -12.93,10.38 -30.67,16.8 -50.17,16.8 -19.49,0 -37.24,-6.42 -50.17,-16.8 -13.4,-10.76 -21.69,-25.75 -21.69,-42.44l0 -87.32c0,-11.31 8.95,-21 23.42,-27.5 12.55,-5.64 29.69,-9.13 48.44,-9.13 18.75,0 35.89,3.49 48.44,9.13z"/>
   <path class="fil2" d="M556.08 857.84l1.79 -0.41 1.5 -0.28c0.96,-0.16 1.97,-0.28 2.87,-0.36 1.42,-0.14 2.87,-0.22 4.3,-0.22 0.46,0 0.93,0.01 1.39,0.02 3.84,0.08 7.69,0.62 11.41,1.6 7.79,1.98 14.87,6.17 20.36,12.04 5.18,5.53 8.66,12.45 10.01,19.91 0.35,1.96 0.53,3.96 0.53,5.96 0,4.99 -1.11,9.91 -3.23,14.42 -4.1,-5.77 -7.21,-10.93 -10.48,-15.28 -1.47,-2.08 -3.09,-4.06 -4.84,-5.91 -1.58,-1.63 -3.37,-3.06 -5.3,-4.26 -3.67,-2.2 -7.78,-3.6 -12.03,-4.09 -2.18,-0.28 -4.4,-0.43 -6.61,-0.43 -0.05,0 -0.1,0 -0.15,0 -1.16,0 -2.32,0 -3.47,0l-1.67 0.12 -0.79 0c-0.17,0 -0.57,0 -0.43,0l-5.16 -22.82z"/>
  </g>
 </g>
</svg>
