<?xml version="1.0" encoding="UTF-8"?>
<!DOCTYPE svg PUBLIC "-//W3C//DTD SVG 1.1//EN" "http://www.w3.org/Graphics/SVG/1.1/DTD/svg11.dtd">
<!-- Creator: CorelDRAW 2020 (64-Bit Evaluation Version) -->
<svg xmlns="http://www.w3.org/2000/svg" xml:space="preserve" width="42.3333mm" height="42.3333mm" version="1.1" style="shape-rendering:geometricPrecision; text-rendering:geometricPrecision; image-rendering:optimizeQuality; fill-rule:evenodd; clip-rule:evenodd"
viewBox="0 0 1193.64 1193.64"
 xmlns:xlink="http://www.w3.org/1999/xlink"
 xmlns:xodm="http://www.corel.com/coreldraw/odm/2003">
 <defs>
  <style type="text/css">
   <![CDATA[
    .fil0 {fill:none}
    .fil1 {fill:#FF6161;fill-rule:nonzero}
   ]]>
  </style>
 </defs>
 <g id="Layer_x0020_1">
  <metadata id="CorelCorpID_0Corel-Layer"/>
  <rect class="fil0" x="-0" y="-0" width="1193.64" height="1193.64"/>
  <path class="fil1" d="M596.82 119.36c131.83,0 251.2,53.45 337.61,139.85 86.4,86.4 139.85,205.77 139.85,337.61 0,131.83 -53.45,251.2 -139.85,337.61 -86.4,86.4 -205.77,139.85 -337.61,139.85 -131.83,0 -251.2,-53.45 -337.61,-139.85 -86.4,-86.4 -139.85,-205.77 -139.85,-337.61 0,-131.83 53.45,-251.2 139.85,-337.61 86.4,-86.4 205.77,-139.85 337.61,-139.85zm253.22 224.24c-64.8,-64.8 -154.32,-104.88 -253.22,-104.88 -98.89,0 -188.42,40.08 -253.22,104.88 -64.8,64.8 -104.88,154.32 -104.88,253.22 0,98.89 40.08,188.42 104.88,253.22 64.8,64.8 154.32,104.88 253.22,104.88 98.89,0 188.42,-40.08 253.22,-104.88 64.8,-64.8 104.88,-154.32 104.88,-253.22 0,-98.89 -40.08,-188.42 -104.88,-253.22z"/>
  <polygon class="fil1" points="266.24,858.95 841.05,252.54 927.31,334.6 352.5,941.01 "/>
 </g>
</svg>
